<?xml version="1.0" encoding="UTF-8" standalone="no"?>
<!DOCTYPE svg PUBLIC "-//W3C//DTD SVG 1.1//EN"
 "http://www.w3.org/Graphics/SVG/1.1/DTD/svg11.dtd">
<!-- Generated by graphviz version 2.44.0 ()
 -->
<!-- Title: include/zpp/clock.hpp Pages: 1 -->
<svg width="1131pt" height="453pt"
 viewBox="0.00 0.00 1130.99 453.00" xmlns="http://www.w3.org/2000/svg" xmlns:xlink="http://www.w3.org/1999/xlink">
<g id="graph0" class="graph" transform="scale(1 1) rotate(0) translate(4 449)">
<title>include/zpp/clock.hpp</title>
<!-- Node1 -->
<g id="node1" class="node">
<title>Node1</title>
<g id="a_node1"><a xlink:title=" ">
<polygon fill="#bfbfbf" stroke="black" points="601.5,-425.5 601.5,-444.5 711.5,-444.5 711.5,-425.5 601.5,-425.5"/>
<text text-anchor="middle" x="656.5" y="-432.5" font-family="Helvetica,sans-Serif" font-size="10.00">include/zpp/clock.hpp</text>
</a>
</g>
</g>
<!-- Node2 -->
<g id="node2" class="node">
<title>Node2</title>
<g id="a_node2"><a xlink:href="poll__event__set_8hpp.html" target="_top" xlink:title=" ">
<polygon fill="none" stroke="black" points="827,-190.5 827,-220.5 940,-220.5 940,-190.5 827,-190.5"/>
<text text-anchor="start" x="835" y="-208.5" font-family="Helvetica,sans-Serif" font-size="10.00">include/zpp/poll_event</text>
<text text-anchor="middle" x="883.5" y="-197.5" font-family="Helvetica,sans-Serif" font-size="10.00">_set.hpp</text>
</a>
</g>
</g>
<!-- Node1&#45;&gt;Node2 -->
<g id="edge1" class="edge">
<title>Node1&#45;&gt;Node2</title>
<path fill="none" stroke="midnightblue" d="M702.21,-423.15C740.49,-414.05 796.57,-400.71 845.5,-389 973.45,-358.39 1078.62,-402.05 1119.5,-277 1122.26,-268.55 1125.09,-263.91 1119.5,-257 1097.37,-229.63 1002.65,-216.44 940.14,-210.6"/>
<polygon fill="midnightblue" stroke="midnightblue" points="701.31,-419.76 692.39,-425.48 702.92,-426.57 701.31,-419.76"/>
</g>
<!-- Node4 -->
<g id="node4" class="node">
<title>Node4</title>
<g id="a_node4"><a xlink:href="zpp_8hpp.html" target="_top" xlink:title=" ">
<polygon fill="none" stroke="black" points="380,-78.5 380,-97.5 463,-97.5 463,-78.5 380,-78.5"/>
<text text-anchor="middle" x="421.5" y="-85.5" font-family="Helvetica,sans-Serif" font-size="10.00">include/zpp.hpp</text>
</a>
</g>
</g>
<!-- Node1&#45;&gt;Node4 -->
<g id="edge32" class="edge">
<title>Node1&#45;&gt;Node4</title>
<path fill="none" stroke="midnightblue" d="M591.24,-434.44C533.58,-432.3 448.77,-422.84 383.5,-389 347.51,-370.34 319.5,-364.54 319.5,-324 319.5,-324 319.5,-324 319.5,-204.5 319.5,-153.4 376.28,-114.26 405.11,-97.67"/>
<polygon fill="midnightblue" stroke="midnightblue" points="591.21,-437.94 601.32,-434.75 591.43,-430.94 591.21,-437.94"/>
</g>
<!-- Node12 -->
<g id="node12" class="node">
<title>Node12</title>
<g id="a_node12"><a xlink:href="thread_8hpp.html" target="_top" xlink:title=" ">
<polygon fill="none" stroke="black" points="600,-369.5 600,-388.5 713,-388.5 713,-369.5 600,-369.5"/>
<text text-anchor="middle" x="656.5" y="-376.5" font-family="Helvetica,sans-Serif" font-size="10.00">include/zpp/thread.hpp</text>
</a>
</g>
</g>
<!-- Node1&#45;&gt;Node12 -->
<g id="edge11" class="edge">
<title>Node1&#45;&gt;Node12</title>
<path fill="none" stroke="midnightblue" d="M656.5,-414.8C656.5,-405.91 656.5,-395.78 656.5,-388.75"/>
<polygon fill="midnightblue" stroke="midnightblue" points="653,-415.08 656.5,-425.08 660,-415.08 653,-415.08"/>
</g>
<!-- Node18 -->
<g id="node18" class="node">
<title>Node18</title>
<g id="a_node18"><a xlink:href="tests_2clock_2src_2main_8cpp.html" target="_top" xlink:title=" ">
<polygon fill="none" stroke="black" points="946,-313.5 946,-332.5 1069,-332.5 1069,-313.5 946,-313.5"/>
<text text-anchor="middle" x="1007.5" y="-320.5" font-family="Helvetica,sans-Serif" font-size="10.00">tests/clock/src/main.cpp</text>
</a>
</g>
</g>
<!-- Node1&#45;&gt;Node18 -->
<g id="edge33" class="edge">
<title>Node1&#45;&gt;Node18</title>
<path fill="none" stroke="midnightblue" d="M693.58,-422.38C764.42,-400.18 917.48,-352.21 980.03,-332.61"/>
<polygon fill="midnightblue" stroke="midnightblue" points="692.25,-419.13 683.75,-425.46 694.34,-425.81 692.25,-419.13"/>
</g>
<!-- Node21 -->
<g id="node21" class="node">
<title>Node21</title>
<g id="a_node21"><a xlink:href="timer_8hpp.html" target="_top" xlink:title=" ">
<polygon fill="none" stroke="black" points="392.5,-369.5 392.5,-388.5 500.5,-388.5 500.5,-369.5 392.5,-369.5"/>
<text text-anchor="middle" x="446.5" y="-376.5" font-family="Helvetica,sans-Serif" font-size="10.00">include/zpp/timer.hpp</text>
</a>
</g>
</g>
<!-- Node1&#45;&gt;Node21 -->
<g id="edge29" class="edge">
<title>Node1&#45;&gt;Node21</title>
<path fill="none" stroke="midnightblue" d="M613.31,-422.89C573.65,-412.7 515.73,-397.8 479.62,-388.52"/>
<polygon fill="midnightblue" stroke="midnightblue" points="612.67,-426.34 623.22,-425.44 614.41,-419.56 612.67,-426.34"/>
</g>
<!-- Node3 -->
<g id="node3" class="node">
<title>Node3</title>
<g id="a_node3"><a xlink:href="poll_8hpp.html" target="_top" xlink:title=" ">
<polygon fill="none" stroke="black" points="802,-134.5 802,-153.5 903,-153.5 903,-134.5 802,-134.5"/>
<text text-anchor="middle" x="852.5" y="-141.5" font-family="Helvetica,sans-Serif" font-size="10.00">include/zpp/poll.hpp</text>
</a>
</g>
</g>
<!-- Node2&#45;&gt;Node3 -->
<g id="edge2" class="edge">
<title>Node2&#45;&gt;Node3</title>
<path fill="none" stroke="midnightblue" d="M871.52,-181.5C866.43,-171.74 860.81,-160.96 857.01,-153.66"/>
<polygon fill="midnightblue" stroke="midnightblue" points="868.43,-183.15 876.15,-190.4 874.64,-179.91 868.43,-183.15"/>
</g>
<!-- Node3&#45;&gt;Node4 -->
<g id="edge3" class="edge">
<title>Node3&#45;&gt;Node4</title>
<path fill="none" stroke="midnightblue" d="M791.85,-135.4C702.95,-124.26 539.53,-103.79 463.03,-94.2"/>
<polygon fill="midnightblue" stroke="midnightblue" points="791.43,-138.88 801.79,-136.65 792.3,-131.93 791.43,-138.88"/>
</g>
<!-- Node11 -->
<g id="node11" class="node">
<title>Node11</title>
<g id="a_node11"><a xlink:href="tests_2poll_2src_2main_8cpp.html" target="_top" xlink:title=" ">
<polygon fill="none" stroke="black" points="853,-78.5 853,-97.5 968,-97.5 968,-78.5 853,-78.5"/>
<text text-anchor="middle" x="910.5" y="-85.5" font-family="Helvetica,sans-Serif" font-size="10.00">tests/poll/src/main.cpp</text>
</a>
</g>
</g>
<!-- Node3&#45;&gt;Node11 -->
<g id="edge10" class="edge">
<title>Node3&#45;&gt;Node11</title>
<path fill="none" stroke="midnightblue" d="M869.41,-127.25C879.7,-117.67 892.47,-105.79 901.01,-97.83"/>
<polygon fill="midnightblue" stroke="midnightblue" points="866.75,-124.95 861.82,-134.32 871.52,-130.07 866.75,-124.95"/>
</g>
<!-- Node5 -->
<g id="node5" class="node">
<title>Node5</title>
<g id="a_node5"><a xlink:href="samples_2hello__world_2src_2main_8cpp.html" target="_top" xlink:title=" ">
<polygon fill="none" stroke="black" points="0,-6 0,-36 105,-36 105,-6 0,-6"/>
<text text-anchor="start" x="8" y="-24" font-family="Helvetica,sans-Serif" font-size="10.00">samples/hello_world</text>
<text text-anchor="middle" x="52.5" y="-13" font-family="Helvetica,sans-Serif" font-size="10.00">/src/main.cpp</text>
</a>
</g>
</g>
<!-- Node4&#45;&gt;Node5 -->
<g id="edge4" class="edge">
<title>Node4&#45;&gt;Node5</title>
<path fill="none" stroke="midnightblue" d="M369.48,-82.15C307.83,-75.78 202.26,-62.87 113.5,-42 106.45,-40.34 99.04,-38.24 91.92,-36.02"/>
<polygon fill="midnightblue" stroke="midnightblue" points="369.42,-85.67 379.73,-83.2 370.13,-78.7 369.42,-85.67"/>
</g>
<!-- Node6 -->
<g id="node6" class="node">
<title>Node6</title>
<g id="a_node6"><a xlink:href="samples_2kernel_2condition__variables_2condvar_2src_2main_8cpp.html" target="_top" xlink:title=" ">
<polygon fill="none" stroke="black" points="123,-0.5 123,-41.5 248,-41.5 248,-0.5 123,-0.5"/>
<text text-anchor="start" x="131" y="-29.5" font-family="Helvetica,sans-Serif" font-size="10.00">samples/kernel/condition</text>
<text text-anchor="start" x="131" y="-18.5" font-family="Helvetica,sans-Serif" font-size="10.00">_variables/condvar/src</text>
<text text-anchor="middle" x="185.5" y="-7.5" font-family="Helvetica,sans-Serif" font-size="10.00">/main.cpp</text>
</a>
</g>
</g>
<!-- Node4&#45;&gt;Node6 -->
<g id="edge5" class="edge">
<title>Node4&#45;&gt;Node6</title>
<path fill="none" stroke="midnightblue" d="M379.98,-75.78C346.6,-66.73 298.51,-53.64 256.5,-42 253.79,-41.25 251.01,-40.48 248.21,-39.7"/>
<polygon fill="midnightblue" stroke="midnightblue" points="379.28,-79.22 389.85,-78.45 381.11,-72.46 379.28,-79.22"/>
</g>
<!-- Node7 -->
<g id="node7" class="node">
<title>Node7</title>
<g id="a_node7"><a xlink:href="samples_2kernel_2condition__variables_2simple_2src_2main_8cpp.html" target="_top" xlink:title=" ">
<polygon fill="none" stroke="black" points="266,-6 266,-36 417,-36 417,-6 266,-6"/>
<text text-anchor="start" x="274" y="-24" font-family="Helvetica,sans-Serif" font-size="10.00">samples/kernel/condition</text>
<text text-anchor="middle" x="341.5" y="-13" font-family="Helvetica,sans-Serif" font-size="10.00">_variables/simple/src/main.cpp</text>
</a>
</g>
</g>
<!-- Node4&#45;&gt;Node7 -->
<g id="edge6" class="edge">
<title>Node4&#45;&gt;Node7</title>
<path fill="none" stroke="midnightblue" d="M402.71,-71.74C389.44,-60.95 371.78,-46.6 358.84,-36.09"/>
<polygon fill="midnightblue" stroke="midnightblue" points="400.74,-74.64 410.71,-78.23 405.16,-69.21 400.74,-74.64"/>
</g>
<!-- Node8 -->
<g id="node8" class="node">
<title>Node8</title>
<g id="a_node8"><a xlink:href="tests_2compile_2src_2main_8cpp.html" target="_top" xlink:title=" ">
<polygon fill="none" stroke="black" points="435.5,-11.5 435.5,-30.5 569.5,-30.5 569.5,-11.5 435.5,-11.5"/>
<text text-anchor="middle" x="502.5" y="-18.5" font-family="Helvetica,sans-Serif" font-size="10.00">tests/compile/src/main.cpp</text>
</a>
</g>
</g>
<!-- Node4&#45;&gt;Node8 -->
<g id="edge7" class="edge">
<title>Node4&#45;&gt;Node8</title>
<path fill="none" stroke="midnightblue" d="M440.55,-71.71C456.51,-58.91 478.71,-41.09 491.75,-30.63"/>
<polygon fill="midnightblue" stroke="midnightblue" points="438.03,-69.25 432.42,-78.23 442.41,-74.7 438.03,-69.25"/>
</g>
<!-- Node9 -->
<g id="node9" class="node">
<title>Node9</title>
<g id="a_node9"><a xlink:href="tests_2condition__variable_2src_2main_8cpp.html" target="_top" xlink:title=" ">
<polygon fill="none" stroke="black" points="588,-6 588,-36 707,-36 707,-6 588,-6"/>
<text text-anchor="start" x="596" y="-24" font-family="Helvetica,sans-Serif" font-size="10.00">tests/condition_variable</text>
<text text-anchor="middle" x="647.5" y="-13" font-family="Helvetica,sans-Serif" font-size="10.00">/src/main.cpp</text>
</a>
</g>
</g>
<!-- Node4&#45;&gt;Node9 -->
<g id="edge8" class="edge">
<title>Node4&#45;&gt;Node9</title>
<path fill="none" stroke="midnightblue" d="M461.11,-75.68C492.86,-66.6 538.55,-53.52 578.5,-42 585.21,-40.07 592.29,-38.02 599.25,-36.01"/>
<polygon fill="midnightblue" stroke="midnightblue" points="459.97,-72.37 451.31,-78.48 461.89,-79.1 459.97,-72.37"/>
</g>
<!-- Node10 -->
<g id="node10" class="node">
<title>Node10</title>
<g id="a_node10"><a xlink:href="tests_2result_2src_2main_8cpp.html" target="_top" xlink:title=" ">
<polygon fill="none" stroke="black" points="725.5,-11.5 725.5,-30.5 849.5,-30.5 849.5,-11.5 725.5,-11.5"/>
<text text-anchor="middle" x="787.5" y="-18.5" font-family="Helvetica,sans-Serif" font-size="10.00">tests/result/src/main.cpp</text>
</a>
</g>
</g>
<!-- Node4&#45;&gt;Node10 -->
<g id="edge9" class="edge">
<title>Node4&#45;&gt;Node10</title>
<path fill="none" stroke="midnightblue" d="M473.54,-81.03C532.76,-73.78 632.19,-60.23 716.5,-42 731.02,-38.86 746.96,-34.46 760.05,-30.58"/>
<polygon fill="midnightblue" stroke="midnightblue" points="472.83,-77.59 463.32,-82.27 473.67,-84.54 472.83,-77.59"/>
</g>
<!-- Node12&#45;&gt;Node4 -->
<g id="edge22" class="edge">
<title>Node12&#45;&gt;Node4</title>
<path fill="none" stroke="midnightblue" d="M628.66,-365.13C570.84,-338.39 442.98,-279.08 441.5,-277 400.76,-219.78 414.15,-126.85 419.65,-97.9"/>
<polygon fill="midnightblue" stroke="midnightblue" points="627.41,-368.41 637.95,-369.43 630.34,-362.06 627.41,-368.41"/>
</g>
<!-- Node13 -->
<g id="node13" class="node">
<title>Node13</title>
<g id="a_node13"><a xlink:href="sem_8hpp.html" target="_top" xlink:title=" ">
<polygon fill="none" stroke="black" points="784,-313.5 784,-332.5 889,-332.5 889,-313.5 784,-313.5"/>
<text text-anchor="middle" x="836.5" y="-320.5" font-family="Helvetica,sans-Serif" font-size="10.00">include/zpp/sem.hpp</text>
</a>
</g>
</g>
<!-- Node12&#45;&gt;Node13 -->
<g id="edge12" class="edge">
<title>Node12&#45;&gt;Node13</title>
<path fill="none" stroke="midnightblue" d="M694.61,-366.57C728.56,-356.38 777.49,-341.7 808.11,-332.52"/>
<polygon fill="midnightblue" stroke="midnightblue" points="693.59,-363.22 685.02,-369.44 695.61,-369.92 693.59,-363.22"/>
</g>
<!-- Node15 -->
<g id="node15" class="node">
<title>Node15</title>
<g id="a_node15"><a xlink:href="tests_2fifo_2src_2main_8cpp.html" target="_top" xlink:title=" ">
<polygon fill="none" stroke="black" points="997,-257.5 997,-276.5 1110,-276.5 1110,-257.5 997,-257.5"/>
<text text-anchor="middle" x="1053.5" y="-264.5" font-family="Helvetica,sans-Serif" font-size="10.00">tests/fifo/src/main.cpp</text>
</a>
</g>
</g>
<!-- Node12&#45;&gt;Node15 -->
<g id="edge24" class="edge">
<title>Node12&#45;&gt;Node15</title>
<path fill="none" stroke="midnightblue" d="M723.35,-370.86C772.7,-364.33 840.99,-352.63 898.5,-333 916.94,-326.71 919.73,-320.98 937.5,-313 968.64,-299.02 1005.53,-285.16 1029.21,-276.59"/>
<polygon fill="midnightblue" stroke="midnightblue" points="722.9,-367.39 713.43,-372.14 723.8,-374.34 722.9,-367.39"/>
</g>
<!-- Node16 -->
<g id="node16" class="node">
<title>Node16</title>
<g id="a_node16"><a xlink:href="tests_2sem_2src_2main_8cpp.html" target="_top" xlink:title=" ">
<polygon fill="none" stroke="black" points="450,-257.5 450,-276.5 569,-276.5 569,-257.5 450,-257.5"/>
<text text-anchor="middle" x="509.5" y="-264.5" font-family="Helvetica,sans-Serif" font-size="10.00">tests/sem/src/main.cpp</text>
</a>
</g>
</g>
<!-- Node12&#45;&gt;Node16 -->
<g id="edge26" class="edge">
<title>Node12&#45;&gt;Node16</title>
<path fill="none" stroke="midnightblue" d="M636.61,-363.12C605.41,-339.77 545.94,-295.27 520.98,-276.59"/>
<polygon fill="midnightblue" stroke="midnightblue" points="634.86,-366.18 644.97,-369.37 639.06,-360.57 634.86,-366.18"/>
</g>
<!-- Node17 -->
<g id="node17" class="node">
<title>Node17</title>
<g id="a_node17"><a xlink:href="tests_2thread_2src_2main_8cpp.html" target="_top" xlink:title=" ">
<polygon fill="none" stroke="black" points="587,-257.5 587,-276.5 714,-276.5 714,-257.5 587,-257.5"/>
<text text-anchor="middle" x="650.5" y="-264.5" font-family="Helvetica,sans-Serif" font-size="10.00">tests/thread/src/main.cpp</text>
</a>
</g>
</g>
<!-- Node12&#45;&gt;Node17 -->
<g id="edge27" class="edge">
<title>Node12&#45;&gt;Node17</title>
<path fill="none" stroke="midnightblue" d="M643.77,-360.9C638.57,-352.87 633.15,-342.9 630.5,-333 625.06,-312.7 636.85,-289.21 644.55,-276.77"/>
<polygon fill="midnightblue" stroke="midnightblue" points="641.04,-363.09 649.61,-369.32 646.79,-359.11 641.04,-363.09"/>
</g>
<!-- Node12&#45;&gt;Node18 -->
<g id="edge23" class="edge">
<title>Node12&#45;&gt;Node18</title>
<path fill="none" stroke="midnightblue" d="M722.04,-367.92C788.35,-357.71 889.74,-342.12 952.14,-332.52"/>
<polygon fill="midnightblue" stroke="midnightblue" points="721.47,-364.46 712.12,-369.44 722.53,-371.38 721.47,-364.46"/>
</g>
<!-- Node19 -->
<g id="node19" class="node">
<title>Node19</title>
<g id="a_node19"><a xlink:href="tests_2mutex_2src_2main_8cpp.html" target="_top" xlink:title=" ">
<polygon fill="none" stroke="black" points="639.5,-313.5 639.5,-332.5 765.5,-332.5 765.5,-313.5 639.5,-313.5"/>
<text text-anchor="middle" x="702.5" y="-320.5" font-family="Helvetica,sans-Serif" font-size="10.00">tests/mutex/src/main.cpp</text>
</a>
</g>
</g>
<!-- Node12&#45;&gt;Node19 -->
<g id="edge25" class="edge">
<title>Node12&#45;&gt;Node19</title>
<path fill="none" stroke="midnightblue" d="M670.61,-361.43C678.68,-351.97 688.46,-340.48 695.05,-332.75"/>
<polygon fill="midnightblue" stroke="midnightblue" points="667.92,-359.2 664.1,-369.08 673.25,-363.74 667.92,-359.2"/>
</g>
<!-- Node20 -->
<g id="node20" class="node">
<title>Node20</title>
<g id="a_node20"><a xlink:href="tests_2timer_2src_2main_8cpp.html" target="_top" xlink:title=" ">
<polygon fill="none" stroke="black" points="385.5,-313.5 385.5,-332.5 507.5,-332.5 507.5,-313.5 385.5,-313.5"/>
<text text-anchor="middle" x="446.5" y="-320.5" font-family="Helvetica,sans-Serif" font-size="10.00">tests/timer/src/main.cpp</text>
</a>
</g>
</g>
<!-- Node12&#45;&gt;Node20 -->
<g id="edge28" class="edge">
<title>Node12&#45;&gt;Node20</title>
<path fill="none" stroke="midnightblue" d="M613.31,-366.89C573.65,-356.7 515.73,-341.8 479.62,-332.52"/>
<polygon fill="midnightblue" stroke="midnightblue" points="612.67,-370.34 623.22,-369.44 614.41,-363.56 612.67,-370.34"/>
</g>
<!-- Node13&#45;&gt;Node2 -->
<g id="edge16" class="edge">
<title>Node13&#45;&gt;Node2</title>
<path fill="none" stroke="midnightblue" d="M873.21,-309.27C887.84,-302.18 903.15,-291.74 911.5,-277 922.01,-258.43 908.01,-235.13 896.3,-220.53"/>
<polygon fill="midnightblue" stroke="midnightblue" points="871.5,-306.2 863.78,-313.45 874.34,-312.6 871.5,-306.2"/>
</g>
<!-- Node13&#45;&gt;Node4 -->
<g id="edge17" class="edge">
<title>Node13&#45;&gt;Node4</title>
<path fill="none" stroke="midnightblue" d="M812.89,-308.29C790.07,-295.06 754.49,-274.53 723.5,-257 614.36,-195.26 482.14,-122.35 437.26,-97.67"/>
<polygon fill="midnightblue" stroke="midnightblue" points="811.14,-311.32 821.55,-313.31 814.66,-305.27 811.14,-311.32"/>
</g>
<!-- Node13&#45;&gt;Node11 -->
<g id="edge19" class="edge">
<title>Node13&#45;&gt;Node11</title>
<path fill="none" stroke="midnightblue" d="M875.24,-309.75C892.79,-302.56 912.66,-291.9 926.5,-277 944.81,-257.28 944.29,-247.4 949.5,-221 958.89,-173.41 928.87,-118.29 916.03,-97.51"/>
<polygon fill="midnightblue" stroke="midnightblue" points="873.86,-306.53 865.78,-313.39 876.37,-313.06 873.86,-306.53"/>
</g>
<!-- Node14 -->
<g id="node14" class="node">
<title>Node14</title>
<g id="a_node14"><a xlink:href="poll__event_8hpp.html" target="_top" xlink:title=" ">
<polygon fill="none" stroke="black" points="771,-257.5 771,-276.5 902,-276.5 902,-257.5 771,-257.5"/>
<text text-anchor="middle" x="836.5" y="-264.5" font-family="Helvetica,sans-Serif" font-size="10.00">include/zpp/poll_event.hpp</text>
</a>
</g>
</g>
<!-- Node13&#45;&gt;Node14 -->
<g id="edge13" class="edge">
<title>Node13&#45;&gt;Node14</title>
<path fill="none" stroke="midnightblue" d="M836.5,-302.8C836.5,-293.91 836.5,-283.78 836.5,-276.75"/>
<polygon fill="midnightblue" stroke="midnightblue" points="833,-303.08 836.5,-313.08 840,-303.08 833,-303.08"/>
</g>
<!-- Node13&#45;&gt;Node15 -->
<g id="edge18" class="edge">
<title>Node13&#45;&gt;Node15</title>
<path fill="none" stroke="midnightblue" d="M880.61,-311.02C921.6,-300.82 981.8,-285.84 1019.28,-276.52"/>
<polygon fill="midnightblue" stroke="midnightblue" points="879.74,-307.63 870.88,-313.44 881.43,-314.43 879.74,-307.63"/>
</g>
<!-- Node13&#45;&gt;Node16 -->
<g id="edge20" class="edge">
<title>Node13&#45;&gt;Node16</title>
<path fill="none" stroke="midnightblue" d="M774.68,-311.79C712.89,-301.59 618.97,-286.08 561.07,-276.52"/>
<polygon fill="midnightblue" stroke="midnightblue" points="774.25,-315.27 784.69,-313.44 775.39,-308.36 774.25,-315.27"/>
</g>
<!-- Node13&#45;&gt;Node17 -->
<g id="edge21" class="edge">
<title>Node13&#45;&gt;Node17</title>
<path fill="none" stroke="midnightblue" d="M797.12,-310.57C762.03,-300.38 711.48,-285.7 679.83,-276.52"/>
<polygon fill="midnightblue" stroke="midnightblue" points="796.45,-314.02 807.03,-313.44 798.4,-307.29 796.45,-314.02"/>
</g>
<!-- Node14&#45;&gt;Node2 -->
<g id="edge15" class="edge">
<title>Node14&#45;&gt;Node2</title>
<path fill="none" stroke="midnightblue" d="M849.51,-249.53C856.71,-240.42 865.56,-229.21 872.42,-220.52"/>
<polygon fill="midnightblue" stroke="midnightblue" points="846.69,-247.46 843.23,-257.48 852.18,-251.8 846.69,-247.46"/>
</g>
<!-- Node14&#45;&gt;Node3 -->
<g id="edge14" class="edge">
<title>Node14&#45;&gt;Node3</title>
<path fill="none" stroke="midnightblue" d="M826.84,-248.41C819.58,-232.85 811.92,-209.62 818.5,-190 823.36,-175.52 834.92,-161.98 843.21,-153.61"/>
<polygon fill="midnightblue" stroke="midnightblue" points="823.76,-250.08 831.4,-257.42 830.01,-246.92 823.76,-250.08"/>
</g>
<!-- Node21&#45;&gt;Node4 -->
<g id="edge30" class="edge">
<title>Node21&#45;&gt;Node4</title>
<path fill="none" stroke="midnightblue" d="M416.24,-364.74C402.33,-357.25 386.69,-346.63 376.5,-333 358.48,-308.89 357.5,-298.1 357.5,-268 357.5,-268 357.5,-268 357.5,-204.5 357.5,-159.57 395.02,-115.73 412.6,-97.66"/>
<polygon fill="midnightblue" stroke="midnightblue" points="415,-368.03 425.51,-369.42 418.16,-361.79 415,-368.03"/>
</g>
<!-- Node21&#45;&gt;Node20 -->
<g id="edge31" class="edge">
<title>Node21&#45;&gt;Node20</title>
<path fill="none" stroke="midnightblue" d="M446.5,-358.8C446.5,-349.91 446.5,-339.78 446.5,-332.75"/>
<polygon fill="midnightblue" stroke="midnightblue" points="443,-359.08 446.5,-369.08 450,-359.08 443,-359.08"/>
</g>
</g>
</svg>
