<?xml version="1.0" encoding="UTF-8" standalone="no"?>
<!DOCTYPE svg PUBLIC "-//W3C//DTD SVG 1.1//EN"
 "http://www.w3.org/Graphics/SVG/1.1/DTD/svg11.dtd">
<!-- Generated by graphviz version 2.44.0 ()
 -->
<!-- Title: include/zpp/condition_variable.hpp Pages: 1 -->
<svg width="480pt" height="263pt"
 viewBox="0.00 0.00 479.59 263.00" xmlns="http://www.w3.org/2000/svg" xmlns:xlink="http://www.w3.org/1999/xlink">
<g id="graph0" class="graph" transform="scale(1 1) rotate(0) translate(4 259)">
<title>include/zpp/condition_variable.hpp</title>
<!-- Node1 -->
<g id="node1" class="node">
<title>Node1</title>
<g id="a_node1"><a xlink:title=" ">
<polygon fill="#bfbfbf" stroke="black" points="229.59,-224.5 229.59,-254.5 336.59,-254.5 336.59,-224.5 229.59,-224.5"/>
<text text-anchor="start" x="237.59" y="-242.5" font-family="Helvetica,sans-Serif" font-size="10.00">include/zpp/condition</text>
<text text-anchor="middle" x="283.09" y="-231.5" font-family="Helvetica,sans-Serif" font-size="10.00">_variable.hpp</text>
</a>
</g>
</g>
<!-- Node2 -->
<g id="node2" class="node">
<title>Node2</title>
<g id="a_node2"><a xlink:title=" ">
<polygon fill="none" stroke="#bfbfbf" points="65.59,-0.5 65.59,-19.5 146.59,-19.5 146.59,-0.5 65.59,-0.5"/>
<text text-anchor="middle" x="106.09" y="-7.5" font-family="Helvetica,sans-Serif" font-size="10.00">zephyr/kernel.h</text>
</a>
</g>
</g>
<!-- Node1&#45;&gt;Node2 -->
<g id="edge1" class="edge">
<title>Node1&#45;&gt;Node2</title>
<path fill="none" stroke="midnightblue" d="M229.43,-229.14C156.71,-212.95 32.51,-171.77 3.09,-76 0.48,-67.5 -1.78,-63.44 3.09,-56 14.93,-37.9 35.83,-27.04 55.73,-20.54"/>
<polygon fill="midnightblue" stroke="midnightblue" points="56.77,-23.88 65.37,-17.68 54.78,-17.17 56.77,-23.88"/>
</g>
<!-- Node3 -->
<g id="node3" class="node">
<title>Node3</title>
<g id="a_node3"><a xlink:title=" ">
<polygon fill="none" stroke="#bfbfbf" points="255.09,-0.5 255.09,-19.5 365.09,-19.5 365.09,-0.5 255.09,-0.5"/>
<text text-anchor="middle" x="310.09" y="-7.5" font-family="Helvetica,sans-Serif" font-size="10.00">zephyr/sys/__assert.h</text>
</a>
</g>
</g>
<!-- Node1&#45;&gt;Node3 -->
<g id="edge2" class="edge">
<title>Node1&#45;&gt;Node3</title>
<path fill="none" stroke="midnightblue" d="M301.71,-224.3C312.1,-215.18 324.13,-202.39 330.09,-188 352.62,-133.58 330.55,-62.16 317.78,-29.16"/>
<polygon fill="midnightblue" stroke="midnightblue" points="320.87,-27.48 313.88,-19.52 314.38,-30.1 320.87,-27.48"/>
</g>
<!-- Node4 -->
<g id="node4" class="node">
<title>Node4</title>
<g id="a_node4"><a xlink:title=" ">
<polygon fill="none" stroke="#bfbfbf" points="260.09,-112.5 260.09,-131.5 306.09,-131.5 306.09,-112.5 260.09,-112.5"/>
<text text-anchor="middle" x="283.09" y="-119.5" font-family="Helvetica,sans-Serif" font-size="10.00">chrono</text>
</a>
</g>
</g>
<!-- Node1&#45;&gt;Node4 -->
<g id="edge3" class="edge">
<title>Node1&#45;&gt;Node4</title>
<path fill="none" stroke="midnightblue" d="M283.09,-224.34C283.09,-203.62 283.09,-165.02 283.09,-141.9"/>
<polygon fill="midnightblue" stroke="midnightblue" points="286.59,-141.67 283.09,-131.67 279.59,-141.67 286.59,-141.67"/>
</g>
<!-- Node5 -->
<g id="node5" class="node">
<title>Node5</title>
<g id="a_node5"><a xlink:href="mutex_8hpp.html" target="_top" xlink:title=" ">
<polygon fill="none" stroke="black" points="164.59,-168.5 164.59,-187.5 243.59,-187.5 243.59,-168.5 164.59,-168.5"/>
<text text-anchor="middle" x="204.09" y="-175.5" font-family="Helvetica,sans-Serif" font-size="10.00">zpp/mutex.hpp</text>
</a>
</g>
</g>
<!-- Node1&#45;&gt;Node5 -->
<g id="edge4" class="edge">
<title>Node1&#45;&gt;Node5</title>
<path fill="none" stroke="midnightblue" d="M264.36,-224.4C252.17,-215.22 236.29,-203.26 223.89,-193.92"/>
<polygon fill="midnightblue" stroke="midnightblue" points="225.68,-190.88 215.58,-187.66 221.46,-196.47 225.68,-190.88"/>
</g>
<!-- Node6 -->
<g id="node6" class="node">
<title>Node6</title>
<g id="a_node6"><a xlink:href="result_8hpp.html" target="_top" xlink:title=" ">
<polygon fill="none" stroke="black" points="50.59,-112.5 50.59,-131.5 127.59,-131.5 127.59,-112.5 50.59,-112.5"/>
<text text-anchor="middle" x="89.09" y="-119.5" font-family="Helvetica,sans-Serif" font-size="10.00">zpp/result.hpp</text>
</a>
</g>
</g>
<!-- Node1&#45;&gt;Node6 -->
<g id="edge19" class="edge">
<title>Node1&#45;&gt;Node6</title>
<path fill="none" stroke="midnightblue" d="M234.36,-224.44C209.48,-216.01 179.42,-203.83 155.09,-188 134.55,-174.64 115.07,-154.15 102.68,-139.76"/>
<polygon fill="midnightblue" stroke="midnightblue" points="105.03,-137.12 95.93,-131.7 99.67,-141.62 105.03,-137.12"/>
</g>
<!-- Node7 -->
<g id="node7" class="node">
<title>Node7</title>
<g id="a_node7"><a xlink:href="error__code_8hpp.html" target="_top" xlink:title=" ">
<polygon fill="none" stroke="black" points="184.09,-56.5 184.09,-75.5 282.09,-75.5 282.09,-56.5 184.09,-56.5"/>
<text text-anchor="middle" x="233.09" y="-63.5" font-family="Helvetica,sans-Serif" font-size="10.00">zpp/error_code.hpp</text>
</a>
</g>
</g>
<!-- Node1&#45;&gt;Node7 -->
<g id="edge20" class="edge">
<title>Node1&#45;&gt;Node7</title>
<path fill="none" stroke="midnightblue" d="M293.25,-224.22C309.35,-199.69 336.78,-148.65 315.09,-112 306.11,-96.84 290.02,-86.45 274.45,-79.5"/>
<polygon fill="midnightblue" stroke="midnightblue" points="275.48,-76.14 264.89,-75.62 272.84,-82.63 275.48,-76.14"/>
</g>
<!-- Node10 -->
<g id="node10" class="node">
<title>Node10</title>
<g id="a_node10"><a xlink:href="utils_8hpp.html" target="_top" xlink:title=" ">
<polygon fill="none" stroke="black" points="400.59,-168.5 400.59,-187.5 471.59,-187.5 471.59,-168.5 400.59,-168.5"/>
<text text-anchor="middle" x="436.09" y="-175.5" font-family="Helvetica,sans-Serif" font-size="10.00">zpp/utils.hpp</text>
</a>
</g>
</g>
<!-- Node1&#45;&gt;Node10 -->
<g id="edge17" class="edge">
<title>Node1&#45;&gt;Node10</title>
<path fill="none" stroke="midnightblue" d="M319.35,-224.4C345.13,-214.37 379.44,-201.03 404.19,-191.4"/>
<polygon fill="midnightblue" stroke="midnightblue" points="405.77,-194.54 413.82,-187.66 403.23,-188.02 405.77,-194.54"/>
</g>
<!-- Node5&#45;&gt;Node2 -->
<g id="edge5" class="edge">
<title>Node5&#45;&gt;Node2</title>
<path fill="none" stroke="midnightblue" d="M198.82,-168.08C183.19,-141.61 136.91,-63.21 116.25,-28.21"/>
<polygon fill="midnightblue" stroke="midnightblue" points="119.24,-26.4 111.14,-19.57 113.21,-29.96 119.24,-26.4"/>
</g>
<!-- Node5&#45;&gt;Node3 -->
<g id="edge6" class="edge">
<title>Node5&#45;&gt;Node3</title>
<path fill="none" stroke="midnightblue" d="M209.62,-168.15C217.9,-155.21 234.33,-130.65 251.09,-112 267.07,-94.21 278.36,-96.25 291.09,-76 299.98,-61.85 304.86,-43.36 307.43,-29.73"/>
<polygon fill="midnightblue" stroke="midnightblue" points="310.93,-30.05 309.1,-19.61 304.02,-28.91 310.93,-30.05"/>
</g>
<!-- Node5&#45;&gt;Node4 -->
<g id="edge7" class="edge">
<title>Node5&#45;&gt;Node4</title>
<path fill="none" stroke="midnightblue" d="M216.78,-168.32C228.99,-159.98 247.66,-147.21 262.09,-137.35"/>
<polygon fill="midnightblue" stroke="midnightblue" points="264.14,-140.19 270.43,-131.65 260.19,-134.41 264.14,-140.19"/>
</g>
<!-- Node5&#45;&gt;Node6 -->
<g id="edge8" class="edge">
<title>Node5&#45;&gt;Node6</title>
<path fill="none" stroke="midnightblue" d="M185.86,-168.44C167.19,-159.68 137.93,-145.94 116.47,-135.86"/>
<polygon fill="midnightblue" stroke="midnightblue" points="117.76,-132.6 107.22,-131.52 114.79,-138.93 117.76,-132.6"/>
</g>
<!-- Node5&#45;&gt;Node7 -->
<g id="edge16" class="edge">
<title>Node5&#45;&gt;Node7</title>
<path fill="none" stroke="midnightblue" d="M205.68,-168.09C208.01,-155.5 212.67,-131.82 218.09,-112 220.53,-103.05 223.73,-93.27 226.54,-85.11"/>
<polygon fill="midnightblue" stroke="midnightblue" points="229.9,-86.14 229.93,-75.54 223.3,-83.8 229.9,-86.14"/>
</g>
<!-- Node6&#45;&gt;Node2 -->
<g id="edge9" class="edge">
<title>Node6&#45;&gt;Node2</title>
<path fill="none" stroke="midnightblue" d="M90.42,-112.37C93.16,-94.62 99.49,-53.67 103.21,-29.6"/>
<polygon fill="midnightblue" stroke="midnightblue" points="106.69,-30.01 104.76,-19.59 99.77,-28.94 106.69,-30.01"/>
</g>
<!-- Node6&#45;&gt;Node3 -->
<g id="edge10" class="edge">
<title>Node6&#45;&gt;Node3</title>
<path fill="none" stroke="midnightblue" d="M98.44,-112.27C113.52,-98.6 144.61,-72.04 175.09,-56 203.29,-41.15 237.36,-29.84 264.21,-22.27"/>
<polygon fill="midnightblue" stroke="midnightblue" points="265.4,-25.58 274.12,-19.56 263.55,-18.83 265.4,-25.58"/>
</g>
<!-- Node6&#45;&gt;Node7 -->
<g id="edge11" class="edge">
<title>Node6&#45;&gt;Node7</title>
<path fill="none" stroke="midnightblue" d="M111.9,-112.44C135.92,-103.44 173.92,-89.19 200.96,-79.05"/>
<polygon fill="midnightblue" stroke="midnightblue" points="202.24,-82.3 210.38,-75.52 199.78,-75.75 202.24,-82.3"/>
</g>
<!-- Node9 -->
<g id="node9" class="node">
<title>Node9</title>
<g id="a_node9"><a xlink:title=" ">
<polygon fill="none" stroke="#bfbfbf" points="12.59,-56.5 12.59,-75.5 51.59,-75.5 51.59,-56.5 12.59,-56.5"/>
<text text-anchor="middle" x="32.09" y="-63.5" font-family="Helvetica,sans-Serif" font-size="10.00">utility</text>
</a>
</g>
</g>
<!-- Node6&#45;&gt;Node9 -->
<g id="edge15" class="edge">
<title>Node6&#45;&gt;Node9</title>
<path fill="none" stroke="midnightblue" d="M79.93,-112.32C71.58,-104.42 59.05,-92.55 48.91,-82.94"/>
<polygon fill="midnightblue" stroke="midnightblue" points="51.08,-80.17 41.41,-75.83 46.26,-85.25 51.08,-80.17"/>
</g>
<!-- Node7&#45;&gt;Node2 -->
<g id="edge12" class="edge">
<title>Node7&#45;&gt;Node2</title>
<path fill="none" stroke="midnightblue" d="M212.96,-56.44C192.06,-47.56 159.15,-33.56 135.37,-23.45"/>
<polygon fill="midnightblue" stroke="midnightblue" points="136.69,-20.21 126.12,-19.52 133.95,-26.65 136.69,-20.21"/>
</g>
<!-- Node7&#45;&gt;Node3 -->
<g id="edge13" class="edge">
<title>Node7&#45;&gt;Node3</title>
<path fill="none" stroke="midnightblue" d="M245.46,-56.32C257.24,-48.06 275.22,-35.45 289.22,-25.63"/>
<polygon fill="midnightblue" stroke="midnightblue" points="291.57,-28.26 297.75,-19.65 287.55,-22.53 291.57,-28.26"/>
</g>
<!-- Node8 -->
<g id="node8" class="node">
<title>Node8</title>
<g id="a_node8"><a xlink:title=" ">
<polygon fill="none" stroke="#bfbfbf" points="191.09,-0.5 191.09,-19.5 237.09,-19.5 237.09,-0.5 191.09,-0.5"/>
<text text-anchor="middle" x="214.09" y="-7.5" font-family="Helvetica,sans-Serif" font-size="10.00">errno.h</text>
</a>
</g>
</g>
<!-- Node7&#45;&gt;Node8 -->
<g id="edge14" class="edge">
<title>Node7&#45;&gt;Node8</title>
<path fill="none" stroke="midnightblue" d="M229.95,-56.08C227.4,-48.85 223.73,-38.41 220.56,-29.4"/>
<polygon fill="midnightblue" stroke="midnightblue" points="223.79,-28.02 217.17,-19.75 217.18,-30.35 223.79,-28.02"/>
</g>
<!-- Node11 -->
<g id="node11" class="node">
<title>Node11</title>
<g id="a_node11"><a xlink:title=" ">
<polygon fill="none" stroke="#bfbfbf" points="413.09,-112.5 413.09,-131.5 459.09,-131.5 459.09,-112.5 413.09,-112.5"/>
<text text-anchor="middle" x="436.09" y="-119.5" font-family="Helvetica,sans-Serif" font-size="10.00">cstdint</text>
</a>
</g>
</g>
<!-- Node10&#45;&gt;Node11 -->
<g id="edge18" class="edge">
<title>Node10&#45;&gt;Node11</title>
<path fill="none" stroke="midnightblue" d="M436.09,-168.08C436.09,-161.01 436.09,-150.86 436.09,-141.99"/>
<polygon fill="midnightblue" stroke="midnightblue" points="439.59,-141.75 436.09,-131.75 432.59,-141.75 439.59,-141.75"/>
</g>
</g>
</svg>
