<?xml version="1.0" encoding="UTF-8" standalone="no"?>
<!DOCTYPE svg PUBLIC "-//W3C//DTD SVG 1.1//EN"
 "http://www.w3.org/Graphics/SVG/1.1/DTD/svg11.dtd">
<!-- Generated by graphviz version 2.44.0 ()
 -->
<!-- Title: tests Pages: 1 -->
<svg width="1152pt" height="132pt"
 viewBox="0.00 0.00 1152.00 132.00" xmlns="http://www.w3.org/2000/svg" xmlns:xlink="http://www.w3.org/1999/xlink">
<g id="graph0" class="graph" transform="scale(1 1) rotate(0) translate(4 128)">
<title>tests</title>
<g id="clust1" class="cluster">
<title>clusterdir_59425e443f801f1f2fd8bbe4959a3ccf</title>
<g id="a_clust1"><a xlink:href="dir_59425e443f801f1f2fd8bbe4959a3ccf.html" target="_top">
<polygon fill="#eeeeff" stroke="black" points="8,-64 8,-116 1136,-116 1136,-64 8,-64"/>
</a>
</g>
</g>
<!-- dir_59425e443f801f1f2fd8bbe4959a3ccf -->
<g id="node1" class="node">
<title>dir_59425e443f801f1f2fd8bbe4959a3ccf</title>
<text text-anchor="middle" x="1101" y="-87.5" font-family="Helvetica,sans-Serif" font-size="10.00">tests</text>
</g>
<!-- dir_54de9b887d2d5fd700966b8aed2edd5e -->
<g id="node2" class="node">
<title>dir_54de9b887d2d5fd700966b8aed2edd5e</title>
<g id="a_node2"><a xlink:href="dir_54de9b887d2d5fd700966b8aed2edd5e.html" target="_top" xlink:title="atomic">
<polygon fill="white" stroke="red" points="1056,-108 1002,-108 1002,-72 1056,-72 1056,-108"/>
<text text-anchor="middle" x="1029" y="-87.5" font-family="Helvetica,sans-Serif" font-size="10.00">atomic</text>
</a>
</g>
</g>
<!-- dir_d44c64559bbebec7f509842c48db8b23 -->
<g id="node16" class="node">
<title>dir_d44c64559bbebec7f509842c48db8b23</title>
<g id="a_node16"><a xlink:href="dir_d44c64559bbebec7f509842c48db8b23.html" target="_top" xlink:title="include">
<polygon fill="none" stroke="red" points="540,-36 486,-36 486,0 540,0 540,-36"/>
<text text-anchor="middle" x="513" y="-15.5" font-family="Helvetica,sans-Serif" font-size="10.00">include</text>
</a>
</g>
</g>
<!-- dir_54de9b887d2d5fd700966b8aed2edd5e&#45;&gt;dir_d44c64559bbebec7f509842c48db8b23 -->
<g id="edge11" class="edge">
<title>dir_54de9b887d2d5fd700966b8aed2edd5e&#45;&gt;dir_d44c64559bbebec7f509842c48db8b23</title>
<path fill="none" stroke="black" d="M1008.3,-71.99C1003.53,-68.84 998.29,-65.93 993,-64 911.65,-34.28 648.12,-23.2 550.14,-20.05"/>
<polygon fill="black" stroke="black" points="550.21,-16.55 540.11,-19.74 549.99,-23.55 550.21,-16.55"/>
<g id="a_edge11&#45;headlabel"><a xlink:href="dir_000012_000000.html" target="_top" xlink:title="2">
<text text-anchor="middle" x="553.89" y="-11.32" font-family="Helvetica,sans-Serif" font-size="10.00">2</text>
</a>
</g>
</g>
<!-- dir_95d6fe56c733d9fef1682dca12d51575 -->
<g id="node3" class="node">
<title>dir_95d6fe56c733d9fef1682dca12d51575</title>
<g id="a_node3"><a xlink:href="dir_95d6fe56c733d9fef1682dca12d51575.html" target="_top" xlink:title="clock">
<polygon fill="white" stroke="red" points="984,-108 930,-108 930,-72 984,-72 984,-108"/>
<text text-anchor="middle" x="957" y="-87.5" font-family="Helvetica,sans-Serif" font-size="10.00">clock</text>
</a>
</g>
</g>
<!-- dir_95d6fe56c733d9fef1682dca12d51575&#45;&gt;dir_d44c64559bbebec7f509842c48db8b23 -->
<g id="edge6" class="edge">
<title>dir_95d6fe56c733d9fef1682dca12d51575&#45;&gt;dir_d44c64559bbebec7f509842c48db8b23</title>
<path fill="none" stroke="black" d="M935.89,-71.8C931.22,-68.74 926.13,-65.92 921,-64 853.43,-38.69 637.43,-25.26 550.13,-20.76"/>
<polygon fill="black" stroke="black" points="550.31,-17.26 540.14,-20.25 549.95,-24.25 550.31,-17.26"/>
<g id="a_edge6&#45;headlabel"><a xlink:href="dir_000014_000000.html" target="_top" xlink:title="3">
<text text-anchor="middle" x="554.04" y="-12.11" font-family="Helvetica,sans-Serif" font-size="10.00">3</text>
</a>
</g>
</g>
<!-- dir_03abbdc157a41669072f1196591e624f -->
<g id="node4" class="node">
<title>dir_03abbdc157a41669072f1196591e624f</title>
<g id="a_node4"><a xlink:href="dir_03abbdc157a41669072f1196591e624f.html" target="_top" xlink:title="compile">
<polygon fill="white" stroke="red" points="912,-108 858,-108 858,-72 912,-72 912,-108"/>
<text text-anchor="middle" x="885" y="-87.5" font-family="Helvetica,sans-Serif" font-size="10.00">compile</text>
</a>
</g>
</g>
<!-- dir_03abbdc157a41669072f1196591e624f&#45;&gt;dir_d44c64559bbebec7f509842c48db8b23 -->
<g id="edge5" class="edge">
<title>dir_03abbdc157a41669072f1196591e624f&#45;&gt;dir_d44c64559bbebec7f509842c48db8b23</title>
<path fill="none" stroke="black" d="M863.86,-71.89C859.19,-68.83 854.11,-65.98 849,-64 746.3,-24.16 614.16,-18.52 550.53,-18.37"/>
<polygon fill="black" stroke="black" points="550.19,-14.87 540.2,-18.39 550.2,-21.87 550.19,-14.87"/>
<g id="a_edge5&#45;headlabel"><a xlink:href="dir_000016_000000.html" target="_top" xlink:title="1">
<text text-anchor="middle" x="553.78" y="-9.52" font-family="Helvetica,sans-Serif" font-size="10.00">1</text>
</a>
</g>
</g>
<!-- dir_8434897221553ec8ff1511098076a636 -->
<g id="node5" class="node">
<title>dir_8434897221553ec8ff1511098076a636</title>
<g id="a_node5"><a xlink:href="dir_8434897221553ec8ff1511098076a636.html" target="_top" xlink:title="condition_variable">
<polygon fill="white" stroke="red" points="839.5,-108 744.5,-108 744.5,-72 839.5,-72 839.5,-108"/>
<text text-anchor="middle" x="792" y="-87.5" font-family="Helvetica,sans-Serif" font-size="10.00">condition_variable</text>
</a>
</g>
</g>
<!-- dir_8434897221553ec8ff1511098076a636&#45;&gt;dir_d44c64559bbebec7f509842c48db8b23 -->
<g id="edge1" class="edge">
<title>dir_8434897221553ec8ff1511098076a636&#45;&gt;dir_d44c64559bbebec7f509842c48db8b23</title>
<path fill="none" stroke="black" d="M756.26,-71.94C749.31,-69.02 742.01,-66.22 735,-64 671.48,-43.89 594.81,-30.69 550.21,-24.06"/>
<polygon fill="black" stroke="black" points="550.52,-20.57 540.12,-22.59 549.52,-27.49 550.52,-20.57"/>
<g id="a_edge1&#45;headlabel"><a xlink:href="dir_000018_000000.html" target="_top" xlink:title="1">
<text text-anchor="middle" x="554.49" y="-15.78" font-family="Helvetica,sans-Serif" font-size="10.00">1</text>
</a>
</g>
</g>
<!-- dir_21e45a358f4fd8a52c2597e1585b614c -->
<g id="node6" class="node">
<title>dir_21e45a358f4fd8a52c2597e1585b614c</title>
<g id="a_node6"><a xlink:href="dir_21e45a358f4fd8a52c2597e1585b614c.html" target="_top" xlink:title="fifo">
<polygon fill="white" stroke="red" points="726,-108 672,-108 672,-72 726,-72 726,-108"/>
<text text-anchor="middle" x="699" y="-87.5" font-family="Helvetica,sans-Serif" font-size="10.00">fifo</text>
</a>
</g>
</g>
<!-- dir_21e45a358f4fd8a52c2597e1585b614c&#45;&gt;dir_d44c64559bbebec7f509842c48db8b23 -->
<g id="edge2" class="edge">
<title>dir_21e45a358f4fd8a52c2597e1585b614c&#45;&gt;dir_d44c64559bbebec7f509842c48db8b23</title>
<path fill="none" stroke="black" d="M676.81,-71.99C672.39,-69.06 667.66,-66.25 663,-64 626.36,-46.34 581.33,-33.95 550.22,-26.71"/>
<polygon fill="black" stroke="black" points="550.76,-23.24 540.23,-24.45 549.21,-30.07 550.76,-23.24"/>
<g id="a_edge2&#45;headlabel"><a xlink:href="dir_000020_000000.html" target="_top" xlink:title="3">
<text text-anchor="middle" x="554.89" y="-18.76" font-family="Helvetica,sans-Serif" font-size="10.00">3</text>
</a>
</g>
</g>
<!-- dir_fb0a926e08055a5be2b01c2acd48fb2f -->
<g id="node7" class="node">
<title>dir_fb0a926e08055a5be2b01c2acd48fb2f</title>
<g id="a_node7"><a xlink:href="dir_fb0a926e08055a5be2b01c2acd48fb2f.html" target="_top" xlink:title="heap">
<polygon fill="white" stroke="red" points="654,-108 600,-108 600,-72 654,-72 654,-108"/>
<text text-anchor="middle" x="627" y="-87.5" font-family="Helvetica,sans-Serif" font-size="10.00">heap</text>
</a>
</g>
</g>
<!-- dir_fb0a926e08055a5be2b01c2acd48fb2f&#45;&gt;dir_d44c64559bbebec7f509842c48db8b23 -->
<g id="edge10" class="edge">
<title>dir_fb0a926e08055a5be2b01c2acd48fb2f&#45;&gt;dir_d44c64559bbebec7f509842c48db8b23</title>
<path fill="none" stroke="black" d="M602.79,-71.78C598.88,-69.12 594.86,-66.44 591,-64 577.48,-55.43 562.3,-46.52 548.95,-38.91"/>
<polygon fill="black" stroke="black" points="550.47,-35.74 540.04,-33.87 547.02,-41.84 550.47,-35.74"/>
<g id="a_edge10&#45;headlabel"><a xlink:href="dir_000022_000000.html" target="_top" xlink:title="2">
<text text-anchor="middle" x="555" y="-32.54" font-family="Helvetica,sans-Serif" font-size="10.00">2</text>
</a>
</g>
</g>
<!-- dir_e7fb5f843b1fcec00c0ee6269f06f2a3 -->
<g id="node8" class="node">
<title>dir_e7fb5f843b1fcec00c0ee6269f06f2a3</title>
<g id="a_node8"><a xlink:href="dir_e7fb5f843b1fcec00c0ee6269f06f2a3.html" target="_top" xlink:title="mem_slab">
<polygon fill="white" stroke="red" points="582,-108 520,-108 520,-72 582,-72 582,-108"/>
<text text-anchor="middle" x="551" y="-87.5" font-family="Helvetica,sans-Serif" font-size="10.00">mem_slab</text>
</a>
</g>
</g>
<!-- dir_e7fb5f843b1fcec00c0ee6269f06f2a3&#45;&gt;dir_d44c64559bbebec7f509842c48db8b23 -->
<g id="edge12" class="edge">
<title>dir_e7fb5f843b1fcec00c0ee6269f06f2a3&#45;&gt;dir_d44c64559bbebec7f509842c48db8b23</title>
<path fill="none" stroke="black" d="M541.61,-71.7C537.24,-63.64 531.94,-53.89 527.1,-44.98"/>
<polygon fill="black" stroke="black" points="530.13,-43.22 522.29,-36.1 523.98,-46.56 530.13,-43.22"/>
<g id="a_edge12&#45;headlabel"><a xlink:href="dir_000024_000000.html" target="_top" xlink:title="1">
<text text-anchor="middle" x="534.34" y="-42.53" font-family="Helvetica,sans-Serif" font-size="10.00">1</text>
</a>
</g>
</g>
<!-- dir_fea493bf2f9f469f6f6f6ec6cb7fd5c3 -->
<g id="node9" class="node">
<title>dir_fea493bf2f9f469f6f6f6ec6cb7fd5c3</title>
<g id="a_node9"><a xlink:href="dir_fea493bf2f9f469f6f6f6ec6cb7fd5c3.html" target="_top" xlink:title="mutex">
<polygon fill="white" stroke="red" points="502,-108 448,-108 448,-72 502,-72 502,-108"/>
<text text-anchor="middle" x="475" y="-87.5" font-family="Helvetica,sans-Serif" font-size="10.00">mutex</text>
</a>
</g>
</g>
<!-- dir_fea493bf2f9f469f6f6f6ec6cb7fd5c3&#45;&gt;dir_d44c64559bbebec7f509842c48db8b23 -->
<g id="edge3" class="edge">
<title>dir_fea493bf2f9f469f6f6f6ec6cb7fd5c3&#45;&gt;dir_d44c64559bbebec7f509842c48db8b23</title>
<path fill="none" stroke="black" d="M484.39,-71.7C488.76,-63.64 494.06,-53.89 498.9,-44.98"/>
<polygon fill="black" stroke="black" points="502.02,-46.56 503.71,-36.1 495.87,-43.22 502.02,-46.56"/>
<g id="a_edge3&#45;headlabel"><a xlink:href="dir_000026_000000.html" target="_top" xlink:title="4">
<text text-anchor="middle" x="502.8" y="-48.58" font-family="Helvetica,sans-Serif" font-size="10.00">4</text>
</a>
</g>
</g>
<!-- dir_0b3657bd049b8bf55f7dc969e07f7487 -->
<g id="node10" class="node">
<title>dir_0b3657bd049b8bf55f7dc969e07f7487</title>
<g id="a_node10"><a xlink:href="dir_0b3657bd049b8bf55f7dc969e07f7487.html" target="_top" xlink:title="poll">
<polygon fill="white" stroke="red" points="430,-108 376,-108 376,-72 430,-72 430,-108"/>
<text text-anchor="middle" x="403" y="-87.5" font-family="Helvetica,sans-Serif" font-size="10.00">poll</text>
</a>
</g>
</g>
<!-- dir_0b3657bd049b8bf55f7dc969e07f7487&#45;&gt;dir_d44c64559bbebec7f509842c48db8b23 -->
<g id="edge4" class="edge">
<title>dir_0b3657bd049b8bf55f7dc969e07f7487&#45;&gt;dir_d44c64559bbebec7f509842c48db8b23</title>
<path fill="none" stroke="black" d="M427.26,-71.85C431.16,-69.19 435.17,-66.49 439,-64 451.27,-56.02 464.91,-47.6 477.11,-40.23"/>
<polygon fill="black" stroke="black" points="478.92,-43.22 485.69,-35.07 475.32,-37.22 478.92,-43.22"/>
<g id="a_edge4&#45;headlabel"><a xlink:href="dir_000028_000000.html" target="_top" xlink:title="3">
<text text-anchor="middle" x="477.31" y="-45.01" font-family="Helvetica,sans-Serif" font-size="10.00">3</text>
</a>
</g>
</g>
<!-- dir_2da2040289971c19786f973d05e643dd -->
<g id="node11" class="node">
<title>dir_2da2040289971c19786f973d05e643dd</title>
<g id="a_node11"><a xlink:href="dir_2da2040289971c19786f973d05e643dd.html" target="_top" xlink:title="print">
<polygon fill="white" stroke="red" points="358,-108 304,-108 304,-72 358,-72 358,-108"/>
<text text-anchor="middle" x="331" y="-87.5" font-family="Helvetica,sans-Serif" font-size="10.00">print</text>
</a>
</g>
</g>
<!-- dir_2da2040289971c19786f973d05e643dd&#45;&gt;dir_d44c64559bbebec7f509842c48db8b23 -->
<g id="edge9" class="edge">
<title>dir_2da2040289971c19786f973d05e643dd&#45;&gt;dir_d44c64559bbebec7f509842c48db8b23</title>
<path fill="none" stroke="black" d="M353.59,-71.76C357.9,-68.92 362.48,-66.2 367,-64 402.31,-46.81 445.6,-34.46 475.84,-27.09"/>
<polygon fill="black" stroke="black" points="477.04,-30.4 485.96,-24.69 475.42,-23.59 477.04,-30.4"/>
<g id="a_edge9&#45;headlabel"><a xlink:href="dir_000030_000000.html" target="_top" xlink:title="1">
<text text-anchor="middle" x="474.19" y="-31.5" font-family="Helvetica,sans-Serif" font-size="10.00">1</text>
</a>
</g>
</g>
<!-- dir_f186b6f526bc06b75a9690ed39d8dd24 -->
<g id="node12" class="node">
<title>dir_f186b6f526bc06b75a9690ed39d8dd24</title>
<g id="a_node12"><a xlink:href="dir_f186b6f526bc06b75a9690ed39d8dd24.html" target="_top" xlink:title="result">
<polygon fill="white" stroke="red" points="286,-108 232,-108 232,-72 286,-72 286,-108"/>
<text text-anchor="middle" x="259" y="-87.5" font-family="Helvetica,sans-Serif" font-size="10.00">result</text>
</a>
</g>
</g>
<!-- dir_f186b6f526bc06b75a9690ed39d8dd24&#45;&gt;dir_d44c64559bbebec7f509842c48db8b23 -->
<g id="edge7" class="edge">
<title>dir_f186b6f526bc06b75a9690ed39d8dd24&#45;&gt;dir_d44c64559bbebec7f509842c48db8b23</title>
<path fill="none" stroke="black" d="M280.64,-71.91C285.2,-68.92 290.11,-66.1 295,-64 355.17,-38.19 431.18,-26.83 475.71,-22.1"/>
<polygon fill="black" stroke="black" points="476.18,-25.57 485.78,-21.09 475.48,-18.61 476.18,-25.57"/>
<g id="a_edge7&#45;headlabel"><a xlink:href="dir_000032_000000.html" target="_top" xlink:title="1">
<text text-anchor="middle" x="472.89" y="-26.26" font-family="Helvetica,sans-Serif" font-size="10.00">1</text>
</a>
</g>
</g>
<!-- dir_3dcbe7a4d498a2e21874430ea361c367 -->
<g id="node13" class="node">
<title>dir_3dcbe7a4d498a2e21874430ea361c367</title>
<g id="a_node13"><a xlink:href="dir_3dcbe7a4d498a2e21874430ea361c367.html" target="_top" xlink:title="sem">
<polygon fill="white" stroke="red" points="214,-108 160,-108 160,-72 214,-72 214,-108"/>
<text text-anchor="middle" x="187" y="-87.5" font-family="Helvetica,sans-Serif" font-size="10.00">sem</text>
</a>
</g>
</g>
<!-- dir_3dcbe7a4d498a2e21874430ea361c367&#45;&gt;dir_d44c64559bbebec7f509842c48db8b23 -->
<g id="edge8" class="edge">
<title>dir_3dcbe7a4d498a2e21874430ea361c367&#45;&gt;dir_d44c64559bbebec7f509842c48db8b23</title>
<path fill="none" stroke="black" d="M208.18,-71.97C212.84,-68.9 217.91,-66.03 223,-64 309,-29.61 419.09,-21.37 475.7,-19.48"/>
<polygon fill="black" stroke="black" points="476.06,-22.97 485.95,-19.19 475.86,-15.98 476.06,-22.97"/>
<g id="a_edge8&#45;headlabel"><a xlink:href="dir_000034_000000.html" target="_top" xlink:title="3">
<text text-anchor="middle" x="472.54" y="-23.41" font-family="Helvetica,sans-Serif" font-size="10.00">3</text>
</a>
</g>
</g>
<!-- dir_52517f2cc81784f5ccbdebe826388bed -->
<g id="node14" class="node">
<title>dir_52517f2cc81784f5ccbdebe826388bed</title>
<g id="a_node14"><a xlink:href="dir_52517f2cc81784f5ccbdebe826388bed.html" target="_top" xlink:title="thread">
<polygon fill="white" stroke="red" points="142,-108 88,-108 88,-72 142,-72 142,-108"/>
<text text-anchor="middle" x="115" y="-87.5" font-family="Helvetica,sans-Serif" font-size="10.00">thread</text>
</a>
</g>
</g>
<!-- dir_52517f2cc81784f5ccbdebe826388bed&#45;&gt;dir_d44c64559bbebec7f509842c48db8b23 -->
<g id="edge14" class="edge">
<title>dir_52517f2cc81784f5ccbdebe826388bed&#45;&gt;dir_d44c64559bbebec7f509842c48db8b23</title>
<path fill="none" stroke="black" d="M136.13,-71.85C140.8,-68.79 145.88,-65.96 151,-64 209.8,-41.51 395.62,-26.81 475.69,-21.37"/>
<polygon fill="black" stroke="black" points="476.07,-24.85 485.82,-20.69 475.61,-17.86 476.07,-24.85"/>
<g id="a_edge14&#45;headlabel"><a xlink:href="dir_000036_000000.html" target="_top" xlink:title="3">
<text text-anchor="middle" x="472.68" y="-25.42" font-family="Helvetica,sans-Serif" font-size="10.00">3</text>
</a>
</g>
</g>
<!-- dir_5ecc30c9eaaec2e850950ddff9e96097 -->
<g id="node15" class="node">
<title>dir_5ecc30c9eaaec2e850950ddff9e96097</title>
<g id="a_node15"><a xlink:href="dir_5ecc30c9eaaec2e850950ddff9e96097.html" target="_top" xlink:title="timer">
<polygon fill="white" stroke="red" points="70,-108 16,-108 16,-72 70,-72 70,-108"/>
<text text-anchor="middle" x="43" y="-87.5" font-family="Helvetica,sans-Serif" font-size="10.00">timer</text>
</a>
</g>
</g>
<!-- dir_5ecc30c9eaaec2e850950ddff9e96097&#45;&gt;dir_d44c64559bbebec7f509842c48db8b23 -->
<g id="edge13" class="edge">
<title>dir_5ecc30c9eaaec2e850950ddff9e96097&#45;&gt;dir_d44c64559bbebec7f509842c48db8b23</title>
<path fill="none" stroke="black" d="M64.1,-71.77C68.77,-68.72 73.86,-65.91 79,-64 151.5,-37.11 384.4,-24.49 475.74,-20.48"/>
<polygon fill="black" stroke="black" points="476.07,-23.97 485.91,-20.04 475.77,-16.98 476.07,-23.97"/>
<g id="a_edge13&#45;headlabel"><a xlink:href="dir_000038_000000.html" target="_top" xlink:title="3">
<text text-anchor="middle" x="472.6" y="-24.46" font-family="Helvetica,sans-Serif" font-size="10.00">3</text>
</a>
</g>
</g>
</g>
</svg>
