<?xml version="1.0" encoding="UTF-8" standalone="no"?>
<!DOCTYPE svg PUBLIC "-//W3C//DTD SVG 1.1//EN"
 "http://www.w3.org/Graphics/SVG/1.1/DTD/svg11.dtd">
<!-- Generated by graphviz version 2.44.0 ()
 -->
<!-- Title: include/zpp/error_code.hpp Pages: 1 -->
<svg width="1175pt" height="531pt"
 viewBox="0.00 0.00 1175.00 531.00" xmlns="http://www.w3.org/2000/svg" xmlns:xlink="http://www.w3.org/1999/xlink">
<g id="graph0" class="graph" transform="scale(1 1) rotate(0) translate(4 527)">
<title>include/zpp/error_code.hpp</title>
<!-- Node1 -->
<g id="node1" class="node">
<title>Node1</title>
<g id="a_node1"><a xlink:title=" ">
<polygon fill="#bfbfbf" stroke="black" points="286.5,-503.5 286.5,-522.5 418.5,-522.5 418.5,-503.5 286.5,-503.5"/>
<text text-anchor="middle" x="352.5" y="-510.5" font-family="Helvetica,sans-Serif" font-size="10.00">include/zpp/error_code.hpp</text>
</a>
</g>
</g>
<!-- Node2 -->
<g id="node2" class="node">
<title>Node2</title>
<g id="a_node2"><a xlink:href="condition__variable_8hpp.html" target="_top" xlink:title=" ">
<polygon fill="none" stroke="black" points="85,-313.5 85,-343.5 192,-343.5 192,-313.5 85,-313.5"/>
<text text-anchor="start" x="93" y="-331.5" font-family="Helvetica,sans-Serif" font-size="10.00">include/zpp/condition</text>
<text text-anchor="middle" x="138.5" y="-320.5" font-family="Helvetica,sans-Serif" font-size="10.00">_variable.hpp</text>
</a>
</g>
</g>
<!-- Node1&#45;&gt;Node2 -->
<g id="edge1" class="edge">
<title>Node1&#45;&gt;Node2</title>
<path fill="none" stroke="midnightblue" d="M325.34,-498.73C292.14,-481.62 235.46,-449.45 195.5,-411 174.22,-390.53 155.94,-361.04 146.14,-343.72"/>
<polygon fill="midnightblue" stroke="midnightblue" points="323.95,-501.95 334.45,-503.35 327.11,-495.7 323.95,-501.95"/>
</g>
<!-- Node3 -->
<g id="node3" class="node">
<title>Node3</title>
<g id="a_node3"><a xlink:href="zpp_8hpp.html" target="_top" xlink:title=" ">
<polygon fill="none" stroke="black" points="380,-78.5 380,-97.5 463,-97.5 463,-78.5 380,-78.5"/>
<text text-anchor="middle" x="421.5" y="-85.5" font-family="Helvetica,sans-Serif" font-size="10.00">include/zpp.hpp</text>
</a>
</g>
</g>
<!-- Node1&#45;&gt;Node3 -->
<g id="edge42" class="edge">
<title>Node1&#45;&gt;Node3</title>
<path fill="none" stroke="midnightblue" d="M294.03,-501.49C207.76,-484.31 56.5,-446.97 56.5,-396.5 56.5,-396.5 56.5,-396.5 56.5,-204.5 56.5,-137.29 284.32,-104.19 379.99,-93.25"/>
<polygon fill="midnightblue" stroke="midnightblue" points="293.47,-504.95 303.95,-503.44 294.81,-498.08 293.47,-504.95"/>
</g>
<!-- Node10 -->
<g id="node10" class="node">
<title>Node10</title>
<g id="a_node10"><a xlink:href="mutex_8hpp.html" target="_top" xlink:title=" ">
<polygon fill="none" stroke="black" points="255,-386 255,-405 368,-405 368,-386 255,-386"/>
<text text-anchor="middle" x="311.5" y="-393" font-family="Helvetica,sans-Serif" font-size="10.00">include/zpp/mutex.hpp</text>
</a>
</g>
</g>
<!-- Node1&#45;&gt;Node10 -->
<g id="edge9" class="edge">
<title>Node1&#45;&gt;Node10</title>
<path fill="none" stroke="midnightblue" d="M343.29,-494C339.35,-485.88 334.89,-476.09 331.5,-467 323.42,-445.3 316.72,-418.82 313.52,-405.33"/>
<polygon fill="midnightblue" stroke="midnightblue" points="340.29,-495.83 347.89,-503.22 346.56,-492.7 340.29,-495.83"/>
</g>
<!-- Node12 -->
<g id="node12" class="node">
<title>Node12</title>
<g id="a_node12"><a xlink:href="result_8hpp.html" target="_top" xlink:title=" ">
<polygon fill="none" stroke="black" points="340.5,-447.5 340.5,-466.5 450.5,-466.5 450.5,-447.5 340.5,-447.5"/>
<text text-anchor="middle" x="395.5" y="-454.5" font-family="Helvetica,sans-Serif" font-size="10.00">include/zpp/result.hpp</text>
</a>
</g>
</g>
<!-- Node1&#45;&gt;Node12 -->
<g id="edge13" class="edge">
<title>Node1&#45;&gt;Node12</title>
<path fill="none" stroke="midnightblue" d="M365.92,-495.14C373.41,-485.74 382.44,-474.4 388.53,-466.75"/>
<polygon fill="midnightblue" stroke="midnightblue" points="363.09,-493.08 359.6,-503.08 368.57,-497.44 363.09,-493.08"/>
</g>
<!-- Node13 -->
<g id="node13" class="node">
<title>Node13</title>
<g id="a_node13"><a xlink:href="thread_8hpp.html" target="_top" xlink:title=" ">
<polygon fill="none" stroke="black" points="572,-386 572,-405 685,-405 685,-386 572,-386"/>
<text text-anchor="middle" x="628.5" y="-393" font-family="Helvetica,sans-Serif" font-size="10.00">include/zpp/thread.hpp</text>
</a>
</g>
</g>
<!-- Node1&#45;&gt;Node13 -->
<g id="edge40" class="edge">
<title>Node1&#45;&gt;Node13</title>
<path fill="none" stroke="midnightblue" d="M388.73,-500.25C414.34,-491.68 449.34,-479.44 479.5,-467 528.44,-446.81 584.46,-418.98 611.77,-405.1"/>
<polygon fill="midnightblue" stroke="midnightblue" points="387.45,-496.99 379.06,-503.46 389.66,-503.63 387.45,-496.99"/>
</g>
<!-- Node24 -->
<g id="node24" class="node">
<title>Node24</title>
<g id="a_node24"><a xlink:href="unique__lock_8hpp.html" target="_top" xlink:title=" ">
<polygon fill="none" stroke="black" points="430,-380.5 430,-410.5 527,-410.5 527,-380.5 430,-380.5"/>
<text text-anchor="start" x="438" y="-398.5" font-family="Helvetica,sans-Serif" font-size="10.00">include/zpp/unique</text>
<text text-anchor="middle" x="478.5" y="-387.5" font-family="Helvetica,sans-Serif" font-size="10.00">_lock.hpp</text>
</a>
</g>
</g>
<!-- Node1&#45;&gt;Node24 -->
<g id="edge41" class="edge">
<title>Node1&#45;&gt;Node24</title>
<path fill="none" stroke="midnightblue" d="M405.14,-500.34C424.66,-493.58 445.44,-483.1 459.5,-467 473.34,-451.15 477.22,-426.21 478.24,-410.64"/>
<polygon fill="midnightblue" stroke="midnightblue" points="403.85,-497.08 395.4,-503.46 405.99,-503.75 403.85,-497.08"/>
</g>
<!-- Node2&#45;&gt;Node3 -->
<g id="edge2" class="edge">
<title>Node2&#45;&gt;Node3</title>
<path fill="none" stroke="midnightblue" d="M139.68,-303.25C143.06,-261.96 156.1,-178.16 206.5,-134 231.88,-111.76 324.94,-98.76 379.96,-92.86"/>
<polygon fill="midnightblue" stroke="midnightblue" points="136.19,-303.03 138.98,-313.25 143.17,-303.52 136.19,-303.03"/>
</g>
<!-- Node4 -->
<g id="node4" class="node">
<title>Node4</title>
<g id="a_node4"><a xlink:href="samples_2hello__world_2src_2main_8cpp.html" target="_top" xlink:title=" ">
<polygon fill="none" stroke="black" points="0,-6 0,-36 105,-36 105,-6 0,-6"/>
<text text-anchor="start" x="8" y="-24" font-family="Helvetica,sans-Serif" font-size="10.00">samples/hello_world</text>
<text text-anchor="middle" x="52.5" y="-13" font-family="Helvetica,sans-Serif" font-size="10.00">/src/main.cpp</text>
</a>
</g>
</g>
<!-- Node3&#45;&gt;Node4 -->
<g id="edge3" class="edge">
<title>Node3&#45;&gt;Node4</title>
<path fill="none" stroke="midnightblue" d="M369.48,-82.15C307.83,-75.78 202.26,-62.87 113.5,-42 106.45,-40.34 99.04,-38.24 91.92,-36.02"/>
<polygon fill="midnightblue" stroke="midnightblue" points="369.42,-85.67 379.73,-83.2 370.13,-78.7 369.42,-85.67"/>
</g>
<!-- Node5 -->
<g id="node5" class="node">
<title>Node5</title>
<g id="a_node5"><a xlink:href="samples_2kernel_2condition__variables_2condvar_2src_2main_8cpp.html" target="_top" xlink:title=" ">
<polygon fill="none" stroke="black" points="123,-0.5 123,-41.5 248,-41.5 248,-0.5 123,-0.5"/>
<text text-anchor="start" x="131" y="-29.5" font-family="Helvetica,sans-Serif" font-size="10.00">samples/kernel/condition</text>
<text text-anchor="start" x="131" y="-18.5" font-family="Helvetica,sans-Serif" font-size="10.00">_variables/condvar/src</text>
<text text-anchor="middle" x="185.5" y="-7.5" font-family="Helvetica,sans-Serif" font-size="10.00">/main.cpp</text>
</a>
</g>
</g>
<!-- Node3&#45;&gt;Node5 -->
<g id="edge4" class="edge">
<title>Node3&#45;&gt;Node5</title>
<path fill="none" stroke="midnightblue" d="M379.98,-75.78C346.6,-66.73 298.51,-53.64 256.5,-42 253.79,-41.25 251.01,-40.48 248.21,-39.7"/>
<polygon fill="midnightblue" stroke="midnightblue" points="379.28,-79.22 389.85,-78.45 381.11,-72.46 379.28,-79.22"/>
</g>
<!-- Node6 -->
<g id="node6" class="node">
<title>Node6</title>
<g id="a_node6"><a xlink:href="samples_2kernel_2condition__variables_2simple_2src_2main_8cpp.html" target="_top" xlink:title=" ">
<polygon fill="none" stroke="black" points="266,-6 266,-36 417,-36 417,-6 266,-6"/>
<text text-anchor="start" x="274" y="-24" font-family="Helvetica,sans-Serif" font-size="10.00">samples/kernel/condition</text>
<text text-anchor="middle" x="341.5" y="-13" font-family="Helvetica,sans-Serif" font-size="10.00">_variables/simple/src/main.cpp</text>
</a>
</g>
</g>
<!-- Node3&#45;&gt;Node6 -->
<g id="edge5" class="edge">
<title>Node3&#45;&gt;Node6</title>
<path fill="none" stroke="midnightblue" d="M402.71,-71.74C389.44,-60.95 371.78,-46.6 358.84,-36.09"/>
<polygon fill="midnightblue" stroke="midnightblue" points="400.74,-74.64 410.71,-78.23 405.16,-69.21 400.74,-74.64"/>
</g>
<!-- Node7 -->
<g id="node7" class="node">
<title>Node7</title>
<g id="a_node7"><a xlink:href="tests_2compile_2src_2main_8cpp.html" target="_top" xlink:title=" ">
<polygon fill="none" stroke="black" points="435.5,-11.5 435.5,-30.5 569.5,-30.5 569.5,-11.5 435.5,-11.5"/>
<text text-anchor="middle" x="502.5" y="-18.5" font-family="Helvetica,sans-Serif" font-size="10.00">tests/compile/src/main.cpp</text>
</a>
</g>
</g>
<!-- Node3&#45;&gt;Node7 -->
<g id="edge6" class="edge">
<title>Node3&#45;&gt;Node7</title>
<path fill="none" stroke="midnightblue" d="M440.55,-71.71C456.51,-58.91 478.71,-41.09 491.75,-30.63"/>
<polygon fill="midnightblue" stroke="midnightblue" points="438.03,-69.25 432.42,-78.23 442.41,-74.7 438.03,-69.25"/>
</g>
<!-- Node8 -->
<g id="node8" class="node">
<title>Node8</title>
<g id="a_node8"><a xlink:href="tests_2condition__variable_2src_2main_8cpp.html" target="_top" xlink:title=" ">
<polygon fill="none" stroke="black" points="588,-6 588,-36 707,-36 707,-6 588,-6"/>
<text text-anchor="start" x="596" y="-24" font-family="Helvetica,sans-Serif" font-size="10.00">tests/condition_variable</text>
<text text-anchor="middle" x="647.5" y="-13" font-family="Helvetica,sans-Serif" font-size="10.00">/src/main.cpp</text>
</a>
</g>
</g>
<!-- Node3&#45;&gt;Node8 -->
<g id="edge7" class="edge">
<title>Node3&#45;&gt;Node8</title>
<path fill="none" stroke="midnightblue" d="M461.11,-75.68C492.86,-66.6 538.55,-53.52 578.5,-42 585.21,-40.07 592.29,-38.02 599.25,-36.01"/>
<polygon fill="midnightblue" stroke="midnightblue" points="459.97,-72.37 451.31,-78.48 461.89,-79.1 459.97,-72.37"/>
</g>
<!-- Node9 -->
<g id="node9" class="node">
<title>Node9</title>
<g id="a_node9"><a xlink:href="tests_2result_2src_2main_8cpp.html" target="_top" xlink:title=" ">
<polygon fill="none" stroke="black" points="725.5,-11.5 725.5,-30.5 849.5,-30.5 849.5,-11.5 725.5,-11.5"/>
<text text-anchor="middle" x="787.5" y="-18.5" font-family="Helvetica,sans-Serif" font-size="10.00">tests/result/src/main.cpp</text>
</a>
</g>
</g>
<!-- Node3&#45;&gt;Node9 -->
<g id="edge8" class="edge">
<title>Node3&#45;&gt;Node9</title>
<path fill="none" stroke="midnightblue" d="M473.54,-81.03C532.76,-73.78 632.19,-60.23 716.5,-42 731.02,-38.86 746.96,-34.46 760.05,-30.58"/>
<polygon fill="midnightblue" stroke="midnightblue" points="472.83,-77.59 463.32,-82.27 473.67,-84.54 472.83,-77.59"/>
</g>
<!-- Node10&#45;&gt;Node2 -->
<g id="edge10" class="edge">
<title>Node10&#45;&gt;Node2</title>
<path fill="none" stroke="midnightblue" d="M279.15,-382.35C249.83,-371.33 206.62,-355.09 175.84,-343.53"/>
<polygon fill="midnightblue" stroke="midnightblue" points="277.93,-385.63 288.53,-385.87 280.4,-379.07 277.93,-385.63"/>
</g>
<!-- Node10&#45;&gt;Node3 -->
<g id="edge11" class="edge">
<title>Node10&#45;&gt;Node3</title>
<path fill="none" stroke="midnightblue" d="M283.34,-381.07C268.2,-372.48 250.46,-359.94 239.5,-344 219.78,-315.3 220.5,-302.82 220.5,-268 220.5,-268 220.5,-268 220.5,-204.5 220.5,-131.65 320.98,-104.08 379.85,-94.17"/>
<polygon fill="midnightblue" stroke="midnightblue" points="281.87,-384.25 292.34,-385.9 285.19,-378.09 281.87,-384.25"/>
</g>
<!-- Node11 -->
<g id="node11" class="node">
<title>Node11</title>
<g id="a_node11"><a xlink:href="tests_2mutex_2src_2main_8cpp.html" target="_top" xlink:title=" ">
<polygon fill="none" stroke="black" points="248.5,-319 248.5,-338 374.5,-338 374.5,-319 248.5,-319"/>
<text text-anchor="middle" x="311.5" y="-326" font-family="Helvetica,sans-Serif" font-size="10.00">tests/mutex/src/main.cpp</text>
</a>
</g>
</g>
<!-- Node10&#45;&gt;Node11 -->
<g id="edge12" class="edge">
<title>Node10&#45;&gt;Node11</title>
<path fill="none" stroke="midnightblue" d="M311.5,-375.54C311.5,-363.17 311.5,-347.62 311.5,-338.13"/>
<polygon fill="midnightblue" stroke="midnightblue" points="308,-375.73 311.5,-385.73 315,-375.73 308,-375.73"/>
</g>
<!-- Node12&#45;&gt;Node2 -->
<g id="edge14" class="edge">
<title>Node12&#45;&gt;Node2</title>
<path fill="none" stroke="midnightblue" d="M342.83,-445.12C313.24,-437.82 276.19,-426.64 245.5,-411 209.3,-392.56 172.88,-361.53 153.26,-343.55"/>
<polygon fill="midnightblue" stroke="midnightblue" points="342.03,-448.53 352.57,-447.45 343.66,-441.72 342.03,-448.53"/>
</g>
<!-- Node12&#45;&gt;Node3 -->
<g id="edge39" class="edge">
<title>Node12&#45;&gt;Node3</title>
<path fill="none" stroke="midnightblue" d="M396.67,-437.14C398.66,-403.28 402.5,-329.94 402.5,-268 402.5,-268 402.5,-268 402.5,-204.5 402.5,-164.06 413.98,-116.7 419.09,-97.61"/>
<polygon fill="midnightblue" stroke="midnightblue" points="393.16,-437.19 396.05,-447.38 400.14,-437.61 393.16,-437.19"/>
</g>
<!-- Node12&#45;&gt;Node10 -->
<g id="edge15" class="edge">
<title>Node12&#45;&gt;Node10</title>
<path fill="none" stroke="midnightblue" d="M375.19,-441.61C359.03,-430.17 336.98,-414.55 323.51,-405.01"/>
<polygon fill="midnightblue" stroke="midnightblue" points="373.28,-444.55 383.46,-447.48 377.33,-438.84 373.28,-444.55"/>
</g>
<!-- Node12&#45;&gt;Node13 -->
<g id="edge16" class="edge">
<title>Node12&#45;&gt;Node13</title>
<path fill="none" stroke="midnightblue" d="M438.7,-444.97C483.94,-433.41 554.03,-415.52 595.18,-405.01"/>
<polygon fill="midnightblue" stroke="midnightblue" points="437.71,-441.61 428.88,-447.48 439.44,-448.39 437.71,-441.61"/>
</g>
<!-- Node12&#45;&gt;Node24 -->
<g id="edge37" class="edge">
<title>Node12&#45;&gt;Node24</title>
<path fill="none" stroke="midnightblue" d="M415.77,-441.47C428.91,-432.05 445.94,-419.84 458.94,-410.52"/>
<polygon fill="midnightblue" stroke="midnightblue" points="413.48,-438.8 407.39,-447.48 417.56,-444.49 413.48,-438.8"/>
</g>
<!-- Node13&#45;&gt;Node3 -->
<g id="edge30" class="edge">
<title>Node13&#45;&gt;Node3</title>
<path fill="none" stroke="midnightblue" d="M565.33,-383.18C541.03,-375.82 514.95,-363.74 497.5,-344 474.44,-317.91 478.5,-302.82 478.5,-268 478.5,-268 478.5,-268 478.5,-204.5 478.5,-160.45 444.75,-115.8 429.19,-97.56"/>
<polygon fill="midnightblue" stroke="midnightblue" points="564.67,-386.63 575.24,-385.96 566.56,-379.89 564.67,-386.63"/>
</g>
<!-- Node13&#45;&gt;Node11 -->
<g id="edge33" class="edge">
<title>Node13&#45;&gt;Node11</title>
<path fill="none" stroke="midnightblue" d="M576.7,-383.88C514.27,-371.08 410.59,-349.82 353.11,-338.03"/>
<polygon fill="midnightblue" stroke="midnightblue" points="576.23,-387.36 586.73,-385.94 577.64,-380.5 576.23,-387.36"/>
</g>
<!-- Node14 -->
<g id="node14" class="node">
<title>Node14</title>
<g id="a_node14"><a xlink:href="sem_8hpp.html" target="_top" xlink:title=" ">
<polygon fill="none" stroke="black" points="690,-319 690,-338 795,-338 795,-319 690,-319"/>
<text text-anchor="middle" x="742.5" y="-326" font-family="Helvetica,sans-Serif" font-size="10.00">include/zpp/sem.hpp</text>
</a>
</g>
</g>
<!-- Node13&#45;&gt;Node14 -->
<g id="edge17" class="edge">
<title>Node13&#45;&gt;Node14</title>
<path fill="none" stroke="midnightblue" d="M652.85,-380.62C675.44,-367.74 708.34,-348.98 727.37,-338.13"/>
<polygon fill="midnightblue" stroke="midnightblue" points="650.83,-377.74 643.87,-385.73 654.3,-383.82 650.83,-377.74"/>
</g>
<!-- Node19 -->
<g id="node19" class="node">
<title>Node19</title>
<g id="a_node19"><a xlink:href="tests_2fifo_2src_2main_8cpp.html" target="_top" xlink:title=" ">
<polygon fill="none" stroke="black" points="507,-257.5 507,-276.5 620,-276.5 620,-257.5 507,-257.5"/>
<text text-anchor="middle" x="563.5" y="-264.5" font-family="Helvetica,sans-Serif" font-size="10.00">tests/fifo/src/main.cpp</text>
</a>
</g>
</g>
<!-- Node13&#45;&gt;Node19 -->
<g id="edge32" class="edge">
<title>Node13&#45;&gt;Node19</title>
<path fill="none" stroke="midnightblue" d="M636.27,-376.49C642.5,-359.11 648.54,-332.63 637.5,-313 627.48,-295.18 607.22,-283.59 590.43,-276.64"/>
<polygon fill="midnightblue" stroke="midnightblue" points="632.94,-375.4 632.52,-385.99 639.45,-377.97 632.94,-375.4"/>
</g>
<!-- Node20 -->
<g id="node20" class="node">
<title>Node20</title>
<g id="a_node20"><a xlink:href="tests_2sem_2src_2main_8cpp.html" target="_top" xlink:title=" ">
<polygon fill="none" stroke="black" points="903,-257.5 903,-276.5 1022,-276.5 1022,-257.5 903,-257.5"/>
<text text-anchor="middle" x="962.5" y="-264.5" font-family="Helvetica,sans-Serif" font-size="10.00">tests/sem/src/main.cpp</text>
</a>
</g>
</g>
<!-- Node13&#45;&gt;Node20 -->
<g id="edge34" class="edge">
<title>Node13&#45;&gt;Node20</title>
<path fill="none" stroke="midnightblue" d="M686.88,-383.78C722.21,-375.85 767.46,-363.07 804.5,-344 824.19,-333.86 824.25,-323.94 843.5,-313 871.92,-296.85 907.26,-284.34 932.01,-276.65"/>
<polygon fill="midnightblue" stroke="midnightblue" points="685.75,-380.45 676.72,-385.99 687.23,-387.29 685.75,-380.45"/>
</g>
<!-- Node21 -->
<g id="node21" class="node">
<title>Node21</title>
<g id="a_node21"><a xlink:href="tests_2thread_2src_2main_8cpp.html" target="_top" xlink:title=" ">
<polygon fill="none" stroke="black" points="1040,-257.5 1040,-276.5 1167,-276.5 1167,-257.5 1040,-257.5"/>
<text text-anchor="middle" x="1103.5" y="-264.5" font-family="Helvetica,sans-Serif" font-size="10.00">tests/thread/src/main.cpp</text>
</a>
</g>
</g>
<!-- Node13&#45;&gt;Node21 -->
<g id="edge35" class="edge">
<title>Node13&#45;&gt;Node21</title>
<path fill="none" stroke="midnightblue" d="M695.19,-393.44C768.3,-390.37 888.06,-379.71 984.5,-344 1028.87,-327.57 1073.97,-292.72 1093.49,-276.56"/>
<polygon fill="midnightblue" stroke="midnightblue" points="695.04,-389.94 685.19,-393.82 695.31,-396.94 695.04,-389.94"/>
</g>
<!-- Node22 -->
<g id="node22" class="node">
<title>Node22</title>
<g id="a_node22"><a xlink:href="tests_2clock_2src_2main_8cpp.html" target="_top" xlink:title=" ">
<polygon fill="none" stroke="black" points="852,-319 852,-338 975,-338 975,-319 852,-319"/>
<text text-anchor="middle" x="913.5" y="-326" font-family="Helvetica,sans-Serif" font-size="10.00">tests/clock/src/main.cpp</text>
</a>
</g>
</g>
<!-- Node13&#45;&gt;Node22 -->
<g id="edge31" class="edge">
<title>Node13&#45;&gt;Node22</title>
<path fill="none" stroke="midnightblue" d="M676.1,-383.64C732.25,-370.84 824.45,-349.81 875.86,-338.08"/>
<polygon fill="midnightblue" stroke="midnightblue" points="675.02,-380.3 666.05,-385.94 676.58,-387.12 675.02,-380.3"/>
</g>
<!-- Node23 -->
<g id="node23" class="node">
<title>Node23</title>
<g id="a_node23"><a xlink:href="tests_2timer_2src_2main_8cpp.html" target="_top" xlink:title=" ">
<polygon fill="none" stroke="black" points="506.5,-319 506.5,-338 628.5,-338 628.5,-319 506.5,-319"/>
<text text-anchor="middle" x="567.5" y="-326" font-family="Helvetica,sans-Serif" font-size="10.00">tests/timer/src/main.cpp</text>
</a>
</g>
</g>
<!-- Node13&#45;&gt;Node23 -->
<g id="edge36" class="edge">
<title>Node13&#45;&gt;Node23</title>
<path fill="none" stroke="midnightblue" d="M613.14,-378.13C601.21,-365.42 585.14,-348.3 575.6,-338.13"/>
<polygon fill="midnightblue" stroke="midnightblue" points="610.88,-380.84 620.27,-385.73 615.98,-376.05 610.88,-380.84"/>
</g>
<!-- Node14&#45;&gt;Node3 -->
<g id="edge25" class="edge">
<title>Node14&#45;&gt;Node3</title>
<path fill="none" stroke="midnightblue" d="M720.62,-313.27C705.71,-303.4 685.64,-289.78 668.5,-277 587.69,-216.76 574.32,-192.86 492.5,-134 473.66,-120.45 450.84,-106.37 436.24,-97.65"/>
<polygon fill="midnightblue" stroke="midnightblue" points="718.89,-316.31 729.17,-318.89 722.74,-310.47 718.89,-316.31"/>
</g>
<!-- Node15 -->
<g id="node15" class="node">
<title>Node15</title>
<g id="a_node15"><a xlink:href="poll__event_8hpp.html" target="_top" xlink:title=" ">
<polygon fill="none" stroke="black" points="677,-257.5 677,-276.5 808,-276.5 808,-257.5 677,-257.5"/>
<text text-anchor="middle" x="742.5" y="-264.5" font-family="Helvetica,sans-Serif" font-size="10.00">include/zpp/poll_event.hpp</text>
</a>
</g>
</g>
<!-- Node14&#45;&gt;Node15 -->
<g id="edge18" class="edge">
<title>Node14&#45;&gt;Node15</title>
<path fill="none" stroke="midnightblue" d="M742.5,-308.82C742.5,-298 742.5,-284.9 742.5,-276.51"/>
<polygon fill="midnightblue" stroke="midnightblue" points="739,-308.98 742.5,-318.98 746,-308.98 739,-308.98"/>
</g>
<!-- Node17 -->
<g id="node17" class="node">
<title>Node17</title>
<g id="a_node17"><a xlink:href="tests_2poll_2src_2main_8cpp.html" target="_top" xlink:title=" ">
<polygon fill="none" stroke="black" points="759,-78.5 759,-97.5 874,-97.5 874,-78.5 759,-78.5"/>
<text text-anchor="middle" x="816.5" y="-85.5" font-family="Helvetica,sans-Serif" font-size="10.00">tests/poll/src/main.cpp</text>
</a>
</g>
</g>
<!-- Node14&#45;&gt;Node17 -->
<g id="edge27" class="edge">
<title>Node14&#45;&gt;Node17</title>
<path fill="none" stroke="midnightblue" d="M776.59,-314.91C795.19,-306.58 817.43,-294.02 832.5,-277 850.33,-256.85 850.29,-247.4 855.5,-221 864.89,-173.41 834.87,-118.29 822.03,-97.51"/>
<polygon fill="midnightblue" stroke="midnightblue" points="775.08,-311.75 767.25,-318.88 777.82,-318.19 775.08,-311.75"/>
</g>
<!-- Node18 -->
<g id="node18" class="node">
<title>Node18</title>
<g id="a_node18"><a xlink:href="poll__event__set_8hpp.html" target="_top" xlink:title=" ">
<polygon fill="none" stroke="black" points="733,-190.5 733,-220.5 846,-220.5 846,-190.5 733,-190.5"/>
<text text-anchor="start" x="741" y="-208.5" font-family="Helvetica,sans-Serif" font-size="10.00">include/zpp/poll_event</text>
<text text-anchor="middle" x="789.5" y="-197.5" font-family="Helvetica,sans-Serif" font-size="10.00">_set.hpp</text>
</a>
</g>
</g>
<!-- Node14&#45;&gt;Node18 -->
<g id="edge24" class="edge">
<title>Node14&#45;&gt;Node18</title>
<path fill="none" stroke="midnightblue" d="M774.9,-314.55C790.79,-306.34 808.44,-294.03 817.5,-277 827.46,-258.28 813.82,-235.22 802.32,-220.69"/>
<polygon fill="midnightblue" stroke="midnightblue" points="773.32,-311.43 765.82,-318.91 776.35,-317.74 773.32,-311.43"/>
</g>
<!-- Node14&#45;&gt;Node19 -->
<g id="edge26" class="edge">
<title>Node14&#45;&gt;Node19</title>
<path fill="none" stroke="midnightblue" d="M707.1,-315.73C672.3,-304.17 620.05,-286.8 589.1,-276.51"/>
<polygon fill="midnightblue" stroke="midnightblue" points="706.26,-319.14 716.85,-318.98 708.47,-312.5 706.26,-319.14"/>
</g>
<!-- Node14&#45;&gt;Node20 -->
<g id="edge28" class="edge">
<title>Node14&#45;&gt;Node20</title>
<path fill="none" stroke="midnightblue" d="M783.83,-316.32C826.56,-304.76 892.35,-286.97 931.04,-276.51"/>
<polygon fill="midnightblue" stroke="midnightblue" points="782.76,-312.99 774.02,-318.98 784.59,-319.74 782.76,-312.99"/>
</g>
<!-- Node14&#45;&gt;Node21 -->
<g id="edge29" class="edge">
<title>Node14&#45;&gt;Node21</title>
<path fill="none" stroke="midnightblue" d="M804.2,-317.33C874.03,-305.82 986.51,-287.28 1051.87,-276.51"/>
<polygon fill="midnightblue" stroke="midnightblue" points="803.52,-313.9 794.22,-318.98 804.66,-320.8 803.52,-313.9"/>
</g>
<!-- Node16 -->
<g id="node16" class="node">
<title>Node16</title>
<g id="a_node16"><a xlink:href="poll_8hpp.html" target="_top" xlink:title=" ">
<polygon fill="none" stroke="black" points="708,-134.5 708,-153.5 809,-153.5 809,-134.5 708,-134.5"/>
<text text-anchor="middle" x="758.5" y="-141.5" font-family="Helvetica,sans-Serif" font-size="10.00">include/zpp/poll.hpp</text>
</a>
</g>
</g>
<!-- Node15&#45;&gt;Node16 -->
<g id="edge19" class="edge">
<title>Node15&#45;&gt;Node16</title>
<path fill="none" stroke="midnightblue" d="M732.84,-248.41C725.58,-232.85 717.92,-209.62 724.5,-190 729.36,-175.52 740.92,-161.98 749.21,-153.61"/>
<polygon fill="midnightblue" stroke="midnightblue" points="729.76,-250.08 737.4,-257.42 736.01,-246.92 729.76,-250.08"/>
</g>
<!-- Node15&#45;&gt;Node18 -->
<g id="edge22" class="edge">
<title>Node15&#45;&gt;Node18</title>
<path fill="none" stroke="midnightblue" d="M755.51,-249.53C762.71,-240.42 771.56,-229.21 778.42,-220.52"/>
<polygon fill="midnightblue" stroke="midnightblue" points="752.69,-247.46 749.23,-257.48 758.18,-251.8 752.69,-247.46"/>
</g>
<!-- Node16&#45;&gt;Node3 -->
<g id="edge20" class="edge">
<title>Node16&#45;&gt;Node3</title>
<path fill="none" stroke="midnightblue" d="M697.57,-133.24C629.74,-122.37 521.96,-105.1 463.15,-95.67"/>
<polygon fill="midnightblue" stroke="midnightblue" points="697.25,-136.73 707.68,-134.86 698.36,-129.82 697.25,-136.73"/>
</g>
<!-- Node16&#45;&gt;Node17 -->
<g id="edge21" class="edge">
<title>Node16&#45;&gt;Node17</title>
<path fill="none" stroke="midnightblue" d="M775.41,-127.25C785.7,-117.67 798.47,-105.79 807.01,-97.83"/>
<polygon fill="midnightblue" stroke="midnightblue" points="772.75,-124.95 767.82,-134.32 777.52,-130.07 772.75,-124.95"/>
</g>
<!-- Node18&#45;&gt;Node16 -->
<g id="edge23" class="edge">
<title>Node18&#45;&gt;Node16</title>
<path fill="none" stroke="midnightblue" d="M777.52,-181.5C772.43,-171.74 766.81,-160.96 763.01,-153.66"/>
<polygon fill="midnightblue" stroke="midnightblue" points="774.43,-183.15 782.15,-190.4 780.64,-179.91 774.43,-183.15"/>
</g>
<!-- Node24&#45;&gt;Node3 -->
<g id="edge38" class="edge">
<title>Node24&#45;&gt;Node3</title>
<path fill="none" stroke="midnightblue" d="M467.02,-371.16C455.83,-346.24 440.5,-305.29 440.5,-268 440.5,-268 440.5,-268 440.5,-204.5 440.5,-164.06 429.02,-116.7 423.91,-97.61"/>
<polygon fill="midnightblue" stroke="midnightblue" points="463.97,-372.9 471.35,-380.5 470.31,-369.95 463.97,-372.9"/>
</g>
</g>
</svg>
