<?xml version="1.0" encoding="UTF-8" standalone="no"?>
<!DOCTYPE svg PUBLIC "-//W3C//DTD SVG 1.1//EN"
 "http://www.w3.org/Graphics/SVG/1.1/DTD/svg11.dtd">
<!-- Generated by graphviz version 2.44.0 ()
 -->
<!-- Title: include/zpp/fmt.hpp Pages: 1 -->
<svg width="407pt" height="84pt"
 viewBox="0.00 0.00 407.00 84.00" xmlns="http://www.w3.org/2000/svg" xmlns:xlink="http://www.w3.org/1999/xlink">
<g id="graph0" class="graph" transform="scale(1 1) rotate(0) translate(4 80)">
<title>include/zpp/fmt.hpp</title>
<!-- Node1 -->
<g id="node1" class="node">
<title>Node1</title>
<g id="a_node1"><a xlink:title=" ">
<polygon fill="#bfbfbf" stroke="black" points="202,-56.5 202,-75.5 303,-75.5 303,-56.5 202,-56.5"/>
<text text-anchor="middle" x="252.5" y="-63.5" font-family="Helvetica,sans-Serif" font-size="10.00">include/zpp/fmt.hpp</text>
</a>
</g>
</g>
<!-- Node2 -->
<g id="node2" class="node">
<title>Node2</title>
<g id="a_node2"><a xlink:title=" ">
<polygon fill="none" stroke="#bfbfbf" points="0,-0.5 0,-19.5 81,-19.5 81,-0.5 0,-0.5"/>
<text text-anchor="middle" x="40.5" y="-7.5" font-family="Helvetica,sans-Serif" font-size="10.00">zephyr/kernel.h</text>
</a>
</g>
</g>
<!-- Node1&#45;&gt;Node2 -->
<g id="edge1" class="edge">
<title>Node1&#45;&gt;Node2</title>
<path fill="none" stroke="midnightblue" d="M218.91,-56.44C182.31,-47.12 123.66,-32.18 83.67,-22"/>
<polygon fill="midnightblue" stroke="midnightblue" points="84.49,-18.59 73.93,-19.52 82.76,-25.38 84.49,-18.59"/>
</g>
<!-- Node3 -->
<g id="node3" class="node">
<title>Node3</title>
<g id="a_node3"><a xlink:title=" ">
<polygon fill="none" stroke="#bfbfbf" points="99.5,-0.5 99.5,-19.5 209.5,-19.5 209.5,-0.5 99.5,-0.5"/>
<text text-anchor="middle" x="154.5" y="-7.5" font-family="Helvetica,sans-Serif" font-size="10.00">zephyr/sys/__assert.h</text>
</a>
</g>
</g>
<!-- Node1&#45;&gt;Node3 -->
<g id="edge2" class="edge">
<title>Node1&#45;&gt;Node3</title>
<path fill="none" stroke="midnightblue" d="M236.75,-56.32C221.18,-47.74 197.12,-34.49 179.04,-24.52"/>
<polygon fill="midnightblue" stroke="midnightblue" points="180.65,-21.42 170.21,-19.65 177.28,-27.55 180.65,-21.42"/>
</g>
<!-- Node4 -->
<g id="node4" class="node">
<title>Node4</title>
<g id="a_node4"><a xlink:title=" ">
<polygon fill="none" stroke="#bfbfbf" points="228,-0.5 228,-19.5 277,-19.5 277,-0.5 228,-0.5"/>
<text text-anchor="middle" x="252.5" y="-7.5" font-family="Helvetica,sans-Serif" font-size="10.00">cstddef</text>
</a>
</g>
</g>
<!-- Node1&#45;&gt;Node4 -->
<g id="edge3" class="edge">
<title>Node1&#45;&gt;Node4</title>
<path fill="none" stroke="midnightblue" d="M252.5,-56.08C252.5,-49.01 252.5,-38.86 252.5,-29.99"/>
<polygon fill="midnightblue" stroke="midnightblue" points="256,-29.75 252.5,-19.75 249,-29.75 256,-29.75"/>
</g>
<!-- Node5 -->
<g id="node5" class="node">
<title>Node5</title>
<g id="a_node5"><a xlink:title=" ">
<polygon fill="none" stroke="#bfbfbf" points="295.5,-0.5 295.5,-19.5 341.5,-19.5 341.5,-0.5 295.5,-0.5"/>
<text text-anchor="middle" x="318.5" y="-7.5" font-family="Helvetica,sans-Serif" font-size="10.00">chrono</text>
</a>
</g>
</g>
<!-- Node1&#45;&gt;Node5 -->
<g id="edge4" class="edge">
<title>Node1&#45;&gt;Node5</title>
<path fill="none" stroke="midnightblue" d="M263.1,-56.32C272.96,-48.26 287.85,-36.08 299.72,-26.37"/>
<polygon fill="midnightblue" stroke="midnightblue" points="302.18,-28.88 307.7,-19.83 297.75,-23.46 302.18,-28.88"/>
</g>
<!-- Node6 -->
<g id="node6" class="node">
<title>Node6</title>
<g id="a_node6"><a xlink:title=" ">
<polygon fill="none" stroke="#bfbfbf" points="360,-0.5 360,-19.5 399,-19.5 399,-0.5 360,-0.5"/>
<text text-anchor="middle" x="379.5" y="-7.5" font-family="Helvetica,sans-Serif" font-size="10.00">utility</text>
</a>
</g>
</g>
<!-- Node1&#45;&gt;Node6 -->
<g id="edge5" class="edge">
<title>Node1&#45;&gt;Node6</title>
<path fill="none" stroke="midnightblue" d="M272.62,-56.44C293.65,-47.5 326.82,-33.4 350.63,-23.27"/>
<polygon fill="midnightblue" stroke="midnightblue" points="352.05,-26.47 359.89,-19.34 349.32,-20.03 352.05,-26.47"/>
</g>
</g>
</svg>
