<?xml version="1.0" encoding="UTF-8" standalone="no"?>
<!DOCTYPE svg PUBLIC "-//W3C//DTD SVG 1.1//EN"
 "http://www.w3.org/Graphics/SVG/1.1/DTD/svg11.dtd">
<!-- Generated by graphviz version 2.44.0 ()
 -->
<!-- Title: include/zpp/heap.hpp Pages: 1 -->
<svg width="402pt" height="84pt"
 viewBox="0.00 0.00 401.50 84.00" xmlns="http://www.w3.org/2000/svg" xmlns:xlink="http://www.w3.org/1999/xlink">
<g id="graph0" class="graph" transform="scale(1 1) rotate(0) translate(4 80)">
<title>include/zpp/heap.hpp</title>
<!-- Node1 -->
<g id="node1" class="node">
<title>Node1</title>
<g id="a_node1"><a xlink:title=" ">
<polygon fill="#bfbfbf" stroke="black" points="197,-56.5 197,-75.5 304,-75.5 304,-56.5 197,-56.5"/>
<text text-anchor="middle" x="250.5" y="-63.5" font-family="Helvetica,sans-Serif" font-size="10.00">include/zpp/heap.hpp</text>
</a>
</g>
</g>
<!-- Node2 -->
<g id="node2" class="node">
<title>Node2</title>
<g id="a_node2"><a xlink:title=" ">
<polygon fill="none" stroke="#bfbfbf" points="0,-0.5 0,-19.5 81,-19.5 81,-0.5 0,-0.5"/>
<text text-anchor="middle" x="40.5" y="-7.5" font-family="Helvetica,sans-Serif" font-size="10.00">zephyr/kernel.h</text>
</a>
</g>
</g>
<!-- Node1&#45;&gt;Node2 -->
<g id="edge1" class="edge">
<title>Node1&#45;&gt;Node2</title>
<path fill="none" stroke="midnightblue" d="M217.22,-56.44C181.05,-47.14 123.12,-32.25 83.52,-22.06"/>
<polygon fill="midnightblue" stroke="midnightblue" points="84.18,-18.62 73.62,-19.52 82.43,-25.4 84.18,-18.62"/>
</g>
<!-- Node3 -->
<g id="node3" class="node">
<title>Node3</title>
<g id="a_node3"><a xlink:title=" ">
<polygon fill="none" stroke="#bfbfbf" points="99.5,-0.5 99.5,-19.5 209.5,-19.5 209.5,-0.5 99.5,-0.5"/>
<text text-anchor="middle" x="154.5" y="-7.5" font-family="Helvetica,sans-Serif" font-size="10.00">zephyr/sys/__assert.h</text>
</a>
</g>
</g>
<!-- Node1&#45;&gt;Node3 -->
<g id="edge2" class="edge">
<title>Node1&#45;&gt;Node3</title>
<path fill="none" stroke="midnightblue" d="M235.08,-56.32C219.96,-47.82 196.68,-34.73 179.03,-24.8"/>
<polygon fill="midnightblue" stroke="midnightblue" points="180.32,-21.51 169.89,-19.65 176.89,-27.61 180.32,-21.51"/>
</g>
<!-- Node4 -->
<g id="node4" class="node">
<title>Node4</title>
<g id="a_node4"><a xlink:title=" ">
<polygon fill="none" stroke="#bfbfbf" points="227.5,-0.5 227.5,-19.5 273.5,-19.5 273.5,-0.5 227.5,-0.5"/>
<text text-anchor="middle" x="250.5" y="-7.5" font-family="Helvetica,sans-Serif" font-size="10.00">chrono</text>
</a>
</g>
</g>
<!-- Node1&#45;&gt;Node4 -->
<g id="edge3" class="edge">
<title>Node1&#45;&gt;Node4</title>
<path fill="none" stroke="midnightblue" d="M250.5,-56.08C250.5,-49.01 250.5,-38.86 250.5,-29.99"/>
<polygon fill="midnightblue" stroke="midnightblue" points="254,-29.75 250.5,-19.75 247,-29.75 254,-29.75"/>
</g>
<!-- Node5 -->
<g id="node5" class="node">
<title>Node5</title>
<g id="a_node5"><a xlink:title=" ">
<polygon fill="none" stroke="#bfbfbf" points="291.5,-0.5 291.5,-19.5 329.5,-19.5 329.5,-0.5 291.5,-0.5"/>
<text text-anchor="middle" x="310.5" y="-7.5" font-family="Helvetica,sans-Serif" font-size="10.00">array</text>
</a>
</g>
</g>
<!-- Node1&#45;&gt;Node5 -->
<g id="edge4" class="edge">
<title>Node1&#45;&gt;Node5</title>
<path fill="none" stroke="midnightblue" d="M260.14,-56.32C269.01,-48.34 282.37,-36.31 293.11,-26.65"/>
<polygon fill="midnightblue" stroke="midnightblue" points="295.59,-29.13 300.68,-19.83 290.91,-23.92 295.59,-29.13"/>
</g>
<!-- Node6 -->
<g id="node6" class="node">
<title>Node6</title>
<g id="a_node6"><a xlink:title=" ">
<polygon fill="none" stroke="#bfbfbf" points="347.5,-0.5 347.5,-19.5 393.5,-19.5 393.5,-0.5 347.5,-0.5"/>
<text text-anchor="middle" x="370.5" y="-7.5" font-family="Helvetica,sans-Serif" font-size="10.00">cstdint</text>
</a>
</g>
</g>
<!-- Node1&#45;&gt;Node6 -->
<g id="edge5" class="edge">
<title>Node1&#45;&gt;Node6</title>
<path fill="none" stroke="midnightblue" d="M269.51,-56.44C289.09,-47.64 319.81,-33.81 342.23,-23.72"/>
<polygon fill="midnightblue" stroke="midnightblue" points="343.89,-26.81 351.57,-19.52 341.02,-20.43 343.89,-26.81"/>
</g>
</g>
</svg>
