<?xml version="1.0" encoding="UTF-8" standalone="no"?>
<!DOCTYPE svg PUBLIC "-//W3C//DTD SVG 1.1//EN"
 "http://www.w3.org/Graphics/SVG/1.1/DTD/svg11.dtd">
<!-- Generated by graphviz version 2.44.0 ()
 -->
<!-- Title: include/zpp/heap.hpp Pages: 1 -->
<svg width="998pt" height="453pt"
 viewBox="0.00 0.00 998.00 453.00" xmlns="http://www.w3.org/2000/svg" xmlns:xlink="http://www.w3.org/1999/xlink">
<g id="graph0" class="graph" transform="scale(1 1) rotate(0) translate(4 449)">
<title>include/zpp/heap.hpp</title>
<!-- Node1 -->
<g id="node1" class="node">
<title>Node1</title>
<g id="a_node1"><a xlink:title=" ">
<polygon fill="#bfbfbf" stroke="black" points="418,-425.5 418,-444.5 525,-444.5 525,-425.5 418,-425.5"/>
<text text-anchor="middle" x="471.5" y="-432.5" font-family="Helvetica,sans-Serif" font-size="10.00">include/zpp/heap.hpp</text>
</a>
</g>
</g>
<!-- Node2 -->
<g id="node2" class="node">
<title>Node2</title>
<g id="a_node2"><a xlink:href="thread_8hpp.html" target="_top" xlink:title=" ">
<polygon fill="none" stroke="black" points="415,-369.5 415,-388.5 528,-388.5 528,-369.5 415,-369.5"/>
<text text-anchor="middle" x="471.5" y="-376.5" font-family="Helvetica,sans-Serif" font-size="10.00">include/zpp/thread.hpp</text>
</a>
</g>
</g>
<!-- Node1&#45;&gt;Node2 -->
<g id="edge1" class="edge">
<title>Node1&#45;&gt;Node2</title>
<path fill="none" stroke="midnightblue" d="M471.5,-414.8C471.5,-405.91 471.5,-395.78 471.5,-388.75"/>
<polygon fill="midnightblue" stroke="midnightblue" points="468,-415.08 471.5,-425.08 475,-415.08 468,-415.08"/>
</g>
<!-- Node6 -->
<g id="node6" class="node">
<title>Node6</title>
<g id="a_node6"><a xlink:href="zpp_8hpp.html" target="_top" xlink:title=" ">
<polygon fill="none" stroke="black" points="380,-78.5 380,-97.5 463,-97.5 463,-78.5 380,-78.5"/>
<text text-anchor="middle" x="421.5" y="-85.5" font-family="Helvetica,sans-Serif" font-size="10.00">include/zpp.hpp</text>
</a>
</g>
</g>
<!-- Node1&#45;&gt;Node6 -->
<g id="edge28" class="edge">
<title>Node1&#45;&gt;Node6</title>
<path fill="none" stroke="midnightblue" d="M407.79,-424.53C317.32,-409.26 162.5,-375.59 162.5,-324 162.5,-324 162.5,-324 162.5,-204.5 162.5,-110.46 306.67,-92.45 379.89,-89.37"/>
<polygon fill="midnightblue" stroke="midnightblue" points="407.24,-427.99 417.68,-426.17 408.38,-421.08 407.24,-427.99"/>
</g>
<!-- Node21 -->
<g id="node21" class="node">
<title>Node21</title>
<g id="a_node21"><a xlink:href="tests_2heap_2src_2main_8cpp.html" target="_top" xlink:title=" ">
<polygon fill="none" stroke="black" points="546,-369.5 546,-388.5 667,-388.5 667,-369.5 546,-369.5"/>
<text text-anchor="middle" x="606.5" y="-376.5" font-family="Helvetica,sans-Serif" font-size="10.00">tests/heap/src/main.cpp</text>
</a>
</g>
</g>
<!-- Node1&#45;&gt;Node21 -->
<g id="edge29" class="edge">
<title>Node1&#45;&gt;Node21</title>
<path fill="none" stroke="midnightblue" d="M502.41,-421.64C527.74,-411.5 562.93,-397.43 585.21,-388.52"/>
<polygon fill="midnightblue" stroke="midnightblue" points="500.88,-418.48 492.89,-425.44 503.48,-424.98 500.88,-418.48"/>
</g>
<!-- Node3 -->
<g id="node3" class="node">
<title>Node3</title>
<g id="a_node3"><a xlink:href="sem_8hpp.html" target="_top" xlink:title=" ">
<polygon fill="none" stroke="black" points="693,-313.5 693,-332.5 798,-332.5 798,-313.5 693,-313.5"/>
<text text-anchor="middle" x="745.5" y="-320.5" font-family="Helvetica,sans-Serif" font-size="10.00">include/zpp/sem.hpp</text>
</a>
</g>
</g>
<!-- Node2&#45;&gt;Node3 -->
<g id="edge2" class="edge">
<title>Node2&#45;&gt;Node3</title>
<path fill="none" stroke="midnightblue" d="M524.91,-367.47C576.7,-357.27 654.27,-341.98 702.29,-332.52"/>
<polygon fill="midnightblue" stroke="midnightblue" points="524.05,-364.08 514.92,-369.44 525.4,-370.94 524.05,-364.08"/>
</g>
<!-- Node2&#45;&gt;Node6 -->
<g id="edge21" class="edge">
<title>Node2&#45;&gt;Node6</title>
<path fill="none" stroke="midnightblue" d="M404.96,-376.75C358.29,-373.1 296.15,-362.4 249.5,-333 218.89,-313.71 200.5,-304.18 200.5,-268 200.5,-268 200.5,-268 200.5,-204.5 200.5,-124.41 315.91,-99.76 379.93,-92.24"/>
<polygon fill="midnightblue" stroke="midnightblue" points="404.76,-380.25 414.98,-377.45 405.24,-373.27 404.76,-380.25"/>
</g>
<!-- Node15 -->
<g id="node15" class="node">
<title>Node15</title>
<g id="a_node15"><a xlink:href="tests_2fifo_2src_2main_8cpp.html" target="_top" xlink:title=" ">
<polygon fill="none" stroke="black" points="269,-257.5 269,-276.5 382,-276.5 382,-257.5 269,-257.5"/>
<text text-anchor="middle" x="325.5" y="-264.5" font-family="Helvetica,sans-Serif" font-size="10.00">tests/fifo/src/main.cpp</text>
</a>
</g>
</g>
<!-- Node2&#45;&gt;Node15 -->
<g id="edge23" class="edge">
<title>Node2&#45;&gt;Node15</title>
<path fill="none" stroke="midnightblue" d="M404.57,-372.98C348.87,-367.25 275.83,-355.58 257.5,-333 239.39,-310.68 278.32,-288.33 304.42,-276.54"/>
<polygon fill="midnightblue" stroke="midnightblue" points="404.46,-376.49 414.75,-373.99 405.14,-369.52 404.46,-376.49"/>
</g>
<!-- Node16 -->
<g id="node16" class="node">
<title>Node16</title>
<g id="a_node16"><a xlink:href="tests_2sem_2src_2main_8cpp.html" target="_top" xlink:title=" ">
<polygon fill="none" stroke="black" points="726,-257.5 726,-276.5 845,-276.5 845,-257.5 726,-257.5"/>
<text text-anchor="middle" x="785.5" y="-264.5" font-family="Helvetica,sans-Serif" font-size="10.00">tests/sem/src/main.cpp</text>
</a>
</g>
</g>
<!-- Node2&#45;&gt;Node16 -->
<g id="edge25" class="edge">
<title>Node2&#45;&gt;Node16</title>
<path fill="none" stroke="midnightblue" d="M538.5,-368.99C612.42,-362.37 769.35,-376.56 807.5,-333 821.94,-316.51 804.26,-290.15 793.17,-276.62"/>
<polygon fill="midnightblue" stroke="midnightblue" points="537.77,-365.55 528.22,-370.13 538.54,-372.51 537.77,-365.55"/>
</g>
<!-- Node17 -->
<g id="node17" class="node">
<title>Node17</title>
<g id="a_node17"><a xlink:href="tests_2thread_2src_2main_8cpp.html" target="_top" xlink:title=" ">
<polygon fill="none" stroke="black" points="863,-257.5 863,-276.5 990,-276.5 990,-257.5 863,-257.5"/>
<text text-anchor="middle" x="926.5" y="-264.5" font-family="Helvetica,sans-Serif" font-size="10.00">tests/thread/src/main.cpp</text>
</a>
</g>
</g>
<!-- Node2&#45;&gt;Node17 -->
<g id="edge26" class="edge">
<title>Node2&#45;&gt;Node17</title>
<path fill="none" stroke="midnightblue" d="M538.37,-368.82C665.96,-353.37 705.54,-375.24 823.5,-333 860.73,-319.67 898.53,-291.13 916.2,-276.72"/>
<polygon fill="midnightblue" stroke="midnightblue" points="537.7,-365.38 528.21,-370.1 538.57,-372.32 537.7,-365.38"/>
</g>
<!-- Node18 -->
<g id="node18" class="node">
<title>Node18</title>
<g id="a_node18"><a xlink:href="tests_2clock_2src_2main_8cpp.html" target="_top" xlink:title=" ">
<polygon fill="none" stroke="black" points="267,-313.5 267,-332.5 390,-332.5 390,-313.5 267,-313.5"/>
<text text-anchor="middle" x="328.5" y="-320.5" font-family="Helvetica,sans-Serif" font-size="10.00">tests/clock/src/main.cpp</text>
</a>
</g>
</g>
<!-- Node2&#45;&gt;Node18 -->
<g id="edge22" class="edge">
<title>Node2&#45;&gt;Node18</title>
<path fill="none" stroke="midnightblue" d="M439.47,-365.91C412.59,-355.75 374.86,-341.51 351.05,-332.52"/>
<polygon fill="midnightblue" stroke="midnightblue" points="438.25,-369.19 448.84,-369.44 440.72,-362.64 438.25,-369.19"/>
</g>
<!-- Node19 -->
<g id="node19" class="node">
<title>Node19</title>
<g id="a_node19"><a xlink:href="tests_2mutex_2src_2main_8cpp.html" target="_top" xlink:title=" ">
<polygon fill="none" stroke="black" points="408.5,-313.5 408.5,-332.5 534.5,-332.5 534.5,-313.5 408.5,-313.5"/>
<text text-anchor="middle" x="471.5" y="-320.5" font-family="Helvetica,sans-Serif" font-size="10.00">tests/mutex/src/main.cpp</text>
</a>
</g>
</g>
<!-- Node2&#45;&gt;Node19 -->
<g id="edge24" class="edge">
<title>Node2&#45;&gt;Node19</title>
<path fill="none" stroke="midnightblue" d="M471.5,-358.8C471.5,-349.91 471.5,-339.78 471.5,-332.75"/>
<polygon fill="midnightblue" stroke="midnightblue" points="468,-359.08 471.5,-369.08 475,-359.08 468,-359.08"/>
</g>
<!-- Node20 -->
<g id="node20" class="node">
<title>Node20</title>
<g id="a_node20"><a xlink:href="tests_2timer_2src_2main_8cpp.html" target="_top" xlink:title=" ">
<polygon fill="none" stroke="black" points="552.5,-313.5 552.5,-332.5 674.5,-332.5 674.5,-313.5 552.5,-313.5"/>
<text text-anchor="middle" x="613.5" y="-320.5" font-family="Helvetica,sans-Serif" font-size="10.00">tests/timer/src/main.cpp</text>
</a>
</g>
</g>
<!-- Node2&#45;&gt;Node20 -->
<g id="edge27" class="edge">
<title>Node2&#45;&gt;Node20</title>
<path fill="none" stroke="midnightblue" d="M503.66,-365.77C530.33,-355.63 567.57,-341.47 591.1,-332.52"/>
<polygon fill="midnightblue" stroke="midnightblue" points="502.1,-362.62 494,-369.44 504.59,-369.16 502.1,-362.62"/>
</g>
<!-- Node4 -->
<g id="node4" class="node">
<title>Node4</title>
<g id="a_node4"><a xlink:href="poll__event_8hpp.html" target="_top" xlink:title=" ">
<polygon fill="none" stroke="black" points="500,-257.5 500,-276.5 631,-276.5 631,-257.5 500,-257.5"/>
<text text-anchor="middle" x="565.5" y="-264.5" font-family="Helvetica,sans-Serif" font-size="10.00">include/zpp/poll_event.hpp</text>
</a>
</g>
</g>
<!-- Node3&#45;&gt;Node4 -->
<g id="edge3" class="edge">
<title>Node3&#45;&gt;Node4</title>
<path fill="none" stroke="midnightblue" d="M707.39,-310.57C673.44,-300.38 624.51,-285.7 593.89,-276.52"/>
<polygon fill="midnightblue" stroke="midnightblue" points="706.39,-313.92 716.98,-313.44 708.41,-307.22 706.39,-313.92"/>
</g>
<!-- Node3&#45;&gt;Node6 -->
<g id="edge16" class="edge">
<title>Node3&#45;&gt;Node6</title>
<path fill="none" stroke="midnightblue" d="M682.83,-312.54C609.74,-301.27 497.89,-283.18 490.5,-277 432.91,-228.8 423.38,-128.1 421.81,-97.81"/>
<polygon fill="midnightblue" stroke="midnightblue" points="682.45,-316.02 692.87,-314.08 683.52,-309.1 682.45,-316.02"/>
</g>
<!-- Node13 -->
<g id="node13" class="node">
<title>Node13</title>
<g id="a_node13"><a xlink:href="tests_2poll_2src_2main_8cpp.html" target="_top" xlink:title=" ">
<polygon fill="none" stroke="black" points="502,-78.5 502,-97.5 617,-97.5 617,-78.5 502,-78.5"/>
<text text-anchor="middle" x="559.5" y="-85.5" font-family="Helvetica,sans-Serif" font-size="10.00">tests/poll/src/main.cpp</text>
</a>
</g>
</g>
<!-- Node3&#45;&gt;Node13 -->
<g id="edge18" class="edge">
<title>Node3&#45;&gt;Node13</title>
<path fill="none" stroke="midnightblue" d="M733.61,-304.9C728.1,-296.65 721.65,-286.5 716.5,-277 696.3,-239.75 702.88,-223.93 677.5,-190 646.98,-149.19 597.21,-113.59 573.24,-97.75"/>
<polygon fill="midnightblue" stroke="midnightblue" points="730.79,-306.98 739.32,-313.28 736.58,-303.04 730.79,-306.98"/>
</g>
<!-- Node14 -->
<g id="node14" class="node">
<title>Node14</title>
<g id="a_node14"><a xlink:href="poll__event__set_8hpp.html" target="_top" xlink:title=" ">
<polygon fill="none" stroke="black" points="556,-190.5 556,-220.5 669,-220.5 669,-190.5 556,-190.5"/>
<text text-anchor="start" x="564" y="-208.5" font-family="Helvetica,sans-Serif" font-size="10.00">include/zpp/poll_event</text>
<text text-anchor="middle" x="612.5" y="-197.5" font-family="Helvetica,sans-Serif" font-size="10.00">_set.hpp</text>
</a>
</g>
</g>
<!-- Node3&#45;&gt;Node14 -->
<g id="edge15" class="edge">
<title>Node3&#45;&gt;Node14</title>
<path fill="none" stroke="midnightblue" d="M723.98,-307.6C711.76,-299.13 696.38,-287.96 683.5,-277 662.06,-258.77 639.33,-235.38 625.52,-220.66"/>
<polygon fill="midnightblue" stroke="midnightblue" points="722.01,-310.49 732.24,-313.25 725.96,-304.72 722.01,-310.49"/>
</g>
<!-- Node3&#45;&gt;Node15 -->
<g id="edge17" class="edge">
<title>Node3&#45;&gt;Node15</title>
<path fill="none" stroke="midnightblue" d="M682.57,-312.9C569.96,-297.72 450.85,-283.08 382.28,-274.8"/>
<polygon fill="midnightblue" stroke="midnightblue" points="682.37,-316.4 692.74,-314.27 683.3,-309.46 682.37,-316.4"/>
</g>
<!-- Node3&#45;&gt;Node16 -->
<g id="edge19" class="edge">
<title>Node3&#45;&gt;Node16</title>
<path fill="none" stroke="midnightblue" d="M758.2,-304.86C765.13,-295.5 773.41,-284.33 779.02,-276.75"/>
<polygon fill="midnightblue" stroke="midnightblue" points="755.25,-302.96 752.11,-313.08 760.87,-307.13 755.25,-302.96"/>
</g>
<!-- Node3&#45;&gt;Node17 -->
<g id="edge20" class="edge">
<title>Node3&#45;&gt;Node17</title>
<path fill="none" stroke="midnightblue" d="M783.82,-310.57C817.96,-300.38 867.16,-285.7 897.95,-276.52"/>
<polygon fill="midnightblue" stroke="midnightblue" points="782.76,-307.23 774.18,-313.44 784.76,-313.94 782.76,-307.23"/>
</g>
<!-- Node5 -->
<g id="node5" class="node">
<title>Node5</title>
<g id="a_node5"><a xlink:href="poll_8hpp.html" target="_top" xlink:title=" ">
<polygon fill="none" stroke="black" points="493,-134.5 493,-153.5 594,-153.5 594,-134.5 493,-134.5"/>
<text text-anchor="middle" x="543.5" y="-141.5" font-family="Helvetica,sans-Serif" font-size="10.00">include/zpp/poll.hpp</text>
</a>
</g>
</g>
<!-- Node4&#45;&gt;Node5 -->
<g id="edge4" class="edge">
<title>Node4&#45;&gt;Node5</title>
<path fill="none" stroke="midnightblue" d="M556.24,-248.21C552.5,-240.13 548.58,-230.31 546.5,-221 541.15,-197.03 541.99,-167.77 542.85,-153.56"/>
<polygon fill="midnightblue" stroke="midnightblue" points="553.18,-249.92 560.73,-257.35 559.46,-246.83 553.18,-249.92"/>
</g>
<!-- Node4&#45;&gt;Node14 -->
<g id="edge13" class="edge">
<title>Node4&#45;&gt;Node14</title>
<path fill="none" stroke="midnightblue" d="M578.51,-249.53C585.71,-240.42 594.56,-229.21 601.42,-220.52"/>
<polygon fill="midnightblue" stroke="midnightblue" points="575.69,-247.46 572.23,-257.48 581.18,-251.8 575.69,-247.46"/>
</g>
<!-- Node5&#45;&gt;Node6 -->
<g id="edge5" class="edge">
<title>Node5&#45;&gt;Node6</title>
<path fill="none" stroke="midnightblue" d="M514.96,-130.37C492.11,-120.26 460.69,-106.35 440.74,-97.52"/>
<polygon fill="midnightblue" stroke="midnightblue" points="513.61,-133.6 524.17,-134.44 516.44,-127.2 513.61,-133.6"/>
</g>
<!-- Node5&#45;&gt;Node13 -->
<g id="edge12" class="edge">
<title>Node5&#45;&gt;Node13</title>
<path fill="none" stroke="midnightblue" d="M549.01,-124.4C551.69,-115.36 554.78,-104.94 556.91,-97.75"/>
<polygon fill="midnightblue" stroke="midnightblue" points="545.63,-123.5 546.14,-134.08 552.34,-125.49 545.63,-123.5"/>
</g>
<!-- Node7 -->
<g id="node7" class="node">
<title>Node7</title>
<g id="a_node7"><a xlink:href="samples_2hello__world_2src_2main_8cpp.html" target="_top" xlink:title=" ">
<polygon fill="none" stroke="black" points="0,-6 0,-36 105,-36 105,-6 0,-6"/>
<text text-anchor="start" x="8" y="-24" font-family="Helvetica,sans-Serif" font-size="10.00">samples/hello_world</text>
<text text-anchor="middle" x="52.5" y="-13" font-family="Helvetica,sans-Serif" font-size="10.00">/src/main.cpp</text>
</a>
</g>
</g>
<!-- Node6&#45;&gt;Node7 -->
<g id="edge6" class="edge">
<title>Node6&#45;&gt;Node7</title>
<path fill="none" stroke="midnightblue" d="M369.48,-82.15C307.83,-75.78 202.26,-62.87 113.5,-42 106.45,-40.34 99.04,-38.24 91.92,-36.02"/>
<polygon fill="midnightblue" stroke="midnightblue" points="369.42,-85.67 379.73,-83.2 370.13,-78.7 369.42,-85.67"/>
</g>
<!-- Node8 -->
<g id="node8" class="node">
<title>Node8</title>
<g id="a_node8"><a xlink:href="samples_2kernel_2condition__variables_2condvar_2src_2main_8cpp.html" target="_top" xlink:title=" ">
<polygon fill="none" stroke="black" points="123,-0.5 123,-41.5 248,-41.5 248,-0.5 123,-0.5"/>
<text text-anchor="start" x="131" y="-29.5" font-family="Helvetica,sans-Serif" font-size="10.00">samples/kernel/condition</text>
<text text-anchor="start" x="131" y="-18.5" font-family="Helvetica,sans-Serif" font-size="10.00">_variables/condvar/src</text>
<text text-anchor="middle" x="185.5" y="-7.5" font-family="Helvetica,sans-Serif" font-size="10.00">/main.cpp</text>
</a>
</g>
</g>
<!-- Node6&#45;&gt;Node8 -->
<g id="edge7" class="edge">
<title>Node6&#45;&gt;Node8</title>
<path fill="none" stroke="midnightblue" d="M379.98,-75.78C346.6,-66.73 298.51,-53.64 256.5,-42 253.79,-41.25 251.01,-40.48 248.21,-39.7"/>
<polygon fill="midnightblue" stroke="midnightblue" points="379.28,-79.22 389.85,-78.45 381.11,-72.46 379.28,-79.22"/>
</g>
<!-- Node9 -->
<g id="node9" class="node">
<title>Node9</title>
<g id="a_node9"><a xlink:href="samples_2kernel_2condition__variables_2simple_2src_2main_8cpp.html" target="_top" xlink:title=" ">
<polygon fill="none" stroke="black" points="266,-6 266,-36 417,-36 417,-6 266,-6"/>
<text text-anchor="start" x="274" y="-24" font-family="Helvetica,sans-Serif" font-size="10.00">samples/kernel/condition</text>
<text text-anchor="middle" x="341.5" y="-13" font-family="Helvetica,sans-Serif" font-size="10.00">_variables/simple/src/main.cpp</text>
</a>
</g>
</g>
<!-- Node6&#45;&gt;Node9 -->
<g id="edge8" class="edge">
<title>Node6&#45;&gt;Node9</title>
<path fill="none" stroke="midnightblue" d="M402.71,-71.74C389.44,-60.95 371.78,-46.6 358.84,-36.09"/>
<polygon fill="midnightblue" stroke="midnightblue" points="400.74,-74.64 410.71,-78.23 405.16,-69.21 400.74,-74.64"/>
</g>
<!-- Node10 -->
<g id="node10" class="node">
<title>Node10</title>
<g id="a_node10"><a xlink:href="tests_2compile_2src_2main_8cpp.html" target="_top" xlink:title=" ">
<polygon fill="none" stroke="black" points="435.5,-11.5 435.5,-30.5 569.5,-30.5 569.5,-11.5 435.5,-11.5"/>
<text text-anchor="middle" x="502.5" y="-18.5" font-family="Helvetica,sans-Serif" font-size="10.00">tests/compile/src/main.cpp</text>
</a>
</g>
</g>
<!-- Node6&#45;&gt;Node10 -->
<g id="edge9" class="edge">
<title>Node6&#45;&gt;Node10</title>
<path fill="none" stroke="midnightblue" d="M440.55,-71.71C456.51,-58.91 478.71,-41.09 491.75,-30.63"/>
<polygon fill="midnightblue" stroke="midnightblue" points="438.03,-69.25 432.42,-78.23 442.41,-74.7 438.03,-69.25"/>
</g>
<!-- Node11 -->
<g id="node11" class="node">
<title>Node11</title>
<g id="a_node11"><a xlink:href="tests_2condition__variable_2src_2main_8cpp.html" target="_top" xlink:title=" ">
<polygon fill="none" stroke="black" points="588,-6 588,-36 707,-36 707,-6 588,-6"/>
<text text-anchor="start" x="596" y="-24" font-family="Helvetica,sans-Serif" font-size="10.00">tests/condition_variable</text>
<text text-anchor="middle" x="647.5" y="-13" font-family="Helvetica,sans-Serif" font-size="10.00">/src/main.cpp</text>
</a>
</g>
</g>
<!-- Node6&#45;&gt;Node11 -->
<g id="edge10" class="edge">
<title>Node6&#45;&gt;Node11</title>
<path fill="none" stroke="midnightblue" d="M461.11,-75.68C492.86,-66.6 538.55,-53.52 578.5,-42 585.21,-40.07 592.29,-38.02 599.25,-36.01"/>
<polygon fill="midnightblue" stroke="midnightblue" points="459.97,-72.37 451.31,-78.48 461.89,-79.1 459.97,-72.37"/>
</g>
<!-- Node12 -->
<g id="node12" class="node">
<title>Node12</title>
<g id="a_node12"><a xlink:href="tests_2result_2src_2main_8cpp.html" target="_top" xlink:title=" ">
<polygon fill="none" stroke="black" points="725.5,-11.5 725.5,-30.5 849.5,-30.5 849.5,-11.5 725.5,-11.5"/>
<text text-anchor="middle" x="787.5" y="-18.5" font-family="Helvetica,sans-Serif" font-size="10.00">tests/result/src/main.cpp</text>
</a>
</g>
</g>
<!-- Node6&#45;&gt;Node12 -->
<g id="edge11" class="edge">
<title>Node6&#45;&gt;Node12</title>
<path fill="none" stroke="midnightblue" d="M473.38,-79.82C544.99,-69.78 670.39,-51.68 715.5,-42 730.21,-38.84 746.38,-34.44 759.65,-30.57"/>
<polygon fill="midnightblue" stroke="midnightblue" points="472.64,-76.39 463.22,-81.24 473.61,-83.32 472.64,-76.39"/>
</g>
<!-- Node14&#45;&gt;Node5 -->
<g id="edge14" class="edge">
<title>Node14&#45;&gt;Node5</title>
<path fill="none" stroke="midnightblue" d="M588.26,-183.6C576.34,-173.32 562.61,-161.48 553.54,-153.66"/>
<polygon fill="midnightblue" stroke="midnightblue" points="586.29,-186.52 596.15,-190.4 590.86,-181.22 586.29,-186.52"/>
</g>
</g>
</svg>
