<?xml version="1.0" encoding="UTF-8" standalone="no"?>
<!DOCTYPE svg PUBLIC "-//W3C//DTD SVG 1.1//EN"
 "http://www.w3.org/Graphics/SVG/1.1/DTD/svg11.dtd">
<!-- Generated by graphviz version 2.44.0 ()
 -->
<!-- Title: Graphical Class Hierarchy Pages: 1 -->
<svg width="272pt" height="127pt"
 viewBox="0.00 0.00 272.00 127.00" xmlns="http://www.w3.org/2000/svg" xmlns:xlink="http://www.w3.org/1999/xlink">
<g id="graph0" class="graph" transform="scale(1 1) rotate(0) translate(4 123)">
<title>Graphical Class Hierarchy</title>
<!-- Node0 -->
<g id="node1" class="node">
<title>Node0</title>
<g id="a_node1"><a xlink:href="classzpp_1_1timer__base.html" target="_top" xlink:title="base class for the timer class">
<polygon fill="none" stroke="black" points="0,-50 0,-69 84,-69 84,-50 0,-50"/>
<text text-anchor="middle" x="42" y="-57" font-family="Helvetica,sans-Serif" font-size="10.00">zpp::timer_base</text>
</a>
</g>
</g>
<!-- Node1 -->
<g id="node2" class="node">
<title>Node1</title>
<g id="a_node2"><a xlink:href="classzpp_1_1basic__timer.html" target="_top" xlink:title="timer class with only an expire callback">
<polygon fill="none" stroke="black" points="141.5,-88.5 141.5,-118.5 242.5,-118.5 242.5,-88.5 141.5,-88.5"/>
<text text-anchor="start" x="149.5" y="-106.5" font-family="Helvetica,sans-Serif" font-size="10.00">zpp::basic_timer&lt; T</text>
<text text-anchor="middle" x="192" y="-95.5" font-family="Helvetica,sans-Serif" font-size="10.00">_ExpireCallback &gt;</text>
</a>
</g>
</g>
<!-- Node0&#45;&gt;Node1 -->
<g id="edge1" class="edge">
<title>Node0&#45;&gt;Node1</title>
<path fill="none" stroke="midnightblue" d="M85.08,-72.01C102.65,-77.23 123.19,-83.34 141.48,-88.78"/>
<polygon fill="midnightblue" stroke="midnightblue" points="85.7,-68.54 75.11,-69.05 83.7,-75.25 85.7,-68.54"/>
</g>
<!-- Node2 -->
<g id="node3" class="node">
<title>Node2</title>
<g id="a_node3"><a xlink:href="classzpp_1_1sync__timer.html" target="_top" xlink:title="timer class with no callbacks used for syncing only">
<polygon fill="none" stroke="black" points="150.5,-50 150.5,-69 233.5,-69 233.5,-50 150.5,-50"/>
<text text-anchor="middle" x="192" y="-57" font-family="Helvetica,sans-Serif" font-size="10.00">zpp::sync_timer</text>
</a>
</g>
</g>
<!-- Node0&#45;&gt;Node2 -->
<g id="edge2" class="edge">
<title>Node0&#45;&gt;Node2</title>
<path fill="none" stroke="midnightblue" d="M94.42,-59.5C112.69,-59.5 132.99,-59.5 150.25,-59.5"/>
<polygon fill="midnightblue" stroke="midnightblue" points="94.23,-56 84.23,-59.5 94.23,-63 94.23,-56"/>
</g>
<!-- Node3 -->
<g id="node4" class="node">
<title>Node3</title>
<g id="a_node4"><a xlink:href="classzpp_1_1timer.html" target="_top" xlink:title="timer class with expire and stop callbacks">
<polygon fill="none" stroke="black" points="120,-0.5 120,-30.5 264,-30.5 264,-0.5 120,-0.5"/>
<text text-anchor="start" x="128" y="-18.5" font-family="Helvetica,sans-Serif" font-size="10.00">zpp::timer&lt; T_ExpireCallback,</text>
<text text-anchor="middle" x="192" y="-7.5" font-family="Helvetica,sans-Serif" font-size="10.00"> T_StopCallback &gt;</text>
</a>
</g>
</g>
<!-- Node0&#45;&gt;Node3 -->
<g id="edge3" class="edge">
<title>Node0&#45;&gt;Node3</title>
<path fill="none" stroke="midnightblue" d="M84.89,-47.04C102.14,-41.92 122.26,-35.94 140.33,-30.57"/>
<polygon fill="midnightblue" stroke="midnightblue" points="83.7,-43.75 75.11,-49.95 85.7,-50.46 83.7,-43.75"/>
</g>
</g>
</svg>
