<?xml version="1.0" encoding="UTF-8" standalone="no"?>
<!DOCTYPE svg PUBLIC "-//W3C//DTD SVG 1.1//EN"
 "http://www.w3.org/Graphics/SVG/1.1/DTD/svg11.dtd">
<!-- Generated by graphviz version 2.44.0 ()
 -->
<!-- Title: include/zpp/mem_slab.hpp Pages: 1 -->
<svg width="465pt" height="140pt"
 viewBox="0.00 0.00 465.00 140.00" xmlns="http://www.w3.org/2000/svg" xmlns:xlink="http://www.w3.org/1999/xlink">
<g id="graph0" class="graph" transform="scale(1 1) rotate(0) translate(4 136)">
<title>include/zpp/mem_slab.hpp</title>
<!-- Node1 -->
<g id="node1" class="node">
<title>Node1</title>
<g id="a_node1"><a xlink:title=" ">
<polygon fill="#bfbfbf" stroke="black" points="197,-112.5 197,-131.5 328,-131.5 328,-112.5 197,-112.5"/>
<text text-anchor="middle" x="262.5" y="-119.5" font-family="Helvetica,sans-Serif" font-size="10.00">include/zpp/mem_slab.hpp</text>
</a>
</g>
</g>
<!-- Node2 -->
<g id="node2" class="node">
<title>Node2</title>
<g id="a_node2"><a xlink:title=" ">
<polygon fill="none" stroke="#bfbfbf" points="0,-56.5 0,-75.5 81,-75.5 81,-56.5 0,-56.5"/>
<text text-anchor="middle" x="40.5" y="-63.5" font-family="Helvetica,sans-Serif" font-size="10.00">zephyr/kernel.h</text>
</a>
</g>
</g>
<!-- Node1&#45;&gt;Node2 -->
<g id="edge1" class="edge">
<title>Node1&#45;&gt;Node2</title>
<path fill="none" stroke="midnightblue" d="M227.32,-112.44C188.92,-103.1 127.32,-88.12 85.44,-77.93"/>
<polygon fill="midnightblue" stroke="midnightblue" points="86.06,-74.48 75.51,-75.52 84.4,-81.28 86.06,-74.48"/>
</g>
<!-- Node3 -->
<g id="node3" class="node">
<title>Node3</title>
<g id="a_node3"><a xlink:title=" ">
<polygon fill="none" stroke="#bfbfbf" points="99.5,-56.5 99.5,-75.5 209.5,-75.5 209.5,-56.5 99.5,-56.5"/>
<text text-anchor="middle" x="154.5" y="-63.5" font-family="Helvetica,sans-Serif" font-size="10.00">zephyr/sys/__assert.h</text>
</a>
</g>
</g>
<!-- Node1&#45;&gt;Node3 -->
<g id="edge2" class="edge">
<title>Node1&#45;&gt;Node3</title>
<path fill="none" stroke="midnightblue" d="M245.15,-112.32C227.83,-103.66 200.98,-90.24 181,-80.25"/>
<polygon fill="midnightblue" stroke="midnightblue" points="182.32,-77 171.81,-75.65 179.19,-83.26 182.32,-77"/>
</g>
<!-- Node4 -->
<g id="node4" class="node">
<title>Node4</title>
<g id="a_node4"><a xlink:title=" ">
<polygon fill="none" stroke="#bfbfbf" points="306.5,-0.5 306.5,-19.5 352.5,-19.5 352.5,-0.5 306.5,-0.5"/>
<text text-anchor="middle" x="329.5" y="-7.5" font-family="Helvetica,sans-Serif" font-size="10.00">cstdint</text>
</a>
</g>
</g>
<!-- Node1&#45;&gt;Node4 -->
<g id="edge3" class="edge">
<title>Node1&#45;&gt;Node4</title>
<path fill="none" stroke="midnightblue" d="M258.77,-112.36C253.72,-99.26 246.45,-74.01 256.5,-56 265.21,-40.39 281.81,-29.52 296.99,-22.39"/>
<polygon fill="midnightblue" stroke="midnightblue" points="298.38,-25.6 306.16,-18.41 295.6,-19.17 298.38,-25.6"/>
</g>
<!-- Node5 -->
<g id="node5" class="node">
<title>Node5</title>
<g id="a_node5"><a xlink:title=" ">
<polygon fill="none" stroke="#bfbfbf" points="265.5,-56.5 265.5,-75.5 311.5,-75.5 311.5,-56.5 265.5,-56.5"/>
<text text-anchor="middle" x="288.5" y="-63.5" font-family="Helvetica,sans-Serif" font-size="10.00">chrono</text>
</a>
</g>
</g>
<!-- Node1&#45;&gt;Node5 -->
<g id="edge4" class="edge">
<title>Node1&#45;&gt;Node5</title>
<path fill="none" stroke="midnightblue" d="M266.79,-112.08C270.35,-104.69 275.52,-93.95 279.92,-84.81"/>
<polygon fill="midnightblue" stroke="midnightblue" points="283.1,-86.28 284.29,-75.75 276.79,-83.24 283.1,-86.28"/>
</g>
<!-- Node6 -->
<g id="node6" class="node">
<title>Node6</title>
<g id="a_node6"><a xlink:title=" ">
<polygon fill="none" stroke="#bfbfbf" points="329.5,-56.5 329.5,-75.5 367.5,-75.5 367.5,-56.5 329.5,-56.5"/>
<text text-anchor="middle" x="348.5" y="-63.5" font-family="Helvetica,sans-Serif" font-size="10.00">array</text>
</a>
</g>
</g>
<!-- Node1&#45;&gt;Node6 -->
<g id="edge5" class="edge">
<title>Node1&#45;&gt;Node6</title>
<path fill="none" stroke="midnightblue" d="M276.32,-112.32C289.73,-103.9 310.32,-90.97 326.09,-81.07"/>
<polygon fill="midnightblue" stroke="midnightblue" points="328.11,-83.94 334.72,-75.65 324.39,-78.01 328.11,-83.94"/>
</g>
<!-- Node7 -->
<g id="node7" class="node">
<title>Node7</title>
<g id="a_node7"><a xlink:href="utils_8hpp.html" target="_top" xlink:title=" ">
<polygon fill="none" stroke="black" points="386,-56.5 386,-75.5 457,-75.5 457,-56.5 386,-56.5"/>
<text text-anchor="middle" x="421.5" y="-63.5" font-family="Helvetica,sans-Serif" font-size="10.00">zpp/utils.hpp</text>
</a>
</g>
</g>
<!-- Node1&#45;&gt;Node7 -->
<g id="edge6" class="edge">
<title>Node1&#45;&gt;Node7</title>
<path fill="none" stroke="midnightblue" d="M287.69,-112.44C314.44,-103.36 356.9,-88.94 386.81,-78.78"/>
<polygon fill="midnightblue" stroke="midnightblue" points="388.08,-82.05 396.42,-75.52 385.83,-75.42 388.08,-82.05"/>
</g>
<!-- Node7&#45;&gt;Node4 -->
<g id="edge7" class="edge">
<title>Node7&#45;&gt;Node4</title>
<path fill="none" stroke="midnightblue" d="M406.72,-56.32C392.23,-47.82 369.93,-34.73 353.01,-24.8"/>
<polygon fill="midnightblue" stroke="midnightblue" points="354.64,-21.7 344.24,-19.65 351.1,-27.74 354.64,-21.7"/>
</g>
</g>
</svg>
