<?xml version="1.0" encoding="UTF-8" standalone="no"?>
<!DOCTYPE svg PUBLIC "-//W3C//DTD SVG 1.1//EN"
 "http://www.w3.org/Graphics/SVG/1.1/DTD/svg11.dtd">
<!-- Generated by graphviz version 2.44.0 ()
 -->
<!-- Title: include/zpp/mem_slab.hpp Pages: 1 -->
<svg width="858pt" height="173pt"
 viewBox="0.00 0.00 857.50 173.00" xmlns="http://www.w3.org/2000/svg" xmlns:xlink="http://www.w3.org/1999/xlink">
<g id="graph0" class="graph" transform="scale(1 1) rotate(0) translate(4 169)">
<title>include/zpp/mem_slab.hpp</title>
<!-- Node1 -->
<g id="node1" class="node">
<title>Node1</title>
<g id="a_node1"><a xlink:title=" ">
<polygon fill="#bfbfbf" stroke="black" points="411,-145.5 411,-164.5 542,-164.5 542,-145.5 411,-145.5"/>
<text text-anchor="middle" x="476.5" y="-152.5" font-family="Helvetica,sans-Serif" font-size="10.00">include/zpp/mem_slab.hpp</text>
</a>
</g>
</g>
<!-- Node2 -->
<g id="node2" class="node">
<title>Node2</title>
<g id="a_node2"><a xlink:href="zpp_8hpp.html" target="_top" xlink:title=" ">
<polygon fill="none" stroke="black" points="380,-84 380,-103 463,-103 463,-84 380,-84"/>
<text text-anchor="middle" x="421.5" y="-91" font-family="Helvetica,sans-Serif" font-size="10.00">include/zpp.hpp</text>
</a>
</g>
</g>
<!-- Node1&#45;&gt;Node2 -->
<g id="edge1" class="edge">
<title>Node1&#45;&gt;Node2</title>
<path fill="none" stroke="midnightblue" d="M461.71,-138C451.3,-126.74 437.77,-112.1 429.37,-103.01"/>
<polygon fill="midnightblue" stroke="midnightblue" points="459.26,-140.51 468.62,-145.48 464.4,-135.76 459.26,-140.51"/>
</g>
<!-- Node9 -->
<g id="node9" class="node">
<title>Node9</title>
<g id="a_node9"><a xlink:href="tests_2mem__slab_2src_2main_8cpp.html" target="_top" xlink:title=" ">
<polygon fill="none" stroke="black" points="481,-78.5 481,-108.5 584,-108.5 584,-78.5 481,-78.5"/>
<text text-anchor="start" x="489" y="-96.5" font-family="Helvetica,sans-Serif" font-size="10.00">tests/mem_slab/src</text>
<text text-anchor="middle" x="532.5" y="-85.5" font-family="Helvetica,sans-Serif" font-size="10.00">/main.cpp</text>
</a>
</g>
</g>
<!-- Node1&#45;&gt;Node9 -->
<g id="edge8" class="edge">
<title>Node1&#45;&gt;Node9</title>
<path fill="none" stroke="midnightblue" d="M491.47,-138.09C500.14,-128.88 510.95,-117.39 519.3,-108.52"/>
<polygon fill="midnightblue" stroke="midnightblue" points="488.83,-135.79 484.52,-145.48 493.93,-140.59 488.83,-135.79"/>
</g>
<!-- Node3 -->
<g id="node3" class="node">
<title>Node3</title>
<g id="a_node3"><a xlink:href="samples_2hello__world_2src_2main_8cpp.html" target="_top" xlink:title=" ">
<polygon fill="none" stroke="black" points="0,-6 0,-36 105,-36 105,-6 0,-6"/>
<text text-anchor="start" x="8" y="-24" font-family="Helvetica,sans-Serif" font-size="10.00">samples/hello_world</text>
<text text-anchor="middle" x="52.5" y="-13" font-family="Helvetica,sans-Serif" font-size="10.00">/src/main.cpp</text>
</a>
</g>
</g>
<!-- Node2&#45;&gt;Node3 -->
<g id="edge2" class="edge">
<title>Node2&#45;&gt;Node3</title>
<path fill="none" stroke="midnightblue" d="M369.5,-86.46C307.86,-78.74 202.32,-63.7 113.5,-42 106.57,-40.31 99.29,-38.21 92.28,-36.02"/>
<polygon fill="midnightblue" stroke="midnightblue" points="369.39,-89.98 379.74,-87.73 370.25,-83.03 369.39,-89.98"/>
</g>
<!-- Node4 -->
<g id="node4" class="node">
<title>Node4</title>
<g id="a_node4"><a xlink:href="samples_2kernel_2condition__variables_2condvar_2src_2main_8cpp.html" target="_top" xlink:title=" ">
<polygon fill="none" stroke="black" points="123,-0.5 123,-41.5 248,-41.5 248,-0.5 123,-0.5"/>
<text text-anchor="start" x="131" y="-29.5" font-family="Helvetica,sans-Serif" font-size="10.00">samples/kernel/condition</text>
<text text-anchor="start" x="131" y="-18.5" font-family="Helvetica,sans-Serif" font-size="10.00">_variables/condvar/src</text>
<text text-anchor="middle" x="185.5" y="-7.5" font-family="Helvetica,sans-Serif" font-size="10.00">/main.cpp</text>
</a>
</g>
</g>
<!-- Node2&#45;&gt;Node4 -->
<g id="edge3" class="edge">
<title>Node2&#45;&gt;Node4</title>
<path fill="none" stroke="midnightblue" d="M383.27,-81.08C346.79,-70.18 291.15,-53.56 248.18,-40.72"/>
<polygon fill="midnightblue" stroke="midnightblue" points="382.45,-84.49 393.03,-84 384.45,-77.78 382.45,-84.49"/>
</g>
<!-- Node5 -->
<g id="node5" class="node">
<title>Node5</title>
<g id="a_node5"><a xlink:href="samples_2kernel_2condition__variables_2simple_2src_2main_8cpp.html" target="_top" xlink:title=" ">
<polygon fill="none" stroke="black" points="266,-6 266,-36 417,-36 417,-6 266,-6"/>
<text text-anchor="start" x="274" y="-24" font-family="Helvetica,sans-Serif" font-size="10.00">samples/kernel/condition</text>
<text text-anchor="middle" x="341.5" y="-13" font-family="Helvetica,sans-Serif" font-size="10.00">_variables/simple/src/main.cpp</text>
</a>
</g>
</g>
<!-- Node2&#45;&gt;Node5 -->
<g id="edge4" class="edge">
<title>Node2&#45;&gt;Node5</title>
<path fill="none" stroke="midnightblue" d="M403.84,-76.94C389.99,-64.73 370.87,-47.89 357.47,-36.08"/>
<polygon fill="midnightblue" stroke="midnightblue" points="401.87,-79.87 411.69,-83.86 406.5,-74.62 401.87,-79.87"/>
</g>
<!-- Node6 -->
<g id="node6" class="node">
<title>Node6</title>
<g id="a_node6"><a xlink:href="tests_2compile_2src_2main_8cpp.html" target="_top" xlink:title=" ">
<polygon fill="none" stroke="black" points="435.5,-11.5 435.5,-30.5 569.5,-30.5 569.5,-11.5 435.5,-11.5"/>
<text text-anchor="middle" x="502.5" y="-18.5" font-family="Helvetica,sans-Serif" font-size="10.00">tests/compile/src/main.cpp</text>
</a>
</g>
</g>
<!-- Node2&#45;&gt;Node6 -->
<g id="edge5" class="edge">
<title>Node2&#45;&gt;Node6</title>
<path fill="none" stroke="midnightblue" d="M439.21,-77.08C455.54,-62.87 479.21,-42.27 492.49,-30.72"/>
<polygon fill="midnightblue" stroke="midnightblue" points="436.68,-74.65 431.43,-83.86 441.27,-79.93 436.68,-74.65"/>
</g>
<!-- Node7 -->
<g id="node7" class="node">
<title>Node7</title>
<g id="a_node7"><a xlink:href="tests_2condition__variable_2src_2main_8cpp.html" target="_top" xlink:title=" ">
<polygon fill="none" stroke="black" points="588,-6 588,-36 707,-36 707,-6 588,-6"/>
<text text-anchor="start" x="596" y="-24" font-family="Helvetica,sans-Serif" font-size="10.00">tests/condition_variable</text>
<text text-anchor="middle" x="647.5" y="-13" font-family="Helvetica,sans-Serif" font-size="10.00">/src/main.cpp</text>
</a>
</g>
</g>
<!-- Node2&#45;&gt;Node7 -->
<g id="edge6" class="edge">
<title>Node2&#45;&gt;Node7</title>
<path fill="none" stroke="midnightblue" d="M458.51,-80.96C497.94,-68.65 560.38,-49.18 602.6,-36.01"/>
<polygon fill="midnightblue" stroke="midnightblue" points="457.26,-77.68 448.76,-84 459.35,-84.36 457.26,-77.68"/>
</g>
<!-- Node8 -->
<g id="node8" class="node">
<title>Node8</title>
<g id="a_node8"><a xlink:href="tests_2result_2src_2main_8cpp.html" target="_top" xlink:title=" ">
<polygon fill="none" stroke="black" points="725.5,-11.5 725.5,-30.5 849.5,-30.5 849.5,-11.5 725.5,-11.5"/>
<text text-anchor="middle" x="787.5" y="-18.5" font-family="Helvetica,sans-Serif" font-size="10.00">tests/result/src/main.cpp</text>
</a>
</g>
</g>
<!-- Node2&#45;&gt;Node8 -->
<g id="edge7" class="edge">
<title>Node2&#45;&gt;Node8</title>
<path fill="none" stroke="midnightblue" d="M458.92,-81.26C463.47,-80.07 468.08,-78.95 472.5,-78 579.67,-54.96 609.3,-64.91 716.5,-42 731.15,-38.87 747.24,-34.42 760.39,-30.52"/>
<polygon fill="midnightblue" stroke="midnightblue" points="457.85,-77.92 449.13,-83.94 459.7,-84.68 457.85,-77.92"/>
</g>
</g>
</svg>
