<?xml version="1.0" encoding="UTF-8" standalone="no"?>
<!DOCTYPE svg PUBLIC "-//W3C//DTD SVG 1.1//EN"
 "http://www.w3.org/Graphics/SVG/1.1/DTD/svg11.dtd">
<!-- Generated by graphviz version 2.44.0 ()
 -->
<!-- Title: include/zpp/poll.hpp Pages: 1 -->
<svg width="1922pt" height="420pt"
 viewBox="0.00 0.00 1922.13 420.00" xmlns="http://www.w3.org/2000/svg" xmlns:xlink="http://www.w3.org/1999/xlink">
<g id="graph0" class="graph" transform="scale(1 1) rotate(0) translate(4 416)">
<title>include/zpp/poll.hpp</title>
<!-- Node1 -->
<g id="node1" class="node">
<title>Node1</title>
<g id="a_node1"><a xlink:title=" ">
<polygon fill="#bfbfbf" stroke="black" points="313.5,-392.5 313.5,-411.5 414.5,-411.5 414.5,-392.5 313.5,-392.5"/>
<text text-anchor="middle" x="364" y="-399.5" font-family="Helvetica,sans-Serif" font-size="10.00">include/zpp/poll.hpp</text>
</a>
</g>
</g>
<!-- Node2 -->
<g id="node2" class="node">
<title>Node2</title>
<g id="a_node2"><a xlink:href="poll__signal_8hpp.html" target="_top" xlink:title=" ">
<polygon fill="none" stroke="black" points="142,-224.5 142,-243.5 240,-243.5 240,-224.5 142,-224.5"/>
<text text-anchor="middle" x="191" y="-231.5" font-family="Helvetica,sans-Serif" font-size="10.00">zpp/poll_signal.hpp</text>
</a>
</g>
</g>
<!-- Node1&#45;&gt;Node2 -->
<g id="edge1" class="edge">
<title>Node1&#45;&gt;Node2</title>
<path fill="none" stroke="midnightblue" d="M347.55,-392.39C319.43,-377.02 261.65,-342.45 225,-300 212.93,-286.02 203.62,-267.02 197.82,-253.17"/>
<polygon fill="midnightblue" stroke="midnightblue" points="201.03,-251.76 194.08,-243.76 194.52,-254.34 201.03,-251.76"/>
</g>
<!-- Node7 -->
<g id="node7" class="node">
<title>Node7</title>
<g id="a_node7"><a xlink:href="poll__event_8hpp.html" target="_top" xlink:title=" ">
<polygon fill="none" stroke="black" points="315.5,-280.5 315.5,-299.5 412.5,-299.5 412.5,-280.5 315.5,-280.5"/>
<text text-anchor="middle" x="364" y="-287.5" font-family="Helvetica,sans-Serif" font-size="10.00">zpp/poll_event.hpp</text>
</a>
</g>
</g>
<!-- Node1&#45;&gt;Node7 -->
<g id="edge6" class="edge">
<title>Node1&#45;&gt;Node7</title>
<path fill="none" stroke="midnightblue" d="M364,-392.37C364,-374.62 364,-333.67 364,-309.6"/>
<polygon fill="midnightblue" stroke="midnightblue" points="367.5,-309.59 364,-299.59 360.5,-309.59 367.5,-309.59"/>
</g>
<!-- Node33 -->
<g id="node33" class="node">
<title>Node33</title>
<g id="a_node33"><a xlink:href="poll__event__set_8hpp.html" target="_top" xlink:title=" ">
<polygon fill="none" stroke="black" points="406,-336.5 406,-355.5 522,-355.5 522,-336.5 406,-336.5"/>
<text text-anchor="middle" x="464" y="-343.5" font-family="Helvetica,sans-Serif" font-size="10.00">zpp/poll_event_set.hpp</text>
</a>
</g>
</g>
<!-- Node1&#45;&gt;Node33 -->
<g id="edge76" class="edge">
<title>Node1&#45;&gt;Node33</title>
<path fill="none" stroke="midnightblue" d="M380.07,-392.32C395.96,-383.74 420.51,-370.49 438.96,-360.52"/>
<polygon fill="midnightblue" stroke="midnightblue" points="440.84,-363.49 447.97,-355.65 437.51,-357.33 440.84,-363.49"/>
</g>
<!-- Node3 -->
<g id="node3" class="node">
<title>Node3</title>
<g id="a_node3"><a xlink:title=" ">
<polygon fill="none" stroke="#bfbfbf" points="1196.5,-0.5 1196.5,-19.5 1277.5,-19.5 1277.5,-0.5 1196.5,-0.5"/>
<text text-anchor="middle" x="1237" y="-7.5" font-family="Helvetica,sans-Serif" font-size="10.00">zephyr/kernel.h</text>
</a>
</g>
</g>
<!-- Node2&#45;&gt;Node3 -->
<g id="edge2" class="edge">
<title>Node2&#45;&gt;Node3</title>
<path fill="none" stroke="midnightblue" d="M236.58,-224.42C291.42,-212.12 383.76,-184.88 445,-132 474.54,-106.49 455.79,-76.5 489,-56 518.64,-37.71 1022.22,-18.53 1185.99,-12.75"/>
<polygon fill="midnightblue" stroke="midnightblue" points="1186.41,-16.23 1196.28,-12.39 1186.16,-9.24 1186.41,-16.23"/>
</g>
<!-- Node4 -->
<g id="node4" class="node">
<title>Node4</title>
<g id="a_node4"><a xlink:title=" ">
<polygon fill="none" stroke="#bfbfbf" points="816,-0.5 816,-19.5 926,-19.5 926,-0.5 816,-0.5"/>
<text text-anchor="middle" x="871" y="-7.5" font-family="Helvetica,sans-Serif" font-size="10.00">zephyr/sys/__assert.h</text>
</a>
</g>
</g>
<!-- Node2&#45;&gt;Node4 -->
<g id="edge3" class="edge">
<title>Node2&#45;&gt;Node4</title>
<path fill="none" stroke="midnightblue" d="M182.45,-224.39C155.67,-196.42 77.98,-107.01 126,-56 149.13,-31.43 628.08,-17.05 805.58,-12.54"/>
<polygon fill="midnightblue" stroke="midnightblue" points="805.91,-16.04 815.82,-12.29 805.74,-9.04 805.91,-16.04"/>
</g>
<!-- Node5 -->
<g id="node5" class="node">
<title>Node5</title>
<g id="a_node5"><a xlink:title=" ">
<polygon fill="none" stroke="#bfbfbf" points="135,-56.5 135,-75.5 175,-75.5 175,-56.5 135,-56.5"/>
<text text-anchor="middle" x="155" y="-63.5" font-family="Helvetica,sans-Serif" font-size="10.00">limits</text>
</a>
</g>
</g>
<!-- Node2&#45;&gt;Node5 -->
<g id="edge4" class="edge">
<title>Node2&#45;&gt;Node5</title>
<path fill="none" stroke="midnightblue" d="M189.06,-224.08C183.4,-197.95 166.76,-121.21 159.03,-85.58"/>
<polygon fill="midnightblue" stroke="midnightblue" points="162.4,-84.6 156.86,-75.57 155.56,-86.08 162.4,-84.6"/>
</g>
<!-- Node6 -->
<g id="node6" class="node">
<title>Node6</title>
<g id="a_node6"><a xlink:title=" ">
<polygon fill="none" stroke="#bfbfbf" points="75,-168.5 75,-187.5 125,-187.5 125,-168.5 75,-168.5"/>
<text text-anchor="middle" x="100" y="-175.5" font-family="Helvetica,sans-Serif" font-size="10.00">optional</text>
</a>
</g>
</g>
<!-- Node2&#45;&gt;Node6 -->
<g id="edge5" class="edge">
<title>Node2&#45;&gt;Node6</title>
<path fill="none" stroke="midnightblue" d="M176.38,-224.32C162.05,-215.82 139.99,-202.73 123.25,-192.8"/>
<polygon fill="midnightblue" stroke="midnightblue" points="124.97,-189.75 114.58,-187.65 121.4,-195.77 124.97,-189.75"/>
</g>
<!-- Node7&#45;&gt;Node2 -->
<g id="edge75" class="edge">
<title>Node7&#45;&gt;Node2</title>
<path fill="none" stroke="midnightblue" d="M336.59,-280.44C307.23,-271.28 260.48,-256.69 227.9,-246.52"/>
<polygon fill="midnightblue" stroke="midnightblue" points="228.87,-243.16 218.28,-243.52 226.79,-249.84 228.87,-243.16"/>
</g>
<!-- Node7&#45;&gt;Node3 -->
<g id="edge7" class="edge">
<title>Node7&#45;&gt;Node3</title>
<path fill="none" stroke="midnightblue" d="M369.75,-280.29C397.46,-238.39 516.01,-59.42 522,-56 550.77,-39.57 1027.1,-19.31 1185.92,-12.98"/>
<polygon fill="midnightblue" stroke="midnightblue" points="1186.51,-16.46 1196.36,-12.57 1186.23,-9.47 1186.51,-16.46"/>
</g>
<!-- Node7&#45;&gt;Node4 -->
<g id="edge8" class="edge">
<title>Node7&#45;&gt;Node4</title>
<path fill="none" stroke="midnightblue" d="M315.39,-284.25C252.41,-277.43 146.66,-263.5 113,-244 40.69,-202.12 42.37,-105.08 110,-56 165.6,-15.65 631.53,-11.15 805.68,-10.89"/>
<polygon fill="midnightblue" stroke="midnightblue" points="805.74,-14.39 815.73,-10.88 805.73,-7.39 805.74,-14.39"/>
</g>
<!-- Node7&#45;&gt;Node5 -->
<g id="edge10" class="edge">
<title>Node7&#45;&gt;Node5</title>
<path fill="none" stroke="midnightblue" d="M359.94,-280.13C346.76,-252.13 302.51,-164.39 243,-112 225.86,-96.91 202.76,-85.35 184.53,-77.72"/>
<polygon fill="midnightblue" stroke="midnightblue" points="185.82,-74.47 175.23,-74 183.21,-80.97 185.82,-74.47"/>
</g>
<!-- Node7&#45;&gt;Node6 -->
<g id="edge11" class="edge">
<title>Node7&#45;&gt;Node6</title>
<path fill="none" stroke="midnightblue" d="M315.28,-284.54C256.23,-278.28 161.12,-265.23 133,-244 117.88,-232.59 109.16,-212.3 104.53,-197.42"/>
<polygon fill="midnightblue" stroke="midnightblue" points="107.89,-196.44 101.84,-187.74 101.14,-198.31 107.89,-196.44"/>
</g>
<!-- Node8 -->
<g id="node8" class="node">
<title>Node8</title>
<g id="a_node8"><a xlink:title=" ">
<polygon fill="none" stroke="#bfbfbf" points="531,-56.5 531,-75.5 577,-75.5 577,-56.5 531,-56.5"/>
<text text-anchor="middle" x="554" y="-63.5" font-family="Helvetica,sans-Serif" font-size="10.00">chrono</text>
</a>
</g>
</g>
<!-- Node7&#45;&gt;Node8 -->
<g id="edge9" class="edge">
<title>Node7&#45;&gt;Node8</title>
<path fill="none" stroke="midnightblue" d="M385.72,-280.42C418.92,-266.21 482.12,-234.65 517,-188 540.27,-156.88 549.05,-110.99 552.25,-85.6"/>
<polygon fill="midnightblue" stroke="midnightblue" points="555.75,-85.83 553.36,-75.51 548.79,-85.06 555.75,-85.83"/>
</g>
<!-- Node9 -->
<g id="node9" class="node">
<title>Node9</title>
<g id="a_node9"><a xlink:title=" ">
<polygon fill="none" stroke="#bfbfbf" points="1847,-56.5 1847,-75.5 1885,-75.5 1885,-56.5 1847,-56.5"/>
<text text-anchor="middle" x="1866" y="-63.5" font-family="Helvetica,sans-Serif" font-size="10.00">array</text>
</a>
</g>
</g>
<!-- Node7&#45;&gt;Node9 -->
<g id="edge12" class="edge">
<title>Node7&#45;&gt;Node9</title>
<path fill="none" stroke="midnightblue" d="M412.54,-288.21C575.09,-284.84 1114.73,-267.97 1552,-188 1641.54,-171.62 1664.88,-166.78 1749,-132 1783.73,-117.64 1821.27,-95.49 1844.21,-81.11"/>
<polygon fill="midnightblue" stroke="midnightblue" points="1846.25,-83.97 1852.82,-75.66 1842.5,-78.06 1846.25,-83.97"/>
</g>
<!-- Node10 -->
<g id="node10" class="node">
<title>Node10</title>
<g id="a_node10"><a xlink:href="sem_8hpp.html" target="_top" xlink:title=" ">
<polygon fill="none" stroke="black" points="492.5,-224.5 492.5,-243.5 563.5,-243.5 563.5,-224.5 492.5,-224.5"/>
<text text-anchor="middle" x="528" y="-231.5" font-family="Helvetica,sans-Serif" font-size="10.00">zpp/sem.hpp</text>
</a>
</g>
</g>
<!-- Node7&#45;&gt;Node10 -->
<g id="edge13" class="edge">
<title>Node7&#45;&gt;Node10</title>
<path fill="none" stroke="midnightblue" d="M389.99,-280.44C417.7,-271.32 461.75,-256.81 492.62,-246.65"/>
<polygon fill="midnightblue" stroke="midnightblue" points="493.73,-249.97 502.14,-243.52 491.54,-243.32 493.73,-249.97"/>
</g>
<!-- Node30 -->
<g id="node30" class="node">
<title>Node30</title>
<g id="a_node30"><a xlink:href="fifo_8hpp.html" target="_top" xlink:title=" ">
<polygon fill="none" stroke="black" points="371.5,-112.5 371.5,-131.5 436.5,-131.5 436.5,-112.5 371.5,-112.5"/>
<text text-anchor="middle" x="404" y="-119.5" font-family="Helvetica,sans-Serif" font-size="10.00">zpp/fifo.hpp</text>
</a>
</g>
</g>
<!-- Node7&#45;&gt;Node30 -->
<g id="edge68" class="edge">
<title>Node7&#45;&gt;Node30</title>
<path fill="none" stroke="midnightblue" d="M363.28,-280.49C361.86,-260.3 359.99,-208.21 374,-168 377.58,-157.71 384.08,-147.51 390.12,-139.42"/>
<polygon fill="midnightblue" stroke="midnightblue" points="392.86,-141.59 396.32,-131.58 387.37,-137.25 392.86,-141.59"/>
</g>
<!-- Node10&#45;&gt;Node3 -->
<g id="edge64" class="edge">
<title>Node10&#45;&gt;Node3</title>
<path fill="none" stroke="midnightblue" d="M563.7,-226.04C568.5,-225.26 573.36,-224.55 578,-224 1077.02,-164.46 1228.29,-291.08 1705,-132 1751.13,-116.61 1774.97,-118.28 1799,-76 1803.39,-68.27 1805.05,-62.52 1799,-56 1762.7,-16.87 1373.15,-24.88 1320,-20 1309.5,-19.04 1298.26,-17.89 1287.56,-16.75"/>
<polygon fill="midnightblue" stroke="midnightblue" points="1287.82,-13.26 1277.5,-15.66 1287.07,-20.22 1287.82,-13.26"/>
</g>
<!-- Node10&#45;&gt;Node4 -->
<g id="edge65" class="edge">
<title>Node10&#45;&gt;Node4</title>
<path fill="none" stroke="midnightblue" d="M516.92,-224.42C499.85,-211.4 465.86,-186.25 435,-168 425.21,-162.21 257.95,-85.7 252,-76 247.35,-68.42 245.95,-62.51 252,-56 289.12,-16.08 654.3,-11.15 805.73,-10.84"/>
<polygon fill="midnightblue" stroke="midnightblue" points="805.83,-14.34 815.82,-10.83 805.82,-7.34 805.83,-14.34"/>
</g>
<!-- Node10&#45;&gt;Node5 -->
<g id="edge67" class="edge">
<title>Node10&#45;&gt;Node5</title>
<path fill="none" stroke="midnightblue" d="M512.11,-224.43C473.29,-203.69 370.31,-149.68 281,-112 248.69,-98.37 210.67,-85.17 184.91,-76.63"/>
<polygon fill="midnightblue" stroke="midnightblue" points="185.94,-73.28 175.34,-73.48 183.75,-79.93 185.94,-73.28"/>
</g>
<!-- Node10&#45;&gt;Node8 -->
<g id="edge66" class="edge">
<title>Node10&#45;&gt;Node8</title>
<path fill="none" stroke="midnightblue" d="M535.15,-224.36C541.77,-215.76 551.16,-201.87 555,-188 564.73,-152.87 560.81,-109.77 557.27,-85.65"/>
<polygon fill="midnightblue" stroke="midnightblue" points="560.72,-85.04 555.68,-75.72 553.81,-86.15 560.72,-85.04"/>
</g>
<!-- Node11 -->
<g id="node11" class="node">
<title>Node11</title>
<g id="a_node11"><a xlink:href="thread_8hpp.html" target="_top" xlink:title=" ">
<polygon fill="none" stroke="black" points="1094,-168.5 1094,-187.5 1174,-187.5 1174,-168.5 1094,-168.5"/>
<text text-anchor="middle" x="1134" y="-175.5" font-family="Helvetica,sans-Serif" font-size="10.00">zpp/thread.hpp</text>
</a>
</g>
</g>
<!-- Node10&#45;&gt;Node11 -->
<g id="edge14" class="edge">
<title>Node10&#45;&gt;Node11</title>
<path fill="none" stroke="midnightblue" d="M563.71,-226.14C568.51,-225.34 573.36,-224.6 578,-224 763.55,-199.85 985.72,-186.52 1083.55,-181.44"/>
<polygon fill="midnightblue" stroke="midnightblue" points="1083.93,-184.92 1093.74,-180.91 1083.57,-177.93 1083.93,-184.92"/>
</g>
<!-- Node11&#45;&gt;Node3 -->
<g id="edge56" class="edge">
<title>Node11&#45;&gt;Node3</title>
<path fill="none" stroke="midnightblue" d="M1149.35,-168.38C1179.23,-151.66 1243.2,-116.09 1254,-112 1320.55,-86.83 1365.7,-131.68 1410,-76 1415.53,-69.04 1415.44,-63.03 1410,-56 1395.09,-36.71 1333.32,-24.15 1287.82,-17.32"/>
<polygon fill="midnightblue" stroke="midnightblue" points="1288.2,-13.84 1277.8,-15.87 1287.2,-20.77 1288.2,-13.84"/>
</g>
<!-- Node11&#45;&gt;Node4 -->
<g id="edge57" class="edge">
<title>Node11&#45;&gt;Node4</title>
<path fill="none" stroke="midnightblue" d="M1093.89,-175.01C1024.6,-170.89 886.16,-159.39 847,-132 817.11,-111.09 800.38,-88.97 816,-56 822.13,-43.07 833.99,-32.62 845.14,-25.05"/>
<polygon fill="midnightblue" stroke="midnightblue" points="847.19,-27.9 853.8,-19.61 843.47,-21.97 847.19,-27.9"/>
</g>
<!-- Node11&#45;&gt;Node8 -->
<g id="edge60" class="edge">
<title>Node11&#45;&gt;Node8</title>
<path fill="none" stroke="midnightblue" d="M1093.75,-175.11C996.7,-170.23 752.07,-155.89 674,-132 654.27,-125.96 605.85,-98.06 576.91,-80.83"/>
<polygon fill="midnightblue" stroke="midnightblue" points="578.63,-77.79 568.25,-75.66 575.04,-83.79 578.63,-77.79"/>
</g>
<!-- Node12 -->
<g id="node12" class="node">
<title>Node12</title>
<g id="a_node12"><a xlink:href="thread__prio_8hpp.html" target="_top" xlink:title=" ">
<polygon fill="none" stroke="black" points="973.5,-56.5 973.5,-75.5 1074.5,-75.5 1074.5,-56.5 973.5,-56.5"/>
<text text-anchor="middle" x="1024" y="-63.5" font-family="Helvetica,sans-Serif" font-size="10.00">zpp/thread_prio.hpp</text>
</a>
</g>
</g>
<!-- Node11&#45;&gt;Node12 -->
<g id="edge15" class="edge">
<title>Node11&#45;&gt;Node12</title>
<path fill="none" stroke="midnightblue" d="M1093.9,-172.02C1048.78,-165.51 979.74,-152.44 964,-132 949.43,-113.07 974.72,-93.14 996.81,-80.42"/>
<polygon fill="midnightblue" stroke="midnightblue" points="998.55,-83.46 1005.65,-75.6 995.19,-77.32 998.55,-83.46"/>
</g>
<!-- Node13 -->
<g id="node13" class="node">
<title>Node13</title>
<g id="a_node13"><a xlink:href="thread__id_8hpp.html" target="_top" xlink:title=" ">
<polygon fill="none" stroke="black" points="825,-56.5 825,-75.5 917,-75.5 917,-56.5 825,-56.5"/>
<text text-anchor="middle" x="871" y="-63.5" font-family="Helvetica,sans-Serif" font-size="10.00">zpp/thread_id.hpp</text>
</a>
</g>
</g>
<!-- Node11&#45;&gt;Node13 -->
<g id="edge18" class="edge">
<title>Node11&#45;&gt;Node13</title>
<path fill="none" stroke="midnightblue" d="M1093.82,-176.62C1024.29,-175.01 886.07,-167.32 856,-132 844.78,-118.82 851.78,-98.86 859.55,-84.54"/>
<polygon fill="midnightblue" stroke="midnightblue" points="862.71,-86.06 864.83,-75.68 856.7,-82.48 862.71,-86.06"/>
</g>
<!-- Node14 -->
<g id="node14" class="node">
<title>Node14</title>
<g id="a_node14"><a xlink:href="thread__attr_8hpp.html" target="_top" xlink:title=" ">
<polygon fill="none" stroke="black" points="973.5,-112.5 973.5,-131.5 1072.5,-131.5 1072.5,-112.5 973.5,-112.5"/>
<text text-anchor="middle" x="1023" y="-119.5" font-family="Helvetica,sans-Serif" font-size="10.00">zpp/thread_attr.hpp</text>
</a>
</g>
</g>
<!-- Node11&#45;&gt;Node14 -->
<g id="edge21" class="edge">
<title>Node11&#45;&gt;Node14</title>
<path fill="none" stroke="midnightblue" d="M1116.17,-168.32C1098.28,-159.62 1070.52,-146.12 1049.95,-136.11"/>
<polygon fill="midnightblue" stroke="midnightblue" points="1051.31,-132.88 1040.79,-131.65 1048.25,-139.18 1051.31,-132.88"/>
</g>
<!-- Node15 -->
<g id="node15" class="node">
<title>Node15</title>
<g id="a_node15"><a xlink:title=" ">
<polygon fill="none" stroke="#bfbfbf" points="1131.5,-56.5 1131.5,-75.5 1170.5,-75.5 1170.5,-56.5 1131.5,-56.5"/>
<text text-anchor="middle" x="1151" y="-63.5" font-family="Helvetica,sans-Serif" font-size="10.00">utility</text>
</a>
</g>
</g>
<!-- Node11&#45;&gt;Node15 -->
<g id="edge62" class="edge">
<title>Node11&#45;&gt;Node15</title>
<path fill="none" stroke="midnightblue" d="M1129.4,-168.46C1123.26,-155.92 1113.83,-131.84 1120,-112 1123.23,-101.62 1129.78,-91.52 1136.02,-83.53"/>
<polygon fill="midnightblue" stroke="midnightblue" points="1138.79,-85.68 1142.52,-75.77 1133.42,-81.19 1138.79,-85.68"/>
</g>
<!-- Node16 -->
<g id="node16" class="node">
<title>Node16</title>
<g id="a_node16"><a xlink:href="thread__data_8hpp.html" target="_top" xlink:title=" ">
<polygon fill="none" stroke="black" points="1559,-56.5 1559,-75.5 1663,-75.5 1663,-56.5 1559,-56.5"/>
<text text-anchor="middle" x="1611" y="-63.5" font-family="Helvetica,sans-Serif" font-size="10.00">zpp/thread_data.hpp</text>
</a>
</g>
</g>
<!-- Node11&#45;&gt;Node16 -->
<g id="edge27" class="edge">
<title>Node11&#45;&gt;Node16</title>
<path fill="none" stroke="midnightblue" d="M1174.01,-176.62C1291.17,-175.09 1627.3,-167.61 1660,-132 1675,-115.66 1653.19,-94.92 1634.06,-81.32"/>
<polygon fill="midnightblue" stroke="midnightblue" points="1635.85,-78.31 1625.61,-75.62 1631.94,-84.11 1635.85,-78.31"/>
</g>
<!-- Node18 -->
<g id="node18" class="node">
<title>Node18</title>
<g id="a_node18"><a xlink:href="thread__stack_8hpp.html" target="_top" xlink:title=" ">
<polygon fill="none" stroke="black" points="1681.5,-56.5 1681.5,-75.5 1790.5,-75.5 1790.5,-56.5 1681.5,-56.5"/>
<text text-anchor="middle" x="1736" y="-63.5" font-family="Helvetica,sans-Serif" font-size="10.00">zpp/thread_stack.hpp</text>
</a>
</g>
</g>
<!-- Node11&#45;&gt;Node18 -->
<g id="edge31" class="edge">
<title>Node11&#45;&gt;Node18</title>
<path fill="none" stroke="midnightblue" d="M1174.01,-177.43C1283.99,-178.04 1588.56,-175.62 1677,-132 1698.28,-121.5 1715.5,-99.73 1725.72,-84.28"/>
<polygon fill="midnightblue" stroke="midnightblue" points="1728.8,-85.97 1731.16,-75.64 1722.88,-82.24 1728.8,-85.97"/>
</g>
<!-- Node19 -->
<g id="node19" class="node">
<title>Node19</title>
<g id="a_node19"><a xlink:href="clock_8hpp.html" target="_top" xlink:title=" ">
<polygon fill="none" stroke="black" points="683,-112.5 683,-131.5 759,-131.5 759,-112.5 683,-112.5"/>
<text text-anchor="middle" x="721" y="-119.5" font-family="Helvetica,sans-Serif" font-size="10.00">zpp/clock.hpp</text>
</a>
</g>
</g>
<!-- Node11&#45;&gt;Node19 -->
<g id="edge35" class="edge">
<title>Node11&#45;&gt;Node19</title>
<path fill="none" stroke="midnightblue" d="M1093.97,-172.09C1028.77,-164.04 895.61,-147.39 783,-132 778.51,-131.39 773.85,-130.74 769.18,-130.07"/>
<polygon fill="midnightblue" stroke="midnightblue" points="769.42,-126.57 759.02,-128.62 768.42,-133.5 769.42,-126.57"/>
</g>
<!-- Node21 -->
<g id="node21" class="node">
<title>Node21</title>
<g id="a_node21"><a xlink:href="result_8hpp.html" target="_top" xlink:title=" ">
<polygon fill="none" stroke="black" points="1129.5,-112.5 1129.5,-131.5 1206.5,-131.5 1206.5,-112.5 1129.5,-112.5"/>
<text text-anchor="middle" x="1168" y="-119.5" font-family="Helvetica,sans-Serif" font-size="10.00">zpp/result.hpp</text>
</a>
</g>
</g>
<!-- Node11&#45;&gt;Node21 -->
<g id="edge41" class="edge">
<title>Node11&#45;&gt;Node21</title>
<path fill="none" stroke="midnightblue" d="M1139.61,-168.08C1144.37,-160.53 1151.32,-149.49 1157.15,-140.23"/>
<polygon fill="midnightblue" stroke="midnightblue" points="1160.12,-142.08 1162.49,-131.75 1154.2,-138.35 1160.12,-142.08"/>
</g>
<!-- Node22 -->
<g id="node22" class="node">
<title>Node22</title>
<g id="a_node22"><a xlink:href="error__code_8hpp.html" target="_top" xlink:title=" ">
<polygon fill="none" stroke="black" points="1303,-56.5 1303,-75.5 1401,-75.5 1401,-56.5 1303,-56.5"/>
<text text-anchor="middle" x="1352" y="-63.5" font-family="Helvetica,sans-Serif" font-size="10.00">zpp/error_code.hpp</text>
</a>
</g>
</g>
<!-- Node11&#45;&gt;Node22 -->
<g id="edge49" class="edge">
<title>Node11&#45;&gt;Node22</title>
<path fill="none" stroke="midnightblue" d="M1174.25,-174.89C1263.39,-169.81 1471.23,-155.55 1492,-132 1519.78,-100.51 1461.09,-83.22 1411.39,-74.54"/>
<polygon fill="midnightblue" stroke="midnightblue" points="1411.71,-71.04 1401.27,-72.87 1410.57,-77.95 1411.71,-71.04"/>
</g>
<!-- Node24 -->
<g id="node24" class="node">
<title>Node24</title>
<g id="a_node24"><a xlink:href="heap_8hpp.html" target="_top" xlink:title=" ">
<polygon fill="none" stroke="black" points="1577,-112.5 1577,-131.5 1651,-131.5 1651,-112.5 1577,-112.5"/>
<text text-anchor="middle" x="1614" y="-119.5" font-family="Helvetica,sans-Serif" font-size="10.00">zpp/heap.hpp</text>
</a>
</g>
</g>
<!-- Node11&#45;&gt;Node24 -->
<g id="edge50" class="edge">
<title>Node11&#45;&gt;Node24</title>
<path fill="none" stroke="midnightblue" d="M1174.1,-172.49C1262.16,-162.58 1472.12,-138.96 1566.56,-128.34"/>
<polygon fill="midnightblue" stroke="midnightblue" points="1567.13,-131.79 1576.68,-127.2 1566.35,-124.84 1567.13,-131.79"/>
</g>
<!-- Node26 -->
<g id="node26" class="node">
<title>Node26</title>
<g id="a_node26"><a xlink:title=" ">
<polygon fill="none" stroke="#bfbfbf" points="1263,-112.5 1263,-131.5 1349,-131.5 1349,-112.5 1263,-112.5"/>
<text text-anchor="middle" x="1306" y="-119.5" font-family="Helvetica,sans-Serif" font-size="10.00">zephyr/sys/util.h</text>
</a>
</g>
</g>
<!-- Node11&#45;&gt;Node26 -->
<g id="edge58" class="edge">
<title>Node11&#45;&gt;Node26</title>
<path fill="none" stroke="midnightblue" d="M1161.25,-168.44C1190.44,-159.28 1236.92,-144.69 1269.31,-134.52"/>
<polygon fill="midnightblue" stroke="midnightblue" points="1270.38,-137.85 1278.87,-131.52 1268.28,-131.17 1270.38,-137.85"/>
</g>
<!-- Node27 -->
<g id="node27" class="node">
<title>Node27</title>
<g id="a_node27"><a xlink:title=" ">
<polygon fill="none" stroke="#bfbfbf" points="1367.5,-112.5 1367.5,-131.5 1426.5,-131.5 1426.5,-112.5 1367.5,-112.5"/>
<text text-anchor="middle" x="1397" y="-119.5" font-family="Helvetica,sans-Serif" font-size="10.00">functional</text>
</a>
</g>
</g>
<!-- Node11&#45;&gt;Node27 -->
<g id="edge59" class="edge">
<title>Node11&#45;&gt;Node27</title>
<path fill="none" stroke="midnightblue" d="M1174.13,-169.3C1216.99,-160.99 1287.17,-147.16 1357.31,-132.1"/>
<polygon fill="midnightblue" stroke="midnightblue" points="1358.17,-135.5 1367.21,-129.97 1356.7,-128.65 1358.17,-135.5"/>
</g>
<!-- Node28 -->
<g id="node28" class="node">
<title>Node28</title>
<g id="a_node28"><a xlink:title=" ">
<polygon fill="none" stroke="#bfbfbf" points="1445,-112.5 1445,-131.5 1483,-131.5 1483,-112.5 1445,-112.5"/>
<text text-anchor="middle" x="1464" y="-119.5" font-family="Helvetica,sans-Serif" font-size="10.00">tuple</text>
</a>
</g>
</g>
<!-- Node11&#45;&gt;Node28 -->
<g id="edge61" class="edge">
<title>Node11&#45;&gt;Node28</title>
<path fill="none" stroke="midnightblue" d="M1174.29,-172.95C1232.37,-166.68 1342.8,-153.07 1435,-132 1435.1,-131.98 1435.2,-131.95 1435.3,-131.93"/>
<polygon fill="midnightblue" stroke="midnightblue" points="1436,-135.37 1444.77,-129.42 1434.21,-128.6 1436,-135.37"/>
</g>
<!-- Node29 -->
<g id="node29" class="node">
<title>Node29</title>
<g id="a_node29"><a xlink:title=" ">
<polygon fill="none" stroke="#bfbfbf" points="865.5,-112.5 865.5,-131.5 916.5,-131.5 916.5,-112.5 865.5,-112.5"/>
<text text-anchor="middle" x="891" y="-119.5" font-family="Helvetica,sans-Serif" font-size="10.00">memory</text>
</a>
</g>
</g>
<!-- Node11&#45;&gt;Node29 -->
<g id="edge63" class="edge">
<title>Node11&#45;&gt;Node29</title>
<path fill="none" stroke="midnightblue" d="M1095.45,-168.49C1054.61,-159.47 988.25,-144.79 931,-132 929.57,-131.68 928.11,-131.35 926.63,-131.02"/>
<polygon fill="midnightblue" stroke="midnightblue" points="927.34,-127.6 916.82,-128.82 925.81,-134.43 927.34,-127.6"/>
</g>
<!-- Node12&#45;&gt;Node3 -->
<g id="edge16" class="edge">
<title>Node12&#45;&gt;Node3</title>
<path fill="none" stroke="midnightblue" d="M1057.75,-56.44C1094.52,-47.12 1153.45,-32.18 1193.62,-22"/>
<polygon fill="midnightblue" stroke="midnightblue" points="1194.57,-25.37 1203.41,-19.52 1192.85,-18.58 1194.57,-25.37"/>
</g>
<!-- Node12&#45;&gt;Node4 -->
<g id="edge17" class="edge">
<title>Node12&#45;&gt;Node4</title>
<path fill="none" stroke="midnightblue" d="M999.76,-56.44C974.13,-47.4 933.51,-33.06 904.76,-22.92"/>
<polygon fill="midnightblue" stroke="midnightblue" points="905.72,-19.54 895.13,-19.52 903.39,-26.15 905.72,-19.54"/>
</g>
<!-- Node13&#45;&gt;Node3 -->
<g id="edge19" class="edge">
<title>Node13&#45;&gt;Node3</title>
<path fill="none" stroke="midnightblue" d="M917.35,-58.16C986.2,-48 1114.98,-29 1186.27,-18.48"/>
<polygon fill="midnightblue" stroke="midnightblue" points="1186.98,-21.92 1196.36,-17 1185.95,-14.99 1186.98,-21.92"/>
</g>
<!-- Node13&#45;&gt;Node4 -->
<g id="edge20" class="edge">
<title>Node13&#45;&gt;Node4</title>
<path fill="none" stroke="midnightblue" d="M871,-56.08C871,-49.01 871,-38.86 871,-29.99"/>
<polygon fill="midnightblue" stroke="midnightblue" points="874.5,-29.75 871,-19.75 867.5,-29.75 874.5,-29.75"/>
</g>
<!-- Node14&#45;&gt;Node3 -->
<g id="edge23" class="edge">
<title>Node14&#45;&gt;Node3</title>
<path fill="none" stroke="midnightblue" d="M1034.4,-112.37C1052.35,-99.07 1088.57,-73.27 1122,-56 1147.55,-42.8 1177.9,-31.07 1201.01,-22.91"/>
<polygon fill="midnightblue" stroke="midnightblue" points="1202.45,-26.11 1210.75,-19.52 1200.15,-19.5 1202.45,-26.11"/>
</g>
<!-- Node14&#45;&gt;Node4 -->
<g id="edge24" class="edge">
<title>Node14&#45;&gt;Node4</title>
<path fill="none" stroke="midnightblue" d="M1011.07,-112.37C985.1,-93.57 923.19,-48.77 891.08,-25.53"/>
<polygon fill="midnightblue" stroke="midnightblue" points="893.02,-22.62 882.87,-19.59 888.92,-28.29 893.02,-22.62"/>
</g>
<!-- Node14&#45;&gt;Node8 -->
<g id="edge25" class="edge">
<title>Node14&#45;&gt;Node8</title>
<path fill="none" stroke="midnightblue" d="M973.25,-115.27C877.14,-104.21 668.26,-80.16 587.14,-70.82"/>
<polygon fill="midnightblue" stroke="midnightblue" points="587.35,-67.32 577.01,-69.65 586.55,-74.27 587.35,-67.32"/>
</g>
<!-- Node14&#45;&gt;Node12 -->
<g id="edge22" class="edge">
<title>Node14&#45;&gt;Node12</title>
<path fill="none" stroke="midnightblue" d="M1023.17,-112.08C1023.3,-105.01 1023.48,-94.86 1023.65,-85.99"/>
<polygon fill="midnightblue" stroke="midnightblue" points="1027.15,-85.81 1023.84,-75.75 1020.15,-85.68 1027.15,-85.81"/>
</g>
<!-- Node14&#45;&gt;Node15 -->
<g id="edge26" class="edge">
<title>Node14&#45;&gt;Node15</title>
<path fill="none" stroke="midnightblue" d="M1043.28,-112.44C1064.47,-103.5 1097.91,-89.4 1121.91,-79.27"/>
<polygon fill="midnightblue" stroke="midnightblue" points="1123.38,-82.45 1131.23,-75.34 1120.66,-76 1123.38,-82.45"/>
</g>
<!-- Node16&#45;&gt;Node3 -->
<g id="edge28" class="edge">
<title>Node16&#45;&gt;Node3</title>
<path fill="none" stroke="midnightblue" d="M1559,-57.49C1487.26,-47.13 1358.76,-28.58 1287.71,-18.32"/>
<polygon fill="midnightblue" stroke="midnightblue" points="1288.06,-14.84 1277.66,-16.87 1287.06,-21.76 1288.06,-14.84"/>
</g>
<!-- Node16&#45;&gt;Node4 -->
<g id="edge30" class="edge">
<title>Node16&#45;&gt;Node4</title>
<path fill="none" stroke="midnightblue" d="M1558.87,-60.06C1543.75,-58.68 1527.22,-57.23 1512,-56 1301.79,-39.07 1052.49,-22.6 936.47,-15.15"/>
<polygon fill="midnightblue" stroke="midnightblue" points="936.54,-11.65 926.33,-14.5 936.09,-18.63 936.54,-11.65"/>
</g>
<!-- Node17 -->
<g id="node17" class="node">
<title>Node17</title>
<g id="a_node17"><a xlink:title=" ">
<polygon fill="none" stroke="#bfbfbf" points="1606,-0.5 1606,-19.5 1740,-19.5 1740,-0.5 1606,-0.5"/>
<text text-anchor="middle" x="1673" y="-7.5" font-family="Helvetica,sans-Serif" font-size="10.00">zephyr/sys/arch_interface.h</text>
</a>
</g>
</g>
<!-- Node16&#45;&gt;Node17 -->
<g id="edge29" class="edge">
<title>Node16&#45;&gt;Node17</title>
<path fill="none" stroke="midnightblue" d="M1620.96,-56.32C1630.13,-48.34 1643.94,-36.31 1655.03,-26.65"/>
<polygon fill="midnightblue" stroke="midnightblue" points="1657.62,-29.04 1662.86,-19.83 1653.02,-23.76 1657.62,-29.04"/>
</g>
<!-- Node18&#45;&gt;Node3 -->
<g id="edge32" class="edge">
<title>Node18&#45;&gt;Node3</title>
<path fill="none" stroke="midnightblue" d="M1681.21,-57.16C1678.09,-56.75 1675.01,-56.37 1672,-56 1515.89,-37.05 1476.39,-36.48 1320,-20 1309.51,-18.9 1298.28,-17.69 1287.58,-16.53"/>
<polygon fill="midnightblue" stroke="midnightblue" points="1287.84,-13.04 1277.52,-15.44 1287.09,-20 1287.84,-13.04"/>
</g>
<!-- Node18&#45;&gt;Node4 -->
<g id="edge34" class="edge">
<title>Node18&#45;&gt;Node4</title>
<path fill="none" stroke="midnightblue" d="M1681.22,-56.99C1678.11,-56.63 1675.02,-56.3 1672,-56 1399.78,-29.26 1073.84,-17.06 936.8,-12.83"/>
<polygon fill="midnightblue" stroke="midnightblue" points="936.58,-9.33 926.48,-12.52 936.36,-16.32 936.58,-9.33"/>
</g>
<!-- Node18&#45;&gt;Node17 -->
<g id="edge33" class="edge">
<title>Node18&#45;&gt;Node17</title>
<path fill="none" stroke="midnightblue" d="M1725.88,-56.32C1716.47,-48.26 1702.26,-36.08 1690.93,-26.37"/>
<polygon fill="midnightblue" stroke="midnightblue" points="1693.18,-23.68 1683.31,-19.83 1688.62,-29 1693.18,-23.68"/>
</g>
<!-- Node19&#45;&gt;Node3 -->
<g id="edge36" class="edge">
<title>Node19&#45;&gt;Node3</title>
<path fill="none" stroke="midnightblue" d="M703.17,-112.33C679.7,-99.83 643.48,-76.03 662,-56 679.68,-36.88 1048.5,-19.11 1185.96,-13.13"/>
<polygon fill="midnightblue" stroke="midnightblue" points="1186.38,-16.62 1196.22,-12.69 1186.08,-9.62 1186.38,-16.62"/>
</g>
<!-- Node19&#45;&gt;Node4 -->
<g id="edge38" class="edge">
<title>Node19&#45;&gt;Node4</title>
<path fill="none" stroke="midnightblue" d="M689.33,-112.48C655.01,-101.72 607.81,-81.49 629,-56 651.1,-29.41 741.98,-18.45 805.84,-13.99"/>
<polygon fill="midnightblue" stroke="midnightblue" points="806.09,-17.48 815.84,-13.33 805.63,-10.5 806.09,-17.48"/>
</g>
<!-- Node19&#45;&gt;Node5 -->
<g id="edge40" class="edge">
<title>Node19&#45;&gt;Node5</title>
<path fill="none" stroke="midnightblue" d="M682.98,-117.37C577.26,-107.29 281.22,-79.04 185.37,-69.9"/>
<polygon fill="midnightblue" stroke="midnightblue" points="185.49,-66.39 175.2,-68.93 184.82,-73.36 185.49,-66.39"/>
</g>
<!-- Node19&#45;&gt;Node8 -->
<g id="edge39" class="edge">
<title>Node19&#45;&gt;Node8</title>
<path fill="none" stroke="midnightblue" d="M694.54,-112.44C665.33,-103 618.27,-87.78 586.76,-77.59"/>
<polygon fill="midnightblue" stroke="midnightblue" points="587.7,-74.22 577.11,-74.47 585.55,-80.88 587.7,-74.22"/>
</g>
<!-- Node20 -->
<g id="node20" class="node">
<title>Node20</title>
<g id="a_node20"><a xlink:title=" ">
<polygon fill="none" stroke="#bfbfbf" points="671,-56.5 671,-75.5 769,-75.5 769,-56.5 671,-56.5"/>
<text text-anchor="middle" x="720" y="-63.5" font-family="Helvetica,sans-Serif" font-size="10.00">zephyr/sys_clock.h</text>
</a>
</g>
</g>
<!-- Node19&#45;&gt;Node20 -->
<g id="edge37" class="edge">
<title>Node19&#45;&gt;Node20</title>
<path fill="none" stroke="midnightblue" d="M720.83,-112.08C720.7,-105.01 720.52,-94.86 720.35,-85.99"/>
<polygon fill="midnightblue" stroke="midnightblue" points="723.85,-85.68 720.16,-75.75 716.85,-85.81 723.85,-85.68"/>
</g>
<!-- Node21&#45;&gt;Node3 -->
<g id="edge42" class="edge">
<title>Node21&#45;&gt;Node3</title>
<path fill="none" stroke="midnightblue" d="M1178.98,-112.41C1189.03,-104.05 1203.71,-90.51 1213,-76 1222.22,-61.6 1228.61,-43.14 1232.46,-29.58"/>
<polygon fill="midnightblue" stroke="midnightblue" points="1235.94,-30.09 1235.1,-19.53 1229.17,-28.31 1235.94,-30.09"/>
</g>
<!-- Node21&#45;&gt;Node4 -->
<g id="edge43" class="edge">
<title>Node21&#45;&gt;Node4</title>
<path fill="none" stroke="midnightblue" d="M1173.39,-112.25C1181.06,-98.54 1192.77,-71.93 1179,-56 1148.28,-20.47 1017.29,-12.44 936.35,-10.95"/>
<polygon fill="midnightblue" stroke="midnightblue" points="936.31,-7.45 926.25,-10.79 936.2,-14.45 936.31,-7.45"/>
</g>
<!-- Node21&#45;&gt;Node15 -->
<g id="edge48" class="edge">
<title>Node21&#45;&gt;Node15</title>
<path fill="none" stroke="midnightblue" d="M1165.19,-112.08C1162.92,-104.85 1159.63,-94.41 1156.79,-85.4"/>
<polygon fill="midnightblue" stroke="midnightblue" points="1160.1,-84.24 1153.75,-75.75 1153.42,-86.34 1160.1,-84.24"/>
</g>
<!-- Node21&#45;&gt;Node22 -->
<g id="edge44" class="edge">
<title>Node21&#45;&gt;Node22</title>
<path fill="none" stroke="midnightblue" d="M1197.16,-112.44C1228.51,-103.24 1278.53,-88.56 1313.2,-78.39"/>
<polygon fill="midnightblue" stroke="midnightblue" points="1314.37,-81.69 1322.98,-75.52 1312.4,-74.97 1314.37,-81.69"/>
</g>
<!-- Node22&#45;&gt;Node3 -->
<g id="edge45" class="edge">
<title>Node22&#45;&gt;Node3</title>
<path fill="none" stroke="midnightblue" d="M1333.78,-56.44C1315.1,-47.68 1285.84,-33.94 1264.38,-23.86"/>
<polygon fill="midnightblue" stroke="midnightblue" points="1265.68,-20.6 1255.14,-19.52 1262.7,-26.93 1265.68,-20.6"/>
</g>
<!-- Node22&#45;&gt;Node4 -->
<g id="edge46" class="edge">
<title>Node22&#45;&gt;Node4</title>
<path fill="none" stroke="midnightblue" d="M1302.84,-57.81C1298.17,-57.18 1293.49,-56.56 1289,-56 1164.38,-40.4 1018.44,-25.44 936.14,-17.31"/>
<polygon fill="midnightblue" stroke="midnightblue" points="936.47,-13.82 926.18,-16.33 935.79,-20.79 936.47,-13.82"/>
</g>
<!-- Node23 -->
<g id="node23" class="node">
<title>Node23</title>
<g id="a_node23"><a xlink:title=" ">
<polygon fill="none" stroke="#bfbfbf" points="1329,-0.5 1329,-19.5 1375,-19.5 1375,-0.5 1329,-0.5"/>
<text text-anchor="middle" x="1352" y="-7.5" font-family="Helvetica,sans-Serif" font-size="10.00">errno.h</text>
</a>
</g>
</g>
<!-- Node22&#45;&gt;Node23 -->
<g id="edge47" class="edge">
<title>Node22&#45;&gt;Node23</title>
<path fill="none" stroke="midnightblue" d="M1352,-56.08C1352,-49.01 1352,-38.86 1352,-29.99"/>
<polygon fill="midnightblue" stroke="midnightblue" points="1355.5,-29.75 1352,-19.75 1348.5,-29.75 1355.5,-29.75"/>
</g>
<!-- Node24&#45;&gt;Node3 -->
<g id="edge51" class="edge">
<title>Node24&#45;&gt;Node3</title>
<path fill="none" stroke="midnightblue" d="M1601.95,-112.44C1579.29,-96.5 1530.93,-63.23 1512,-56 1471.97,-40.71 1355.65,-25.03 1287.8,-16.83"/>
<polygon fill="midnightblue" stroke="midnightblue" points="1288.09,-13.34 1277.75,-15.62 1287.26,-20.29 1288.09,-13.34"/>
</g>
<!-- Node24&#45;&gt;Node4 -->
<g id="edge52" class="edge">
<title>Node24&#45;&gt;Node4</title>
<path fill="none" stroke="midnightblue" d="M1576.98,-114.28C1572.28,-113.48 1567.53,-112.7 1563,-112 1443.8,-93.51 1412.92,-96.19 1294,-76 1250.6,-68.63 1240.38,-63.46 1197,-56 1107.07,-40.54 1002.47,-26.86 936.5,-18.75"/>
<polygon fill="midnightblue" stroke="midnightblue" points="936.61,-15.24 926.26,-17.5 935.76,-22.18 936.61,-15.24"/>
</g>
<!-- Node24&#45;&gt;Node8 -->
<g id="edge53" class="edge">
<title>Node24&#45;&gt;Node8</title>
<path fill="none" stroke="midnightblue" d="M1576.91,-117.97C1552.74,-116.07 1520.52,-113.67 1492,-112 1123.4,-90.42 1030.5,-99.34 662,-76 636.94,-74.41 608.66,-72.03 587.32,-70.12"/>
<polygon fill="midnightblue" stroke="midnightblue" points="587.43,-66.62 577.15,-69.2 586.8,-73.59 587.43,-66.62"/>
</g>
<!-- Node24&#45;&gt;Node9 -->
<g id="edge54" class="edge">
<title>Node24&#45;&gt;Node9</title>
<path fill="none" stroke="midnightblue" d="M1651.18,-113.03C1701.74,-102.2 1791.1,-83.05 1837,-73.21"/>
<polygon fill="midnightblue" stroke="midnightblue" points="1837.85,-76.61 1846.9,-71.09 1836.39,-69.77 1837.85,-76.61"/>
</g>
<!-- Node25 -->
<g id="node25" class="node">
<title>Node25</title>
<g id="a_node25"><a xlink:title=" ">
<polygon fill="none" stroke="#bfbfbf" points="1457,-56.5 1457,-75.5 1503,-75.5 1503,-56.5 1457,-56.5"/>
<text text-anchor="middle" x="1480" y="-63.5" font-family="Helvetica,sans-Serif" font-size="10.00">cstdint</text>
</a>
</g>
</g>
<!-- Node24&#45;&gt;Node25 -->
<g id="edge55" class="edge">
<title>Node24&#45;&gt;Node25</title>
<path fill="none" stroke="midnightblue" d="M1592.77,-112.44C1570.62,-103.52 1535.68,-89.44 1510.56,-79.32"/>
<polygon fill="midnightblue" stroke="midnightblue" points="1511.72,-76.01 1501.13,-75.52 1509.1,-82.5 1511.72,-76.01"/>
</g>
<!-- Node30&#45;&gt;Node3 -->
<g id="edge69" class="edge">
<title>Node30&#45;&gt;Node3</title>
<path fill="none" stroke="midnightblue" d="M407.33,-112.34C413.45,-97.73 428.04,-68.57 451,-56 483.27,-38.33 1017.53,-18.54 1186.32,-12.71"/>
<polygon fill="midnightblue" stroke="midnightblue" points="1186.56,-16.2 1196.43,-12.36 1186.32,-9.2 1186.56,-16.2"/>
</g>
<!-- Node30&#45;&gt;Node4 -->
<g id="edge70" class="edge">
<title>Node30&#45;&gt;Node4</title>
<path fill="none" stroke="midnightblue" d="M371.22,-112.93C330.85,-102.67 266.75,-85.18 260,-76 254.73,-68.84 253.95,-62.51 260,-56 296.52,-16.69 655.07,-11.39 805.3,-10.91"/>
<polygon fill="midnightblue" stroke="midnightblue" points="805.76,-14.41 815.75,-10.88 805.75,-7.41 805.76,-14.41"/>
</g>
<!-- Node30&#45;&gt;Node5 -->
<g id="edge72" class="edge">
<title>Node30&#45;&gt;Node5</title>
<path fill="none" stroke="midnightblue" d="M371.45,-113.94C322.92,-103.42 232.27,-83.76 185.16,-73.54"/>
<polygon fill="midnightblue" stroke="midnightblue" points="185.77,-70.09 175.26,-71.39 184.29,-76.93 185.77,-70.09"/>
</g>
<!-- Node30&#45;&gt;Node8 -->
<g id="edge71" class="edge">
<title>Node30&#45;&gt;Node8</title>
<path fill="none" stroke="midnightblue" d="M427.77,-112.44C453.04,-103.35 493.18,-88.9 521.4,-78.74"/>
<polygon fill="midnightblue" stroke="midnightblue" points="522.61,-82.02 530.84,-75.34 520.24,-75.43 522.61,-82.02"/>
</g>
<!-- Node31 -->
<g id="node31" class="node">
<title>Node31</title>
<g id="a_node31"><a xlink:title=" ">
<polygon fill="none" stroke="#bfbfbf" points="337,-56.5 337,-75.5 399,-75.5 399,-56.5 337,-56.5"/>
<text text-anchor="middle" x="368" y="-63.5" font-family="Helvetica,sans-Serif" font-size="10.00">type_traits</text>
</a>
</g>
</g>
<!-- Node30&#45;&gt;Node31 -->
<g id="edge73" class="edge">
<title>Node30&#45;&gt;Node31</title>
<path fill="none" stroke="midnightblue" d="M398.06,-112.08C393.02,-104.53 385.66,-93.49 379.49,-84.23"/>
<polygon fill="midnightblue" stroke="midnightblue" points="382.29,-82.13 373.83,-75.75 376.47,-86.01 382.29,-82.13"/>
</g>
<!-- Node32 -->
<g id="node32" class="node">
<title>Node32</title>
<g id="a_node32"><a xlink:title=" ">
<polygon fill="none" stroke="#bfbfbf" points="269.5,-56.5 269.5,-75.5 318.5,-75.5 318.5,-56.5 269.5,-56.5"/>
<text text-anchor="middle" x="294" y="-63.5" font-family="Helvetica,sans-Serif" font-size="10.00">cstddef</text>
</a>
</g>
</g>
<!-- Node30&#45;&gt;Node32 -->
<g id="edge74" class="edge">
<title>Node30&#45;&gt;Node32</title>
<path fill="none" stroke="midnightblue" d="M386.33,-112.32C368.61,-103.62 341.1,-90.12 320.71,-80.11"/>
<polygon fill="midnightblue" stroke="midnightblue" points="322.15,-76.92 311.63,-75.65 319.06,-83.2 322.15,-76.92"/>
</g>
<!-- Node33&#45;&gt;Node2 -->
<g id="edge88" class="edge">
<title>Node33&#45;&gt;Node2</title>
<path fill="none" stroke="midnightblue" d="M405.55,-341.64C361.54,-337.01 300.96,-326.03 254,-300 232.83,-288.27 214.33,-267.12 202.95,-252.14"/>
<polygon fill="midnightblue" stroke="midnightblue" points="205.54,-249.76 196.82,-243.74 199.89,-253.88 205.54,-249.76"/>
</g>
<!-- Node33&#45;&gt;Node3 -->
<g id="edge77" class="edge">
<title>Node33&#45;&gt;Node3</title>
<path fill="none" stroke="midnightblue" d="M522.04,-343.83C720.73,-339.65 1372.81,-324.36 1581,-300 1730.34,-282.53 1913,-385.36 1913,-235 1913,-235 1913,-235 1913,-121 1913,-90.9 1917.51,-74.8 1894,-56 1844.09,-16.09 1383.67,-25.45 1320,-20 1309.6,-19.11 1298.49,-18.01 1287.89,-16.89"/>
<polygon fill="midnightblue" stroke="midnightblue" points="1288.23,-13.4 1277.91,-15.81 1287.48,-20.36 1288.23,-13.4"/>
</g>
<!-- Node33&#45;&gt;Node4 -->
<g id="edge78" class="edge">
<title>Node33&#45;&gt;Node4</title>
<path fill="none" stroke="midnightblue" d="M405.7,-343.34C281.08,-338.2 0,-317.48 0,-235 0,-235 0,-235 0,-121 0,-73.44 40.41,-72.53 85,-56 151.68,-31.28 629.35,-17.01 805.76,-12.54"/>
<polygon fill="midnightblue" stroke="midnightblue" points="806.03,-16.03 815.94,-12.28 805.85,-9.04 806.03,-16.03"/>
</g>
<!-- Node33&#45;&gt;Node5 -->
<g id="edge80" class="edge">
<title>Node33&#45;&gt;Node5</title>
<path fill="none" stroke="midnightblue" d="M405.88,-338.57C373.93,-332.69 335.01,-321.45 306,-300 285.52,-284.86 195.91,-135.87 165.3,-84.39"/>
<polygon fill="midnightblue" stroke="midnightblue" points="168.26,-82.53 160.15,-75.71 162.24,-86.1 168.26,-82.53"/>
</g>
<!-- Node33&#45;&gt;Node6 -->
<g id="edge81" class="edge">
<title>Node33&#45;&gt;Node6</title>
<path fill="none" stroke="midnightblue" d="M405.88,-338.64C356.76,-332.19 285.02,-320.22 225,-300 172.26,-282.24 146.78,-288.23 113,-244 102.96,-230.85 100.1,-211.98 99.51,-197.95"/>
<polygon fill="midnightblue" stroke="midnightblue" points="103.01,-197.52 99.46,-187.54 96.01,-197.56 103.01,-197.52"/>
</g>
<!-- Node33&#45;&gt;Node7 -->
<g id="edge87" class="edge">
<title>Node33&#45;&gt;Node7</title>
<path fill="none" stroke="midnightblue" d="M447.93,-336.32C432.04,-327.74 407.49,-314.49 389.04,-304.52"/>
<polygon fill="midnightblue" stroke="midnightblue" points="390.49,-301.33 380.03,-299.65 387.16,-307.49 390.49,-301.33"/>
</g>
<!-- Node33&#45;&gt;Node8 -->
<g id="edge79" class="edge">
<title>Node33&#45;&gt;Node8</title>
<path fill="none" stroke="midnightblue" d="M479.02,-336.48C503.75,-321.49 552.3,-287.78 572,-244 596.08,-190.49 587.71,-169.29 575,-112 572.88,-102.43 568.49,-92.48 564.28,-84.37"/>
<polygon fill="midnightblue" stroke="midnightblue" points="567.3,-82.6 559.38,-75.56 561.18,-86 567.3,-82.6"/>
</g>
<!-- Node33&#45;&gt;Node9 -->
<g id="edge82" class="edge">
<title>Node33&#45;&gt;Node9</title>
<path fill="none" stroke="midnightblue" d="M522.4,-343.49C786.22,-336.28 1854,-302.89 1854,-235 1854,-235 1854,-235 1854,-177 1854,-144.76 1859.16,-107.51 1862.71,-85.68"/>
<polygon fill="midnightblue" stroke="midnightblue" points="1866.21,-85.97 1864.43,-75.52 1859.31,-84.8 1866.21,-85.97"/>
</g>
<!-- Node33&#45;&gt;Node10 -->
<g id="edge85" class="edge">
<title>Node33&#45;&gt;Node10</title>
<path fill="none" stroke="midnightblue" d="M469.02,-336.37C479.54,-318.3 504.04,-276.18 517.93,-252.31"/>
<polygon fill="midnightblue" stroke="midnightblue" points="521,-254 523,-243.59 514.95,-250.47 521,-254"/>
</g>
<!-- Node33&#45;&gt;Node15 -->
<g id="edge83" class="edge">
<title>Node33&#45;&gt;Node15</title>
<path fill="none" stroke="midnightblue" d="M522.33,-345.26C747.7,-345.53 1549,-339.13 1549,-235 1549,-235 1549,-235 1549,-177 1549,-138.58 1525.99,-129.93 1492,-112 1373.61,-49.56 1325.02,-98.05 1193,-76 1188.98,-75.33 1184.76,-74.53 1180.61,-73.7"/>
<polygon fill="midnightblue" stroke="midnightblue" points="1181.09,-70.22 1170.59,-71.58 1179.65,-77.07 1181.09,-70.22"/>
</g>
<!-- Node33&#45;&gt;Node19 -->
<g id="edge84" class="edge">
<title>Node33&#45;&gt;Node19</title>
<path fill="none" stroke="midnightblue" d="M522.27,-343.4C560.78,-339.48 610.2,-328.63 644,-300 693.61,-257.98 712.25,-178 718.37,-141.72"/>
<polygon fill="midnightblue" stroke="midnightblue" points="721.87,-142 719.94,-131.58 714.95,-140.93 721.87,-142"/>
</g>
<!-- Node33&#45;&gt;Node30 -->
<g id="edge86" class="edge">
<title>Node33&#45;&gt;Node30</title>
<path fill="none" stroke="midnightblue" d="M461.65,-336.3C452.8,-303.56 421.4,-187.38 409.04,-141.67"/>
<polygon fill="midnightblue" stroke="midnightblue" points="412.39,-140.62 406.4,-131.88 405.63,-142.45 412.39,-140.62"/>
</g>
</g>
</svg>
