<?xml version="1.0" encoding="UTF-8" standalone="no"?>
<!DOCTYPE svg PUBLIC "-//W3C//DTD SVG 1.1//EN"
 "http://www.w3.org/Graphics/SVG/1.1/DTD/svg11.dtd">
<!-- Generated by graphviz version 2.44.0 ()
 -->
<!-- Title: include/zpp/poll_event_set.hpp Pages: 1 -->
<svg width="1995pt" height="375pt"
 viewBox="0.00 0.00 1995.00 375.00" xmlns="http://www.w3.org/2000/svg" xmlns:xlink="http://www.w3.org/1999/xlink">
<g id="graph0" class="graph" transform="scale(1 1) rotate(0) translate(4 371)">
<title>include/zpp/poll_event_set.hpp</title>
<!-- Node1 -->
<g id="node1" class="node">
<title>Node1</title>
<g id="a_node1"><a xlink:title=" ">
<polygon fill="#bfbfbf" stroke="black" points="1471.5,-336.5 1471.5,-366.5 1584.5,-366.5 1584.5,-336.5 1471.5,-336.5"/>
<text text-anchor="start" x="1479.5" y="-354.5" font-family="Helvetica,sans-Serif" font-size="10.00">include/zpp/poll_event</text>
<text text-anchor="middle" x="1528" y="-343.5" font-family="Helvetica,sans-Serif" font-size="10.00">_set.hpp</text>
</a>
</g>
</g>
<!-- Node2 -->
<g id="node2" class="node">
<title>Node2</title>
<g id="a_node2"><a xlink:title=" ">
<polygon fill="none" stroke="#bfbfbf" points="681.5,-0.5 681.5,-19.5 762.5,-19.5 762.5,-0.5 681.5,-0.5"/>
<text text-anchor="middle" x="722" y="-7.5" font-family="Helvetica,sans-Serif" font-size="10.00">zephyr/kernel.h</text>
</a>
</g>
</g>
<!-- Node1&#45;&gt;Node2 -->
<g id="edge1" class="edge">
<title>Node1&#45;&gt;Node2</title>
<path fill="none" stroke="midnightblue" d="M1471.27,-350.76C1301.87,-350.96 785.12,-347.35 360,-300 198.41,-282 0,-397.59 0,-235 0,-235 0,-235 0,-121 0,-84.82 17.18,-73.21 49,-56 103.25,-26.66 524.07,-15.13 671.32,-11.97"/>
<polygon fill="midnightblue" stroke="midnightblue" points="671.52,-15.47 681.44,-11.76 671.37,-8.47 671.52,-15.47"/>
</g>
<!-- Node3 -->
<g id="node3" class="node">
<title>Node3</title>
<g id="a_node3"><a xlink:title=" ">
<polygon fill="none" stroke="#bfbfbf" points="1172,-0.5 1172,-19.5 1282,-19.5 1282,-0.5 1172,-0.5"/>
<text text-anchor="middle" x="1227" y="-7.5" font-family="Helvetica,sans-Serif" font-size="10.00">zephyr/sys/__assert.h</text>
</a>
</g>
</g>
<!-- Node1&#45;&gt;Node3 -->
<g id="edge2" class="edge">
<title>Node1&#45;&gt;Node3</title>
<path fill="none" stroke="midnightblue" d="M1584.74,-348.11C1707.55,-341.38 1987,-317.07 1987,-235 1987,-235 1987,-235 1987,-121 1987,-49.16 1908.79,-73.06 1839,-56 1605.14,1.16 1535.69,-43.75 1292.35,-20.04"/>
<polygon fill="midnightblue" stroke="midnightblue" points="1292.43,-16.53 1282.13,-19.02 1291.73,-23.5 1292.43,-16.53"/>
</g>
<!-- Node4 -->
<g id="node4" class="node">
<title>Node4</title>
<g id="a_node4"><a xlink:title=" ">
<polygon fill="none" stroke="#bfbfbf" points="546,-56.5 546,-75.5 592,-75.5 592,-56.5 546,-56.5"/>
<text text-anchor="middle" x="569" y="-63.5" font-family="Helvetica,sans-Serif" font-size="10.00">chrono</text>
</a>
</g>
</g>
<!-- Node1&#45;&gt;Node4 -->
<g id="edge3" class="edge">
<title>Node1&#45;&gt;Node4</title>
<path fill="none" stroke="midnightblue" d="M1471.25,-348.71C1213.67,-340.2 167,-301.55 167,-235 167,-235 167,-235 167,-177 167,-111.21 237.35,-132.08 300,-112 382.3,-85.62 483.98,-73.98 535.58,-69.47"/>
<polygon fill="midnightblue" stroke="midnightblue" points="536.13,-72.94 545.8,-68.62 535.54,-65.97 536.13,-72.94"/>
</g>
<!-- Node5 -->
<g id="node5" class="node">
<title>Node5</title>
<g id="a_node5"><a xlink:title=" ">
<polygon fill="none" stroke="#bfbfbf" points="1681,-56.5 1681,-75.5 1721,-75.5 1721,-56.5 1681,-56.5"/>
<text text-anchor="middle" x="1701" y="-63.5" font-family="Helvetica,sans-Serif" font-size="10.00">limits</text>
</a>
</g>
</g>
<!-- Node1&#45;&gt;Node5 -->
<g id="edge4" class="edge">
<title>Node1&#45;&gt;Node5</title>
<path fill="none" stroke="midnightblue" d="M1584.53,-341.03C1640.85,-327.99 1719,-298.46 1719,-235 1719,-235 1719,-235 1719,-177 1719,-144.54 1711.27,-107.38 1705.94,-85.63"/>
<polygon fill="midnightblue" stroke="midnightblue" points="1709.29,-84.59 1703.43,-75.76 1702.51,-86.32 1709.29,-84.59"/>
</g>
<!-- Node6 -->
<g id="node6" class="node">
<title>Node6</title>
<g id="a_node6"><a xlink:title=" ">
<polygon fill="none" stroke="#bfbfbf" points="1871,-168.5 1871,-187.5 1921,-187.5 1921,-168.5 1871,-168.5"/>
<text text-anchor="middle" x="1896" y="-175.5" font-family="Helvetica,sans-Serif" font-size="10.00">optional</text>
</a>
</g>
</g>
<!-- Node1&#45;&gt;Node6 -->
<g id="edge5" class="edge">
<title>Node1&#45;&gt;Node6</title>
<path fill="none" stroke="midnightblue" d="M1584.75,-350.77C1663.3,-347.83 1803.74,-329.92 1877,-244 1888.08,-231.01 1892.7,-211.85 1894.63,-197.69"/>
<polygon fill="midnightblue" stroke="midnightblue" points="1898.12,-197.93 1895.67,-187.63 1891.16,-197.21 1898.12,-197.93"/>
</g>
<!-- Node7 -->
<g id="node7" class="node">
<title>Node7</title>
<g id="a_node7"><a xlink:title=" ">
<polygon fill="none" stroke="#bfbfbf" points="1739,-56.5 1739,-75.5 1777,-75.5 1777,-56.5 1739,-56.5"/>
<text text-anchor="middle" x="1758" y="-63.5" font-family="Helvetica,sans-Serif" font-size="10.00">array</text>
</a>
</g>
</g>
<!-- Node1&#45;&gt;Node7 -->
<g id="edge6" class="edge">
<title>Node1&#45;&gt;Node7</title>
<path fill="none" stroke="midnightblue" d="M1584.78,-346.82C1699.69,-337.81 1949,-309.65 1949,-235 1949,-235 1949,-235 1949,-177 1949,-103.25 1840.75,-78.2 1787.24,-70.32"/>
<polygon fill="midnightblue" stroke="midnightblue" points="1787.39,-66.81 1777.01,-68.93 1786.45,-73.75 1787.39,-66.81"/>
</g>
<!-- Node8 -->
<g id="node8" class="node">
<title>Node8</title>
<g id="a_node8"><a xlink:title=" ">
<polygon fill="none" stroke="#bfbfbf" points="945.5,-56.5 945.5,-75.5 984.5,-75.5 984.5,-56.5 945.5,-56.5"/>
<text text-anchor="middle" x="965" y="-63.5" font-family="Helvetica,sans-Serif" font-size="10.00">utility</text>
</a>
</g>
</g>
<!-- Node1&#45;&gt;Node8 -->
<g id="edge7" class="edge">
<title>Node1&#45;&gt;Node8</title>
<path fill="none" stroke="midnightblue" d="M1471.46,-342.17C1399.92,-329.67 1274.98,-301.16 1183,-244 1114.37,-201.35 1123.21,-159.71 1058,-112 1038.28,-97.57 1013.2,-85.75 994.06,-77.86"/>
<polygon fill="midnightblue" stroke="midnightblue" points="995.24,-74.56 984.65,-74.09 992.64,-81.05 995.24,-74.56"/>
</g>
<!-- Node9 -->
<g id="node9" class="node">
<title>Node9</title>
<g id="a_node9"><a xlink:href="clock_8hpp.html" target="_top" xlink:title=" ">
<polygon fill="none" stroke="black" points="309,-112.5 309,-131.5 385,-131.5 385,-112.5 309,-112.5"/>
<text text-anchor="middle" x="347" y="-119.5" font-family="Helvetica,sans-Serif" font-size="10.00">zpp/clock.hpp</text>
</a>
</g>
</g>
<!-- Node1&#45;&gt;Node9 -->
<g id="edge8" class="edge">
<title>Node1&#45;&gt;Node9</title>
<path fill="none" stroke="midnightblue" d="M1471.47,-347.6C1312.95,-338.21 852.1,-302.31 489,-188 445.97,-174.45 398.89,-151.06 371.2,-136.34"/>
<polygon fill="midnightblue" stroke="midnightblue" points="372.72,-133.18 362.26,-131.53 369.4,-139.35 372.72,-133.18"/>
</g>
<!-- Node11 -->
<g id="node11" class="node">
<title>Node11</title>
<g id="a_node11"><a xlink:href="sem_8hpp.html" target="_top" xlink:title=" ">
<polygon fill="none" stroke="black" points="1009.5,-224.5 1009.5,-243.5 1080.5,-243.5 1080.5,-224.5 1009.5,-224.5"/>
<text text-anchor="middle" x="1045" y="-231.5" font-family="Helvetica,sans-Serif" font-size="10.00">zpp/sem.hpp</text>
</a>
</g>
</g>
<!-- Node1&#45;&gt;Node11 -->
<g id="edge14" class="edge">
<title>Node1&#45;&gt;Node11</title>
<path fill="none" stroke="midnightblue" d="M1471.28,-350.76C1394.84,-349.4 1255.57,-340.83 1145,-300 1113.5,-288.37 1081.78,-265.39 1062.76,-250.11"/>
<polygon fill="midnightblue" stroke="midnightblue" points="1064.91,-247.34 1054.96,-243.7 1060.46,-252.75 1064.91,-247.34"/>
</g>
<!-- Node28 -->
<g id="node28" class="node">
<title>Node28</title>
<g id="a_node28"><a xlink:href="fifo_8hpp.html" target="_top" xlink:title=" ">
<polygon fill="none" stroke="black" points="1473.5,-112.5 1473.5,-131.5 1538.5,-131.5 1538.5,-112.5 1473.5,-112.5"/>
<text text-anchor="middle" x="1506" y="-119.5" font-family="Helvetica,sans-Serif" font-size="10.00">zpp/fifo.hpp</text>
</a>
</g>
</g>
<!-- Node1&#45;&gt;Node28 -->
<g id="edge64" class="edge">
<title>Node1&#45;&gt;Node28</title>
<path fill="none" stroke="midnightblue" d="M1521.54,-336.25C1517.38,-326.32 1512.33,-312.63 1510,-300 1499.52,-243.2 1502.27,-174.41 1504.47,-141.84"/>
<polygon fill="midnightblue" stroke="midnightblue" points="1507.99,-141.8 1505.24,-131.57 1501.01,-141.29 1507.99,-141.8"/>
</g>
<!-- Node31 -->
<g id="node31" class="node">
<title>Node31</title>
<g id="a_node31"><a xlink:href="poll__event_8hpp.html" target="_top" xlink:title=" ">
<polygon fill="none" stroke="black" points="1518.5,-280.5 1518.5,-299.5 1615.5,-299.5 1615.5,-280.5 1518.5,-280.5"/>
<text text-anchor="middle" x="1567" y="-287.5" font-family="Helvetica,sans-Serif" font-size="10.00">zpp/poll_event.hpp</text>
</a>
</g>
</g>
<!-- Node1&#45;&gt;Node31 -->
<g id="edge71" class="edge">
<title>Node1&#45;&gt;Node31</title>
<path fill="none" stroke="midnightblue" d="M1537.24,-336.4C1542.79,-327.93 1549.89,-317.1 1555.77,-308.14"/>
<polygon fill="midnightblue" stroke="midnightblue" points="1558.77,-309.94 1561.33,-299.66 1552.92,-306.1 1558.77,-309.94"/>
</g>
<!-- Node32 -->
<g id="node32" class="node">
<title>Node32</title>
<g id="a_node32"><a xlink:href="poll__signal_8hpp.html" target="_top" xlink:title=" ">
<polygon fill="none" stroke="black" points="1747,-224.5 1747,-243.5 1845,-243.5 1845,-224.5 1747,-224.5"/>
<text text-anchor="middle" x="1796" y="-231.5" font-family="Helvetica,sans-Serif" font-size="10.00">zpp/poll_signal.hpp</text>
</a>
</g>
</g>
<!-- Node1&#45;&gt;Node32 -->
<g id="edge85" class="edge">
<title>Node1&#45;&gt;Node32</title>
<path fill="none" stroke="midnightblue" d="M1584.65,-345.12C1627.68,-339.07 1687.07,-326.38 1733,-300 1753.99,-287.95 1772.53,-266.87 1783.97,-251.98"/>
<polygon fill="midnightblue" stroke="midnightblue" points="1787,-253.78 1790.13,-243.66 1781.37,-249.61 1787,-253.78"/>
</g>
<!-- Node9&#45;&gt;Node2 -->
<g id="edge9" class="edge">
<title>Node9&#45;&gt;Node2</title>
<path fill="none" stroke="midnightblue" d="M369.87,-112.43C393.01,-103.65 429.72,-89.43 461,-76 480.37,-67.68 483.99,-62.62 504,-56 559.99,-37.48 626.7,-25.05 671.45,-18.03"/>
<polygon fill="midnightblue" stroke="midnightblue" points="672.14,-21.46 681.49,-16.49 671.07,-14.54 672.14,-21.46"/>
</g>
<!-- Node9&#45;&gt;Node3 -->
<g id="edge11" class="edge">
<title>Node9&#45;&gt;Node3</title>
<path fill="none" stroke="midnightblue" d="M380.66,-112.49C411.21,-104.39 457.26,-91.19 496,-76 514.88,-68.6 517.4,-61.2 537,-56 653.71,-25.02 1013.08,-14.94 1161.67,-12.04"/>
<polygon fill="midnightblue" stroke="midnightblue" points="1162.06,-15.54 1171.99,-11.85 1161.93,-8.54 1162.06,-15.54"/>
</g>
<!-- Node9&#45;&gt;Node4 -->
<g id="edge12" class="edge">
<title>Node9&#45;&gt;Node4</title>
<path fill="none" stroke="midnightblue" d="M382.18,-112.44C424.44,-102.16 494.8,-85.05 536.05,-75.01"/>
<polygon fill="midnightblue" stroke="midnightblue" points="536.99,-78.39 545.88,-72.62 535.33,-71.59 536.99,-78.39"/>
</g>
<!-- Node9&#45;&gt;Node5 -->
<g id="edge13" class="edge">
<title>Node9&#45;&gt;Node5</title>
<path fill="none" stroke="midnightblue" d="M385.03,-116.35C399.69,-114.73 416.6,-113.04 432,-112 965.24,-75.84 1101.32,-119.64 1634,-76 1646.09,-75.01 1659.34,-73.35 1670.84,-71.73"/>
<polygon fill="midnightblue" stroke="midnightblue" points="1671.44,-75.18 1680.83,-70.26 1670.43,-68.25 1671.44,-75.18"/>
</g>
<!-- Node10 -->
<g id="node10" class="node">
<title>Node10</title>
<g id="a_node10"><a xlink:title=" ">
<polygon fill="none" stroke="#bfbfbf" points="354,-56.5 354,-75.5 452,-75.5 452,-56.5 354,-56.5"/>
<text text-anchor="middle" x="403" y="-63.5" font-family="Helvetica,sans-Serif" font-size="10.00">zephyr/sys_clock.h</text>
</a>
</g>
</g>
<!-- Node9&#45;&gt;Node10 -->
<g id="edge10" class="edge">
<title>Node9&#45;&gt;Node10</title>
<path fill="none" stroke="midnightblue" d="M356,-112.32C364.19,-104.42 376.51,-92.55 386.47,-82.94"/>
<polygon fill="midnightblue" stroke="midnightblue" points="389.07,-85.29 393.84,-75.83 384.21,-80.26 389.07,-85.29"/>
</g>
<!-- Node11&#45;&gt;Node2 -->
<g id="edge60" class="edge">
<title>Node11&#45;&gt;Node2</title>
<path fill="none" stroke="midnightblue" d="M1009.23,-233.07C890.45,-232.41 499.27,-222.99 193,-132 130.34,-113.38 93.37,-130.31 57,-76 52.05,-68.61 50.93,-62.49 57,-56 77.91,-33.63 518.87,-17.49 670.96,-12.57"/>
<polygon fill="midnightblue" stroke="midnightblue" points="671.52,-16.05 681.41,-12.23 671.3,-9.06 671.52,-16.05"/>
</g>
<!-- Node11&#45;&gt;Node3 -->
<g id="edge61" class="edge">
<title>Node11&#45;&gt;Node3</title>
<path fill="none" stroke="midnightblue" d="M1080.77,-227.64C1160.35,-214.92 1348.1,-180.36 1387,-132 1408.2,-105.65 1411.51,-82.9 1391,-56 1378.7,-39.88 1332.39,-28.1 1292.1,-20.65"/>
<polygon fill="midnightblue" stroke="midnightblue" points="1292.47,-17.16 1282.01,-18.85 1291.24,-24.05 1292.47,-17.16"/>
</g>
<!-- Node11&#45;&gt;Node4 -->
<g id="edge62" class="edge">
<title>Node11&#45;&gt;Node4</title>
<path fill="none" stroke="midnightblue" d="M1009.46,-232.88C890.11,-231.67 506.97,-220.81 432,-132 426.27,-125.21 426.79,-119.2 432,-112 438.28,-103.32 497.43,-86.12 535.93,-75.68"/>
<polygon fill="midnightblue" stroke="midnightblue" points="536.95,-79.03 545.7,-73.06 535.14,-72.27 536.95,-79.03"/>
</g>
<!-- Node11&#45;&gt;Node5 -->
<g id="edge63" class="edge">
<title>Node11&#45;&gt;Node5</title>
<path fill="none" stroke="midnightblue" d="M1080.81,-228.78C1164.29,-218.3 1377.67,-187.83 1548,-132 1568.03,-125.43 1571.69,-120.44 1591,-112 1617.89,-100.25 1648.85,-87.67 1671.06,-78.81"/>
<polygon fill="midnightblue" stroke="midnightblue" points="1672.61,-81.96 1680.61,-75.01 1670.02,-75.45 1672.61,-81.96"/>
</g>
<!-- Node12 -->
<g id="node12" class="node">
<title>Node12</title>
<g id="a_node12"><a xlink:href="thread_8hpp.html" target="_top" xlink:title=" ">
<polygon fill="none" stroke="black" points="770,-168.5 770,-187.5 850,-187.5 850,-168.5 770,-168.5"/>
<text text-anchor="middle" x="810" y="-175.5" font-family="Helvetica,sans-Serif" font-size="10.00">zpp/thread.hpp</text>
</a>
</g>
</g>
<!-- Node11&#45;&gt;Node12 -->
<g id="edge15" class="edge">
<title>Node11&#45;&gt;Node12</title>
<path fill="none" stroke="midnightblue" d="M1009.31,-224.8C968.6,-215.44 901.89,-200.12 856.99,-189.8"/>
<polygon fill="midnightblue" stroke="midnightblue" points="857.72,-186.38 847.19,-187.55 856.16,-193.2 857.72,-186.38"/>
</g>
<!-- Node12&#45;&gt;Node2 -->
<g id="edge52" class="edge">
<title>Node12&#45;&gt;Node2</title>
<path fill="none" stroke="midnightblue" d="M769.98,-176.5C655.28,-174.67 331.55,-166.46 300,-132 272.06,-101.49 310.22,-75.29 345,-56 399.83,-25.6 581.32,-15.53 670.98,-12.36"/>
<polygon fill="midnightblue" stroke="midnightblue" points="671.3,-15.86 681.18,-12.02 671.07,-8.86 671.3,-15.86"/>
</g>
<!-- Node12&#45;&gt;Node3 -->
<g id="edge53" class="edge">
<title>Node12&#45;&gt;Node3</title>
<path fill="none" stroke="midnightblue" d="M850.23,-175.14C974.89,-169.2 1347.53,-149.99 1366,-132 1390.27,-108.35 1392.1,-83.28 1372,-56 1361.28,-41.45 1320.45,-29.58 1284.84,-21.69"/>
<polygon fill="midnightblue" stroke="midnightblue" points="1285.47,-18.25 1274.96,-19.57 1284.01,-25.09 1285.47,-18.25"/>
</g>
<!-- Node12&#45;&gt;Node4 -->
<g id="edge56" class="edge">
<title>Node12&#45;&gt;Node4</title>
<path fill="none" stroke="midnightblue" d="M803.22,-168.41C791.73,-154.44 767.03,-126.87 740,-112 716.39,-99.02 644.77,-82.68 602.07,-73.7"/>
<polygon fill="midnightblue" stroke="midnightblue" points="602.65,-70.24 592.14,-71.63 601.22,-77.09 602.65,-70.24"/>
</g>
<!-- Node12&#45;&gt;Node8 -->
<g id="edge58" class="edge">
<title>Node12&#45;&gt;Node8</title>
<path fill="none" stroke="midnightblue" d="M850.01,-175.17C909.83,-171.51 1018.12,-160.96 1042,-132 1060.4,-109.69 1022.93,-89.09 994.07,-77.29"/>
<polygon fill="midnightblue" stroke="midnightblue" points="995.29,-74.01 984.71,-73.64 992.75,-80.53 995.29,-74.01"/>
</g>
<!-- Node12&#45;&gt;Node9 -->
<g id="edge36" class="edge">
<title>Node12&#45;&gt;Node9</title>
<path fill="none" stroke="midnightblue" d="M769.72,-172.3C684.67,-162.38 487.05,-139.33 395.34,-128.64"/>
<polygon fill="midnightblue" stroke="midnightblue" points="395.57,-125.14 385.23,-127.46 394.75,-132.09 395.57,-125.14"/>
</g>
<!-- Node13 -->
<g id="node13" class="node">
<title>Node13</title>
<g id="a_node13"><a xlink:href="thread__prio_8hpp.html" target="_top" xlink:title=" ">
<polygon fill="none" stroke="black" points="826.5,-56.5 826.5,-75.5 927.5,-75.5 927.5,-56.5 826.5,-56.5"/>
<text text-anchor="middle" x="877" y="-63.5" font-family="Helvetica,sans-Serif" font-size="10.00">zpp/thread_prio.hpp</text>
</a>
</g>
</g>
<!-- Node12&#45;&gt;Node13 -->
<g id="edge16" class="edge">
<title>Node12&#45;&gt;Node13</title>
<path fill="none" stroke="midnightblue" d="M850.06,-174.53C906.3,-170.13 1004.25,-158.75 1026,-132 1031.61,-125.1 1031.3,-119.14 1026,-112 1015.03,-97.23 973.56,-85.44 937.15,-77.64"/>
<polygon fill="midnightblue" stroke="midnightblue" points="937.54,-74.14 927.04,-75.54 936.12,-81 937.54,-74.14"/>
</g>
<!-- Node14 -->
<g id="node14" class="node">
<title>Node14</title>
<g id="a_node14"><a xlink:href="thread__id_8hpp.html" target="_top" xlink:title=" ">
<polygon fill="none" stroke="black" points="1079,-56.5 1079,-75.5 1171,-75.5 1171,-56.5 1079,-56.5"/>
<text text-anchor="middle" x="1125" y="-63.5" font-family="Helvetica,sans-Serif" font-size="10.00">zpp/thread_id.hpp</text>
</a>
</g>
</g>
<!-- Node12&#45;&gt;Node14 -->
<g id="edge19" class="edge">
<title>Node12&#45;&gt;Node14</title>
<path fill="none" stroke="midnightblue" d="M850.07,-176.79C901.09,-175 990.67,-166.61 1058,-132 1080.41,-120.48 1100.31,-98.97 1112.49,-83.86"/>
<polygon fill="midnightblue" stroke="midnightblue" points="1115.36,-85.88 1118.72,-75.83 1109.83,-81.58 1115.36,-85.88"/>
</g>
<!-- Node15 -->
<g id="node15" class="node">
<title>Node15</title>
<g id="a_node15"><a xlink:href="thread__attr_8hpp.html" target="_top" xlink:title=" ">
<polygon fill="none" stroke="black" points="917.5,-112.5 917.5,-131.5 1016.5,-131.5 1016.5,-112.5 917.5,-112.5"/>
<text text-anchor="middle" x="967" y="-119.5" font-family="Helvetica,sans-Serif" font-size="10.00">zpp/thread_attr.hpp</text>
</a>
</g>
</g>
<!-- Node12&#45;&gt;Node15 -->
<g id="edge22" class="edge">
<title>Node12&#45;&gt;Node15</title>
<path fill="none" stroke="midnightblue" d="M834.88,-168.44C861.29,-159.36 903.22,-144.94 932.74,-134.78"/>
<polygon fill="midnightblue" stroke="midnightblue" points="933.92,-138.08 942.24,-131.52 931.64,-131.46 933.92,-138.08"/>
</g>
<!-- Node16 -->
<g id="node16" class="node">
<title>Node16</title>
<g id="a_node16"><a xlink:href="thread__data_8hpp.html" target="_top" xlink:title=" ">
<polygon fill="none" stroke="black" points="66,-56.5 66,-75.5 170,-75.5 170,-56.5 66,-56.5"/>
<text text-anchor="middle" x="118" y="-63.5" font-family="Helvetica,sans-Serif" font-size="10.00">zpp/thread_data.hpp</text>
</a>
</g>
</g>
<!-- Node12&#45;&gt;Node16 -->
<g id="edge28" class="edge">
<title>Node12&#45;&gt;Node16</title>
<path fill="none" stroke="midnightblue" d="M769.77,-175.75C658.3,-171.97 347.28,-159.23 249,-132 208.21,-120.7 165,-96.55 139.81,-81.08"/>
<polygon fill="midnightblue" stroke="midnightblue" points="141.42,-77.96 131.08,-75.62 137.7,-83.89 141.42,-77.96"/>
</g>
<!-- Node18 -->
<g id="node18" class="node">
<title>Node18</title>
<g id="a_node18"><a xlink:href="thread__stack_8hpp.html" target="_top" xlink:title=" ">
<polygon fill="none" stroke="black" points="188.5,-56.5 188.5,-75.5 297.5,-75.5 297.5,-56.5 188.5,-56.5"/>
<text text-anchor="middle" x="243" y="-63.5" font-family="Helvetica,sans-Serif" font-size="10.00">zpp/thread_stack.hpp</text>
</a>
</g>
</g>
<!-- Node12&#45;&gt;Node18 -->
<g id="edge32" class="edge">
<title>Node12&#45;&gt;Node18</title>
<path fill="none" stroke="midnightblue" d="M769.67,-176.13C650.66,-173.21 306.77,-162.23 267,-132 252.8,-121.21 247,-101.13 244.63,-86.13"/>
<polygon fill="midnightblue" stroke="midnightblue" points="248.07,-85.4 243.41,-75.89 241.12,-86.23 248.07,-85.4"/>
</g>
<!-- Node19 -->
<g id="node19" class="node">
<title>Node19</title>
<g id="a_node19"><a xlink:href="result_8hpp.html" target="_top" xlink:title=" ">
<polygon fill="none" stroke="black" points="1263.5,-112.5 1263.5,-131.5 1340.5,-131.5 1340.5,-112.5 1263.5,-112.5"/>
<text text-anchor="middle" x="1302" y="-119.5" font-family="Helvetica,sans-Serif" font-size="10.00">zpp/result.hpp</text>
</a>
</g>
</g>
<!-- Node12&#45;&gt;Node19 -->
<g id="edge37" class="edge">
<title>Node12&#45;&gt;Node19</title>
<path fill="none" stroke="midnightblue" d="M850.26,-172.58C939.94,-162.74 1155.86,-139.04 1253.09,-128.37"/>
<polygon fill="midnightblue" stroke="midnightblue" points="1253.68,-131.82 1263.24,-127.25 1252.91,-124.87 1253.68,-131.82"/>
</g>
<!-- Node20 -->
<g id="node20" class="node">
<title>Node20</title>
<g id="a_node20"><a xlink:href="error__code_8hpp.html" target="_top" xlink:title=" ">
<polygon fill="none" stroke="black" points="1265,-56.5 1265,-75.5 1363,-75.5 1363,-56.5 1265,-56.5"/>
<text text-anchor="middle" x="1314" y="-63.5" font-family="Helvetica,sans-Serif" font-size="10.00">zpp/error_code.hpp</text>
</a>
</g>
</g>
<!-- Node12&#45;&gt;Node20 -->
<g id="edge45" class="edge">
<title>Node12&#45;&gt;Node20</title>
<path fill="none" stroke="midnightblue" d="M850.01,-175.14C972.17,-169.26 1333.08,-150.39 1350,-132 1363.61,-117.21 1347.31,-96.34 1332.47,-82.27"/>
<polygon fill="midnightblue" stroke="midnightblue" points="1334.8,-79.66 1325.01,-75.6 1330.14,-84.88 1334.8,-79.66"/>
</g>
<!-- Node22 -->
<g id="node22" class="node">
<title>Node22</title>
<g id="a_node22"><a xlink:href="heap_8hpp.html" target="_top" xlink:title=" ">
<polygon fill="none" stroke="black" points="825,-112.5 825,-131.5 899,-131.5 899,-112.5 825,-112.5"/>
<text text-anchor="middle" x="862" y="-119.5" font-family="Helvetica,sans-Serif" font-size="10.00">zpp/heap.hpp</text>
</a>
</g>
</g>
<!-- Node12&#45;&gt;Node22 -->
<g id="edge46" class="edge">
<title>Node12&#45;&gt;Node22</title>
<path fill="none" stroke="midnightblue" d="M818.59,-168.08C826.16,-160.22 837.38,-148.57 846.51,-139.08"/>
<polygon fill="midnightblue" stroke="midnightblue" points="849.16,-141.38 853.57,-131.75 844.12,-136.53 849.16,-141.38"/>
</g>
<!-- Node24 -->
<g id="node24" class="node">
<title>Node24</title>
<g id="a_node24"><a xlink:title=" ">
<polygon fill="none" stroke="#bfbfbf" points="441,-112.5 441,-131.5 527,-131.5 527,-112.5 441,-112.5"/>
<text text-anchor="middle" x="484" y="-119.5" font-family="Helvetica,sans-Serif" font-size="10.00">zephyr/sys/util.h</text>
</a>
</g>
</g>
<!-- Node12&#45;&gt;Node24 -->
<g id="edge54" class="edge">
<title>Node12&#45;&gt;Node24</title>
<path fill="none" stroke="midnightblue" d="M769.75,-170.43C716.48,-161.72 619.67,-145.83 537,-132 536.9,-131.98 536.8,-131.97 536.7,-131.95"/>
<polygon fill="midnightblue" stroke="midnightblue" points="537.54,-128.54 527.1,-130.34 536.38,-135.44 537.54,-128.54"/>
</g>
<!-- Node25 -->
<g id="node25" class="node">
<title>Node25</title>
<g id="a_node25"><a xlink:title=" ">
<polygon fill="none" stroke="#bfbfbf" points="545.5,-112.5 545.5,-131.5 604.5,-131.5 604.5,-112.5 545.5,-112.5"/>
<text text-anchor="middle" x="575" y="-119.5" font-family="Helvetica,sans-Serif" font-size="10.00">functional</text>
</a>
</g>
</g>
<!-- Node12&#45;&gt;Node25 -->
<g id="edge55" class="edge">
<title>Node12&#45;&gt;Node25</title>
<path fill="none" stroke="midnightblue" d="M772.79,-168.47C735.36,-159.89 675.73,-146.2 614.63,-132.14"/>
<polygon fill="midnightblue" stroke="midnightblue" points="615.34,-128.72 604.81,-129.88 613.77,-135.54 615.34,-128.72"/>
</g>
<!-- Node26 -->
<g id="node26" class="node">
<title>Node26</title>
<g id="a_node26"><a xlink:title=" ">
<polygon fill="none" stroke="#bfbfbf" points="623,-112.5 623,-131.5 661,-131.5 661,-112.5 623,-112.5"/>
<text text-anchor="middle" x="642" y="-119.5" font-family="Helvetica,sans-Serif" font-size="10.00">tuple</text>
</a>
</g>
</g>
<!-- Node12&#45;&gt;Node26 -->
<g id="edge57" class="edge">
<title>Node12&#45;&gt;Node26</title>
<path fill="none" stroke="midnightblue" d="M783.38,-168.44C752.66,-158.57 702.32,-142.39 670.73,-132.23"/>
<polygon fill="midnightblue" stroke="midnightblue" points="671.77,-128.89 661.18,-129.16 669.63,-135.56 671.77,-128.89"/>
</g>
<!-- Node27 -->
<g id="node27" class="node">
<title>Node27</title>
<g id="a_node27"><a xlink:title=" ">
<polygon fill="none" stroke="#bfbfbf" points="679.5,-112.5 679.5,-131.5 730.5,-131.5 730.5,-112.5 679.5,-112.5"/>
<text text-anchor="middle" x="705" y="-119.5" font-family="Helvetica,sans-Serif" font-size="10.00">memory</text>
</a>
</g>
</g>
<!-- Node12&#45;&gt;Node27 -->
<g id="edge59" class="edge">
<title>Node12&#45;&gt;Node27</title>
<path fill="none" stroke="midnightblue" d="M793.13,-168.32C776.29,-159.66 750.19,-146.24 730.76,-136.25"/>
<polygon fill="midnightblue" stroke="midnightblue" points="732.32,-133.12 721.83,-131.65 729.12,-139.34 732.32,-133.12"/>
</g>
<!-- Node13&#45;&gt;Node2 -->
<g id="edge17" class="edge">
<title>Node13&#45;&gt;Node2</title>
<path fill="none" stroke="midnightblue" d="M852.44,-56.44C826.48,-47.4 785.33,-33.06 756.2,-22.92"/>
<polygon fill="midnightblue" stroke="midnightblue" points="757.04,-19.5 746.45,-19.52 754.74,-26.11 757.04,-19.5"/>
</g>
<!-- Node13&#45;&gt;Node3 -->
<g id="edge18" class="edge">
<title>Node13&#45;&gt;Node3</title>
<path fill="none" stroke="midnightblue" d="M927.52,-57.21C989.28,-47.68 1093.93,-31.53 1161.74,-21.07"/>
<polygon fill="midnightblue" stroke="midnightblue" points="1162.53,-24.49 1171.88,-19.5 1161.46,-17.57 1162.53,-24.49"/>
</g>
<!-- Node14&#45;&gt;Node2 -->
<g id="edge20" class="edge">
<title>Node14&#45;&gt;Node2</title>
<path fill="none" stroke="midnightblue" d="M1078.82,-57.99C1074.16,-57.3 1069.49,-56.63 1065,-56 961.41,-41.44 839.99,-25.86 772.97,-17.39"/>
<polygon fill="midnightblue" stroke="midnightblue" points="773.05,-13.87 762.69,-16.09 772.17,-20.82 773.05,-13.87"/>
</g>
<!-- Node14&#45;&gt;Node3 -->
<g id="edge21" class="edge">
<title>Node14&#45;&gt;Node3</title>
<path fill="none" stroke="midnightblue" d="M1141.39,-56.32C1157.67,-47.7 1182.87,-34.36 1201.72,-24.39"/>
<polygon fill="midnightblue" stroke="midnightblue" points="1203.45,-27.43 1210.65,-19.65 1200.18,-21.24 1203.45,-27.43"/>
</g>
<!-- Node15&#45;&gt;Node2 -->
<g id="edge24" class="edge">
<title>Node15&#45;&gt;Node2</title>
<path fill="none" stroke="midnightblue" d="M919.52,-112.46C873.29,-103.6 806.79,-89.2 784,-76 763.21,-63.96 745,-42.88 733.78,-27.99"/>
<polygon fill="midnightblue" stroke="midnightblue" points="736.44,-25.7 727.74,-19.66 730.78,-29.81 736.44,-25.7"/>
</g>
<!-- Node15&#45;&gt;Node3 -->
<g id="edge25" class="edge">
<title>Node15&#45;&gt;Node3</title>
<path fill="none" stroke="midnightblue" d="M917.35,-112.54C878.83,-104.84 830.04,-92.22 818,-76 812.7,-68.86 812.07,-62.62 818,-56 840.48,-30.91 1051.97,-18.36 1161.66,-13.49"/>
<polygon fill="midnightblue" stroke="midnightblue" points="1162.11,-16.98 1171.95,-13.05 1161.81,-9.98 1162.11,-16.98"/>
</g>
<!-- Node15&#45;&gt;Node4 -->
<g id="edge26" class="edge">
<title>Node15&#45;&gt;Node4</title>
<path fill="none" stroke="midnightblue" d="M917.44,-113.37C914.24,-112.9 911.08,-112.44 908,-112 849.32,-103.63 675.93,-80.94 602.48,-71.36"/>
<polygon fill="midnightblue" stroke="midnightblue" points="602.77,-67.87 592.4,-70.05 601.86,-74.81 602.77,-67.87"/>
</g>
<!-- Node15&#45;&gt;Node8 -->
<g id="edge27" class="edge">
<title>Node15&#45;&gt;Node8</title>
<path fill="none" stroke="midnightblue" d="M966.67,-112.08C966.41,-105.01 966.03,-94.86 965.7,-85.99"/>
<polygon fill="midnightblue" stroke="midnightblue" points="969.19,-85.61 965.32,-75.75 962.2,-85.87 969.19,-85.61"/>
</g>
<!-- Node15&#45;&gt;Node13 -->
<g id="edge23" class="edge">
<title>Node15&#45;&gt;Node13</title>
<path fill="none" stroke="midnightblue" d="M952.54,-112.32C938.5,-103.9 916.95,-90.97 900.46,-81.07"/>
<polygon fill="midnightblue" stroke="midnightblue" points="901.8,-77.8 891.42,-75.65 898.2,-83.8 901.8,-77.8"/>
</g>
<!-- Node16&#45;&gt;Node2 -->
<g id="edge29" class="edge">
<title>Node16&#45;&gt;Node2</title>
<path fill="none" stroke="midnightblue" d="M170.21,-57.07C173.18,-56.69 176.13,-56.33 179,-56 359.66,-35.21 575.2,-20.27 671.36,-14.11"/>
<polygon fill="midnightblue" stroke="midnightblue" points="671.63,-17.6 681.38,-13.48 671.18,-10.62 671.63,-17.6"/>
</g>
<!-- Node16&#45;&gt;Node3 -->
<g id="edge31" class="edge">
<title>Node16&#45;&gt;Node3</title>
<path fill="none" stroke="midnightblue" d="M170.2,-56.94C173.17,-56.59 176.12,-56.27 179,-56 549.32,-20.83 995.9,-13.13 1161.27,-11.46"/>
<polygon fill="midnightblue" stroke="midnightblue" points="1161.79,-14.96 1171.75,-11.36 1161.72,-7.96 1161.79,-14.96"/>
</g>
<!-- Node17 -->
<g id="node17" class="node">
<title>Node17</title>
<g id="a_node17"><a xlink:title=" ">
<polygon fill="none" stroke="#bfbfbf" points="114,-0.5 114,-19.5 248,-19.5 248,-0.5 114,-0.5"/>
<text text-anchor="middle" x="181" y="-7.5" font-family="Helvetica,sans-Serif" font-size="10.00">zephyr/sys/arch_interface.h</text>
</a>
</g>
</g>
<!-- Node16&#45;&gt;Node17 -->
<g id="edge30" class="edge">
<title>Node16&#45;&gt;Node17</title>
<path fill="none" stroke="midnightblue" d="M128.12,-56.32C137.53,-48.26 151.74,-36.08 163.07,-26.37"/>
<polygon fill="midnightblue" stroke="midnightblue" points="165.38,-29 170.69,-19.83 160.82,-23.68 165.38,-29"/>
</g>
<!-- Node18&#45;&gt;Node2 -->
<g id="edge33" class="edge">
<title>Node18&#45;&gt;Node2</title>
<path fill="none" stroke="midnightblue" d="M297.6,-57.77C302.47,-57.16 307.32,-56.56 312,-56 441.28,-40.48 593.76,-24.3 671.26,-16.23"/>
<polygon fill="midnightblue" stroke="midnightblue" points="671.65,-19.71 681.23,-15.2 670.92,-12.75 671.65,-19.71"/>
</g>
<!-- Node18&#45;&gt;Node3 -->
<g id="edge35" class="edge">
<title>Node18&#45;&gt;Node3</title>
<path fill="none" stroke="midnightblue" d="M297.76,-59.79C313.04,-58.44 329.66,-57.07 345,-56 650.27,-34.75 1015.65,-19.28 1161.85,-13.5"/>
<polygon fill="midnightblue" stroke="midnightblue" points="1162.14,-16.99 1172,-13.1 1161.87,-9.99 1162.14,-16.99"/>
</g>
<!-- Node18&#45;&gt;Node17 -->
<g id="edge34" class="edge">
<title>Node18&#45;&gt;Node17</title>
<path fill="none" stroke="midnightblue" d="M233.04,-56.32C223.87,-48.34 210.06,-36.31 198.97,-26.65"/>
<polygon fill="midnightblue" stroke="midnightblue" points="200.98,-23.76 191.14,-19.83 196.38,-29.04 200.98,-23.76"/>
</g>
<!-- Node19&#45;&gt;Node2 -->
<g id="edge38" class="edge">
<title>Node19&#45;&gt;Node2</title>
<path fill="none" stroke="midnightblue" d="M1289.89,-112.44C1268.74,-97.99 1223.19,-69.06 1180,-56 1104.96,-33.3 875.79,-18.96 772.92,-13.5"/>
<polygon fill="midnightblue" stroke="midnightblue" points="772.95,-10 762.78,-12.97 772.59,-16.99 772.95,-10"/>
</g>
<!-- Node19&#45;&gt;Node3 -->
<g id="edge39" class="edge">
<title>Node19&#45;&gt;Node3</title>
<path fill="none" stroke="midnightblue" d="M1290.98,-112.31C1280.86,-103.89 1265.96,-90.3 1256,-76 1245.86,-61.43 1237.97,-42.76 1233,-29.16"/>
<polygon fill="midnightblue" stroke="midnightblue" points="1236.24,-27.82 1229.65,-19.53 1229.63,-30.12 1236.24,-27.82"/>
</g>
<!-- Node19&#45;&gt;Node8 -->
<g id="edge44" class="edge">
<title>Node19&#45;&gt;Node8</title>
<path fill="none" stroke="midnightblue" d="M1263.34,-114.81C1195.33,-103.91 1055.71,-81.54 994.67,-71.75"/>
<polygon fill="midnightblue" stroke="midnightblue" points="994.98,-68.26 984.56,-70.13 993.88,-75.17 994.98,-68.26"/>
</g>
<!-- Node19&#45;&gt;Node20 -->
<g id="edge40" class="edge">
<title>Node19&#45;&gt;Node20</title>
<path fill="none" stroke="midnightblue" d="M1303.98,-112.08C1305.57,-104.93 1307.86,-94.64 1309.85,-85.69"/>
<polygon fill="midnightblue" stroke="midnightblue" points="1313.3,-86.27 1312.06,-75.75 1306.47,-84.75 1313.3,-86.27"/>
</g>
<!-- Node20&#45;&gt;Node2 -->
<g id="edge41" class="edge">
<title>Node20&#45;&gt;Node2</title>
<path fill="none" stroke="midnightblue" d="M1264.8,-60.51C1153.81,-50.39 884.93,-25.86 772.62,-15.62"/>
<polygon fill="midnightblue" stroke="midnightblue" points="772.84,-12.12 762.56,-14.7 772.2,-19.09 772.84,-12.12"/>
</g>
<!-- Node20&#45;&gt;Node3 -->
<g id="edge42" class="edge">
<title>Node20&#45;&gt;Node3</title>
<path fill="none" stroke="midnightblue" d="M1300.02,-56.32C1286.45,-47.9 1265.62,-34.97 1249.68,-25.07"/>
<polygon fill="midnightblue" stroke="midnightblue" points="1251.29,-21.95 1240.94,-19.65 1247.59,-27.9 1251.29,-21.95"/>
</g>
<!-- Node21 -->
<g id="node21" class="node">
<title>Node21</title>
<g id="a_node21"><a xlink:title=" ">
<polygon fill="none" stroke="#bfbfbf" points="1300,-0.5 1300,-19.5 1346,-19.5 1346,-0.5 1300,-0.5"/>
<text text-anchor="middle" x="1323" y="-7.5" font-family="Helvetica,sans-Serif" font-size="10.00">errno.h</text>
</a>
</g>
</g>
<!-- Node20&#45;&gt;Node21 -->
<g id="edge43" class="edge">
<title>Node20&#45;&gt;Node21</title>
<path fill="none" stroke="midnightblue" d="M1315.49,-56.08C1316.68,-48.93 1318.39,-38.64 1319.88,-29.69"/>
<polygon fill="midnightblue" stroke="midnightblue" points="1323.35,-30.19 1321.54,-19.75 1316.45,-29.04 1323.35,-30.19"/>
</g>
<!-- Node22&#45;&gt;Node2 -->
<g id="edge47" class="edge">
<title>Node22&#45;&gt;Node2</title>
<path fill="none" stroke="midnightblue" d="M824.78,-114.11C762.09,-102.42 641.95,-79.61 639,-76 621.01,-54.02 655.34,-34.8 685.16,-23.07"/>
<polygon fill="midnightblue" stroke="midnightblue" points="686.48,-26.32 694.62,-19.53 684.02,-19.76 686.48,-26.32"/>
</g>
<!-- Node22&#45;&gt;Node3 -->
<g id="edge48" class="edge">
<title>Node22&#45;&gt;Node3</title>
<path fill="none" stroke="midnightblue" d="M846.13,-112.37C824.8,-99.71 791.49,-75.5 809,-56 832.11,-30.26 1050.23,-17.97 1161.86,-13.32"/>
<polygon fill="midnightblue" stroke="midnightblue" points="1162.14,-16.81 1171.99,-12.91 1161.86,-9.82 1162.14,-16.81"/>
</g>
<!-- Node22&#45;&gt;Node4 -->
<g id="edge49" class="edge">
<title>Node22&#45;&gt;Node4</title>
<path fill="none" stroke="midnightblue" d="M824.95,-114.46C820.26,-113.63 815.52,-112.79 811,-112 719.9,-95.96 696.55,-94.94 606,-76 604.73,-75.73 603.43,-75.45 602.12,-75.17"/>
<polygon fill="midnightblue" stroke="midnightblue" points="602.57,-71.68 592.04,-72.85 601,-78.5 602.57,-71.68"/>
</g>
<!-- Node22&#45;&gt;Node7 -->
<g id="edge50" class="edge">
<title>Node22&#45;&gt;Node7</title>
<path fill="none" stroke="midnightblue" d="M899.12,-113.37C902.45,-112.85 905.78,-112.38 909,-112 1268.49,-69.93 1368.69,-139.19 1728.97,-75.66"/>
<polygon fill="midnightblue" stroke="midnightblue" points="1729.66,-79.09 1738.89,-73.89 1728.43,-72.2 1729.66,-79.09"/>
</g>
<!-- Node23 -->
<g id="node23" class="node">
<title>Node23</title>
<g id="a_node23"><a xlink:title=" ">
<polygon fill="none" stroke="#bfbfbf" points="648,-56.5 648,-75.5 694,-75.5 694,-56.5 648,-56.5"/>
<text text-anchor="middle" x="671" y="-63.5" font-family="Helvetica,sans-Serif" font-size="10.00">cstdint</text>
</a>
</g>
</g>
<!-- Node22&#45;&gt;Node23 -->
<g id="edge51" class="edge">
<title>Node22&#45;&gt;Node23</title>
<path fill="none" stroke="midnightblue" d="M831.74,-112.44C796.98,-102.62 740.15,-86.55 704.21,-76.39"/>
<polygon fill="midnightblue" stroke="midnightblue" points="704.79,-72.92 694.21,-73.56 702.88,-79.65 704.79,-72.92"/>
</g>
<!-- Node28&#45;&gt;Node2 -->
<g id="edge65" class="edge">
<title>Node28&#45;&gt;Node2</title>
<path fill="none" stroke="midnightblue" d="M1492.6,-112.33C1469.22,-97.7 1418.97,-68.51 1372,-56 1259.19,-25.95 905.73,-15.1 773.02,-12.03"/>
<polygon fill="midnightblue" stroke="midnightblue" points="772.81,-8.52 762.74,-11.8 772.65,-15.52 772.81,-8.52"/>
</g>
<!-- Node28&#45;&gt;Node3 -->
<g id="edge66" class="edge">
<title>Node28&#45;&gt;Node3</title>
<path fill="none" stroke="midnightblue" d="M1538.76,-114C1572.84,-105.97 1622.77,-91.86 1634,-76 1639.14,-68.75 1639.95,-62.61 1634,-56 1584.62,-1.16 1382.85,-27.21 1292.12,-19.88"/>
<polygon fill="midnightblue" stroke="midnightblue" points="1292.44,-16.4 1282.14,-18.88 1291.74,-23.36 1292.44,-16.4"/>
</g>
<!-- Node28&#45;&gt;Node4 -->
<g id="edge67" class="edge">
<title>Node28&#45;&gt;Node4</title>
<path fill="none" stroke="midnightblue" d="M1473.44,-119.05C1441.88,-117.18 1392.66,-114.31 1350,-112 1034.06,-94.89 954.15,-104.2 639,-76 627.04,-74.93 613.98,-73.36 602.41,-71.83"/>
<polygon fill="midnightblue" stroke="midnightblue" points="602.66,-68.33 592.28,-70.45 601.72,-75.27 602.66,-68.33"/>
</g>
<!-- Node28&#45;&gt;Node5 -->
<g id="edge68" class="edge">
<title>Node28&#45;&gt;Node5</title>
<path fill="none" stroke="midnightblue" d="M1536.9,-112.44C1573.65,-102.27 1634.59,-85.39 1670.96,-75.32"/>
<polygon fill="midnightblue" stroke="midnightblue" points="1672.26,-78.59 1680.96,-72.55 1670.39,-71.84 1672.26,-78.59"/>
</g>
<!-- Node29 -->
<g id="node29" class="node">
<title>Node29</title>
<g id="a_node29"><a xlink:title=" ">
<polygon fill="none" stroke="#bfbfbf" points="1495,-56.5 1495,-75.5 1557,-75.5 1557,-56.5 1495,-56.5"/>
<text text-anchor="middle" x="1526" y="-63.5" font-family="Helvetica,sans-Serif" font-size="10.00">type_traits</text>
</a>
</g>
</g>
<!-- Node28&#45;&gt;Node29 -->
<g id="edge69" class="edge">
<title>Node28&#45;&gt;Node29</title>
<path fill="none" stroke="midnightblue" d="M1509.3,-112.08C1511.98,-104.85 1515.85,-94.41 1519.19,-85.4"/>
<polygon fill="midnightblue" stroke="midnightblue" points="1522.57,-86.34 1522.76,-75.75 1516,-83.91 1522.57,-86.34"/>
</g>
<!-- Node30 -->
<g id="node30" class="node">
<title>Node30</title>
<g id="a_node30"><a xlink:title=" ">
<polygon fill="none" stroke="#bfbfbf" points="1575.5,-56.5 1575.5,-75.5 1624.5,-75.5 1624.5,-56.5 1575.5,-56.5"/>
<text text-anchor="middle" x="1600" y="-63.5" font-family="Helvetica,sans-Serif" font-size="10.00">cstddef</text>
</a>
</g>
</g>
<!-- Node28&#45;&gt;Node30 -->
<g id="edge70" class="edge">
<title>Node28&#45;&gt;Node30</title>
<path fill="none" stroke="midnightblue" d="M1521.1,-112.32C1535.9,-103.82 1558.69,-90.73 1575.98,-80.8"/>
<polygon fill="midnightblue" stroke="midnightblue" points="1578.01,-83.67 1584.93,-75.65 1574.52,-77.6 1578.01,-83.67"/>
</g>
<!-- Node31&#45;&gt;Node2 -->
<g id="edge72" class="edge">
<title>Node31&#45;&gt;Node2</title>
<path fill="none" stroke="midnightblue" d="M1540.75,-280.42C1461.4,-254.1 1217.74,-170.57 1027,-76 1011.63,-68.38 1010.08,-61.95 994,-56 920.05,-28.63 828.63,-17.85 772.85,-13.65"/>
<polygon fill="midnightblue" stroke="midnightblue" points="773.09,-10.15 762.87,-12.93 772.59,-17.14 773.09,-10.15"/>
</g>
<!-- Node31&#45;&gt;Node3 -->
<g id="edge73" class="edge">
<title>Node31&#45;&gt;Node3</title>
<path fill="none" stroke="midnightblue" d="M1586.88,-280.36C1654.63,-249.81 1867.85,-144.02 1786,-56 1750.06,-17.35 1379.76,-25.06 1292.16,-19.79"/>
<polygon fill="midnightblue" stroke="midnightblue" points="1292.37,-16.29 1282.13,-18.99 1291.82,-23.27 1292.37,-16.29"/>
</g>
<!-- Node31&#45;&gt;Node4 -->
<g id="edge74" class="edge">
<title>Node31&#45;&gt;Node4</title>
<path fill="none" stroke="midnightblue" d="M1518.36,-286.11C1445.03,-281.12 1302.08,-268.94 1183,-244 1016.08,-209.05 976.67,-189.17 816,-132 793.84,-124.11 789.43,-119.07 767,-112 710.06,-94.04 641.8,-80.15 602.12,-72.8"/>
<polygon fill="midnightblue" stroke="midnightblue" points="602.66,-69.34 592.19,-70.99 601.4,-76.23 602.66,-69.34"/>
</g>
<!-- Node31&#45;&gt;Node5 -->
<g id="edge75" class="edge">
<title>Node31&#45;&gt;Node5</title>
<path fill="none" stroke="midnightblue" d="M1567.99,-280.28C1571.53,-252.73 1585.69,-166.16 1629,-112 1640.25,-97.93 1657.17,-87.04 1671.78,-79.49"/>
<polygon fill="midnightblue" stroke="midnightblue" points="1673.51,-82.55 1680.97,-75.02 1670.45,-76.25 1673.51,-82.55"/>
</g>
<!-- Node31&#45;&gt;Node6 -->
<g id="edge76" class="edge">
<title>Node31&#45;&gt;Node6</title>
<path fill="none" stroke="midnightblue" d="M1615.73,-286.14C1687.05,-281.17 1815.57,-268.98 1854,-244 1871.02,-232.94 1882.59,-212.28 1889.2,-197.22"/>
<polygon fill="midnightblue" stroke="midnightblue" points="1892.48,-198.45 1893,-187.87 1885.99,-195.82 1892.48,-198.45"/>
</g>
<!-- Node31&#45;&gt;Node7 -->
<g id="edge77" class="edge">
<title>Node31&#45;&gt;Node7</title>
<path fill="none" stroke="midnightblue" d="M1571.54,-280.28C1589.18,-246.47 1652.9,-125.34 1667,-112 1676.69,-102.83 1706.74,-88.77 1729.68,-78.81"/>
<polygon fill="midnightblue" stroke="midnightblue" points="1731.18,-81.97 1739,-74.82 1728.43,-75.54 1731.18,-81.97"/>
</g>
<!-- Node31&#45;&gt;Node11 -->
<g id="edge78" class="edge">
<title>Node31&#45;&gt;Node11</title>
<path fill="none" stroke="midnightblue" d="M1518.24,-284.98C1434.17,-277.89 1256.56,-262.16 1107,-244 1101.8,-243.37 1096.37,-242.66 1090.97,-241.92"/>
<polygon fill="midnightblue" stroke="midnightblue" points="1091.09,-238.4 1080.7,-240.47 1090.11,-245.33 1091.09,-238.4"/>
</g>
<!-- Node31&#45;&gt;Node28 -->
<g id="edge79" class="edge">
<title>Node31&#45;&gt;Node28</title>
<path fill="none" stroke="midnightblue" d="M1563.72,-280.08C1554.08,-253.83 1525.68,-176.55 1512.66,-141.12"/>
<polygon fill="midnightblue" stroke="midnightblue" points="1515.88,-139.75 1509.15,-131.57 1509.31,-142.16 1515.88,-139.75"/>
</g>
<!-- Node31&#45;&gt;Node32 -->
<g id="edge80" class="edge">
<title>Node31&#45;&gt;Node32</title>
<path fill="none" stroke="midnightblue" d="M1603.29,-280.44C1642.98,-271.08 1706.71,-256.06 1749.91,-245.87"/>
<polygon fill="midnightblue" stroke="midnightblue" points="1750.95,-249.22 1759.88,-243.52 1749.35,-242.41 1750.95,-249.22"/>
</g>
<!-- Node32&#45;&gt;Node2 -->
<g id="edge81" class="edge">
<title>Node32&#45;&gt;Node2</title>
<path fill="none" stroke="midnightblue" d="M1746.91,-227.87C1650.74,-216.94 1431.54,-187.7 1255,-132 1234.51,-125.54 1231.26,-119.13 1211,-112 1149.99,-90.53 1130.92,-97.73 1070,-76 1050.15,-68.92 1047.19,-62.05 1027,-56 939.99,-29.95 834.33,-18.66 772.97,-14.01"/>
<polygon fill="midnightblue" stroke="midnightblue" points="773,-10.51 762.77,-13.27 772.49,-17.49 773,-10.51"/>
</g>
<!-- Node32&#45;&gt;Node3 -->
<g id="edge82" class="edge">
<title>Node32&#45;&gt;Node3</title>
<path fill="none" stroke="midnightblue" d="M1801.31,-224.18C1817.78,-195.59 1864.27,-104.46 1819,-56 1780.51,-14.79 1384.05,-25.12 1292.19,-19.78"/>
<polygon fill="midnightblue" stroke="midnightblue" points="1292.37,-16.29 1282.13,-19.01 1291.83,-23.27 1292.37,-16.29"/>
</g>
<!-- Node32&#45;&gt;Node5 -->
<g id="edge83" class="edge">
<title>Node32&#45;&gt;Node5</title>
<path fill="none" stroke="midnightblue" d="M1791.97,-224.27C1782.51,-204.04 1757.85,-152.61 1733,-112 1727.12,-102.39 1719.9,-92.12 1713.8,-83.83"/>
<polygon fill="midnightblue" stroke="midnightblue" points="1716.54,-81.64 1707.75,-75.72 1710.93,-85.83 1716.54,-81.64"/>
</g>
<!-- Node32&#45;&gt;Node6 -->
<g id="edge84" class="edge">
<title>Node32&#45;&gt;Node6</title>
<path fill="none" stroke="midnightblue" d="M1812.07,-224.32C1827.96,-215.74 1852.51,-202.49 1870.96,-192.52"/>
<polygon fill="midnightblue" stroke="midnightblue" points="1872.84,-195.49 1879.97,-187.65 1869.51,-189.33 1872.84,-195.49"/>
</g>
</g>
</svg>
