<?xml version="1.0" encoding="UTF-8" standalone="no"?>
<!DOCTYPE svg PUBLIC "-//W3C//DTD SVG 1.1//EN"
 "http://www.w3.org/Graphics/SVG/1.1/DTD/svg11.dtd">
<!-- Generated by graphviz version 2.44.0 ()
 -->
<!-- Title: include/zpp/poll_event.hpp Pages: 1 -->
<svg width="1883pt" height="308pt"
 viewBox="0.00 0.00 1883.15 308.00" xmlns="http://www.w3.org/2000/svg" xmlns:xlink="http://www.w3.org/1999/xlink">
<g id="graph0" class="graph" transform="scale(1 1) rotate(0) translate(4 304)">
<title>include/zpp/poll_event.hpp</title>
<!-- Node1 -->
<g id="node1" class="node">
<title>Node1</title>
<g id="a_node1"><a xlink:title=" ">
<polygon fill="#bfbfbf" stroke="black" points="1378.5,-280.5 1378.5,-299.5 1509.5,-299.5 1509.5,-280.5 1378.5,-280.5"/>
<text text-anchor="middle" x="1444" y="-287.5" font-family="Helvetica,sans-Serif" font-size="10.00">include/zpp/poll_event.hpp</text>
</a>
</g>
</g>
<!-- Node2 -->
<g id="node2" class="node">
<title>Node2</title>
<g id="a_node2"><a xlink:title=" ">
<polygon fill="none" stroke="#bfbfbf" points="978.5,-0.5 978.5,-19.5 1059.5,-19.5 1059.5,-0.5 978.5,-0.5"/>
<text text-anchor="middle" x="1019" y="-7.5" font-family="Helvetica,sans-Serif" font-size="10.00">zephyr/kernel.h</text>
</a>
</g>
</g>
<!-- Node1&#45;&gt;Node2 -->
<g id="edge1" class="edge">
<title>Node1&#45;&gt;Node2</title>
<path fill="none" stroke="midnightblue" d="M1509.78,-285.77C1630.23,-278.06 1874,-253.26 1874,-179 1874,-179 1874,-179 1874,-121 1874,-90.9 1878.59,-74.69 1855,-56 1824.13,-31.54 1245.94,-16.23 1069.62,-12.12"/>
<polygon fill="midnightblue" stroke="midnightblue" points="1069.64,-8.62 1059.56,-11.89 1069.48,-15.62 1069.64,-8.62"/>
</g>
<!-- Node3 -->
<g id="node3" class="node">
<title>Node3</title>
<g id="a_node3"><a xlink:title=" ">
<polygon fill="none" stroke="#bfbfbf" points="583,-0.5 583,-19.5 693,-19.5 693,-0.5 583,-0.5"/>
<text text-anchor="middle" x="638" y="-7.5" font-family="Helvetica,sans-Serif" font-size="10.00">zephyr/sys/__assert.h</text>
</a>
</g>
</g>
<!-- Node1&#45;&gt;Node3 -->
<g id="edge2" class="edge">
<title>Node1&#45;&gt;Node3</title>
<path fill="none" stroke="midnightblue" d="M1378.2,-287.48C1095.71,-280.54 0,-249.08 0,-179 0,-179 0,-179 0,-121 0,-75.19 37.41,-72.89 80,-56 179.52,-16.54 449.25,-30.82 572.8,-19.97"/>
<polygon fill="midnightblue" stroke="midnightblue" points="573.26,-23.44 582.87,-18.99 572.58,-16.47 573.26,-23.44"/>
</g>
<!-- Node4 -->
<g id="node4" class="node">
<title>Node4</title>
<g id="a_node4"><a xlink:title=" ">
<polygon fill="none" stroke="#bfbfbf" points="1106,-56.5 1106,-75.5 1152,-75.5 1152,-56.5 1106,-56.5"/>
<text text-anchor="middle" x="1129" y="-63.5" font-family="Helvetica,sans-Serif" font-size="10.00">chrono</text>
</a>
</g>
</g>
<!-- Node1&#45;&gt;Node4 -->
<g id="edge3" class="edge">
<title>Node1&#45;&gt;Node4</title>
<path fill="none" stroke="midnightblue" d="M1431.65,-280.3C1383.72,-246.52 1209.7,-123.87 1149.59,-81.51"/>
<polygon fill="midnightblue" stroke="midnightblue" points="1151.45,-78.54 1141.26,-75.64 1147.42,-84.26 1151.45,-78.54"/>
</g>
<!-- Node5 -->
<g id="node5" class="node">
<title>Node5</title>
<g id="a_node5"><a xlink:title=" ">
<polygon fill="none" stroke="#bfbfbf" points="1582,-56.5 1582,-75.5 1622,-75.5 1622,-56.5 1582,-56.5"/>
<text text-anchor="middle" x="1602" y="-63.5" font-family="Helvetica,sans-Serif" font-size="10.00">limits</text>
</a>
</g>
</g>
<!-- Node1&#45;&gt;Node5 -->
<g id="edge4" class="edge">
<title>Node1&#45;&gt;Node5</title>
<path fill="none" stroke="midnightblue" d="M1457.64,-280.45C1489.41,-259.65 1567.98,-202.88 1599,-132 1605.37,-117.45 1605.65,-99.27 1604.6,-85.84"/>
<polygon fill="midnightblue" stroke="midnightblue" points="1608.08,-85.42 1603.52,-75.86 1601.12,-86.18 1608.08,-85.42"/>
</g>
<!-- Node6 -->
<g id="node6" class="node">
<title>Node6</title>
<g id="a_node6"><a xlink:title=" ">
<polygon fill="none" stroke="#bfbfbf" points="1438,-56.5 1438,-75.5 1488,-75.5 1488,-56.5 1438,-56.5"/>
<text text-anchor="middle" x="1463" y="-63.5" font-family="Helvetica,sans-Serif" font-size="10.00">optional</text>
</a>
</g>
</g>
<!-- Node1&#45;&gt;Node6 -->
<g id="edge5" class="edge">
<title>Node1&#45;&gt;Node6</title>
<path fill="none" stroke="midnightblue" d="M1444.74,-280.3C1447.54,-247.63 1457.45,-131.87 1461.38,-85.96"/>
<polygon fill="midnightblue" stroke="midnightblue" points="1464.87,-86.15 1462.24,-75.88 1457.9,-85.55 1464.87,-86.15"/>
</g>
<!-- Node7 -->
<g id="node7" class="node">
<title>Node7</title>
<g id="a_node7"><a xlink:title=" ">
<polygon fill="none" stroke="#bfbfbf" points="104,-56.5 104,-75.5 142,-75.5 142,-56.5 104,-56.5"/>
<text text-anchor="middle" x="123" y="-63.5" font-family="Helvetica,sans-Serif" font-size="10.00">array</text>
</a>
</g>
</g>
<!-- Node1&#45;&gt;Node7 -->
<g id="edge6" class="edge">
<title>Node1&#45;&gt;Node7</title>
<path fill="none" stroke="midnightblue" d="M1378.23,-289.64C1192.71,-289.53 651.49,-275.96 233,-132 198.68,-120.19 163.29,-96.93 142.22,-81.67"/>
<polygon fill="midnightblue" stroke="midnightblue" points="144.24,-78.81 134.12,-75.68 140.08,-84.44 144.24,-78.81"/>
</g>
<!-- Node8 -->
<g id="node8" class="node">
<title>Node8</title>
<g id="a_node8"><a xlink:href="sem_8hpp.html" target="_top" xlink:title=" ">
<polygon fill="none" stroke="black" points="1201.5,-224.5 1201.5,-243.5 1272.5,-243.5 1272.5,-224.5 1201.5,-224.5"/>
<text text-anchor="middle" x="1237" y="-231.5" font-family="Helvetica,sans-Serif" font-size="10.00">zpp/sem.hpp</text>
</a>
</g>
</g>
<!-- Node1&#45;&gt;Node8 -->
<g id="edge7" class="edge">
<title>Node1&#45;&gt;Node8</title>
<path fill="none" stroke="midnightblue" d="M1411.2,-280.44C1375.62,-271.16 1318.69,-256.31 1279.65,-246.13"/>
<polygon fill="midnightblue" stroke="midnightblue" points="1280.21,-242.65 1269.65,-243.52 1278.44,-249.43 1280.21,-242.65"/>
</g>
<!-- Node28 -->
<g id="node28" class="node">
<title>Node28</title>
<g id="a_node28"><a xlink:href="fifo_8hpp.html" target="_top" xlink:title=" ">
<polygon fill="none" stroke="black" points="1664.5,-112.5 1664.5,-131.5 1729.5,-131.5 1729.5,-112.5 1664.5,-112.5"/>
<text text-anchor="middle" x="1697" y="-119.5" font-family="Helvetica,sans-Serif" font-size="10.00">zpp/fifo.hpp</text>
</a>
</g>
</g>
<!-- Node1&#45;&gt;Node28 -->
<g id="edge62" class="edge">
<title>Node1&#45;&gt;Node28</title>
<path fill="none" stroke="midnightblue" d="M1509.72,-281.46C1561.77,-274.27 1629.1,-261.88 1650,-244 1680.87,-217.59 1691.57,-168.39 1695.2,-141.58"/>
<polygon fill="midnightblue" stroke="midnightblue" points="1698.68,-141.93 1696.36,-131.59 1691.73,-141.12 1698.68,-141.93"/>
</g>
<!-- Node31 -->
<g id="node31" class="node">
<title>Node31</title>
<g id="a_node31"><a xlink:href="poll__signal_8hpp.html" target="_top" xlink:title=" ">
<polygon fill="none" stroke="black" points="1472,-112.5 1472,-131.5 1570,-131.5 1570,-112.5 1472,-112.5"/>
<text text-anchor="middle" x="1521" y="-119.5" font-family="Helvetica,sans-Serif" font-size="10.00">zpp/poll_signal.hpp</text>
</a>
</g>
</g>
<!-- Node1&#45;&gt;Node31 -->
<g id="edge69" class="edge">
<title>Node1&#45;&gt;Node31</title>
<path fill="none" stroke="midnightblue" d="M1448.14,-280.08C1460.37,-253.72 1496.47,-175.88 1512.81,-140.66"/>
<polygon fill="midnightblue" stroke="midnightblue" points="1515.99,-142.11 1517.03,-131.57 1509.64,-139.17 1515.99,-142.11"/>
</g>
<!-- Node8&#45;&gt;Node2 -->
<g id="edge58" class="edge">
<title>Node8&#45;&gt;Node2</title>
<path fill="none" stroke="midnightblue" d="M1256.93,-224.46C1287.08,-210.3 1343.21,-178.8 1366,-132 1375.91,-111.66 1362.13,-64.31 1353,-56 1312.54,-19.18 1152.97,-12.14 1069.89,-11.02"/>
<polygon fill="midnightblue" stroke="midnightblue" points="1069.71,-7.52 1059.67,-10.91 1069.63,-14.52 1069.71,-7.52"/>
</g>
<!-- Node8&#45;&gt;Node3 -->
<g id="edge59" class="edge">
<title>Node8&#45;&gt;Node3</title>
<path fill="none" stroke="midnightblue" d="M1201.3,-229.94C1117.91,-222.78 903.84,-204.29 725,-188 438.3,-161.89 181.1,-348.08 87,-76 84.09,-67.6 80.95,-62.51 87,-56 122.3,-17.99 485.93,-25.04 572.72,-19.79"/>
<polygon fill="midnightblue" stroke="midnightblue" points="573.18,-23.27 582.87,-18.99 572.62,-16.29 573.18,-23.27"/>
</g>
<!-- Node8&#45;&gt;Node4 -->
<g id="edge60" class="edge">
<title>Node8&#45;&gt;Node4</title>
<path fill="none" stroke="midnightblue" d="M1231.19,-224.08C1213.97,-197.61 1162.97,-119.21 1140.2,-84.21"/>
<polygon fill="midnightblue" stroke="midnightblue" points="1142.96,-82.04 1134.57,-75.57 1137.09,-85.86 1142.96,-82.04"/>
</g>
<!-- Node8&#45;&gt;Node5 -->
<g id="edge61" class="edge">
<title>Node8&#45;&gt;Node5</title>
<path fill="none" stroke="midnightblue" d="M1272.66,-232.62C1341.17,-229.96 1492.08,-214.44 1579,-132 1591.73,-119.92 1597.43,-100.36 1599.97,-85.84"/>
<polygon fill="midnightblue" stroke="midnightblue" points="1603.43,-86.33 1601.36,-75.94 1596.5,-85.35 1603.43,-86.33"/>
</g>
<!-- Node9 -->
<g id="node9" class="node">
<title>Node9</title>
<g id="a_node9"><a xlink:href="thread_8hpp.html" target="_top" xlink:title=" ">
<polygon fill="none" stroke="black" points="734,-168.5 734,-187.5 814,-187.5 814,-168.5 734,-168.5"/>
<text text-anchor="middle" x="774" y="-175.5" font-family="Helvetica,sans-Serif" font-size="10.00">zpp/thread.hpp</text>
</a>
</g>
</g>
<!-- Node8&#45;&gt;Node9 -->
<g id="edge8" class="edge">
<title>Node8&#45;&gt;Node9</title>
<path fill="none" stroke="midnightblue" d="M1201.44,-228.85C1119.8,-219.33 918.74,-195.88 824.4,-184.88"/>
<polygon fill="midnightblue" stroke="midnightblue" points="824.59,-181.38 814.25,-183.69 823.78,-188.33 824.59,-181.38"/>
</g>
<!-- Node9&#45;&gt;Node2 -->
<g id="edge50" class="edge">
<title>Node9&#45;&gt;Node2</title>
<path fill="none" stroke="midnightblue" d="M814.15,-176.93C938.78,-176.3 1312.8,-171.15 1349,-132 1365.32,-114.35 1354.51,-75.33 1332,-56 1293.58,-23.02 1148.01,-14.2 1069.66,-11.85"/>
<polygon fill="midnightblue" stroke="midnightblue" points="1069.62,-8.35 1059.53,-11.57 1069.43,-15.35 1069.62,-8.35"/>
</g>
<!-- Node9&#45;&gt;Node3 -->
<g id="edge51" class="edge">
<title>Node9&#45;&gt;Node3</title>
<path fill="none" stroke="midnightblue" d="M733.98,-177.76C643.42,-178.61 416.35,-175.75 233,-132 168.62,-116.64 131.97,-130.9 95,-76 90.04,-68.63 88.95,-62.52 95,-56 129.7,-18.59 487.37,-25.03 572.86,-19.79"/>
<polygon fill="midnightblue" stroke="midnightblue" points="573.18,-23.27 582.87,-18.98 572.62,-16.29 573.18,-23.27"/>
</g>
<!-- Node9&#45;&gt;Node4 -->
<g id="edge54" class="edge">
<title>Node9&#45;&gt;Node4</title>
<path fill="none" stroke="midnightblue" d="M814.24,-175.02C905.04,-170.16 1119.6,-156.19 1141,-132 1152.37,-119.15 1146.37,-99.14 1139.41,-84.72"/>
<polygon fill="midnightblue" stroke="midnightblue" points="1142.43,-82.95 1134.63,-75.78 1136.26,-86.25 1142.43,-82.95"/>
</g>
<!-- Node10 -->
<g id="node10" class="node">
<title>Node10</title>
<g id="a_node10"><a xlink:href="thread__prio_8hpp.html" target="_top" xlink:title=" ">
<polygon fill="none" stroke="black" points="910.5,-56.5 910.5,-75.5 1011.5,-75.5 1011.5,-56.5 910.5,-56.5"/>
<text text-anchor="middle" x="961" y="-63.5" font-family="Helvetica,sans-Serif" font-size="10.00">zpp/thread_prio.hpp</text>
</a>
</g>
</g>
<!-- Node9&#45;&gt;Node10 -->
<g id="edge9" class="edge">
<title>Node9&#45;&gt;Node10</title>
<path fill="none" stroke="midnightblue" d="M814.06,-174.31C869.16,-169.68 963.91,-158.06 985,-132 996.41,-117.91 986.06,-97.88 975.63,-83.79"/>
<polygon fill="midnightblue" stroke="midnightblue" points="978.29,-81.51 969.31,-75.89 972.82,-85.88 978.29,-81.51"/>
</g>
<!-- Node11 -->
<g id="node11" class="node">
<title>Node11</title>
<g id="a_node11"><a xlink:href="thread__id_8hpp.html" target="_top" xlink:title=" ">
<polygon fill="none" stroke="black" points="762,-56.5 762,-75.5 854,-75.5 854,-56.5 762,-56.5"/>
<text text-anchor="middle" x="808" y="-63.5" font-family="Helvetica,sans-Serif" font-size="10.00">zpp/thread_id.hpp</text>
</a>
</g>
</g>
<!-- Node9&#45;&gt;Node11 -->
<g id="edge12" class="edge">
<title>Node9&#45;&gt;Node11</title>
<path fill="none" stroke="midnightblue" d="M738.26,-168.43C703.2,-158.24 657.63,-139.14 677,-112 686.75,-98.34 724.8,-86.2 757.4,-77.98"/>
<polygon fill="midnightblue" stroke="midnightblue" points="758.42,-81.34 767.31,-75.56 756.76,-74.54 758.42,-81.34"/>
</g>
<!-- Node12 -->
<g id="node12" class="node">
<title>Node12</title>
<g id="a_node12"><a xlink:href="thread__attr_8hpp.html" target="_top" xlink:title=" ">
<polygon fill="none" stroke="black" points="1032.5,-112.5 1032.5,-131.5 1131.5,-131.5 1131.5,-112.5 1032.5,-112.5"/>
<text text-anchor="middle" x="1082" y="-119.5" font-family="Helvetica,sans-Serif" font-size="10.00">zpp/thread_attr.hpp</text>
</a>
</g>
</g>
<!-- Node9&#45;&gt;Node12 -->
<g id="edge15" class="edge">
<title>Node9&#45;&gt;Node12</title>
<path fill="none" stroke="midnightblue" d="M814.27,-169.94C867.63,-160.58 962.17,-144.01 1023.44,-133.27"/>
<polygon fill="midnightblue" stroke="midnightblue" points="1024.1,-136.7 1033.35,-131.53 1022.89,-129.81 1024.1,-136.7"/>
</g>
<!-- Node13 -->
<g id="node13" class="node">
<title>Node13</title>
<g id="a_node13"><a xlink:title=" ">
<polygon fill="none" stroke="#bfbfbf" points="704.5,-56.5 704.5,-75.5 743.5,-75.5 743.5,-56.5 704.5,-56.5"/>
<text text-anchor="middle" x="724" y="-63.5" font-family="Helvetica,sans-Serif" font-size="10.00">utility</text>
</a>
</g>
</g>
<!-- Node9&#45;&gt;Node13 -->
<g id="edge56" class="edge">
<title>Node9&#45;&gt;Node13</title>
<path fill="none" stroke="midnightblue" d="M733.74,-171.04C710.29,-165.28 682.57,-154.01 668,-132 655.4,-112.96 677.97,-93.41 698.11,-80.79"/>
<polygon fill="midnightblue" stroke="midnightblue" points="699.95,-83.77 706.77,-75.67 696.38,-77.75 699.95,-83.77"/>
</g>
<!-- Node14 -->
<g id="node14" class="node">
<title>Node14</title>
<g id="a_node14"><a xlink:href="thread__data_8hpp.html" target="_top" xlink:title=" ">
<polygon fill="none" stroke="black" points="262,-56.5 262,-75.5 366,-75.5 366,-56.5 262,-56.5"/>
<text text-anchor="middle" x="314" y="-63.5" font-family="Helvetica,sans-Serif" font-size="10.00">zpp/thread_data.hpp</text>
</a>
</g>
</g>
<!-- Node9&#45;&gt;Node14 -->
<g id="edge21" class="edge">
<title>Node9&#45;&gt;Node14</title>
<path fill="none" stroke="midnightblue" d="M733.72,-174.34C674.55,-169.7 561.08,-158.03 468,-132 421.09,-118.88 369.5,-95.03 339.52,-80.15"/>
<polygon fill="midnightblue" stroke="midnightblue" points="341.09,-77.02 330.59,-75.66 337.95,-83.28 341.09,-77.02"/>
</g>
<!-- Node16 -->
<g id="node16" class="node">
<title>Node16</title>
<g id="a_node16"><a xlink:href="thread__stack_8hpp.html" target="_top" xlink:title=" ">
<polygon fill="none" stroke="black" points="384.5,-56.5 384.5,-75.5 493.5,-75.5 493.5,-56.5 384.5,-56.5"/>
<text text-anchor="middle" x="439" y="-63.5" font-family="Helvetica,sans-Serif" font-size="10.00">zpp/thread_stack.hpp</text>
</a>
</g>
</g>
<!-- Node9&#45;&gt;Node16 -->
<g id="edge25" class="edge">
<title>Node9&#45;&gt;Node16</title>
<path fill="none" stroke="midnightblue" d="M733.98,-173.8C667.37,-167.93 537.1,-153.99 497,-132 476.57,-120.8 459.73,-99.54 449.55,-84.39"/>
<polygon fill="midnightblue" stroke="midnightblue" points="452.45,-82.42 444.11,-75.89 446.55,-86.2 452.45,-82.42"/>
</g>
<!-- Node17 -->
<g id="node17" class="node">
<title>Node17</title>
<g id="a_node17"><a xlink:href="clock_8hpp.html" target="_top" xlink:title=" ">
<polygon fill="none" stroke="black" points="1264,-112.5 1264,-131.5 1340,-131.5 1340,-112.5 1264,-112.5"/>
<text text-anchor="middle" x="1302" y="-119.5" font-family="Helvetica,sans-Serif" font-size="10.00">zpp/clock.hpp</text>
</a>
</g>
</g>
<!-- Node9&#45;&gt;Node17 -->
<g id="edge29" class="edge">
<title>Node9&#45;&gt;Node17</title>
<path fill="none" stroke="midnightblue" d="M814.12,-172.9C909.63,-163.13 1150.21,-138.52 1253.58,-127.95"/>
<polygon fill="midnightblue" stroke="midnightblue" points="1254.14,-131.41 1263.73,-126.91 1253.42,-124.45 1254.14,-131.41"/>
</g>
<!-- Node19 -->
<g id="node19" class="node">
<title>Node19</title>
<g id="a_node19"><a xlink:href="result_8hpp.html" target="_top" xlink:title=" ">
<polygon fill="none" stroke="black" points="514.5,-112.5 514.5,-131.5 591.5,-131.5 591.5,-112.5 514.5,-112.5"/>
<text text-anchor="middle" x="553" y="-119.5" font-family="Helvetica,sans-Serif" font-size="10.00">zpp/result.hpp</text>
</a>
</g>
</g>
<!-- Node9&#45;&gt;Node19 -->
<g id="edge35" class="edge">
<title>Node9&#45;&gt;Node19</title>
<path fill="none" stroke="midnightblue" d="M738.98,-168.44C700.75,-159.1 639.43,-144.12 597.74,-133.93"/>
<polygon fill="midnightblue" stroke="midnightblue" points="598.4,-130.49 587.85,-131.52 596.74,-137.29 598.4,-130.49"/>
</g>
<!-- Node20 -->
<g id="node20" class="node">
<title>Node20</title>
<g id="a_node20"><a xlink:href="error__code_8hpp.html" target="_top" xlink:title=" ">
<polygon fill="none" stroke="black" points="512,-56.5 512,-75.5 610,-75.5 610,-56.5 512,-56.5"/>
<text text-anchor="middle" x="561" y="-63.5" font-family="Helvetica,sans-Serif" font-size="10.00">zpp/error_code.hpp</text>
</a>
</g>
</g>
<!-- Node9&#45;&gt;Node20 -->
<g id="edge43" class="edge">
<title>Node9&#45;&gt;Node20</title>
<path fill="none" stroke="midnightblue" d="M733.92,-176.34C666.45,-174.3 534.72,-165.95 506,-132 491.05,-114.32 514.98,-93.95 535.81,-80.79"/>
<polygon fill="midnightblue" stroke="midnightblue" points="537.65,-83.77 544.43,-75.62 534.05,-77.76 537.65,-83.77"/>
</g>
<!-- Node22 -->
<g id="node22" class="node">
<title>Node22</title>
<g id="a_node22"><a xlink:href="heap_8hpp.html" target="_top" xlink:title=" ">
<polygon fill="none" stroke="black" points="242,-112.5 242,-131.5 316,-131.5 316,-112.5 242,-112.5"/>
<text text-anchor="middle" x="279" y="-119.5" font-family="Helvetica,sans-Serif" font-size="10.00">zpp/heap.hpp</text>
</a>
</g>
</g>
<!-- Node9&#45;&gt;Node22 -->
<g id="edge44" class="edge">
<title>Node9&#45;&gt;Node22</title>
<path fill="none" stroke="midnightblue" d="M733.93,-173.26C657.85,-166.05 487.25,-149.41 344,-132 338.2,-131.3 332.12,-130.51 326.11,-129.71"/>
<polygon fill="midnightblue" stroke="midnightblue" points="326.48,-126.23 316.1,-128.35 325.53,-133.17 326.48,-126.23"/>
</g>
<!-- Node24 -->
<g id="node24" class="node">
<title>Node24</title>
<g id="a_node24"><a xlink:title=" ">
<polygon fill="none" stroke="#bfbfbf" points="686,-112.5 686,-131.5 772,-131.5 772,-112.5 686,-112.5"/>
<text text-anchor="middle" x="729" y="-119.5" font-family="Helvetica,sans-Serif" font-size="10.00">zephyr/sys/util.h</text>
</a>
</g>
</g>
<!-- Node9&#45;&gt;Node24 -->
<g id="edge52" class="edge">
<title>Node9&#45;&gt;Node24</title>
<path fill="none" stroke="midnightblue" d="M766.57,-168.08C760.15,-160.38 750.69,-149.03 742.88,-139.65"/>
<polygon fill="midnightblue" stroke="midnightblue" points="745.38,-137.19 736.29,-131.75 740.01,-141.67 745.38,-137.19"/>
</g>
<!-- Node25 -->
<g id="node25" class="node">
<title>Node25</title>
<g id="a_node25"><a xlink:title=" ">
<polygon fill="none" stroke="#bfbfbf" points="790.5,-112.5 790.5,-131.5 849.5,-131.5 849.5,-112.5 790.5,-112.5"/>
<text text-anchor="middle" x="820" y="-119.5" font-family="Helvetica,sans-Serif" font-size="10.00">functional</text>
</a>
</g>
</g>
<!-- Node9&#45;&gt;Node25 -->
<g id="edge53" class="edge">
<title>Node9&#45;&gt;Node25</title>
<path fill="none" stroke="midnightblue" d="M781.6,-168.08C788.23,-160.3 798.02,-148.8 806.06,-139.37"/>
<polygon fill="midnightblue" stroke="midnightblue" points="808.73,-141.63 812.55,-131.75 803.4,-137.09 808.73,-141.63"/>
</g>
<!-- Node26 -->
<g id="node26" class="node">
<title>Node26</title>
<g id="a_node26"><a xlink:title=" ">
<polygon fill="none" stroke="#bfbfbf" points="868,-112.5 868,-131.5 906,-131.5 906,-112.5 868,-112.5"/>
<text text-anchor="middle" x="887" y="-119.5" font-family="Helvetica,sans-Serif" font-size="10.00">tuple</text>
</a>
</g>
</g>
<!-- Node9&#45;&gt;Node26 -->
<g id="edge55" class="edge">
<title>Node9&#45;&gt;Node26</title>
<path fill="none" stroke="midnightblue" d="M791.91,-168.44C810.25,-159.68 839.01,-145.94 860.09,-135.86"/>
<polygon fill="midnightblue" stroke="midnightblue" points="861.67,-138.99 869.18,-131.52 858.65,-132.67 861.67,-138.99"/>
</g>
<!-- Node27 -->
<g id="node27" class="node">
<title>Node27</title>
<g id="a_node27"><a xlink:title=" ">
<polygon fill="none" stroke="#bfbfbf" points="924.5,-112.5 924.5,-131.5 975.5,-131.5 975.5,-112.5 924.5,-112.5"/>
<text text-anchor="middle" x="950" y="-119.5" font-family="Helvetica,sans-Serif" font-size="10.00">memory</text>
</a>
</g>
</g>
<!-- Node9&#45;&gt;Node27 -->
<g id="edge57" class="edge">
<title>Node9&#45;&gt;Node27</title>
<path fill="none" stroke="midnightblue" d="M801.89,-168.44C832.37,-159.09 881.28,-144.08 914.48,-133.9"/>
<polygon fill="midnightblue" stroke="midnightblue" points="915.71,-137.18 924.25,-130.9 913.66,-130.49 915.71,-137.18"/>
</g>
<!-- Node10&#45;&gt;Node2 -->
<g id="edge10" class="edge">
<title>Node10&#45;&gt;Node2</title>
<path fill="none" stroke="midnightblue" d="M970.32,-56.32C978.89,-48.34 991.81,-36.31 1002.19,-26.65"/>
<polygon fill="midnightblue" stroke="midnightblue" points="1004.58,-29.21 1009.51,-19.83 999.81,-24.09 1004.58,-29.21"/>
</g>
<!-- Node10&#45;&gt;Node3 -->
<g id="edge11" class="edge">
<title>Node10&#45;&gt;Node3</title>
<path fill="none" stroke="midnightblue" d="M910.18,-56.5C852.96,-46.94 760.03,-31.4 698.95,-21.19"/>
<polygon fill="midnightblue" stroke="midnightblue" points="699.5,-17.73 689.06,-19.54 698.35,-24.64 699.5,-17.73"/>
</g>
<!-- Node11&#45;&gt;Node2 -->
<g id="edge13" class="edge">
<title>Node11&#45;&gt;Node2</title>
<path fill="none" stroke="midnightblue" d="M841.43,-56.44C877.86,-47.12 936.23,-32.18 976.03,-22"/>
<polygon fill="midnightblue" stroke="midnightblue" points="976.9,-25.39 985.72,-19.52 975.17,-18.61 976.9,-25.39"/>
</g>
<!-- Node11&#45;&gt;Node3 -->
<g id="edge14" class="edge">
<title>Node11&#45;&gt;Node3</title>
<path fill="none" stroke="midnightblue" d="M781.06,-56.44C752.34,-47.32 706.67,-32.81 674.68,-22.65"/>
<polygon fill="midnightblue" stroke="midnightblue" points="675.4,-19.21 664.81,-19.52 673.28,-25.88 675.4,-19.21"/>
</g>
<!-- Node12&#45;&gt;Node2 -->
<g id="edge17" class="edge">
<title>Node12&#45;&gt;Node2</title>
<path fill="none" stroke="midnightblue" d="M1079.04,-112.25C1074.53,-99.44 1065.26,-75.04 1054,-56 1048.09,-46.01 1040.25,-35.73 1033.49,-27.52"/>
<polygon fill="midnightblue" stroke="midnightblue" points="1036.1,-25.18 1026.96,-19.82 1030.76,-29.71 1036.1,-25.18"/>
</g>
<!-- Node12&#45;&gt;Node3 -->
<g id="edge18" class="edge">
<title>Node12&#45;&gt;Node3</title>
<path fill="none" stroke="midnightblue" d="M1076.87,-112.45C1067.7,-98.01 1046.98,-69.1 1021,-56 966.85,-28.7 797.56,-17.5 703.19,-13.29"/>
<polygon fill="midnightblue" stroke="midnightblue" points="703.33,-9.79 693.19,-12.86 703.02,-16.79 703.33,-9.79"/>
</g>
<!-- Node12&#45;&gt;Node4 -->
<g id="edge19" class="edge">
<title>Node12&#45;&gt;Node4</title>
<path fill="none" stroke="midnightblue" d="M1089.76,-112.08C1096.54,-104.3 1106.54,-92.8 1114.76,-83.37"/>
<polygon fill="midnightblue" stroke="midnightblue" points="1117.46,-85.59 1121.38,-75.75 1112.18,-81 1117.46,-85.59"/>
</g>
<!-- Node12&#45;&gt;Node10 -->
<g id="edge16" class="edge">
<title>Node12&#45;&gt;Node10</title>
<path fill="none" stroke="midnightblue" d="M1062.83,-112.44C1043.09,-103.64 1012.11,-89.81 989.51,-79.72"/>
<polygon fill="midnightblue" stroke="midnightblue" points="990.64,-76.4 980.08,-75.52 987.79,-82.79 990.64,-76.4"/>
</g>
<!-- Node12&#45;&gt;Node13 -->
<g id="edge20" class="edge">
<title>Node12&#45;&gt;Node13</title>
<path fill="none" stroke="midnightblue" d="M1032.22,-116.77C969.35,-110.86 857.8,-98.48 753.3,-75.71"/>
<polygon fill="midnightblue" stroke="midnightblue" points="754.06,-72.29 743.54,-73.54 752.54,-79.12 754.06,-72.29"/>
</g>
<!-- Node14&#45;&gt;Node2 -->
<g id="edge22" class="edge">
<title>Node14&#45;&gt;Node2</title>
<path fill="none" stroke="midnightblue" d="M366.06,-57.16C369.42,-56.74 372.76,-56.35 376,-56 595.89,-32.38 859.47,-18.41 968.25,-13.27"/>
<polygon fill="midnightblue" stroke="midnightblue" points="968.46,-16.76 978.28,-12.8 968.13,-9.77 968.46,-16.76"/>
</g>
<!-- Node14&#45;&gt;Node3 -->
<g id="edge24" class="edge">
<title>Node14&#45;&gt;Node3</title>
<path fill="none" stroke="midnightblue" d="M365.34,-56.44C422.81,-46.87 515.87,-31.36 577,-21.17"/>
<polygon fill="midnightblue" stroke="midnightblue" points="577.61,-24.61 586.9,-19.52 576.46,-17.71 577.61,-24.61"/>
</g>
<!-- Node15 -->
<g id="node15" class="node">
<title>Node15</title>
<g id="a_node15"><a xlink:title=" ">
<polygon fill="none" stroke="#bfbfbf" points="307,-0.5 307,-19.5 441,-19.5 441,-0.5 307,-0.5"/>
<text text-anchor="middle" x="374" y="-7.5" font-family="Helvetica,sans-Serif" font-size="10.00">zephyr/sys/arch_interface.h</text>
</a>
</g>
</g>
<!-- Node14&#45;&gt;Node15 -->
<g id="edge23" class="edge">
<title>Node14&#45;&gt;Node15</title>
<path fill="none" stroke="midnightblue" d="M323.64,-56.32C332.51,-48.34 345.87,-36.31 356.61,-26.65"/>
<polygon fill="midnightblue" stroke="midnightblue" points="359.09,-29.13 364.18,-19.83 354.41,-23.92 359.09,-29.13"/>
</g>
<!-- Node16&#45;&gt;Node2 -->
<g id="edge26" class="edge">
<title>Node16&#45;&gt;Node2</title>
<path fill="none" stroke="midnightblue" d="M493.79,-57.1C496.9,-56.71 499.99,-56.34 503,-56 673.13,-36.63 875.64,-21.18 968.25,-14.53"/>
<polygon fill="midnightblue" stroke="midnightblue" points="968.73,-18.01 978.45,-13.81 968.23,-11.03 968.73,-18.01"/>
</g>
<!-- Node16&#45;&gt;Node3 -->
<g id="edge28" class="edge">
<title>Node16&#45;&gt;Node3</title>
<path fill="none" stroke="midnightblue" d="M470.53,-56.44C504.59,-47.2 559.01,-32.44 596.52,-22.26"/>
<polygon fill="midnightblue" stroke="midnightblue" points="597.88,-25.51 606.62,-19.52 596.05,-18.76 597.88,-25.51"/>
</g>
<!-- Node16&#45;&gt;Node15 -->
<g id="edge27" class="edge">
<title>Node16&#45;&gt;Node15</title>
<path fill="none" stroke="midnightblue" d="M428.56,-56.32C418.85,-48.26 404.18,-36.08 392.5,-26.37"/>
<polygon fill="midnightblue" stroke="midnightblue" points="394.56,-23.53 384.63,-19.83 390.09,-28.92 394.56,-23.53"/>
</g>
<!-- Node17&#45;&gt;Node2 -->
<g id="edge30" class="edge">
<title>Node17&#45;&gt;Node2</title>
<path fill="none" stroke="midnightblue" d="M1307.78,-112.28C1316.05,-98.61 1328.8,-72.06 1315,-56 1284.02,-19.95 1146.22,-12.44 1070.05,-11.09"/>
<polygon fill="midnightblue" stroke="midnightblue" points="1069.77,-7.59 1059.72,-10.94 1069.67,-14.59 1069.77,-7.59"/>
</g>
<!-- Node17&#45;&gt;Node3 -->
<g id="edge32" class="edge">
<title>Node17&#45;&gt;Node3</title>
<path fill="none" stroke="midnightblue" d="M1281.28,-112.47C1260.34,-103.73 1227.14,-89.53 1199,-76 1181.8,-67.73 1179.31,-61.37 1161,-56 1076.87,-31.34 823.8,-18.33 703.24,-13.39"/>
<polygon fill="midnightblue" stroke="midnightblue" points="703.17,-9.88 693.04,-12.97 702.89,-16.88 703.17,-9.88"/>
</g>
<!-- Node17&#45;&gt;Node4 -->
<g id="edge33" class="edge">
<title>Node17&#45;&gt;Node4</title>
<path fill="none" stroke="midnightblue" d="M1274.59,-112.44C1243.94,-102.88 1194.32,-87.39 1161.68,-77.2"/>
<polygon fill="midnightblue" stroke="midnightblue" points="1162.72,-73.86 1152.13,-74.22 1160.63,-80.54 1162.72,-73.86"/>
</g>
<!-- Node17&#45;&gt;Node5 -->
<g id="edge34" class="edge">
<title>Node17&#45;&gt;Node5</title>
<path fill="none" stroke="midnightblue" d="M1340.3,-114.11C1400.72,-103.23 1516.92,-82.31 1571.84,-72.43"/>
<polygon fill="midnightblue" stroke="midnightblue" points="1572.75,-75.82 1581.97,-70.61 1571.51,-68.93 1572.75,-75.82"/>
</g>
<!-- Node18 -->
<g id="node18" class="node">
<title>Node18</title>
<g id="a_node18"><a xlink:title=" ">
<polygon fill="none" stroke="#bfbfbf" points="1208,-56.5 1208,-75.5 1306,-75.5 1306,-56.5 1208,-56.5"/>
<text text-anchor="middle" x="1257" y="-63.5" font-family="Helvetica,sans-Serif" font-size="10.00">zephyr/sys_clock.h</text>
</a>
</g>
</g>
<!-- Node17&#45;&gt;Node18 -->
<g id="edge31" class="edge">
<title>Node17&#45;&gt;Node18</title>
<path fill="none" stroke="midnightblue" d="M1294.57,-112.08C1288.15,-104.38 1278.69,-93.03 1270.88,-83.65"/>
<polygon fill="midnightblue" stroke="midnightblue" points="1273.38,-81.19 1264.29,-75.75 1268.01,-85.67 1273.38,-81.19"/>
</g>
<!-- Node19&#45;&gt;Node2 -->
<g id="edge36" class="edge">
<title>Node19&#45;&gt;Node2</title>
<path fill="none" stroke="midnightblue" d="M591.55,-117.01C662.98,-109.34 813.14,-91.92 863,-76 881.56,-70.08 884.22,-63.95 902,-56 929.47,-43.72 961.39,-31.58 984.94,-23.01"/>
<polygon fill="midnightblue" stroke="midnightblue" points="986.27,-26.25 994.49,-19.56 983.9,-19.67 986.27,-26.25"/>
</g>
<!-- Node19&#45;&gt;Node3 -->
<g id="edge37" class="edge">
<title>Node19&#45;&gt;Node3</title>
<path fill="none" stroke="midnightblue" d="M572.19,-112.44C587.03,-104.88 607.02,-92.49 619,-76 628.83,-62.48 633.6,-43.92 635.9,-30.1"/>
<polygon fill="midnightblue" stroke="midnightblue" points="639.42,-30.2 637.31,-19.81 632.48,-29.25 639.42,-30.2"/>
</g>
<!-- Node19&#45;&gt;Node13 -->
<g id="edge42" class="edge">
<title>Node19&#45;&gt;Node13</title>
<path fill="none" stroke="midnightblue" d="M580.1,-112.44C611.37,-102.57 662.61,-86.39 694.76,-76.23"/>
<polygon fill="midnightblue" stroke="midnightblue" points="696,-79.51 704.48,-73.16 693.89,-72.84 696,-79.51"/>
</g>
<!-- Node19&#45;&gt;Node20 -->
<g id="edge38" class="edge">
<title>Node19&#45;&gt;Node20</title>
<path fill="none" stroke="midnightblue" d="M554.32,-112.08C555.38,-104.93 556.91,-94.64 558.23,-85.69"/>
<polygon fill="midnightblue" stroke="midnightblue" points="561.7,-86.16 559.7,-75.75 554.78,-85.13 561.7,-86.16"/>
</g>
<!-- Node20&#45;&gt;Node2 -->
<g id="edge39" class="edge">
<title>Node20&#45;&gt;Node2</title>
<path fill="none" stroke="midnightblue" d="M610.01,-59.22C697.47,-48.91 879.55,-27.44 968.25,-16.98"/>
<polygon fill="midnightblue" stroke="midnightblue" points="968.81,-20.44 978.33,-15.8 967.99,-13.49 968.81,-20.44"/>
</g>
<!-- Node20&#45;&gt;Node3 -->
<g id="edge40" class="edge">
<title>Node20&#45;&gt;Node3</title>
<path fill="none" stroke="midnightblue" d="M573.37,-56.32C585.16,-48.06 603.13,-35.45 617.14,-25.63"/>
<polygon fill="midnightblue" stroke="midnightblue" points="619.48,-28.26 625.66,-19.65 615.46,-22.53 619.48,-28.26"/>
</g>
<!-- Node21 -->
<g id="node21" class="node">
<title>Node21</title>
<g id="a_node21"><a xlink:title=" ">
<polygon fill="none" stroke="#bfbfbf" points="519,-0.5 519,-19.5 565,-19.5 565,-0.5 519,-0.5"/>
<text text-anchor="middle" x="542" y="-7.5" font-family="Helvetica,sans-Serif" font-size="10.00">errno.h</text>
</a>
</g>
</g>
<!-- Node20&#45;&gt;Node21 -->
<g id="edge41" class="edge">
<title>Node20&#45;&gt;Node21</title>
<path fill="none" stroke="midnightblue" d="M557.86,-56.08C555.32,-48.85 551.64,-38.41 548.47,-29.4"/>
<polygon fill="midnightblue" stroke="midnightblue" points="551.7,-28.02 545.08,-19.75 545.1,-30.35 551.7,-28.02"/>
</g>
<!-- Node22&#45;&gt;Node2 -->
<g id="edge45" class="edge">
<title>Node22&#45;&gt;Node2</title>
<path fill="none" stroke="midnightblue" d="M316.22,-117.58C379.02,-111.48 509.87,-97.31 619,-76 653.7,-69.22 661.32,-62.9 696,-56 791.47,-37.02 904.39,-23.23 968.26,-16.23"/>
<polygon fill="midnightblue" stroke="midnightblue" points="968.9,-19.68 978.46,-15.12 968.14,-12.72 968.9,-19.68"/>
</g>
<!-- Node22&#45;&gt;Node3 -->
<g id="edge46" class="edge">
<title>Node22&#45;&gt;Node3</title>
<path fill="none" stroke="midnightblue" d="M248.78,-112.42C214.7,-101.3 166.74,-80.44 189,-56 216.41,-25.91 499.06,-25 572.61,-19.83"/>
<polygon fill="midnightblue" stroke="midnightblue" points="573.21,-23.29 582.86,-18.92 572.59,-16.32 573.21,-23.29"/>
</g>
<!-- Node22&#45;&gt;Node4 -->
<g id="edge47" class="edge">
<title>Node22&#45;&gt;Node4</title>
<path fill="none" stroke="midnightblue" d="M316.08,-119.05C424.55,-113.27 750.68,-95.46 1021,-76 1046.04,-74.2 1074.33,-71.83 1095.67,-69.97"/>
<polygon fill="midnightblue" stroke="midnightblue" points="1096.18,-73.44 1105.84,-69.08 1095.57,-66.47 1096.18,-73.44"/>
</g>
<!-- Node22&#45;&gt;Node7 -->
<g id="edge48" class="edge">
<title>Node22&#45;&gt;Node7</title>
<path fill="none" stroke="midnightblue" d="M254.28,-112.44C226.46,-102.81 181.32,-87.19 151.89,-77"/>
<polygon fill="midnightblue" stroke="midnightblue" points="152.79,-73.61 142.19,-73.64 150.5,-80.22 152.79,-73.61"/>
</g>
<!-- Node23 -->
<g id="node23" class="node">
<title>Node23</title>
<g id="a_node23"><a xlink:title=" ">
<polygon fill="none" stroke="#bfbfbf" points="198,-56.5 198,-75.5 244,-75.5 244,-56.5 198,-56.5"/>
<text text-anchor="middle" x="221" y="-63.5" font-family="Helvetica,sans-Serif" font-size="10.00">cstdint</text>
</a>
</g>
</g>
<!-- Node22&#45;&gt;Node23 -->
<g id="edge49" class="edge">
<title>Node22&#45;&gt;Node23</title>
<path fill="none" stroke="midnightblue" d="M269.68,-112.32C261.11,-104.34 248.19,-92.31 237.81,-82.65"/>
<polygon fill="midnightblue" stroke="midnightblue" points="240.19,-80.09 230.49,-75.83 235.42,-85.21 240.19,-80.09"/>
</g>
<!-- Node28&#45;&gt;Node2 -->
<g id="edge63" class="edge">
<title>Node28&#45;&gt;Node2</title>
<path fill="none" stroke="midnightblue" d="M1695.45,-112.46C1692.33,-98.04 1683.83,-69.15 1664,-56 1614.99,-23.52 1214.21,-14.06 1070.25,-11.7"/>
<polygon fill="midnightblue" stroke="midnightblue" points="1069.98,-8.2 1059.93,-11.54 1069.87,-15.19 1069.98,-8.2"/>
</g>
<!-- Node28&#45;&gt;Node3 -->
<g id="edge64" class="edge">
<title>Node28&#45;&gt;Node3</title>
<path fill="none" stroke="midnightblue" d="M1691.37,-112.24C1681.32,-97.48 1658.71,-68.09 1631,-56 1588.52,-37.46 917.88,-18.34 703.41,-12.68"/>
<polygon fill="midnightblue" stroke="midnightblue" points="703.34,-9.17 693.25,-12.41 703.15,-16.17 703.34,-9.17"/>
</g>
<!-- Node28&#45;&gt;Node4 -->
<g id="edge65" class="edge">
<title>Node28&#45;&gt;Node4</title>
<path fill="none" stroke="midnightblue" d="M1664.33,-118.48C1584.68,-112.23 1374.18,-95.17 1199,-76 1187.06,-74.69 1174.01,-73.07 1162.44,-71.56"/>
<polygon fill="midnightblue" stroke="midnightblue" points="1162.68,-68.06 1152.31,-70.22 1161.76,-75 1162.68,-68.06"/>
</g>
<!-- Node28&#45;&gt;Node5 -->
<g id="edge66" class="edge">
<title>Node28&#45;&gt;Node5</title>
<path fill="none" stroke="midnightblue" d="M1681.74,-112.32C1666.78,-103.82 1643.75,-90.73 1626.27,-80.8"/>
<polygon fill="midnightblue" stroke="midnightblue" points="1627.65,-77.55 1617.23,-75.65 1624.19,-83.64 1627.65,-77.55"/>
</g>
<!-- Node29 -->
<g id="node29" class="node">
<title>Node29</title>
<g id="a_node29"><a xlink:title=" ">
<polygon fill="none" stroke="#bfbfbf" points="1716,-56.5 1716,-75.5 1778,-75.5 1778,-56.5 1716,-56.5"/>
<text text-anchor="middle" x="1747" y="-63.5" font-family="Helvetica,sans-Serif" font-size="10.00">type_traits</text>
</a>
</g>
</g>
<!-- Node28&#45;&gt;Node29 -->
<g id="edge67" class="edge">
<title>Node28&#45;&gt;Node29</title>
<path fill="none" stroke="midnightblue" d="M1705.26,-112.08C1712.46,-104.3 1723.11,-92.8 1731.85,-83.37"/>
<polygon fill="midnightblue" stroke="midnightblue" points="1734.67,-85.47 1738.9,-75.75 1729.53,-80.71 1734.67,-85.47"/>
</g>
<!-- Node30 -->
<g id="node30" class="node">
<title>Node30</title>
<g id="a_node30"><a xlink:title=" ">
<polygon fill="none" stroke="#bfbfbf" points="1796.5,-56.5 1796.5,-75.5 1845.5,-75.5 1845.5,-56.5 1796.5,-56.5"/>
<text text-anchor="middle" x="1821" y="-63.5" font-family="Helvetica,sans-Serif" font-size="10.00">cstddef</text>
</a>
</g>
</g>
<!-- Node28&#45;&gt;Node30 -->
<g id="edge68" class="edge">
<title>Node28&#45;&gt;Node30</title>
<path fill="none" stroke="midnightblue" d="M1716.65,-112.44C1736.96,-103.6 1768.9,-89.69 1792.1,-79.59"/>
<polygon fill="midnightblue" stroke="midnightblue" points="1793.67,-82.72 1801.44,-75.52 1790.88,-76.3 1793.67,-82.72"/>
</g>
<!-- Node31&#45;&gt;Node2 -->
<g id="edge70" class="edge">
<title>Node31&#45;&gt;Node2</title>
<path fill="none" stroke="midnightblue" d="M1526.09,-112.14C1533.31,-98.27 1544.16,-71.46 1530,-56 1499.32,-22.5 1192.89,-13.81 1069.79,-11.67"/>
<polygon fill="midnightblue" stroke="midnightblue" points="1069.57,-8.16 1059.51,-11.5 1069.45,-15.16 1069.57,-8.16"/>
</g>
<!-- Node31&#45;&gt;Node3 -->
<g id="edge71" class="edge">
<title>Node31&#45;&gt;Node3</title>
<path fill="none" stroke="midnightblue" d="M1520.64,-112.05C1519.52,-97.57 1515.02,-69.27 1497,-56 1481.05,-44.26 901.32,-21.06 703.42,-13.47"/>
<polygon fill="midnightblue" stroke="midnightblue" points="703.3,-9.96 693.17,-13.08 703.03,-16.96 703.3,-9.96"/>
</g>
<!-- Node31&#45;&gt;Node5 -->
<g id="edge72" class="edge">
<title>Node31&#45;&gt;Node5</title>
<path fill="none" stroke="midnightblue" d="M1534.01,-112.32C1546.53,-103.98 1565.68,-91.21 1580.47,-81.35"/>
<polygon fill="midnightblue" stroke="midnightblue" points="1582.64,-84.11 1589.02,-75.65 1578.76,-78.29 1582.64,-84.11"/>
</g>
<!-- Node31&#45;&gt;Node6 -->
<g id="edge73" class="edge">
<title>Node31&#45;&gt;Node6</title>
<path fill="none" stroke="midnightblue" d="M1511.68,-112.32C1503.11,-104.34 1490.19,-92.31 1479.81,-82.65"/>
<polygon fill="midnightblue" stroke="midnightblue" points="1482.19,-80.09 1472.49,-75.83 1477.42,-85.21 1482.19,-80.09"/>
</g>
</g>
</svg>
