<?xml version="1.0" encoding="UTF-8" standalone="no"?>
<!DOCTYPE svg PUBLIC "-//W3C//DTD SVG 1.1//EN"
 "http://www.w3.org/Graphics/SVG/1.1/DTD/svg11.dtd">
<!-- Generated by graphviz version 2.44.0 ()
 -->
<!-- Title: include/zpp/poll_signal.hpp Pages: 1 -->
<svg width="858pt" height="341pt"
 viewBox="0.00 0.00 857.50 341.00" xmlns="http://www.w3.org/2000/svg" xmlns:xlink="http://www.w3.org/1999/xlink">
<g id="graph0" class="graph" transform="scale(1 1) rotate(0) translate(4 337)">
<title>include/zpp/poll_signal.hpp</title>
<!-- Node1 -->
<g id="node1" class="node">
<title>Node1</title>
<g id="a_node1"><a xlink:title=" ">
<polygon fill="#bfbfbf" stroke="black" points="441.5,-313.5 441.5,-332.5 573.5,-332.5 573.5,-313.5 441.5,-313.5"/>
<text text-anchor="middle" x="507.5" y="-320.5" font-family="Helvetica,sans-Serif" font-size="10.00">include/zpp/poll_signal.hpp</text>
</a>
</g>
</g>
<!-- Node2 -->
<g id="node2" class="node">
<title>Node2</title>
<g id="a_node2"><a xlink:href="poll_8hpp.html" target="_top" xlink:title=" ">
<polygon fill="none" stroke="black" points="429,-134.5 429,-153.5 530,-153.5 530,-134.5 429,-134.5"/>
<text text-anchor="middle" x="479.5" y="-141.5" font-family="Helvetica,sans-Serif" font-size="10.00">include/zpp/poll.hpp</text>
</a>
</g>
</g>
<!-- Node1&#45;&gt;Node2 -->
<g id="edge1" class="edge">
<title>Node1&#45;&gt;Node2</title>
<path fill="none" stroke="midnightblue" d="M470.79,-309.27C456.16,-302.18 440.85,-291.74 432.5,-277 408.05,-233.82 452.41,-175.64 471.44,-153.78"/>
<polygon fill="midnightblue" stroke="midnightblue" points="469.66,-312.6 480.22,-313.45 472.5,-306.2 469.66,-312.6"/>
</g>
<!-- Node11 -->
<g id="node11" class="node">
<title>Node11</title>
<g id="a_node11"><a xlink:href="poll__event_8hpp.html" target="_top" xlink:title=" ">
<polygon fill="none" stroke="black" points="442,-257.5 442,-276.5 573,-276.5 573,-257.5 442,-257.5"/>
<text text-anchor="middle" x="507.5" y="-264.5" font-family="Helvetica,sans-Serif" font-size="10.00">include/zpp/poll_event.hpp</text>
</a>
</g>
</g>
<!-- Node1&#45;&gt;Node11 -->
<g id="edge10" class="edge">
<title>Node1&#45;&gt;Node11</title>
<path fill="none" stroke="midnightblue" d="M507.5,-302.8C507.5,-293.91 507.5,-283.78 507.5,-276.75"/>
<polygon fill="midnightblue" stroke="midnightblue" points="504,-303.08 507.5,-313.08 511,-303.08 504,-303.08"/>
</g>
<!-- Node12 -->
<g id="node12" class="node">
<title>Node12</title>
<g id="a_node12"><a xlink:href="poll__event__set_8hpp.html" target="_top" xlink:title=" ">
<polygon fill="none" stroke="black" points="508,-190.5 508,-220.5 621,-220.5 621,-190.5 508,-190.5"/>
<text text-anchor="start" x="516" y="-208.5" font-family="Helvetica,sans-Serif" font-size="10.00">include/zpp/poll_event</text>
<text text-anchor="middle" x="564.5" y="-197.5" font-family="Helvetica,sans-Serif" font-size="10.00">_set.hpp</text>
</a>
</g>
</g>
<!-- Node1&#45;&gt;Node12 -->
<g id="edge14" class="edge">
<title>Node1&#45;&gt;Node12</title>
<path fill="none" stroke="midnightblue" d="M544.21,-309.27C558.84,-302.18 574.15,-291.74 582.5,-277 592.64,-259.08 582.57,-235.4 573.92,-220.56"/>
<polygon fill="midnightblue" stroke="midnightblue" points="542.5,-306.2 534.78,-313.45 545.34,-312.6 542.5,-306.2"/>
</g>
<!-- Node3 -->
<g id="node3" class="node">
<title>Node3</title>
<g id="a_node3"><a xlink:href="zpp_8hpp.html" target="_top" xlink:title=" ">
<polygon fill="none" stroke="black" points="380,-78.5 380,-97.5 463,-97.5 463,-78.5 380,-78.5"/>
<text text-anchor="middle" x="421.5" y="-85.5" font-family="Helvetica,sans-Serif" font-size="10.00">include/zpp.hpp</text>
</a>
</g>
</g>
<!-- Node2&#45;&gt;Node3 -->
<g id="edge2" class="edge">
<title>Node2&#45;&gt;Node3</title>
<path fill="none" stroke="midnightblue" d="M462.59,-127.25C452.3,-117.67 439.53,-105.79 430.99,-97.83"/>
<polygon fill="midnightblue" stroke="midnightblue" points="460.48,-130.07 470.18,-134.32 465.25,-124.95 460.48,-130.07"/>
</g>
<!-- Node10 -->
<g id="node10" class="node">
<title>Node10</title>
<g id="a_node10"><a xlink:href="tests_2poll_2src_2main_8cpp.html" target="_top" xlink:title=" ">
<polygon fill="none" stroke="black" points="481,-78.5 481,-97.5 596,-97.5 596,-78.5 481,-78.5"/>
<text text-anchor="middle" x="538.5" y="-85.5" font-family="Helvetica,sans-Serif" font-size="10.00">tests/poll/src/main.cpp</text>
</a>
</g>
</g>
<!-- Node2&#45;&gt;Node10 -->
<g id="edge9" class="edge">
<title>Node2&#45;&gt;Node10</title>
<path fill="none" stroke="midnightblue" d="M496.39,-127.54C506.91,-117.91 520.07,-105.87 528.85,-97.83"/>
<polygon fill="midnightblue" stroke="midnightblue" points="493.99,-124.99 488.98,-134.32 498.72,-130.15 493.99,-124.99"/>
</g>
<!-- Node4 -->
<g id="node4" class="node">
<title>Node4</title>
<g id="a_node4"><a xlink:href="samples_2hello__world_2src_2main_8cpp.html" target="_top" xlink:title=" ">
<polygon fill="none" stroke="black" points="0,-6 0,-36 105,-36 105,-6 0,-6"/>
<text text-anchor="start" x="8" y="-24" font-family="Helvetica,sans-Serif" font-size="10.00">samples/hello_world</text>
<text text-anchor="middle" x="52.5" y="-13" font-family="Helvetica,sans-Serif" font-size="10.00">/src/main.cpp</text>
</a>
</g>
</g>
<!-- Node3&#45;&gt;Node4 -->
<g id="edge3" class="edge">
<title>Node3&#45;&gt;Node4</title>
<path fill="none" stroke="midnightblue" d="M369.48,-82.15C307.83,-75.78 202.26,-62.87 113.5,-42 106.45,-40.34 99.04,-38.24 91.92,-36.02"/>
<polygon fill="midnightblue" stroke="midnightblue" points="369.42,-85.67 379.73,-83.2 370.13,-78.7 369.42,-85.67"/>
</g>
<!-- Node5 -->
<g id="node5" class="node">
<title>Node5</title>
<g id="a_node5"><a xlink:href="samples_2kernel_2condition__variables_2condvar_2src_2main_8cpp.html" target="_top" xlink:title=" ">
<polygon fill="none" stroke="black" points="123,-0.5 123,-41.5 248,-41.5 248,-0.5 123,-0.5"/>
<text text-anchor="start" x="131" y="-29.5" font-family="Helvetica,sans-Serif" font-size="10.00">samples/kernel/condition</text>
<text text-anchor="start" x="131" y="-18.5" font-family="Helvetica,sans-Serif" font-size="10.00">_variables/condvar/src</text>
<text text-anchor="middle" x="185.5" y="-7.5" font-family="Helvetica,sans-Serif" font-size="10.00">/main.cpp</text>
</a>
</g>
</g>
<!-- Node3&#45;&gt;Node5 -->
<g id="edge4" class="edge">
<title>Node3&#45;&gt;Node5</title>
<path fill="none" stroke="midnightblue" d="M379.98,-75.78C346.6,-66.73 298.51,-53.64 256.5,-42 253.79,-41.25 251.01,-40.48 248.21,-39.7"/>
<polygon fill="midnightblue" stroke="midnightblue" points="379.28,-79.22 389.85,-78.45 381.11,-72.46 379.28,-79.22"/>
</g>
<!-- Node6 -->
<g id="node6" class="node">
<title>Node6</title>
<g id="a_node6"><a xlink:href="samples_2kernel_2condition__variables_2simple_2src_2main_8cpp.html" target="_top" xlink:title=" ">
<polygon fill="none" stroke="black" points="266,-6 266,-36 417,-36 417,-6 266,-6"/>
<text text-anchor="start" x="274" y="-24" font-family="Helvetica,sans-Serif" font-size="10.00">samples/kernel/condition</text>
<text text-anchor="middle" x="341.5" y="-13" font-family="Helvetica,sans-Serif" font-size="10.00">_variables/simple/src/main.cpp</text>
</a>
</g>
</g>
<!-- Node3&#45;&gt;Node6 -->
<g id="edge5" class="edge">
<title>Node3&#45;&gt;Node6</title>
<path fill="none" stroke="midnightblue" d="M402.71,-71.74C389.44,-60.95 371.78,-46.6 358.84,-36.09"/>
<polygon fill="midnightblue" stroke="midnightblue" points="400.74,-74.64 410.71,-78.23 405.16,-69.21 400.74,-74.64"/>
</g>
<!-- Node7 -->
<g id="node7" class="node">
<title>Node7</title>
<g id="a_node7"><a xlink:href="tests_2compile_2src_2main_8cpp.html" target="_top" xlink:title=" ">
<polygon fill="none" stroke="black" points="435.5,-11.5 435.5,-30.5 569.5,-30.5 569.5,-11.5 435.5,-11.5"/>
<text text-anchor="middle" x="502.5" y="-18.5" font-family="Helvetica,sans-Serif" font-size="10.00">tests/compile/src/main.cpp</text>
</a>
</g>
</g>
<!-- Node3&#45;&gt;Node7 -->
<g id="edge6" class="edge">
<title>Node3&#45;&gt;Node7</title>
<path fill="none" stroke="midnightblue" d="M440.55,-71.71C456.51,-58.91 478.71,-41.09 491.75,-30.63"/>
<polygon fill="midnightblue" stroke="midnightblue" points="438.03,-69.25 432.42,-78.23 442.41,-74.7 438.03,-69.25"/>
</g>
<!-- Node8 -->
<g id="node8" class="node">
<title>Node8</title>
<g id="a_node8"><a xlink:href="tests_2condition__variable_2src_2main_8cpp.html" target="_top" xlink:title=" ">
<polygon fill="none" stroke="black" points="588,-6 588,-36 707,-36 707,-6 588,-6"/>
<text text-anchor="start" x="596" y="-24" font-family="Helvetica,sans-Serif" font-size="10.00">tests/condition_variable</text>
<text text-anchor="middle" x="647.5" y="-13" font-family="Helvetica,sans-Serif" font-size="10.00">/src/main.cpp</text>
</a>
</g>
</g>
<!-- Node3&#45;&gt;Node8 -->
<g id="edge7" class="edge">
<title>Node3&#45;&gt;Node8</title>
<path fill="none" stroke="midnightblue" d="M461.11,-75.68C492.86,-66.6 538.55,-53.52 578.5,-42 585.21,-40.07 592.29,-38.02 599.25,-36.01"/>
<polygon fill="midnightblue" stroke="midnightblue" points="459.97,-72.37 451.31,-78.48 461.89,-79.1 459.97,-72.37"/>
</g>
<!-- Node9 -->
<g id="node9" class="node">
<title>Node9</title>
<g id="a_node9"><a xlink:href="tests_2result_2src_2main_8cpp.html" target="_top" xlink:title=" ">
<polygon fill="none" stroke="black" points="725.5,-11.5 725.5,-30.5 849.5,-30.5 849.5,-11.5 725.5,-11.5"/>
<text text-anchor="middle" x="787.5" y="-18.5" font-family="Helvetica,sans-Serif" font-size="10.00">tests/result/src/main.cpp</text>
</a>
</g>
</g>
<!-- Node3&#45;&gt;Node9 -->
<g id="edge8" class="edge">
<title>Node3&#45;&gt;Node9</title>
<path fill="none" stroke="midnightblue" d="M473.33,-77.92C582.45,-60.71 612.44,-64.24 716.5,-42 731.15,-38.87 747.24,-34.42 760.39,-30.52"/>
<polygon fill="midnightblue" stroke="midnightblue" points="472.55,-74.5 463.23,-79.54 473.66,-81.41 472.55,-74.5"/>
</g>
<!-- Node11&#45;&gt;Node2 -->
<g id="edge11" class="edge">
<title>Node11&#45;&gt;Node2</title>
<path fill="none" stroke="midnightblue" d="M503.18,-247.35C497.03,-220.77 486,-173.08 481.5,-153.62"/>
<polygon fill="midnightblue" stroke="midnightblue" points="499.82,-248.34 505.49,-257.3 506.64,-246.77 499.82,-248.34"/>
</g>
<!-- Node11&#45;&gt;Node12 -->
<g id="edge12" class="edge">
<title>Node11&#45;&gt;Node12</title>
<path fill="none" stroke="midnightblue" d="M522.74,-250.09C531.56,-240.88 542.57,-229.39 551.07,-220.52"/>
<polygon fill="midnightblue" stroke="midnightblue" points="520.06,-247.83 515.67,-257.48 525.11,-252.68 520.06,-247.83"/>
</g>
<!-- Node12&#45;&gt;Node2 -->
<g id="edge13" class="edge">
<title>Node12&#45;&gt;Node2</title>
<path fill="none" stroke="midnightblue" d="M535.9,-184.48C520.93,-174 503.37,-161.71 491.87,-153.66"/>
<polygon fill="midnightblue" stroke="midnightblue" points="534.16,-187.53 544.36,-190.4 538.17,-181.8 534.16,-187.53"/>
</g>
</g>
</svg>
