<?xml version="1.0" encoding="UTF-8" standalone="no"?>
<!DOCTYPE svg PUBLIC "-//W3C//DTD SVG 1.1//EN"
 "http://www.w3.org/Graphics/SVG/1.1/DTD/svg11.dtd">
<!-- Generated by graphviz version 2.44.0 ()
 -->
<!-- Title: include/zpp/result.hpp Pages: 1 -->
<svg width="1286pt" height="464pt"
 viewBox="0.00 0.00 1286.00 464.00" xmlns="http://www.w3.org/2000/svg" xmlns:xlink="http://www.w3.org/1999/xlink">
<g id="graph0" class="graph" transform="scale(1 1) rotate(0) translate(4 460)">
<title>include/zpp/result.hpp</title>
<!-- Node1 -->
<g id="node1" class="node">
<title>Node1</title>
<g id="a_node1"><a xlink:title=" ">
<polygon fill="#bfbfbf" stroke="black" points="281.5,-436.5 281.5,-455.5 391.5,-455.5 391.5,-436.5 281.5,-436.5"/>
<text text-anchor="middle" x="336.5" y="-443.5" font-family="Helvetica,sans-Serif" font-size="10.00">include/zpp/result.hpp</text>
</a>
</g>
</g>
<!-- Node2 -->
<g id="node2" class="node">
<title>Node2</title>
<g id="a_node2"><a xlink:href="condition__variable_8hpp.html" target="_top" xlink:title=" ">
<polygon fill="none" stroke="black" points="286,-313.5 286,-343.5 393,-343.5 393,-313.5 286,-313.5"/>
<text text-anchor="start" x="294" y="-331.5" font-family="Helvetica,sans-Serif" font-size="10.00">include/zpp/condition</text>
<text text-anchor="middle" x="339.5" y="-320.5" font-family="Helvetica,sans-Serif" font-size="10.00">_variable.hpp</text>
</a>
</g>
</g>
<!-- Node1&#45;&gt;Node2 -->
<g id="edge1" class="edge">
<title>Node1&#45;&gt;Node2</title>
<path fill="none" stroke="midnightblue" d="M336.99,-426.07C337.59,-402.9 338.6,-364.22 339.14,-343.55"/>
<polygon fill="midnightblue" stroke="midnightblue" points="333.49,-426.23 336.73,-436.32 340.48,-426.41 333.49,-426.23"/>
</g>
<!-- Node3 -->
<g id="node3" class="node">
<title>Node3</title>
<g id="a_node3"><a xlink:href="zpp_8hpp.html" target="_top" xlink:title=" ">
<polygon fill="none" stroke="black" points="380,-78.5 380,-97.5 463,-97.5 463,-78.5 380,-78.5"/>
<text text-anchor="middle" x="421.5" y="-85.5" font-family="Helvetica,sans-Serif" font-size="10.00">include/zpp.hpp</text>
</a>
</g>
</g>
<!-- Node1&#45;&gt;Node3 -->
<g id="edge36" class="edge">
<title>Node1&#45;&gt;Node3</title>
<path fill="none" stroke="midnightblue" d="M316.88,-429.63C293.49,-409.4 257.5,-371.48 257.5,-329.5 257.5,-329.5 257.5,-329.5 257.5,-204.5 257.5,-142.86 335.9,-111.24 384.29,-97.6"/>
<polygon fill="midnightblue" stroke="midnightblue" points="314.92,-432.54 324.84,-436.25 319.4,-427.16 314.92,-432.54"/>
</g>
<!-- Node10 -->
<g id="node10" class="node">
<title>Node10</title>
<g id="a_node10"><a xlink:href="mutex_8hpp.html" target="_top" xlink:title=" ">
<polygon fill="none" stroke="black" points="365,-380.5 365,-399.5 478,-399.5 478,-380.5 365,-380.5"/>
<text text-anchor="middle" x="421.5" y="-387.5" font-family="Helvetica,sans-Serif" font-size="10.00">include/zpp/mutex.hpp</text>
</a>
</g>
</g>
<!-- Node1&#45;&gt;Node10 -->
<g id="edge9" class="edge">
<title>Node1&#45;&gt;Node10</title>
<path fill="none" stroke="midnightblue" d="M358.69,-430.9C374.28,-421 394.63,-408.07 407.88,-399.65"/>
<polygon fill="midnightblue" stroke="midnightblue" points="356.72,-428.01 350.16,-436.32 360.47,-433.92 356.72,-428.01"/>
</g>
<!-- Node12 -->
<g id="node12" class="node">
<title>Node12</title>
<g id="a_node12"><a xlink:href="thread_8hpp.html" target="_top" xlink:title=" ">
<polygon fill="none" stroke="black" points="623,-380.5 623,-399.5 736,-399.5 736,-380.5 623,-380.5"/>
<text text-anchor="middle" x="679.5" y="-387.5" font-family="Helvetica,sans-Serif" font-size="10.00">include/zpp/thread.hpp</text>
</a>
</g>
</g>
<!-- Node1&#45;&gt;Node12 -->
<g id="edge13" class="edge">
<title>Node1&#45;&gt;Node12</title>
<path fill="none" stroke="midnightblue" d="M400.95,-434.85C465.75,-424.65 564.55,-409.1 625.4,-399.52"/>
<polygon fill="midnightblue" stroke="midnightblue" points="400.18,-431.43 390.85,-436.44 401.27,-438.35 400.18,-431.43"/>
</g>
<!-- Node23 -->
<g id="node23" class="node">
<title>Node23</title>
<g id="a_node23"><a xlink:href="unique__lock_8hpp.html" target="_top" xlink:title=" ">
<polygon fill="none" stroke="black" points="132,-190.5 132,-220.5 229,-220.5 229,-190.5 132,-190.5"/>
<text text-anchor="start" x="140" y="-208.5" font-family="Helvetica,sans-Serif" font-size="10.00">include/zpp/unique</text>
<text text-anchor="middle" x="180.5" y="-197.5" font-family="Helvetica,sans-Serif" font-size="10.00">_lock.hpp</text>
</a>
</g>
</g>
<!-- Node1&#45;&gt;Node23 -->
<g id="edge34" class="edge">
<title>Node1&#45;&gt;Node23</title>
<path fill="none" stroke="midnightblue" d="M294.37,-432.87C276.53,-425.84 256.83,-415.28 243.5,-400 196.23,-345.83 184.3,-255.51 181.4,-220.74"/>
<polygon fill="midnightblue" stroke="midnightblue" points="293.44,-436.26 304.03,-436.42 295.85,-429.69 293.44,-436.26"/>
</g>
<!-- Node2&#45;&gt;Node3 -->
<g id="edge2" class="edge">
<title>Node2&#45;&gt;Node3</title>
<path fill="none" stroke="midnightblue" d="M347.7,-303.65C365.46,-251.98 406.82,-131.69 418.42,-97.95"/>
<polygon fill="midnightblue" stroke="midnightblue" points="344.33,-302.7 344.38,-313.29 350.95,-304.98 344.33,-302.7"/>
</g>
<!-- Node4 -->
<g id="node4" class="node">
<title>Node4</title>
<g id="a_node4"><a xlink:href="samples_2hello__world_2src_2main_8cpp.html" target="_top" xlink:title=" ">
<polygon fill="none" stroke="black" points="0,-6 0,-36 105,-36 105,-6 0,-6"/>
<text text-anchor="start" x="8" y="-24" font-family="Helvetica,sans-Serif" font-size="10.00">samples/hello_world</text>
<text text-anchor="middle" x="52.5" y="-13" font-family="Helvetica,sans-Serif" font-size="10.00">/src/main.cpp</text>
</a>
</g>
</g>
<!-- Node3&#45;&gt;Node4 -->
<g id="edge3" class="edge">
<title>Node3&#45;&gt;Node4</title>
<path fill="none" stroke="midnightblue" d="M369.48,-82.15C307.83,-75.78 202.26,-62.87 113.5,-42 106.45,-40.34 99.04,-38.24 91.92,-36.02"/>
<polygon fill="midnightblue" stroke="midnightblue" points="369.42,-85.67 379.73,-83.2 370.13,-78.7 369.42,-85.67"/>
</g>
<!-- Node5 -->
<g id="node5" class="node">
<title>Node5</title>
<g id="a_node5"><a xlink:href="samples_2kernel_2condition__variables_2condvar_2src_2main_8cpp.html" target="_top" xlink:title=" ">
<polygon fill="none" stroke="black" points="123,-0.5 123,-41.5 248,-41.5 248,-0.5 123,-0.5"/>
<text text-anchor="start" x="131" y="-29.5" font-family="Helvetica,sans-Serif" font-size="10.00">samples/kernel/condition</text>
<text text-anchor="start" x="131" y="-18.5" font-family="Helvetica,sans-Serif" font-size="10.00">_variables/condvar/src</text>
<text text-anchor="middle" x="185.5" y="-7.5" font-family="Helvetica,sans-Serif" font-size="10.00">/main.cpp</text>
</a>
</g>
</g>
<!-- Node3&#45;&gt;Node5 -->
<g id="edge4" class="edge">
<title>Node3&#45;&gt;Node5</title>
<path fill="none" stroke="midnightblue" d="M379.98,-75.78C346.6,-66.73 298.51,-53.64 256.5,-42 253.79,-41.25 251.01,-40.48 248.21,-39.7"/>
<polygon fill="midnightblue" stroke="midnightblue" points="379.28,-79.22 389.85,-78.45 381.11,-72.46 379.28,-79.22"/>
</g>
<!-- Node6 -->
<g id="node6" class="node">
<title>Node6</title>
<g id="a_node6"><a xlink:href="samples_2kernel_2condition__variables_2simple_2src_2main_8cpp.html" target="_top" xlink:title=" ">
<polygon fill="none" stroke="black" points="266,-6 266,-36 417,-36 417,-6 266,-6"/>
<text text-anchor="start" x="274" y="-24" font-family="Helvetica,sans-Serif" font-size="10.00">samples/kernel/condition</text>
<text text-anchor="middle" x="341.5" y="-13" font-family="Helvetica,sans-Serif" font-size="10.00">_variables/simple/src/main.cpp</text>
</a>
</g>
</g>
<!-- Node3&#45;&gt;Node6 -->
<g id="edge5" class="edge">
<title>Node3&#45;&gt;Node6</title>
<path fill="none" stroke="midnightblue" d="M402.71,-71.74C389.44,-60.95 371.78,-46.6 358.84,-36.09"/>
<polygon fill="midnightblue" stroke="midnightblue" points="400.74,-74.64 410.71,-78.23 405.16,-69.21 400.74,-74.64"/>
</g>
<!-- Node7 -->
<g id="node7" class="node">
<title>Node7</title>
<g id="a_node7"><a xlink:href="tests_2compile_2src_2main_8cpp.html" target="_top" xlink:title=" ">
<polygon fill="none" stroke="black" points="435.5,-11.5 435.5,-30.5 569.5,-30.5 569.5,-11.5 435.5,-11.5"/>
<text text-anchor="middle" x="502.5" y="-18.5" font-family="Helvetica,sans-Serif" font-size="10.00">tests/compile/src/main.cpp</text>
</a>
</g>
</g>
<!-- Node3&#45;&gt;Node7 -->
<g id="edge6" class="edge">
<title>Node3&#45;&gt;Node7</title>
<path fill="none" stroke="midnightblue" d="M440.55,-71.71C456.51,-58.91 478.71,-41.09 491.75,-30.63"/>
<polygon fill="midnightblue" stroke="midnightblue" points="438.03,-69.25 432.42,-78.23 442.41,-74.7 438.03,-69.25"/>
</g>
<!-- Node8 -->
<g id="node8" class="node">
<title>Node8</title>
<g id="a_node8"><a xlink:href="tests_2condition__variable_2src_2main_8cpp.html" target="_top" xlink:title=" ">
<polygon fill="none" stroke="black" points="588,-6 588,-36 707,-36 707,-6 588,-6"/>
<text text-anchor="start" x="596" y="-24" font-family="Helvetica,sans-Serif" font-size="10.00">tests/condition_variable</text>
<text text-anchor="middle" x="647.5" y="-13" font-family="Helvetica,sans-Serif" font-size="10.00">/src/main.cpp</text>
</a>
</g>
</g>
<!-- Node3&#45;&gt;Node8 -->
<g id="edge7" class="edge">
<title>Node3&#45;&gt;Node8</title>
<path fill="none" stroke="midnightblue" d="M461.11,-75.68C492.86,-66.6 538.55,-53.52 578.5,-42 585.21,-40.07 592.29,-38.02 599.25,-36.01"/>
<polygon fill="midnightblue" stroke="midnightblue" points="459.97,-72.37 451.31,-78.48 461.89,-79.1 459.97,-72.37"/>
</g>
<!-- Node9 -->
<g id="node9" class="node">
<title>Node9</title>
<g id="a_node9"><a xlink:href="tests_2result_2src_2main_8cpp.html" target="_top" xlink:title=" ">
<polygon fill="none" stroke="black" points="725.5,-11.5 725.5,-30.5 849.5,-30.5 849.5,-11.5 725.5,-11.5"/>
<text text-anchor="middle" x="787.5" y="-18.5" font-family="Helvetica,sans-Serif" font-size="10.00">tests/result/src/main.cpp</text>
</a>
</g>
</g>
<!-- Node3&#45;&gt;Node9 -->
<g id="edge8" class="edge">
<title>Node3&#45;&gt;Node9</title>
<path fill="none" stroke="midnightblue" d="M473.54,-81.03C532.76,-73.78 632.19,-60.23 716.5,-42 731.02,-38.86 746.96,-34.46 760.05,-30.58"/>
<polygon fill="midnightblue" stroke="midnightblue" points="472.83,-77.59 463.32,-82.27 473.67,-84.54 472.83,-77.59"/>
</g>
<!-- Node10&#45;&gt;Node2 -->
<g id="edge10" class="edge">
<title>Node10&#45;&gt;Node2</title>
<path fill="none" stroke="midnightblue" d="M401.47,-374.47C388.49,-365.05 371.67,-352.84 358.83,-343.52"/>
<polygon fill="midnightblue" stroke="midnightblue" points="399.6,-377.43 409.75,-380.48 403.71,-371.77 399.6,-377.43"/>
</g>
<!-- Node10&#45;&gt;Node3 -->
<g id="edge11" class="edge">
<title>Node10&#45;&gt;Node3</title>
<path fill="none" stroke="midnightblue" d="M421.5,-370.44C421.5,-346.69 421.5,-304.29 421.5,-268 421.5,-268 421.5,-268 421.5,-204.5 421.5,-164.6 421.5,-116.94 421.5,-97.69"/>
<polygon fill="midnightblue" stroke="midnightblue" points="418,-370.49 421.5,-380.49 425,-370.49 418,-370.49"/>
</g>
<!-- Node11 -->
<g id="node11" class="node">
<title>Node11</title>
<g id="a_node11"><a xlink:href="tests_2mutex_2src_2main_8cpp.html" target="_top" xlink:title=" ">
<polygon fill="none" stroke="black" points="449.5,-319 449.5,-338 575.5,-338 575.5,-319 449.5,-319"/>
<text text-anchor="middle" x="512.5" y="-326" font-family="Helvetica,sans-Serif" font-size="10.00">tests/mutex/src/main.cpp</text>
</a>
</g>
</g>
<!-- Node10&#45;&gt;Node11 -->
<g id="edge12" class="edge">
<title>Node10&#45;&gt;Node11</title>
<path fill="none" stroke="midnightblue" d="M443.02,-374.93C460.56,-363.46 484.77,-347.63 499.49,-338.01"/>
<polygon fill="midnightblue" stroke="midnightblue" points="440.99,-372.07 434.54,-380.48 444.82,-377.93 440.99,-372.07"/>
</g>
<!-- Node12&#45;&gt;Node3 -->
<g id="edge27" class="edge">
<title>Node12&#45;&gt;Node3</title>
<path fill="none" stroke="midnightblue" d="M665.37,-372.57C617.82,-317.28 464.64,-139.17 428.97,-97.69"/>
<polygon fill="midnightblue" stroke="midnightblue" points="662.88,-375.05 672.06,-380.35 668.19,-370.48 662.88,-375.05"/>
</g>
<!-- Node12&#45;&gt;Node11 -->
<g id="edge30" class="edge">
<title>Node12&#45;&gt;Node11</title>
<path fill="none" stroke="midnightblue" d="M646.05,-377.08C613.59,-365.52 565.13,-348.25 536.38,-338.01"/>
<polygon fill="midnightblue" stroke="midnightblue" points="644.98,-380.42 655.57,-380.48 647.33,-373.82 644.98,-380.42"/>
</g>
<!-- Node13 -->
<g id="node13" class="node">
<title>Node13</title>
<g id="a_node13"><a xlink:href="sem_8hpp.html" target="_top" xlink:title=" ">
<polygon fill="none" stroke="black" points="990,-319 990,-338 1095,-338 1095,-319 990,-319"/>
<text text-anchor="middle" x="1042.5" y="-326" font-family="Helvetica,sans-Serif" font-size="10.00">include/zpp/sem.hpp</text>
</a>
</g>
</g>
<!-- Node12&#45;&gt;Node13 -->
<g id="edge14" class="edge">
<title>Node12&#45;&gt;Node13</title>
<path fill="none" stroke="midnightblue" d="M746.33,-380.6C807.5,-372.53 900.41,-359.33 980.5,-344 989.51,-342.28 999.2,-340.15 1008.17,-338.05"/>
<polygon fill="midnightblue" stroke="midnightblue" points="745.5,-377.17 736.04,-381.94 746.41,-384.11 745.5,-377.17"/>
</g>
<!-- Node18 -->
<g id="node18" class="node">
<title>Node18</title>
<g id="a_node18"><a xlink:href="tests_2fifo_2src_2main_8cpp.html" target="_top" xlink:title=" ">
<polygon fill="none" stroke="black" points="1165,-257.5 1165,-276.5 1278,-276.5 1278,-257.5 1165,-257.5"/>
<text text-anchor="middle" x="1221.5" y="-264.5" font-family="Helvetica,sans-Serif" font-size="10.00">tests/fifo/src/main.cpp</text>
</a>
</g>
</g>
<!-- Node12&#45;&gt;Node18 -->
<g id="edge29" class="edge">
<title>Node12&#45;&gt;Node18</title>
<path fill="none" stroke="midnightblue" d="M746.29,-385.73C848.89,-380.07 1040.19,-366.81 1104.5,-344 1148.56,-328.38 1192.69,-293.11 1211.74,-276.7"/>
<polygon fill="midnightblue" stroke="midnightblue" points="745.84,-382.25 736.04,-386.29 746.22,-389.24 745.84,-382.25"/>
</g>
<!-- Node19 -->
<g id="node19" class="node">
<title>Node19</title>
<g id="a_node19"><a xlink:href="tests_2sem_2src_2main_8cpp.html" target="_top" xlink:title=" ">
<polygon fill="none" stroke="black" points="618,-257.5 618,-276.5 737,-276.5 737,-257.5 618,-257.5"/>
<text text-anchor="middle" x="677.5" y="-264.5" font-family="Helvetica,sans-Serif" font-size="10.00">tests/sem/src/main.cpp</text>
</a>
</g>
</g>
<!-- Node12&#45;&gt;Node19 -->
<g id="edge31" class="edge">
<title>Node12&#45;&gt;Node19</title>
<path fill="none" stroke="midnightblue" d="M672.45,-370.74C669.69,-362.67 666.87,-353 665.5,-344 663.43,-330.38 663.71,-326.66 665.5,-313 667.18,-300.17 671.45,-285.8 674.41,-276.83"/>
<polygon fill="midnightblue" stroke="midnightblue" points="669.19,-372.02 675.9,-380.22 675.77,-369.63 669.19,-372.02"/>
</g>
<!-- Node20 -->
<g id="node20" class="node">
<title>Node20</title>
<g id="a_node20"><a xlink:href="tests_2thread_2src_2main_8cpp.html" target="_top" xlink:title=" ">
<polygon fill="none" stroke="black" points="755,-257.5 755,-276.5 882,-276.5 882,-257.5 755,-257.5"/>
<text text-anchor="middle" x="818.5" y="-264.5" font-family="Helvetica,sans-Serif" font-size="10.00">tests/thread/src/main.cpp</text>
</a>
</g>
</g>
<!-- Node12&#45;&gt;Node20 -->
<g id="edge32" class="edge">
<title>Node12&#45;&gt;Node20</title>
<path fill="none" stroke="midnightblue" d="M679.79,-369.98C681.03,-353.06 685.4,-328.65 699.5,-313 716.65,-293.96 742.69,-282.94 766.04,-276.58"/>
<polygon fill="midnightblue" stroke="midnightblue" points="676.28,-370.15 679.34,-380.29 683.27,-370.45 676.28,-370.15"/>
</g>
<!-- Node21 -->
<g id="node21" class="node">
<title>Node21</title>
<g id="a_node21"><a xlink:href="tests_2clock_2src_2main_8cpp.html" target="_top" xlink:title=" ">
<polygon fill="none" stroke="black" points="708,-319 708,-338 831,-338 831,-319 708,-319"/>
<text text-anchor="middle" x="769.5" y="-326" font-family="Helvetica,sans-Serif" font-size="10.00">tests/clock/src/main.cpp</text>
</a>
</g>
</g>
<!-- Node12&#45;&gt;Node21 -->
<g id="edge28" class="edge">
<title>Node12&#45;&gt;Node21</title>
<path fill="none" stroke="midnightblue" d="M700.78,-374.93C718.13,-363.46 742.07,-347.63 756.63,-338.01"/>
<polygon fill="midnightblue" stroke="midnightblue" points="698.81,-372.04 692.39,-380.48 702.67,-377.88 698.81,-372.04"/>
</g>
<!-- Node22 -->
<g id="node22" class="node">
<title>Node22</title>
<g id="a_node22"><a xlink:href="tests_2timer_2src_2main_8cpp.html" target="_top" xlink:title=" ">
<polygon fill="none" stroke="black" points="849.5,-319 849.5,-338 971.5,-338 971.5,-319 849.5,-319"/>
<text text-anchor="middle" x="910.5" y="-326" font-family="Helvetica,sans-Serif" font-size="10.00">tests/timer/src/main.cpp</text>
</a>
</g>
</g>
<!-- Node12&#45;&gt;Node22 -->
<g id="edge33" class="edge">
<title>Node12&#45;&gt;Node22</title>
<path fill="none" stroke="midnightblue" d="M722.33,-377.97C767.18,-366.41 836.67,-348.52 877.46,-338.01"/>
<polygon fill="midnightblue" stroke="midnightblue" points="721.41,-374.59 712.6,-380.48 723.15,-381.37 721.41,-374.59"/>
</g>
<!-- Node13&#45;&gt;Node3 -->
<g id="edge22" class="edge">
<title>Node13&#45;&gt;Node3</title>
<path fill="none" stroke="midnightblue" d="M1015.42,-314.52C985.29,-300.17 935.12,-276.49 891.5,-257 764.42,-200.22 735.49,-178.18 603.5,-134 556.28,-118.19 500.49,-105.21 463.24,-97.32"/>
<polygon fill="midnightblue" stroke="midnightblue" points="1013.93,-317.69 1024.46,-318.84 1016.94,-311.37 1013.93,-317.69"/>
</g>
<!-- Node14 -->
<g id="node14" class="node">
<title>Node14</title>
<g id="a_node14"><a xlink:href="poll__event_8hpp.html" target="_top" xlink:title=" ">
<polygon fill="none" stroke="black" points="977,-257.5 977,-276.5 1108,-276.5 1108,-257.5 977,-257.5"/>
<text text-anchor="middle" x="1042.5" y="-264.5" font-family="Helvetica,sans-Serif" font-size="10.00">include/zpp/poll_event.hpp</text>
</a>
</g>
</g>
<!-- Node13&#45;&gt;Node14 -->
<g id="edge15" class="edge">
<title>Node13&#45;&gt;Node14</title>
<path fill="none" stroke="midnightblue" d="M1042.5,-308.82C1042.5,-298 1042.5,-284.9 1042.5,-276.51"/>
<polygon fill="midnightblue" stroke="midnightblue" points="1039,-308.98 1042.5,-318.98 1046,-308.98 1039,-308.98"/>
</g>
<!-- Node16 -->
<g id="node16" class="node">
<title>Node16</title>
<g id="a_node16"><a xlink:href="tests_2poll_2src_2main_8cpp.html" target="_top" xlink:title=" ">
<polygon fill="none" stroke="black" points="1039,-78.5 1039,-97.5 1154,-97.5 1154,-78.5 1039,-78.5"/>
<text text-anchor="middle" x="1096.5" y="-85.5" font-family="Helvetica,sans-Serif" font-size="10.00">tests/poll/src/main.cpp</text>
</a>
</g>
</g>
<!-- Node13&#45;&gt;Node16 -->
<g id="edge24" class="edge">
<title>Node13&#45;&gt;Node16</title>
<path fill="none" stroke="midnightblue" d="M1074.9,-314.55C1090.79,-306.34 1108.44,-294.03 1117.5,-277 1150.52,-214.96 1113.66,-125.27 1100.68,-97.51"/>
<polygon fill="midnightblue" stroke="midnightblue" points="1073.32,-311.43 1065.82,-318.91 1076.35,-317.74 1073.32,-311.43"/>
</g>
<!-- Node17 -->
<g id="node17" class="node">
<title>Node17</title>
<g id="a_node17"><a xlink:href="poll__event__set_8hpp.html" target="_top" xlink:title=" ">
<polygon fill="none" stroke="black" points="939,-190.5 939,-220.5 1052,-220.5 1052,-190.5 939,-190.5"/>
<text text-anchor="start" x="947" y="-208.5" font-family="Helvetica,sans-Serif" font-size="10.00">include/zpp/poll_event</text>
<text text-anchor="middle" x="995.5" y="-197.5" font-family="Helvetica,sans-Serif" font-size="10.00">_set.hpp</text>
</a>
</g>
</g>
<!-- Node13&#45;&gt;Node17 -->
<g id="edge21" class="edge">
<title>Node13&#45;&gt;Node17</title>
<path fill="none" stroke="midnightblue" d="M1010.84,-314.61C995.07,-306.38 977.49,-294.01 968.5,-277 958.64,-258.34 971.86,-235.27 983.03,-220.71"/>
<polygon fill="midnightblue" stroke="midnightblue" points="1009.32,-317.76 1019.84,-318.99 1012.38,-311.47 1009.32,-317.76"/>
</g>
<!-- Node13&#45;&gt;Node18 -->
<g id="edge23" class="edge">
<title>Node13&#45;&gt;Node18</title>
<path fill="none" stroke="midnightblue" d="M1077.9,-315.73C1112.7,-304.17 1164.95,-286.8 1195.9,-276.51"/>
<polygon fill="midnightblue" stroke="midnightblue" points="1076.53,-312.5 1068.15,-318.98 1078.74,-319.14 1076.53,-312.5"/>
</g>
<!-- Node13&#45;&gt;Node19 -->
<g id="edge25" class="edge">
<title>Node13&#45;&gt;Node19</title>
<path fill="none" stroke="midnightblue" d="M998.29,-316.69C992.32,-315.37 986.27,-314.1 980.5,-313 935.12,-304.34 811.76,-286.71 737.18,-276.27"/>
<polygon fill="midnightblue" stroke="midnightblue" points="997.65,-320.14 1008.17,-318.94 999.2,-313.31 997.65,-320.14"/>
</g>
<!-- Node13&#45;&gt;Node20 -->
<g id="edge26" class="edge">
<title>Node13&#45;&gt;Node20</title>
<path fill="none" stroke="midnightblue" d="M1000.7,-316.4C957.19,-304.84 890.01,-287 850.53,-276.51"/>
<polygon fill="midnightblue" stroke="midnightblue" points="999.84,-319.79 1010.41,-318.98 1001.64,-313.03 999.84,-319.79"/>
</g>
<!-- Node15 -->
<g id="node15" class="node">
<title>Node15</title>
<g id="a_node15"><a xlink:href="poll_8hpp.html" target="_top" xlink:title=" ">
<polygon fill="none" stroke="black" points="976,-134.5 976,-153.5 1077,-153.5 1077,-134.5 976,-134.5"/>
<text text-anchor="middle" x="1026.5" y="-141.5" font-family="Helvetica,sans-Serif" font-size="10.00">include/zpp/poll.hpp</text>
</a>
</g>
</g>
<!-- Node14&#45;&gt;Node15 -->
<g id="edge16" class="edge">
<title>Node14&#45;&gt;Node15</title>
<path fill="none" stroke="midnightblue" d="M1052.59,-248.42C1060.19,-232.86 1068.23,-209.63 1061.5,-190 1056.49,-175.4 1044.59,-161.88 1036.06,-153.55"/>
<polygon fill="midnightblue" stroke="midnightblue" points="1049.41,-246.95 1047.83,-257.43 1055.6,-250.23 1049.41,-246.95"/>
</g>
<!-- Node14&#45;&gt;Node17 -->
<g id="edge19" class="edge">
<title>Node14&#45;&gt;Node17</title>
<path fill="none" stroke="midnightblue" d="M1029.49,-249.53C1022.29,-240.42 1013.44,-229.21 1006.58,-220.52"/>
<polygon fill="midnightblue" stroke="midnightblue" points="1026.82,-251.8 1035.77,-257.48 1032.31,-247.46 1026.82,-251.8"/>
</g>
<!-- Node15&#45;&gt;Node3 -->
<g id="edge17" class="edge">
<title>Node15&#45;&gt;Node3</title>
<path fill="none" stroke="midnightblue" d="M965.98,-137.6C843.35,-126.65 568.28,-102.1 463.3,-92.73"/>
<polygon fill="midnightblue" stroke="midnightblue" points="965.69,-141.09 975.96,-138.49 966.31,-134.11 965.69,-141.09"/>
</g>
<!-- Node15&#45;&gt;Node16 -->
<g id="edge18" class="edge">
<title>Node15&#45;&gt;Node16</title>
<path fill="none" stroke="midnightblue" d="M1045.81,-128.1C1058.41,-118.38 1074.43,-106.03 1085.05,-97.83"/>
<polygon fill="midnightblue" stroke="midnightblue" points="1043.53,-125.44 1037.75,-134.32 1047.8,-130.99 1043.53,-125.44"/>
</g>
<!-- Node17&#45;&gt;Node15 -->
<g id="edge20" class="edge">
<title>Node17&#45;&gt;Node15</title>
<path fill="none" stroke="midnightblue" d="M1007.48,-181.5C1012.57,-171.74 1018.19,-160.96 1021.99,-153.66"/>
<polygon fill="midnightblue" stroke="midnightblue" points="1004.36,-179.91 1002.85,-190.4 1010.57,-183.15 1004.36,-179.91"/>
</g>
<!-- Node23&#45;&gt;Node3 -->
<g id="edge35" class="edge">
<title>Node23&#45;&gt;Node3</title>
<path fill="none" stroke="midnightblue" d="M195.37,-181.67C206.74,-166 223.78,-145.94 243.5,-134 285.76,-108.41 342.1,-97.31 379.98,-92.53"/>
<polygon fill="midnightblue" stroke="midnightblue" points="192.2,-180.1 189.35,-190.3 197.94,-184.1 192.2,-180.1"/>
</g>
</g>
</svg>
