<?xml version="1.0" encoding="UTF-8" standalone="no"?>
<!DOCTYPE svg PUBLIC "-//W3C//DTD SVG 1.1//EN"
 "http://www.w3.org/Graphics/SVG/1.1/DTD/svg11.dtd">
<!-- Generated by graphviz version 2.44.0 ()
 -->
<!-- Title: include/zpp/sem.hpp Pages: 1 -->
<svg width="1378pt" height="252pt"
 viewBox="0.00 0.00 1377.63 252.00" xmlns="http://www.w3.org/2000/svg" xmlns:xlink="http://www.w3.org/1999/xlink">
<g id="graph0" class="graph" transform="scale(1 1) rotate(0) translate(4 248)">
<title>include/zpp/sem.hpp</title>
<!-- Node1 -->
<g id="node1" class="node">
<title>Node1</title>
<g id="a_node1"><a xlink:title=" ">
<polygon fill="#bfbfbf" stroke="black" points="746.22,-224.5 746.22,-243.5 851.22,-243.5 851.22,-224.5 746.22,-224.5"/>
<text text-anchor="middle" x="798.72" y="-231.5" font-family="Helvetica,sans-Serif" font-size="10.00">include/zpp/sem.hpp</text>
</a>
</g>
</g>
<!-- Node2 -->
<g id="node2" class="node">
<title>Node2</title>
<g id="a_node2"><a xlink:href="thread_8hpp.html" target="_top" xlink:title=" ">
<polygon fill="none" stroke="black" points="634.72,-168.5 634.72,-187.5 714.72,-187.5 714.72,-168.5 634.72,-168.5"/>
<text text-anchor="middle" x="674.72" y="-175.5" font-family="Helvetica,sans-Serif" font-size="10.00">zpp/thread.hpp</text>
</a>
</g>
</g>
<!-- Node1&#45;&gt;Node2 -->
<g id="edge1" class="edge">
<title>Node1&#45;&gt;Node2</title>
<path fill="none" stroke="midnightblue" d="M779.07,-224.44C758.75,-215.6 726.81,-201.69 703.62,-191.59"/>
<polygon fill="midnightblue" stroke="midnightblue" points="704.84,-188.3 694.27,-187.52 702.04,-194.72 704.84,-188.3"/>
</g>
<!-- Node4 -->
<g id="node4" class="node">
<title>Node4</title>
<g id="a_node4"><a xlink:title=" ">
<polygon fill="none" stroke="#bfbfbf" points="434.22,-0.5 434.22,-19.5 515.22,-19.5 515.22,-0.5 434.22,-0.5"/>
<text text-anchor="middle" x="474.72" y="-7.5" font-family="Helvetica,sans-Serif" font-size="10.00">zephyr/kernel.h</text>
</a>
</g>
</g>
<!-- Node1&#45;&gt;Node4 -->
<g id="edge51" class="edge">
<title>Node1&#45;&gt;Node4</title>
<path fill="none" stroke="midnightblue" d="M746.03,-231.02C595.66,-224.57 167.57,-200.51 47.72,-132 20.24,-116.29 14.06,-105.91 3.72,-76 0.81,-67.6 -2.26,-62.58 3.72,-56 31.57,-25.36 307.82,-15.07 423.83,-12.08"/>
<polygon fill="midnightblue" stroke="midnightblue" points="423.98,-15.58 433.89,-11.83 423.8,-8.58 423.98,-15.58"/>
</g>
<!-- Node5 -->
<g id="node5" class="node">
<title>Node5</title>
<g id="a_node5"><a xlink:title=" ">
<polygon fill="none" stroke="#bfbfbf" points="753.72,-0.5 753.72,-19.5 863.72,-19.5 863.72,-0.5 753.72,-0.5"/>
<text text-anchor="middle" x="808.72" y="-7.5" font-family="Helvetica,sans-Serif" font-size="10.00">zephyr/sys/__assert.h</text>
</a>
</g>
</g>
<!-- Node1&#45;&gt;Node5 -->
<g id="edge52" class="edge">
<title>Node1&#45;&gt;Node5</title>
<path fill="none" stroke="midnightblue" d="M851.44,-232.88C1013.66,-230.87 1485.97,-211.83 1342.72,-56 1311.57,-22.12 1009.62,-13.73 874.04,-11.67"/>
<polygon fill="midnightblue" stroke="midnightblue" points="873.84,-8.16 863.79,-11.52 873.74,-15.16 873.84,-8.16"/>
</g>
<!-- Node8 -->
<g id="node8" class="node">
<title>Node8</title>
<g id="a_node8"><a xlink:title=" ">
<polygon fill="none" stroke="#bfbfbf" points="696.72,-56.5 696.72,-75.5 742.72,-75.5 742.72,-56.5 696.72,-56.5"/>
<text text-anchor="middle" x="719.72" y="-63.5" font-family="Helvetica,sans-Serif" font-size="10.00">chrono</text>
</a>
</g>
</g>
<!-- Node1&#45;&gt;Node8 -->
<g id="edge53" class="edge">
<title>Node1&#45;&gt;Node8</title>
<path fill="none" stroke="midnightblue" d="M796.83,-224.35C792.14,-203.86 778.69,-151.18 756.72,-112 750.85,-101.55 742.49,-91.13 735.2,-82.95"/>
<polygon fill="midnightblue" stroke="midnightblue" points="737.76,-80.57 728.39,-75.61 732.62,-85.32 737.76,-80.57"/>
</g>
<!-- Node15 -->
<g id="node15" class="node">
<title>Node15</title>
<g id="a_node15"><a xlink:title=" ">
<polygon fill="none" stroke="#bfbfbf" points="1028.72,-56.5 1028.72,-75.5 1068.72,-75.5 1068.72,-56.5 1028.72,-56.5"/>
<text text-anchor="middle" x="1048.72" y="-63.5" font-family="Helvetica,sans-Serif" font-size="10.00">limits</text>
</a>
</g>
</g>
<!-- Node1&#45;&gt;Node15 -->
<g id="edge54" class="edge">
<title>Node1&#45;&gt;Node15</title>
<path fill="none" stroke="midnightblue" d="M846.97,-224.45C899.34,-212.67 981.87,-186.39 1029.72,-132 1040.99,-119.18 1045.59,-100 1047.46,-85.79"/>
<polygon fill="midnightblue" stroke="midnightblue" points="1050.95,-85.97 1048.44,-75.68 1043.99,-85.29 1050.95,-85.97"/>
</g>
<!-- Node3 -->
<g id="node3" class="node">
<title>Node3</title>
<g id="a_node3"><a xlink:href="thread__prio_8hpp.html" target="_top" xlink:title=" ">
<polygon fill="none" stroke="black" points="577.22,-56.5 577.22,-75.5 678.22,-75.5 678.22,-56.5 577.22,-56.5"/>
<text text-anchor="middle" x="627.72" y="-63.5" font-family="Helvetica,sans-Serif" font-size="10.00">zpp/thread_prio.hpp</text>
</a>
</g>
</g>
<!-- Node2&#45;&gt;Node3 -->
<g id="edge2" class="edge">
<title>Node2&#45;&gt;Node3</title>
<path fill="none" stroke="midnightblue" d="M634.69,-175.5C572.91,-172.25 458.8,-162.21 433.72,-132 428.04,-125.16 428.19,-118.96 433.72,-112 442.15,-101.38 513.11,-86.88 566.79,-77.24"/>
<polygon fill="midnightblue" stroke="midnightblue" points="567.7,-80.63 576.93,-75.44 566.47,-73.74 567.7,-80.63"/>
</g>
<!-- Node2&#45;&gt;Node4 -->
<g id="edge43" class="edge">
<title>Node2&#45;&gt;Node4</title>
<path fill="none" stroke="midnightblue" d="M634.44,-176.76C548.45,-175.51 340.96,-168.6 171.72,-132 98.08,-116.08 55.31,-137.45 11.72,-76 6.57,-68.75 5.74,-62.58 11.72,-56 39.02,-25.92 309.45,-15.32 423.94,-12.17"/>
<polygon fill="midnightblue" stroke="midnightblue" points="424.29,-15.66 434.19,-11.89 424.1,-8.66 424.29,-15.66"/>
</g>
<!-- Node2&#45;&gt;Node5 -->
<g id="edge44" class="edge">
<title>Node2&#45;&gt;Node5</title>
<path fill="none" stroke="midnightblue" d="M715.08,-176.03C826.13,-173 1134.33,-162.04 1230.72,-132 1278.24,-117.19 1302.83,-119.11 1327.72,-76 1332.16,-68.3 1333.72,-62.55 1327.72,-56 1297.63,-23.19 1006.88,-14.23 874.17,-11.84"/>
<polygon fill="midnightblue" stroke="midnightblue" points="874.19,-8.34 864.13,-11.67 874.07,-15.34 874.19,-8.34"/>
</g>
<!-- Node6 -->
<g id="node6" class="node">
<title>Node6</title>
<g id="a_node6"><a xlink:href="thread__id_8hpp.html" target="_top" xlink:title=" ">
<polygon fill="none" stroke="black" points="428.72,-56.5 428.72,-75.5 520.72,-75.5 520.72,-56.5 428.72,-56.5"/>
<text text-anchor="middle" x="474.72" y="-63.5" font-family="Helvetica,sans-Serif" font-size="10.00">zpp/thread_id.hpp</text>
</a>
</g>
</g>
<!-- Node2&#45;&gt;Node6 -->
<g id="edge5" class="edge">
<title>Node2&#45;&gt;Node6</title>
<path fill="none" stroke="midnightblue" d="M634.51,-175.79C570.75,-172.94 450.99,-163.42 424.72,-132 410.46,-114.95 432.18,-94.53 451.3,-81.18"/>
<polygon fill="midnightblue" stroke="midnightblue" points="453.35,-84.02 459.77,-75.59 449.49,-78.18 453.35,-84.02"/>
</g>
<!-- Node7 -->
<g id="node7" class="node">
<title>Node7</title>
<g id="a_node7"><a xlink:href="thread__attr_8hpp.html" target="_top" xlink:title=" ">
<polygon fill="none" stroke="black" points="827.22,-112.5 827.22,-131.5 926.22,-131.5 926.22,-112.5 827.22,-112.5"/>
<text text-anchor="middle" x="876.72" y="-119.5" font-family="Helvetica,sans-Serif" font-size="10.00">zpp/thread_attr.hpp</text>
</a>
</g>
</g>
<!-- Node2&#45;&gt;Node7 -->
<g id="edge8" class="edge">
<title>Node2&#45;&gt;Node7</title>
<path fill="none" stroke="midnightblue" d="M706.72,-168.44C741.44,-159.16 797,-144.31 835.09,-134.13"/>
<polygon fill="midnightblue" stroke="midnightblue" points="836.1,-137.48 844.86,-131.52 834.29,-130.72 836.1,-137.48"/>
</g>
<!-- Node2&#45;&gt;Node8 -->
<g id="edge47" class="edge">
<title>Node2&#45;&gt;Node8</title>
<path fill="none" stroke="midnightblue" d="M697.5,-168.47C713.04,-161.32 732.42,-149.44 741.72,-132 749.91,-116.62 741.56,-97.6 732.9,-84.12"/>
<polygon fill="midnightblue" stroke="midnightblue" points="735.66,-81.96 727.05,-75.78 729.93,-85.98 735.66,-81.96"/>
</g>
<!-- Node9 -->
<g id="node9" class="node">
<title>Node9</title>
<g id="a_node9"><a xlink:title=" ">
<polygon fill="none" stroke="#bfbfbf" points="1087.22,-56.5 1087.22,-75.5 1126.22,-75.5 1126.22,-56.5 1087.22,-56.5"/>
<text text-anchor="middle" x="1106.72" y="-63.5" font-family="Helvetica,sans-Serif" font-size="10.00">utility</text>
</a>
</g>
</g>
<!-- Node2&#45;&gt;Node9 -->
<g id="edge49" class="edge">
<title>Node2&#45;&gt;Node9</title>
<path fill="none" stroke="midnightblue" d="M714.89,-174.78C795.49,-169.85 973.97,-156.47 1029.72,-132 1055.13,-120.85 1078.61,-98.56 1092.8,-83.22"/>
<polygon fill="midnightblue" stroke="midnightblue" points="1095.62,-85.31 1099.68,-75.52 1090.4,-80.65 1095.62,-85.31"/>
</g>
<!-- Node10 -->
<g id="node10" class="node">
<title>Node10</title>
<g id="a_node10"><a xlink:href="thread__data_8hpp.html" target="_top" xlink:title=" ">
<polygon fill="none" stroke="black" points="20.72,-56.5 20.72,-75.5 124.72,-75.5 124.72,-56.5 20.72,-56.5"/>
<text text-anchor="middle" x="72.72" y="-63.5" font-family="Helvetica,sans-Serif" font-size="10.00">zpp/thread_data.hpp</text>
</a>
</g>
</g>
<!-- Node2&#45;&gt;Node10 -->
<g id="edge14" class="edge">
<title>Node2&#45;&gt;Node10</title>
<path fill="none" stroke="midnightblue" d="M634.64,-176.62C556.54,-175.08 378.98,-167.57 234.72,-132 185.07,-119.76 130.49,-95.41 99.05,-80.24"/>
<polygon fill="midnightblue" stroke="midnightblue" points="100.21,-76.91 89.69,-75.66 97.13,-83.2 100.21,-76.91"/>
</g>
<!-- Node12 -->
<g id="node12" class="node">
<title>Node12</title>
<g id="a_node12"><a xlink:href="thread__stack_8hpp.html" target="_top" xlink:title=" ">
<polygon fill="none" stroke="black" points="143.22,-56.5 143.22,-75.5 252.22,-75.5 252.22,-56.5 143.22,-56.5"/>
<text text-anchor="middle" x="197.72" y="-63.5" font-family="Helvetica,sans-Serif" font-size="10.00">zpp/thread_stack.hpp</text>
</a>
</g>
</g>
<!-- Node2&#45;&gt;Node12 -->
<g id="edge18" class="edge">
<title>Node2&#45;&gt;Node12</title>
<path fill="none" stroke="midnightblue" d="M634.53,-175.84C544.74,-172.72 330.62,-162.26 265.72,-132 242.45,-121.16 222.13,-99.13 209.9,-83.74"/>
<polygon fill="midnightblue" stroke="midnightblue" points="212.52,-81.4 203.67,-75.58 206.95,-85.65 212.52,-81.4"/>
</g>
<!-- Node13 -->
<g id="node13" class="node">
<title>Node13</title>
<g id="a_node13"><a xlink:href="clock_8hpp.html" target="_top" xlink:title=" ">
<polygon fill="none" stroke="black" points="944.72,-112.5 944.72,-131.5 1020.72,-131.5 1020.72,-112.5 944.72,-112.5"/>
<text text-anchor="middle" x="982.72" y="-119.5" font-family="Helvetica,sans-Serif" font-size="10.00">zpp/clock.hpp</text>
</a>
</g>
</g>
<!-- Node2&#45;&gt;Node13 -->
<g id="edge22" class="edge">
<title>Node2&#45;&gt;Node13</title>
<path fill="none" stroke="midnightblue" d="M715,-170.29C764.35,-162.02 850.78,-147.37 934.57,-132.18"/>
<polygon fill="midnightblue" stroke="midnightblue" points="935.29,-135.61 944.51,-130.38 934.04,-128.72 935.29,-135.61"/>
</g>
<!-- Node16 -->
<g id="node16" class="node">
<title>Node16</title>
<g id="a_node16"><a xlink:href="result_8hpp.html" target="_top" xlink:title=" ">
<polygon fill="none" stroke="black" points="1116.22,-112.5 1116.22,-131.5 1193.22,-131.5 1193.22,-112.5 1116.22,-112.5"/>
<text text-anchor="middle" x="1154.72" y="-119.5" font-family="Helvetica,sans-Serif" font-size="10.00">zpp/result.hpp</text>
</a>
</g>
</g>
<!-- Node2&#45;&gt;Node16 -->
<g id="edge28" class="edge">
<title>Node2&#45;&gt;Node16</title>
<path fill="none" stroke="midnightblue" d="M714.85,-173.62C790.63,-167.06 959.93,-151.49 1101.72,-132 1103.02,-131.82 1104.33,-131.64 1105.66,-131.44"/>
<polygon fill="midnightblue" stroke="midnightblue" points="1106.61,-134.84 1115.97,-129.87 1105.56,-127.92 1106.61,-134.84"/>
</g>
<!-- Node17 -->
<g id="node17" class="node">
<title>Node17</title>
<g id="a_node17"><a xlink:href="error__code_8hpp.html" target="_top" xlink:title=" ">
<polygon fill="none" stroke="black" points="1220.72,-56.5 1220.72,-75.5 1318.72,-75.5 1318.72,-56.5 1220.72,-56.5"/>
<text text-anchor="middle" x="1269.72" y="-63.5" font-family="Helvetica,sans-Serif" font-size="10.00">zpp/error_code.hpp</text>
</a>
</g>
</g>
<!-- Node2&#45;&gt;Node17 -->
<g id="edge36" class="edge">
<title>Node2&#45;&gt;Node17</title>
<path fill="none" stroke="midnightblue" d="M715.04,-177.03C822.92,-176.56 1115.86,-171.58 1202.72,-132 1225.89,-121.44 1245.86,-99.35 1257.83,-83.86"/>
<polygon fill="midnightblue" stroke="midnightblue" points="1260.77,-85.77 1263.91,-75.65 1255.15,-81.6 1260.77,-85.77"/>
</g>
<!-- Node19 -->
<g id="node19" class="node">
<title>Node19</title>
<g id="a_node19"><a xlink:href="heap_8hpp.html" target="_top" xlink:title=" ">
<polygon fill="none" stroke="black" points="274.72,-112.5 274.72,-131.5 348.72,-131.5 348.72,-112.5 274.72,-112.5"/>
<text text-anchor="middle" x="311.72" y="-119.5" font-family="Helvetica,sans-Serif" font-size="10.00">zpp/heap.hpp</text>
</a>
</g>
</g>
<!-- Node2&#45;&gt;Node19 -->
<g id="edge37" class="edge">
<title>Node2&#45;&gt;Node19</title>
<path fill="none" stroke="midnightblue" d="M634.27,-171.58C574.72,-163.51 459.98,-147.59 362.72,-132 361.44,-131.8 360.15,-131.59 358.85,-131.37"/>
<polygon fill="midnightblue" stroke="midnightblue" points="359.18,-127.88 348.74,-129.67 358.02,-134.78 359.18,-127.88"/>
</g>
<!-- Node22 -->
<g id="node22" class="node">
<title>Node22</title>
<g id="a_node22"><a xlink:title=" ">
<polygon fill="none" stroke="#bfbfbf" points="442.72,-112.5 442.72,-131.5 528.72,-131.5 528.72,-112.5 442.72,-112.5"/>
<text text-anchor="middle" x="485.72" y="-119.5" font-family="Helvetica,sans-Serif" font-size="10.00">zephyr/sys/util.h</text>
</a>
</g>
</g>
<!-- Node2&#45;&gt;Node22 -->
<g id="edge45" class="edge">
<title>Node2&#45;&gt;Node22</title>
<path fill="none" stroke="midnightblue" d="M644.77,-168.44C612.56,-159.24 561.18,-144.56 525.57,-134.39"/>
<polygon fill="midnightblue" stroke="midnightblue" points="526.1,-130.9 515.52,-131.52 524.18,-137.63 526.1,-130.9"/>
</g>
<!-- Node23 -->
<g id="node23" class="node">
<title>Node23</title>
<g id="a_node23"><a xlink:title=" ">
<polygon fill="none" stroke="#bfbfbf" points="547.22,-112.5 547.22,-131.5 606.22,-131.5 606.22,-112.5 547.22,-112.5"/>
<text text-anchor="middle" x="576.72" y="-119.5" font-family="Helvetica,sans-Serif" font-size="10.00">functional</text>
</a>
</g>
</g>
<!-- Node2&#45;&gt;Node23 -->
<g id="edge46" class="edge">
<title>Node2&#45;&gt;Node23</title>
<path fill="none" stroke="midnightblue" d="M658.97,-168.32C643.4,-159.74 619.34,-146.49 601.26,-136.52"/>
<polygon fill="midnightblue" stroke="midnightblue" points="602.87,-133.42 592.42,-131.65 599.49,-139.55 602.87,-133.42"/>
</g>
<!-- Node24 -->
<g id="node24" class="node">
<title>Node24</title>
<g id="a_node24"><a xlink:title=" ">
<polygon fill="none" stroke="#bfbfbf" points="624.72,-112.5 624.72,-131.5 662.72,-131.5 662.72,-112.5 624.72,-112.5"/>
<text text-anchor="middle" x="643.72" y="-119.5" font-family="Helvetica,sans-Serif" font-size="10.00">tuple</text>
</a>
</g>
</g>
<!-- Node2&#45;&gt;Node24 -->
<g id="edge48" class="edge">
<title>Node2&#45;&gt;Node24</title>
<path fill="none" stroke="midnightblue" d="M669.6,-168.08C665.31,-160.61 659.06,-149.72 653.77,-140.52"/>
<polygon fill="midnightblue" stroke="midnightblue" points="656.75,-138.68 648.74,-131.75 650.68,-142.17 656.75,-138.68"/>
</g>
<!-- Node25 -->
<g id="node25" class="node">
<title>Node25</title>
<g id="a_node25"><a xlink:title=" ">
<polygon fill="none" stroke="#bfbfbf" points="681.22,-112.5 681.22,-131.5 732.22,-131.5 732.22,-112.5 681.22,-112.5"/>
<text text-anchor="middle" x="706.72" y="-119.5" font-family="Helvetica,sans-Serif" font-size="10.00">memory</text>
</a>
</g>
</g>
<!-- Node2&#45;&gt;Node25 -->
<g id="edge50" class="edge">
<title>Node2&#45;&gt;Node25</title>
<path fill="none" stroke="midnightblue" d="M680,-168.08C684.43,-160.61 690.88,-149.72 696.33,-140.52"/>
<polygon fill="midnightblue" stroke="midnightblue" points="699.44,-142.14 701.53,-131.75 693.42,-138.57 699.44,-142.14"/>
</g>
<!-- Node3&#45;&gt;Node4 -->
<g id="edge3" class="edge">
<title>Node3&#45;&gt;Node4</title>
<path fill="none" stroke="midnightblue" d="M603.47,-56.44C577.85,-47.4 537.23,-33.06 508.48,-22.92"/>
<polygon fill="midnightblue" stroke="midnightblue" points="509.44,-19.54 498.85,-19.52 507.11,-26.15 509.44,-19.54"/>
</g>
<!-- Node3&#45;&gt;Node5 -->
<g id="edge4" class="edge">
<title>Node3&#45;&gt;Node5</title>
<path fill="none" stroke="midnightblue" d="M656.4,-56.44C687.24,-47.24 736.44,-32.56 770.55,-22.39"/>
<polygon fill="midnightblue" stroke="midnightblue" points="771.59,-25.73 780.17,-19.52 769.59,-19.02 771.59,-25.73"/>
</g>
<!-- Node6&#45;&gt;Node4 -->
<g id="edge6" class="edge">
<title>Node6&#45;&gt;Node4</title>
<path fill="none" stroke="midnightblue" d="M474.72,-56.08C474.72,-49.01 474.72,-38.86 474.72,-29.99"/>
<polygon fill="midnightblue" stroke="midnightblue" points="478.22,-29.75 474.72,-19.75 471.22,-29.75 478.22,-29.75"/>
</g>
<!-- Node6&#45;&gt;Node5 -->
<g id="edge7" class="edge">
<title>Node6&#45;&gt;Node5</title>
<path fill="none" stroke="midnightblue" d="M520.81,-57.55C579.24,-48.1 680.24,-31.77 745.75,-21.18"/>
<polygon fill="midnightblue" stroke="midnightblue" points="746.63,-24.58 755.95,-19.53 745.52,-17.67 746.63,-24.58"/>
</g>
<!-- Node7&#45;&gt;Node3 -->
<g id="edge9" class="edge">
<title>Node7&#45;&gt;Node3</title>
<path fill="none" stroke="midnightblue" d="M837.26,-112.44C793.82,-103.02 723.93,-87.87 676.94,-77.68"/>
<polygon fill="midnightblue" stroke="midnightblue" points="677.5,-74.22 666.99,-75.52 676.02,-81.06 677.5,-74.22"/>
</g>
<!-- Node7&#45;&gt;Node4 -->
<g id="edge10" class="edge">
<title>Node7&#45;&gt;Node4</title>
<path fill="none" stroke="midnightblue" d="M863.47,-112.29C841.32,-98.15 794.9,-70.32 751.72,-56 675.31,-30.66 582.15,-19.28 525.69,-14.4"/>
<polygon fill="midnightblue" stroke="midnightblue" points="525.84,-10.9 515.59,-13.56 525.26,-17.88 525.84,-10.9"/>
</g>
<!-- Node7&#45;&gt;Node5 -->
<g id="edge11" class="edge">
<title>Node7&#45;&gt;Node5</title>
<path fill="none" stroke="midnightblue" d="M871.38,-112.37C860.21,-94.3 834.17,-52.18 819.41,-28.31"/>
<polygon fill="midnightblue" stroke="midnightblue" points="822.26,-26.26 814.03,-19.59 816.31,-29.94 822.26,-26.26"/>
</g>
<!-- Node7&#45;&gt;Node8 -->
<g id="edge12" class="edge">
<title>Node7&#45;&gt;Node8</title>
<path fill="none" stroke="midnightblue" d="M851.84,-112.44C824.96,-103.2 782.02,-88.43 752.42,-78.25"/>
<polygon fill="midnightblue" stroke="midnightblue" points="753.54,-74.93 742.94,-74.99 751.26,-81.55 753.54,-74.93"/>
</g>
<!-- Node7&#45;&gt;Node9 -->
<g id="edge13" class="edge">
<title>Node7&#45;&gt;Node9</title>
<path fill="none" stroke="midnightblue" d="M919.7,-112.43C958.49,-104.45 1017.29,-91.79 1077.46,-75.89"/>
<polygon fill="midnightblue" stroke="midnightblue" points="1078.36,-79.27 1087.12,-73.32 1076.56,-72.51 1078.36,-79.27"/>
</g>
<!-- Node10&#45;&gt;Node4 -->
<g id="edge15" class="edge">
<title>Node10&#45;&gt;Node4</title>
<path fill="none" stroke="midnightblue" d="M124.95,-57.24C127.92,-56.82 130.85,-56.4 133.72,-56 236.59,-41.62 357.09,-26.01 423.78,-17.48"/>
<polygon fill="midnightblue" stroke="midnightblue" points="424.53,-20.91 434.01,-16.17 423.65,-13.96 424.53,-20.91"/>
</g>
<!-- Node10&#45;&gt;Node5 -->
<g id="edge17" class="edge">
<title>Node10&#45;&gt;Node5</title>
<path fill="none" stroke="midnightblue" d="M124.92,-57.02C127.9,-56.65 130.84,-56.31 133.72,-56 356.69,-32.16 622.55,-18.85 743.28,-13.62"/>
<polygon fill="midnightblue" stroke="midnightblue" points="743.62,-17.11 753.46,-13.19 743.32,-10.12 743.62,-17.11"/>
</g>
<!-- Node11 -->
<g id="node11" class="node">
<title>Node11</title>
<g id="a_node11"><a xlink:title=" ">
<polygon fill="none" stroke="#bfbfbf" points="68.72,-0.5 68.72,-19.5 202.72,-19.5 202.72,-0.5 68.72,-0.5"/>
<text text-anchor="middle" x="135.72" y="-7.5" font-family="Helvetica,sans-Serif" font-size="10.00">zephyr/sys/arch_interface.h</text>
</a>
</g>
</g>
<!-- Node10&#45;&gt;Node11 -->
<g id="edge16" class="edge">
<title>Node10&#45;&gt;Node11</title>
<path fill="none" stroke="midnightblue" d="M82.84,-56.32C92.24,-48.26 106.46,-36.08 117.78,-26.37"/>
<polygon fill="midnightblue" stroke="midnightblue" points="120.09,-29 125.41,-19.83 115.54,-23.68 120.09,-29"/>
</g>
<!-- Node12&#45;&gt;Node4 -->
<g id="edge19" class="edge">
<title>Node12&#45;&gt;Node4</title>
<path fill="none" stroke="midnightblue" d="M241.61,-56.44C291.23,-46.77 371.9,-31.04 424.13,-20.86"/>
<polygon fill="midnightblue" stroke="midnightblue" points="425.04,-24.25 434.18,-18.9 423.7,-17.38 425.04,-24.25"/>
</g>
<!-- Node12&#45;&gt;Node5 -->
<g id="edge21" class="edge">
<title>Node12&#45;&gt;Node5</title>
<path fill="none" stroke="midnightblue" d="M252.48,-60.16C365.04,-50.21 622,-27.5 743.18,-16.79"/>
<polygon fill="midnightblue" stroke="midnightblue" points="743.77,-20.25 753.42,-15.89 743.15,-13.28 743.77,-20.25"/>
</g>
<!-- Node12&#45;&gt;Node11 -->
<g id="edge20" class="edge">
<title>Node12&#45;&gt;Node11</title>
<path fill="none" stroke="midnightblue" d="M187.75,-56.32C178.59,-48.34 164.78,-36.31 153.69,-26.65"/>
<polygon fill="midnightblue" stroke="midnightblue" points="155.7,-23.76 145.86,-19.83 151.1,-29.04 155.7,-23.76"/>
</g>
<!-- Node13&#45;&gt;Node4 -->
<g id="edge23" class="edge">
<title>Node13&#45;&gt;Node4</title>
<path fill="none" stroke="midnightblue" d="M961.55,-112.5C926.28,-98.65 853,-71.24 788.72,-56 697.1,-34.28 587.79,-21.5 525.29,-15.4"/>
<polygon fill="midnightblue" stroke="midnightblue" points="525.59,-11.92 515.3,-14.45 524.92,-18.89 525.59,-11.92"/>
</g>
<!-- Node13&#45;&gt;Node5 -->
<g id="edge25" class="edge">
<title>Node13&#45;&gt;Node5</title>
<path fill="none" stroke="midnightblue" d="M985.57,-112.34C989.45,-98.76 994.54,-72.33 981.72,-56 968.2,-38.79 917.08,-26.89 873.89,-19.67"/>
<polygon fill="midnightblue" stroke="midnightblue" points="874.39,-16.2 863.96,-18.06 873.27,-23.11 874.39,-16.2"/>
</g>
<!-- Node13&#45;&gt;Node8 -->
<g id="edge26" class="edge">
<title>Node13&#45;&gt;Node8</title>
<path fill="none" stroke="midnightblue" d="M944.47,-113.15C892.84,-102.55 801.7,-83.83 752.84,-73.8"/>
<polygon fill="midnightblue" stroke="midnightblue" points="753.3,-70.32 742.8,-71.74 751.89,-77.18 753.3,-70.32"/>
</g>
<!-- Node14 -->
<g id="node14" class="node">
<title>Node14</title>
<g id="a_node14"><a xlink:title=" ">
<polygon fill="none" stroke="#bfbfbf" points="874.72,-56.5 874.72,-75.5 972.72,-75.5 972.72,-56.5 874.72,-56.5"/>
<text text-anchor="middle" x="923.72" y="-63.5" font-family="Helvetica,sans-Serif" font-size="10.00">zephyr/sys_clock.h</text>
</a>
</g>
</g>
<!-- Node13&#45;&gt;Node14 -->
<g id="edge24" class="edge">
<title>Node13&#45;&gt;Node14</title>
<path fill="none" stroke="midnightblue" d="M973.24,-112.32C964.51,-104.34 951.37,-92.31 940.82,-82.65"/>
<polygon fill="midnightblue" stroke="midnightblue" points="943.11,-80 933.37,-75.83 938.38,-85.17 943.11,-80"/>
</g>
<!-- Node13&#45;&gt;Node15 -->
<g id="edge27" class="edge">
<title>Node13&#45;&gt;Node15</title>
<path fill="none" stroke="midnightblue" d="M993.32,-112.32C1003.17,-104.26 1018.07,-92.08 1029.93,-82.37"/>
<polygon fill="midnightblue" stroke="midnightblue" points="1032.4,-84.88 1037.92,-75.83 1027.96,-79.46 1032.4,-84.88"/>
</g>
<!-- Node16&#45;&gt;Node4 -->
<g id="edge29" class="edge">
<title>Node16&#45;&gt;Node4</title>
<path fill="none" stroke="midnightblue" d="M1155.05,-112.15C1155.07,-97.81 1152.76,-69.7 1135.72,-56 1112.03,-36.95 676.61,-18.67 525.7,-12.89"/>
<polygon fill="midnightblue" stroke="midnightblue" points="525.46,-9.37 515.34,-12.49 525.2,-16.37 525.46,-9.37"/>
</g>
<!-- Node16&#45;&gt;Node5 -->
<g id="edge30" class="edge">
<title>Node16&#45;&gt;Node5</title>
<path fill="none" stroke="midnightblue" d="M1160.75,-112.25C1169.39,-98.54 1182.77,-71.92 1168.72,-56 1149.57,-34.31 972.44,-20.57 873.98,-14.55"/>
<polygon fill="midnightblue" stroke="midnightblue" points="874.03,-11.04 863.84,-13.94 873.61,-18.03 874.03,-11.04"/>
</g>
<!-- Node16&#45;&gt;Node9 -->
<g id="edge35" class="edge">
<title>Node16&#45;&gt;Node9</title>
<path fill="none" stroke="midnightblue" d="M1146.79,-112.08C1139.87,-104.3 1129.65,-92.8 1121.26,-83.37"/>
<polygon fill="midnightblue" stroke="midnightblue" points="1123.75,-80.9 1114.49,-75.75 1118.52,-85.55 1123.75,-80.9"/>
</g>
<!-- Node16&#45;&gt;Node17 -->
<g id="edge31" class="edge">
<title>Node16&#45;&gt;Node17</title>
<path fill="none" stroke="midnightblue" d="M1172.94,-112.44C1191.61,-103.68 1220.87,-89.94 1242.33,-79.86"/>
<polygon fill="midnightblue" stroke="midnightblue" points="1244.01,-82.93 1251.58,-75.52 1241.04,-76.6 1244.01,-82.93"/>
</g>
<!-- Node17&#45;&gt;Node4 -->
<g id="edge32" class="edge">
<title>Node17&#45;&gt;Node4</title>
<path fill="none" stroke="midnightblue" d="M1220.68,-60.39C1204.17,-58.9 1185.65,-57.3 1168.72,-56 928.23,-37.49 640.48,-20.47 525.66,-13.88"/>
<polygon fill="midnightblue" stroke="midnightblue" points="525.6,-10.37 515.42,-13.3 525.2,-17.36 525.6,-10.37"/>
</g>
<!-- Node17&#45;&gt;Node5 -->
<g id="edge33" class="edge">
<title>Node17&#45;&gt;Node5</title>
<path fill="none" stroke="midnightblue" d="M1220.55,-57.83C1215.88,-57.2 1211.21,-56.57 1206.72,-56 1089.71,-41.03 953.01,-26.14 874.1,-17.8"/>
<polygon fill="midnightblue" stroke="midnightblue" points="874.14,-14.28 863.82,-16.71 873.4,-21.24 874.14,-14.28"/>
</g>
<!-- Node18 -->
<g id="node18" class="node">
<title>Node18</title>
<g id="a_node18"><a xlink:title=" ">
<polygon fill="none" stroke="#bfbfbf" points="1246.72,-0.5 1246.72,-19.5 1292.72,-19.5 1292.72,-0.5 1246.72,-0.5"/>
<text text-anchor="middle" x="1269.72" y="-7.5" font-family="Helvetica,sans-Serif" font-size="10.00">errno.h</text>
</a>
</g>
</g>
<!-- Node17&#45;&gt;Node18 -->
<g id="edge34" class="edge">
<title>Node17&#45;&gt;Node18</title>
<path fill="none" stroke="midnightblue" d="M1269.72,-56.08C1269.72,-49.01 1269.72,-38.86 1269.72,-29.99"/>
<polygon fill="midnightblue" stroke="midnightblue" points="1273.22,-29.75 1269.72,-19.75 1266.22,-29.75 1273.22,-29.75"/>
</g>
<!-- Node19&#45;&gt;Node4 -->
<g id="edge38" class="edge">
<title>Node19&#45;&gt;Node4</title>
<path fill="none" stroke="midnightblue" d="M306.33,-112.43C298.64,-98.97 286.78,-72.69 299.72,-56 314.86,-36.47 377.67,-23.93 423.72,-17.18"/>
<polygon fill="midnightblue" stroke="midnightblue" points="424.45,-20.61 433.86,-15.74 423.47,-13.68 424.45,-20.61"/>
</g>
<!-- Node19&#45;&gt;Node5 -->
<g id="edge39" class="edge">
<title>Node19&#45;&gt;Node5</title>
<path fill="none" stroke="midnightblue" d="M348.79,-116.46C392.84,-110.36 468.12,-97.7 529.72,-76 548.09,-69.53 550.28,-62.3 568.72,-56 626.2,-36.34 694.53,-24.59 743.56,-18.05"/>
<polygon fill="midnightblue" stroke="midnightblue" points="744.25,-21.49 753.71,-16.74 743.35,-14.55 744.25,-21.49"/>
</g>
<!-- Node19&#45;&gt;Node8 -->
<g id="edge40" class="edge">
<title>Node19&#45;&gt;Node8</title>
<path fill="none" stroke="midnightblue" d="M348.84,-118.48C414.93,-113.57 557.41,-101.12 686.35,-76"/>
<polygon fill="midnightblue" stroke="midnightblue" points="687.27,-79.38 696.4,-74.01 685.91,-72.52 687.27,-79.38"/>
</g>
<!-- Node20 -->
<g id="node20" class="node">
<title>Node20</title>
<g id="a_node20"><a xlink:title=" ">
<polygon fill="none" stroke="#bfbfbf" points="372.72,-56.5 372.72,-75.5 410.72,-75.5 410.72,-56.5 372.72,-56.5"/>
<text text-anchor="middle" x="391.72" y="-63.5" font-family="Helvetica,sans-Serif" font-size="10.00">array</text>
</a>
</g>
</g>
<!-- Node19&#45;&gt;Node20 -->
<g id="edge41" class="edge">
<title>Node19&#45;&gt;Node20</title>
<path fill="none" stroke="midnightblue" d="M324.57,-112.32C336.93,-103.98 355.85,-91.21 370.45,-81.35"/>
<polygon fill="midnightblue" stroke="midnightblue" points="372.56,-84.15 378.89,-75.65 368.65,-78.35 372.56,-84.15"/>
</g>
<!-- Node21 -->
<g id="node21" class="node">
<title>Node21</title>
<g id="a_node21"><a xlink:title=" ">
<polygon fill="none" stroke="#bfbfbf" points="308.72,-56.5 308.72,-75.5 354.72,-75.5 354.72,-56.5 308.72,-56.5"/>
<text text-anchor="middle" x="331.72" y="-63.5" font-family="Helvetica,sans-Serif" font-size="10.00">cstdint</text>
</a>
</g>
</g>
<!-- Node19&#45;&gt;Node21 -->
<g id="edge42" class="edge">
<title>Node19&#45;&gt;Node21</title>
<path fill="none" stroke="midnightblue" d="M315.02,-112.08C317.7,-104.85 321.56,-94.41 324.9,-85.4"/>
<polygon fill="midnightblue" stroke="midnightblue" points="328.28,-86.34 328.47,-75.75 321.72,-83.91 328.28,-86.34"/>
</g>
</g>
</svg>
