<?xml version="1.0" encoding="UTF-8" standalone="no"?>
<!DOCTYPE svg PUBLIC "-//W3C//DTD SVG 1.1//EN"
 "http://www.w3.org/Graphics/SVG/1.1/DTD/svg11.dtd">
<!-- Generated by graphviz version 2.44.0 ()
 -->
<!-- Title: include/zpp/sem.hpp Pages: 1 -->
<svg width="1025pt" height="341pt"
 viewBox="0.00 0.00 1025.00 341.00" xmlns="http://www.w3.org/2000/svg" xmlns:xlink="http://www.w3.org/1999/xlink">
<g id="graph0" class="graph" transform="scale(1 1) rotate(0) translate(4 337)">
<title>include/zpp/sem.hpp</title>
<!-- Node1 -->
<g id="node1" class="node">
<title>Node1</title>
<g id="a_node1"><a xlink:title=" ">
<polygon fill="#bfbfbf" stroke="black" points="541,-313.5 541,-332.5 646,-332.5 646,-313.5 541,-313.5"/>
<text text-anchor="middle" x="593.5" y="-320.5" font-family="Helvetica,sans-Serif" font-size="10.00">include/zpp/sem.hpp</text>
</a>
</g>
</g>
<!-- Node2 -->
<g id="node2" class="node">
<title>Node2</title>
<g id="a_node2"><a xlink:href="poll__event_8hpp.html" target="_top" xlink:title=" ">
<polygon fill="none" stroke="black" points="396,-257.5 396,-276.5 527,-276.5 527,-257.5 396,-257.5"/>
<text text-anchor="middle" x="461.5" y="-264.5" font-family="Helvetica,sans-Serif" font-size="10.00">include/zpp/poll_event.hpp</text>
</a>
</g>
</g>
<!-- Node1&#45;&gt;Node2 -->
<g id="edge1" class="edge">
<title>Node1&#45;&gt;Node2</title>
<path fill="none" stroke="midnightblue" d="M563.28,-309.64C538.51,-299.5 504.1,-285.43 482.32,-276.52"/>
<polygon fill="midnightblue" stroke="midnightblue" points="562,-312.9 572.58,-313.44 564.65,-306.42 562,-312.9"/>
</g>
<!-- Node4 -->
<g id="node4" class="node">
<title>Node4</title>
<g id="a_node4"><a xlink:href="zpp_8hpp.html" target="_top" xlink:title=" ">
<polygon fill="none" stroke="black" points="380,-78.5 380,-97.5 463,-97.5 463,-78.5 380,-78.5"/>
<text text-anchor="middle" x="421.5" y="-85.5" font-family="Helvetica,sans-Serif" font-size="10.00">include/zpp.hpp</text>
</a>
</g>
</g>
<!-- Node1&#45;&gt;Node4 -->
<g id="edge14" class="edge">
<title>Node1&#45;&gt;Node4</title>
<path fill="none" stroke="midnightblue" d="M530.62,-316.88C476.51,-311.01 404.39,-299.19 386.5,-277 341.71,-221.42 396.84,-126.59 415.65,-97.65"/>
<polygon fill="midnightblue" stroke="midnightblue" points="530.54,-320.39 540.84,-317.94 531.26,-313.42 530.54,-320.39"/>
</g>
<!-- Node11 -->
<g id="node11" class="node">
<title>Node11</title>
<g id="a_node11"><a xlink:href="tests_2poll_2src_2main_8cpp.html" target="_top" xlink:title=" ">
<polygon fill="none" stroke="black" points="487,-78.5 487,-97.5 602,-97.5 602,-78.5 487,-78.5"/>
<text text-anchor="middle" x="544.5" y="-85.5" font-family="Helvetica,sans-Serif" font-size="10.00">tests/poll/src/main.cpp</text>
</a>
</g>
</g>
<!-- Node1&#45;&gt;Node11 -->
<g id="edge16" class="edge">
<title>Node1&#45;&gt;Node11</title>
<path fill="none" stroke="midnightblue" d="M591.65,-303.06C588.94,-277.29 583.23,-229.81 574.5,-190 566.86,-155.16 553.45,-114.79 547.5,-97.54"/>
<polygon fill="midnightblue" stroke="midnightblue" points="588.2,-303.68 592.69,-313.27 595.16,-302.97 588.2,-303.68"/>
</g>
<!-- Node12 -->
<g id="node12" class="node">
<title>Node12</title>
<g id="a_node12"><a xlink:href="poll__event__set_8hpp.html" target="_top" xlink:title=" ">
<polygon fill="none" stroke="black" points="452,-190.5 452,-220.5 565,-220.5 565,-190.5 452,-190.5"/>
<text text-anchor="start" x="460" y="-208.5" font-family="Helvetica,sans-Serif" font-size="10.00">include/zpp/poll_event</text>
<text text-anchor="middle" x="508.5" y="-197.5" font-family="Helvetica,sans-Serif" font-size="10.00">_set.hpp</text>
</a>
</g>
</g>
<!-- Node1&#45;&gt;Node12 -->
<g id="edge13" class="edge">
<title>Node1&#45;&gt;Node12</title>
<path fill="none" stroke="midnightblue" d="M581.17,-305.24C564.35,-282.39 534.54,-241.88 518.84,-220.55"/>
<polygon fill="midnightblue" stroke="midnightblue" points="578.36,-307.34 587.11,-313.32 584,-303.19 578.36,-307.34"/>
</g>
<!-- Node13 -->
<g id="node13" class="node">
<title>Node13</title>
<g id="a_node13"><a xlink:href="tests_2fifo_2src_2main_8cpp.html" target="_top" xlink:title=" ">
<polygon fill="none" stroke="black" points="622,-257.5 622,-276.5 735,-276.5 735,-257.5 622,-257.5"/>
<text text-anchor="middle" x="678.5" y="-264.5" font-family="Helvetica,sans-Serif" font-size="10.00">tests/fifo/src/main.cpp</text>
</a>
</g>
</g>
<!-- Node1&#45;&gt;Node13 -->
<g id="edge15" class="edge">
<title>Node1&#45;&gt;Node13</title>
<path fill="none" stroke="midnightblue" d="M615.69,-307.9C631.28,-298 651.63,-285.07 664.88,-276.65"/>
<polygon fill="midnightblue" stroke="midnightblue" points="613.72,-305.01 607.16,-313.32 617.47,-310.92 613.72,-305.01"/>
</g>
<!-- Node14 -->
<g id="node14" class="node">
<title>Node14</title>
<g id="a_node14"><a xlink:href="tests_2sem_2src_2main_8cpp.html" target="_top" xlink:title=" ">
<polygon fill="none" stroke="black" points="753,-257.5 753,-276.5 872,-276.5 872,-257.5 753,-257.5"/>
<text text-anchor="middle" x="812.5" y="-264.5" font-family="Helvetica,sans-Serif" font-size="10.00">tests/sem/src/main.cpp</text>
</a>
</g>
</g>
<!-- Node1&#45;&gt;Node14 -->
<g id="edge17" class="edge">
<title>Node1&#45;&gt;Node14</title>
<path fill="none" stroke="midnightblue" d="M638.01,-311.02C679.38,-300.82 740.14,-285.84 777.96,-276.52"/>
<polygon fill="midnightblue" stroke="midnightblue" points="637.07,-307.65 628.2,-313.44 638.75,-314.45 637.07,-307.65"/>
</g>
<!-- Node15 -->
<g id="node15" class="node">
<title>Node15</title>
<g id="a_node15"><a xlink:href="tests_2thread_2src_2main_8cpp.html" target="_top" xlink:title=" ">
<polygon fill="none" stroke="black" points="890,-257.5 890,-276.5 1017,-276.5 1017,-257.5 890,-257.5"/>
<text text-anchor="middle" x="953.5" y="-264.5" font-family="Helvetica,sans-Serif" font-size="10.00">tests/thread/src/main.cpp</text>
</a>
</g>
</g>
<!-- Node1&#45;&gt;Node15 -->
<g id="edge18" class="edge">
<title>Node1&#45;&gt;Node15</title>
<path fill="none" stroke="midnightblue" d="M656.36,-312.57C724.23,-302.39 831.38,-286.32 896.76,-276.51"/>
<polygon fill="midnightblue" stroke="midnightblue" points="655.6,-309.15 646.23,-314.09 656.64,-316.07 655.6,-309.15"/>
</g>
<!-- Node3 -->
<g id="node3" class="node">
<title>Node3</title>
<g id="a_node3"><a xlink:href="poll_8hpp.html" target="_top" xlink:title=" ">
<polygon fill="none" stroke="black" points="446,-134.5 446,-153.5 547,-153.5 547,-134.5 446,-134.5"/>
<text text-anchor="middle" x="496.5" y="-141.5" font-family="Helvetica,sans-Serif" font-size="10.00">include/zpp/poll.hpp</text>
</a>
</g>
</g>
<!-- Node2&#45;&gt;Node3 -->
<g id="edge2" class="edge">
<title>Node2&#45;&gt;Node3</title>
<path fill="none" stroke="midnightblue" d="M450.63,-248.46C442.3,-232.63 433.61,-208.97 442.5,-190 450.16,-173.64 467.01,-161.16 479.87,-153.54"/>
<polygon fill="midnightblue" stroke="midnightblue" points="447.62,-250.24 455.61,-257.2 453.7,-246.78 447.62,-250.24"/>
</g>
<!-- Node2&#45;&gt;Node12 -->
<g id="edge11" class="edge">
<title>Node2&#45;&gt;Node12</title>
<path fill="none" stroke="midnightblue" d="M474.51,-249.53C481.71,-240.42 490.56,-229.21 497.42,-220.52"/>
<polygon fill="midnightblue" stroke="midnightblue" points="471.69,-247.46 468.23,-257.48 477.18,-251.8 471.69,-247.46"/>
</g>
<!-- Node3&#45;&gt;Node4 -->
<g id="edge3" class="edge">
<title>Node3&#45;&gt;Node4</title>
<path fill="none" stroke="midnightblue" d="M476.19,-128.38C462.64,-118.62 445.26,-106.11 433.77,-97.83"/>
<polygon fill="midnightblue" stroke="midnightblue" points="474.29,-131.32 484.45,-134.32 478.38,-125.64 474.29,-131.32"/>
</g>
<!-- Node3&#45;&gt;Node11 -->
<g id="edge10" class="edge">
<title>Node3&#45;&gt;Node11</title>
<path fill="none" stroke="midnightblue" d="M511.23,-126.43C519.64,-116.97 529.85,-105.48 536.72,-97.75"/>
<polygon fill="midnightblue" stroke="midnightblue" points="508.45,-124.28 504.43,-134.08 513.69,-128.93 508.45,-124.28"/>
</g>
<!-- Node5 -->
<g id="node5" class="node">
<title>Node5</title>
<g id="a_node5"><a xlink:href="samples_2hello__world_2src_2main_8cpp.html" target="_top" xlink:title=" ">
<polygon fill="none" stroke="black" points="0,-6 0,-36 105,-36 105,-6 0,-6"/>
<text text-anchor="start" x="8" y="-24" font-family="Helvetica,sans-Serif" font-size="10.00">samples/hello_world</text>
<text text-anchor="middle" x="52.5" y="-13" font-family="Helvetica,sans-Serif" font-size="10.00">/src/main.cpp</text>
</a>
</g>
</g>
<!-- Node4&#45;&gt;Node5 -->
<g id="edge4" class="edge">
<title>Node4&#45;&gt;Node5</title>
<path fill="none" stroke="midnightblue" d="M369.48,-82.15C307.83,-75.78 202.26,-62.87 113.5,-42 106.45,-40.34 99.04,-38.24 91.92,-36.02"/>
<polygon fill="midnightblue" stroke="midnightblue" points="369.42,-85.67 379.73,-83.2 370.13,-78.7 369.42,-85.67"/>
</g>
<!-- Node6 -->
<g id="node6" class="node">
<title>Node6</title>
<g id="a_node6"><a xlink:href="samples_2kernel_2condition__variables_2condvar_2src_2main_8cpp.html" target="_top" xlink:title=" ">
<polygon fill="none" stroke="black" points="123,-0.5 123,-41.5 248,-41.5 248,-0.5 123,-0.5"/>
<text text-anchor="start" x="131" y="-29.5" font-family="Helvetica,sans-Serif" font-size="10.00">samples/kernel/condition</text>
<text text-anchor="start" x="131" y="-18.5" font-family="Helvetica,sans-Serif" font-size="10.00">_variables/condvar/src</text>
<text text-anchor="middle" x="185.5" y="-7.5" font-family="Helvetica,sans-Serif" font-size="10.00">/main.cpp</text>
</a>
</g>
</g>
<!-- Node4&#45;&gt;Node6 -->
<g id="edge5" class="edge">
<title>Node4&#45;&gt;Node6</title>
<path fill="none" stroke="midnightblue" d="M379.98,-75.78C346.6,-66.73 298.51,-53.64 256.5,-42 253.79,-41.25 251.01,-40.48 248.21,-39.7"/>
<polygon fill="midnightblue" stroke="midnightblue" points="379.28,-79.22 389.85,-78.45 381.11,-72.46 379.28,-79.22"/>
</g>
<!-- Node7 -->
<g id="node7" class="node">
<title>Node7</title>
<g id="a_node7"><a xlink:href="samples_2kernel_2condition__variables_2simple_2src_2main_8cpp.html" target="_top" xlink:title=" ">
<polygon fill="none" stroke="black" points="266,-6 266,-36 417,-36 417,-6 266,-6"/>
<text text-anchor="start" x="274" y="-24" font-family="Helvetica,sans-Serif" font-size="10.00">samples/kernel/condition</text>
<text text-anchor="middle" x="341.5" y="-13" font-family="Helvetica,sans-Serif" font-size="10.00">_variables/simple/src/main.cpp</text>
</a>
</g>
</g>
<!-- Node4&#45;&gt;Node7 -->
<g id="edge6" class="edge">
<title>Node4&#45;&gt;Node7</title>
<path fill="none" stroke="midnightblue" d="M402.71,-71.74C389.44,-60.95 371.78,-46.6 358.84,-36.09"/>
<polygon fill="midnightblue" stroke="midnightblue" points="400.74,-74.64 410.71,-78.23 405.16,-69.21 400.74,-74.64"/>
</g>
<!-- Node8 -->
<g id="node8" class="node">
<title>Node8</title>
<g id="a_node8"><a xlink:href="tests_2compile_2src_2main_8cpp.html" target="_top" xlink:title=" ">
<polygon fill="none" stroke="black" points="435.5,-11.5 435.5,-30.5 569.5,-30.5 569.5,-11.5 435.5,-11.5"/>
<text text-anchor="middle" x="502.5" y="-18.5" font-family="Helvetica,sans-Serif" font-size="10.00">tests/compile/src/main.cpp</text>
</a>
</g>
</g>
<!-- Node4&#45;&gt;Node8 -->
<g id="edge7" class="edge">
<title>Node4&#45;&gt;Node8</title>
<path fill="none" stroke="midnightblue" d="M440.55,-71.71C456.51,-58.91 478.71,-41.09 491.75,-30.63"/>
<polygon fill="midnightblue" stroke="midnightblue" points="438.03,-69.25 432.42,-78.23 442.41,-74.7 438.03,-69.25"/>
</g>
<!-- Node9 -->
<g id="node9" class="node">
<title>Node9</title>
<g id="a_node9"><a xlink:href="tests_2condition__variable_2src_2main_8cpp.html" target="_top" xlink:title=" ">
<polygon fill="none" stroke="black" points="588,-6 588,-36 707,-36 707,-6 588,-6"/>
<text text-anchor="start" x="596" y="-24" font-family="Helvetica,sans-Serif" font-size="10.00">tests/condition_variable</text>
<text text-anchor="middle" x="647.5" y="-13" font-family="Helvetica,sans-Serif" font-size="10.00">/src/main.cpp</text>
</a>
</g>
</g>
<!-- Node4&#45;&gt;Node9 -->
<g id="edge8" class="edge">
<title>Node4&#45;&gt;Node9</title>
<path fill="none" stroke="midnightblue" d="M461.11,-75.68C492.86,-66.6 538.55,-53.52 578.5,-42 585.21,-40.07 592.29,-38.02 599.25,-36.01"/>
<polygon fill="midnightblue" stroke="midnightblue" points="459.97,-72.37 451.31,-78.48 461.89,-79.1 459.97,-72.37"/>
</g>
<!-- Node10 -->
<g id="node10" class="node">
<title>Node10</title>
<g id="a_node10"><a xlink:href="tests_2result_2src_2main_8cpp.html" target="_top" xlink:title=" ">
<polygon fill="none" stroke="black" points="725.5,-11.5 725.5,-30.5 849.5,-30.5 849.5,-11.5 725.5,-11.5"/>
<text text-anchor="middle" x="787.5" y="-18.5" font-family="Helvetica,sans-Serif" font-size="10.00">tests/result/src/main.cpp</text>
</a>
</g>
</g>
<!-- Node4&#45;&gt;Node10 -->
<g id="edge9" class="edge">
<title>Node4&#45;&gt;Node10</title>
<path fill="none" stroke="midnightblue" d="M473.32,-78.8C475.07,-78.53 476.8,-78.26 478.5,-78 584.23,-61.66 611.92,-64.55 716.5,-42 731.02,-38.87 746.96,-34.47 760.05,-30.59"/>
<polygon fill="midnightblue" stroke="midnightblue" points="472.55,-75.38 463.21,-80.38 473.63,-82.3 472.55,-75.38"/>
</g>
<!-- Node12&#45;&gt;Node3 -->
<g id="edge12" class="edge">
<title>Node12&#45;&gt;Node3</title>
<path fill="none" stroke="midnightblue" d="M503.68,-180.59C501.76,-171.08 499.67,-160.73 498.25,-153.66"/>
<polygon fill="midnightblue" stroke="midnightblue" points="500.25,-181.29 505.66,-190.4 507.11,-179.9 500.25,-181.29"/>
</g>
</g>
</svg>
