<?xml version="1.0" encoding="UTF-8" standalone="no"?>
<!DOCTYPE svg PUBLIC "-//W3C//DTD SVG 1.1//EN"
 "http://www.w3.org/Graphics/SVG/1.1/DTD/svg11.dtd">
<!-- Generated by graphviz version 2.44.0 ()
 -->
<!-- Title: include/zpp/thread_stack.hpp Pages: 1 -->
<svg width="1253pt" height="464pt"
 viewBox="0.00 0.00 1252.50 464.00" xmlns="http://www.w3.org/2000/svg" xmlns:xlink="http://www.w3.org/1999/xlink">
<g id="graph0" class="graph" transform="scale(1 1) rotate(0) translate(4 460)">
<title>include/zpp/thread_stack.hpp</title>
<!-- Node1 -->
<g id="node1" class="node">
<title>Node1</title>
<g id="a_node1"><a xlink:title=" ">
<polygon fill="#bfbfbf" stroke="black" points="742,-425.5 742,-455.5 837,-455.5 837,-425.5 742,-425.5"/>
<text text-anchor="start" x="750" y="-443.5" font-family="Helvetica,sans-Serif" font-size="10.00">include/zpp/thread</text>
<text text-anchor="middle" x="789.5" y="-432.5" font-family="Helvetica,sans-Serif" font-size="10.00">_stack.hpp</text>
</a>
</g>
</g>
<!-- Node2 -->
<g id="node2" class="node">
<title>Node2</title>
<g id="a_node2"><a xlink:href="thread_8hpp.html" target="_top" xlink:title=" ">
<polygon fill="none" stroke="black" points="733,-369.5 733,-388.5 846,-388.5 846,-369.5 733,-369.5"/>
<text text-anchor="middle" x="789.5" y="-376.5" font-family="Helvetica,sans-Serif" font-size="10.00">include/zpp/thread.hpp</text>
</a>
</g>
</g>
<!-- Node1&#45;&gt;Node2 -->
<g id="edge1" class="edge">
<title>Node1&#45;&gt;Node2</title>
<path fill="none" stroke="midnightblue" d="M789.5,-415.29C789.5,-405.86 789.5,-395.65 789.5,-388.66"/>
<polygon fill="midnightblue" stroke="midnightblue" points="786,-415.4 789.5,-425.4 793,-415.4 786,-415.4"/>
</g>
<!-- Node3 -->
<g id="node3" class="node">
<title>Node3</title>
<g id="a_node3"><a xlink:href="sem_8hpp.html" target="_top" xlink:title=" ">
<polygon fill="none" stroke="black" points="597,-313.5 597,-332.5 702,-332.5 702,-313.5 597,-313.5"/>
<text text-anchor="middle" x="649.5" y="-320.5" font-family="Helvetica,sans-Serif" font-size="10.00">include/zpp/sem.hpp</text>
</a>
</g>
</g>
<!-- Node2&#45;&gt;Node3 -->
<g id="edge2" class="edge">
<title>Node2&#45;&gt;Node3</title>
<path fill="none" stroke="midnightblue" d="M757.8,-365.77C731.5,-355.63 694.78,-341.47 671.58,-332.52"/>
<polygon fill="midnightblue" stroke="midnightblue" points="756.73,-369.11 767.32,-369.44 759.25,-362.58 756.73,-369.11"/>
</g>
<!-- Node6 -->
<g id="node6" class="node">
<title>Node6</title>
<g id="a_node6"><a xlink:href="zpp_8hpp.html" target="_top" xlink:title=" ">
<polygon fill="none" stroke="black" points="380,-78.5 380,-97.5 463,-97.5 463,-78.5 380,-78.5"/>
<text text-anchor="middle" x="421.5" y="-85.5" font-family="Helvetica,sans-Serif" font-size="10.00">include/zpp.hpp</text>
</a>
</g>
</g>
<!-- Node2&#45;&gt;Node6 -->
<g id="edge21" class="edge">
<title>Node2&#45;&gt;Node6</title>
<path fill="none" stroke="midnightblue" d="M722.48,-373.67C607.18,-364.37 383.5,-337.38 383.5,-268 383.5,-268 383.5,-268 383.5,-204.5 383.5,-162.7 406.23,-116.47 416.53,-97.66"/>
<polygon fill="midnightblue" stroke="midnightblue" points="722.38,-377.17 732.62,-374.47 722.92,-370.2 722.38,-377.17"/>
</g>
<!-- Node15 -->
<g id="node15" class="node">
<title>Node15</title>
<g id="a_node15"><a xlink:href="tests_2fifo_2src_2main_8cpp.html" target="_top" xlink:title=" ">
<polygon fill="none" stroke="black" points="676,-257.5 676,-276.5 789,-276.5 789,-257.5 676,-257.5"/>
<text text-anchor="middle" x="732.5" y="-264.5" font-family="Helvetica,sans-Serif" font-size="10.00">tests/fifo/src/main.cpp</text>
</a>
</g>
</g>
<!-- Node2&#45;&gt;Node15 -->
<g id="edge23" class="edge">
<title>Node2&#45;&gt;Node15</title>
<path fill="none" stroke="midnightblue" d="M775.47,-361.23C769.1,-353.07 761.82,-342.9 756.5,-333 746.25,-313.93 738.55,-289.54 734.88,-276.74"/>
<polygon fill="midnightblue" stroke="midnightblue" points="772.88,-363.6 781.88,-369.19 778.33,-359.21 772.88,-363.6"/>
</g>
<!-- Node16 -->
<g id="node16" class="node">
<title>Node16</title>
<g id="a_node16"><a xlink:href="tests_2sem_2src_2main_8cpp.html" target="_top" xlink:title=" ">
<polygon fill="none" stroke="black" points="807,-257.5 807,-276.5 926,-276.5 926,-257.5 807,-257.5"/>
<text text-anchor="middle" x="866.5" y="-264.5" font-family="Helvetica,sans-Serif" font-size="10.00">tests/sem/src/main.cpp</text>
</a>
</g>
</g>
<!-- Node2&#45;&gt;Node16 -->
<g id="edge25" class="edge">
<title>Node2&#45;&gt;Node16</title>
<path fill="none" stroke="midnightblue" d="M786.64,-359.04C785.55,-345.29 786.16,-326.77 794.5,-313 805.11,-295.47 825.43,-283.71 841.78,-276.62"/>
<polygon fill="midnightblue" stroke="midnightblue" points="783.2,-359.74 787.84,-369.26 790.15,-358.92 783.2,-359.74"/>
</g>
<!-- Node17 -->
<g id="node17" class="node">
<title>Node17</title>
<g id="a_node17"><a xlink:href="tests_2thread_2src_2main_8cpp.html" target="_top" xlink:title=" ">
<polygon fill="none" stroke="black" points="944,-257.5 944,-276.5 1071,-276.5 1071,-257.5 944,-257.5"/>
<text text-anchor="middle" x="1007.5" y="-264.5" font-family="Helvetica,sans-Serif" font-size="10.00">tests/thread/src/main.cpp</text>
</a>
</g>
</g>
<!-- Node2&#45;&gt;Node17 -->
<g id="edge26" class="edge">
<title>Node2&#45;&gt;Node17</title>
<path fill="none" stroke="midnightblue" d="M795.91,-359.75C802.03,-344.97 812.68,-324.74 828.5,-313 848.44,-298.2 909.86,-284.83 955.21,-276.58"/>
<polygon fill="midnightblue" stroke="midnightblue" points="792.54,-358.76 792.24,-369.35 799.08,-361.26 792.54,-358.76"/>
</g>
<!-- Node18 -->
<g id="node18" class="node">
<title>Node18</title>
<g id="a_node18"><a xlink:href="tests_2clock_2src_2main_8cpp.html" target="_top" xlink:title=" ">
<polygon fill="none" stroke="black" points="837,-313.5 837,-332.5 960,-332.5 960,-313.5 837,-313.5"/>
<text text-anchor="middle" x="898.5" y="-320.5" font-family="Helvetica,sans-Serif" font-size="10.00">tests/clock/src/main.cpp</text>
</a>
</g>
</g>
<!-- Node2&#45;&gt;Node18 -->
<g id="edge22" class="edge">
<title>Node2&#45;&gt;Node18</title>
<path fill="none" stroke="midnightblue" d="M816.02,-364.86C836.23,-354.85 863.49,-341.35 881.03,-332.65"/>
<polygon fill="midnightblue" stroke="midnightblue" points="814.42,-361.75 807.01,-369.32 817.53,-368.02 814.42,-361.75"/>
</g>
<!-- Node19 -->
<g id="node19" class="node">
<title>Node19</title>
<g id="a_node19"><a xlink:href="tests_2mutex_2src_2main_8cpp.html" target="_top" xlink:title=" ">
<polygon fill="none" stroke="black" points="978.5,-313.5 978.5,-332.5 1104.5,-332.5 1104.5,-313.5 978.5,-313.5"/>
<text text-anchor="middle" x="1041.5" y="-320.5" font-family="Helvetica,sans-Serif" font-size="10.00">tests/mutex/src/main.cpp</text>
</a>
</g>
</g>
<!-- Node2&#45;&gt;Node19 -->
<g id="edge24" class="edge">
<title>Node2&#45;&gt;Node19</title>
<path fill="none" stroke="midnightblue" d="M839.22,-367.35C886.84,-357.14 957.78,-341.94 1001.76,-332.52"/>
<polygon fill="midnightblue" stroke="midnightblue" points="838.47,-363.93 829.43,-369.44 839.94,-370.77 838.47,-363.93"/>
</g>
<!-- Node20 -->
<g id="node20" class="node">
<title>Node20</title>
<g id="a_node20"><a xlink:href="tests_2timer_2src_2main_8cpp.html" target="_top" xlink:title=" ">
<polygon fill="none" stroke="black" points="1122.5,-313.5 1122.5,-332.5 1244.5,-332.5 1244.5,-313.5 1122.5,-313.5"/>
<text text-anchor="middle" x="1183.5" y="-320.5" font-family="Helvetica,sans-Serif" font-size="10.00">tests/timer/src/main.cpp</text>
</a>
</g>
</g>
<!-- Node2&#45;&gt;Node20 -->
<g id="edge27" class="edge">
<title>Node2&#45;&gt;Node20</title>
<path fill="none" stroke="midnightblue" d="M856.58,-368.81C931.11,-358.59 1050.42,-342.24 1122.44,-332.37"/>
<polygon fill="midnightblue" stroke="midnightblue" points="855.8,-365.38 846.37,-370.21 856.75,-372.32 855.8,-365.38"/>
</g>
<!-- Node4 -->
<g id="node4" class="node">
<title>Node4</title>
<g id="a_node4"><a xlink:href="poll__event_8hpp.html" target="_top" xlink:title=" ">
<polygon fill="none" stroke="black" points="488,-257.5 488,-276.5 619,-276.5 619,-257.5 488,-257.5"/>
<text text-anchor="middle" x="553.5" y="-264.5" font-family="Helvetica,sans-Serif" font-size="10.00">include/zpp/poll_event.hpp</text>
</a>
</g>
</g>
<!-- Node3&#45;&gt;Node4 -->
<g id="edge3" class="edge">
<title>Node3&#45;&gt;Node4</title>
<path fill="none" stroke="midnightblue" d="M624.93,-308.18C607.26,-298.24 583.99,-285.15 568.89,-276.65"/>
<polygon fill="midnightblue" stroke="midnightblue" points="623.64,-311.47 634.08,-313.32 627.08,-305.37 623.64,-311.47"/>
</g>
<!-- Node3&#45;&gt;Node6 -->
<g id="edge16" class="edge">
<title>Node3&#45;&gt;Node6</title>
<path fill="none" stroke="midnightblue" d="M586.48,-319.03C549.08,-314.37 502.64,-303.2 469.5,-277 412.16,-231.67 417.54,-128.11 420.51,-97.6"/>
<polygon fill="midnightblue" stroke="midnightblue" points="586.45,-322.54 596.78,-320.18 587.23,-315.59 586.45,-322.54"/>
</g>
<!-- Node13 -->
<g id="node13" class="node">
<title>Node13</title>
<g id="a_node13"><a xlink:href="tests_2poll_2src_2main_8cpp.html" target="_top" xlink:title=" ">
<polygon fill="none" stroke="black" points="504,-78.5 504,-97.5 619,-97.5 619,-78.5 504,-78.5"/>
<text text-anchor="middle" x="561.5" y="-85.5" font-family="Helvetica,sans-Serif" font-size="10.00">tests/poll/src/main.cpp</text>
</a>
</g>
</g>
<!-- Node3&#45;&gt;Node13 -->
<g id="edge18" class="edge">
<title>Node3&#45;&gt;Node13</title>
<path fill="none" stroke="midnightblue" d="M648.22,-302.89C645.16,-267.53 635.22,-190.4 604.5,-134 596.54,-119.39 582.6,-106.07 572.75,-97.78"/>
<polygon fill="midnightblue" stroke="midnightblue" points="644.75,-303.48 649.01,-313.18 651.73,-302.94 644.75,-303.48"/>
</g>
<!-- Node14 -->
<g id="node14" class="node">
<title>Node14</title>
<g id="a_node14"><a xlink:href="poll__event__set_8hpp.html" target="_top" xlink:title=" ">
<polygon fill="none" stroke="black" points="450,-190.5 450,-220.5 563,-220.5 563,-190.5 450,-190.5"/>
<text text-anchor="start" x="458" y="-208.5" font-family="Helvetica,sans-Serif" font-size="10.00">include/zpp/poll_event</text>
<text text-anchor="middle" x="506.5" y="-197.5" font-family="Helvetica,sans-Serif" font-size="10.00">_set.hpp</text>
</a>
</g>
</g>
<!-- Node3&#45;&gt;Node14 -->
<g id="edge15" class="edge">
<title>Node3&#45;&gt;Node14</title>
<path fill="none" stroke="midnightblue" d="M586.68,-313.58C543.59,-306.37 491.89,-294.37 478.5,-277 465.31,-259.89 480.51,-235.77 493.14,-220.64"/>
<polygon fill="midnightblue" stroke="midnightblue" points="586.14,-317.04 596.57,-315.18 587.25,-310.13 586.14,-317.04"/>
</g>
<!-- Node3&#45;&gt;Node15 -->
<g id="edge17" class="edge">
<title>Node3&#45;&gt;Node15</title>
<path fill="none" stroke="midnightblue" d="M671.6,-307.62C686.76,-297.76 706.38,-284.99 719.2,-276.65"/>
<polygon fill="midnightblue" stroke="midnightblue" points="669.31,-304.94 662.84,-313.32 673.13,-310.8 669.31,-304.94"/>
</g>
<!-- Node3&#45;&gt;Node16 -->
<g id="edge19" class="edge">
<title>Node3&#45;&gt;Node16</title>
<path fill="none" stroke="midnightblue" d="M693.61,-311.02C734.6,-300.82 794.8,-285.84 832.28,-276.52"/>
<polygon fill="midnightblue" stroke="midnightblue" points="692.74,-307.63 683.88,-313.44 694.43,-314.43 692.74,-307.63"/>
</g>
<!-- Node3&#45;&gt;Node17 -->
<g id="edge20" class="edge">
<title>Node3&#45;&gt;Node17</title>
<path fill="none" stroke="midnightblue" d="M712.4,-312.51C779.85,-302.34 885.99,-286.33 950.91,-276.54"/>
<polygon fill="midnightblue" stroke="midnightblue" points="711.69,-309.08 702.32,-314.03 712.73,-316 711.69,-309.08"/>
</g>
<!-- Node5 -->
<g id="node5" class="node">
<title>Node5</title>
<g id="a_node5"><a xlink:href="poll_8hpp.html" target="_top" xlink:title=" ">
<polygon fill="none" stroke="black" points="495,-134.5 495,-153.5 596,-153.5 596,-134.5 495,-134.5"/>
<text text-anchor="middle" x="545.5" y="-141.5" font-family="Helvetica,sans-Serif" font-size="10.00">include/zpp/poll.hpp</text>
</a>
</g>
</g>
<!-- Node4&#45;&gt;Node5 -->
<g id="edge4" class="edge">
<title>Node4&#45;&gt;Node5</title>
<path fill="none" stroke="midnightblue" d="M562.98,-247.65C569.73,-232.21 576.75,-209.58 571.5,-190 567.81,-176.23 558.77,-162.32 552.39,-153.68"/>
<polygon fill="midnightblue" stroke="midnightblue" points="559.64,-246.53 558.5,-257.07 565.96,-249.54 559.64,-246.53"/>
</g>
<!-- Node4&#45;&gt;Node14 -->
<g id="edge13" class="edge">
<title>Node4&#45;&gt;Node14</title>
<path fill="none" stroke="midnightblue" d="M540.49,-249.53C533.29,-240.42 524.44,-229.21 517.58,-220.52"/>
<polygon fill="midnightblue" stroke="midnightblue" points="537.82,-251.8 546.77,-257.48 543.31,-247.46 537.82,-251.8"/>
</g>
<!-- Node5&#45;&gt;Node6 -->
<g id="edge5" class="edge">
<title>Node5&#45;&gt;Node6</title>
<path fill="none" stroke="midnightblue" d="M516.49,-130.37C493.27,-120.26 461.34,-106.35 441.06,-97.52"/>
<polygon fill="midnightblue" stroke="midnightblue" points="515.29,-133.66 525.85,-134.44 518.08,-127.24 515.29,-133.66"/>
</g>
<!-- Node5&#45;&gt;Node13 -->
<g id="edge12" class="edge">
<title>Node5&#45;&gt;Node13</title>
<path fill="none" stroke="midnightblue" d="M551.01,-124.4C553.69,-115.36 556.78,-104.94 558.91,-97.75"/>
<polygon fill="midnightblue" stroke="midnightblue" points="547.63,-123.5 548.14,-134.08 554.34,-125.49 547.63,-123.5"/>
</g>
<!-- Node7 -->
<g id="node7" class="node">
<title>Node7</title>
<g id="a_node7"><a xlink:href="samples_2hello__world_2src_2main_8cpp.html" target="_top" xlink:title=" ">
<polygon fill="none" stroke="black" points="0,-6 0,-36 105,-36 105,-6 0,-6"/>
<text text-anchor="start" x="8" y="-24" font-family="Helvetica,sans-Serif" font-size="10.00">samples/hello_world</text>
<text text-anchor="middle" x="52.5" y="-13" font-family="Helvetica,sans-Serif" font-size="10.00">/src/main.cpp</text>
</a>
</g>
</g>
<!-- Node6&#45;&gt;Node7 -->
<g id="edge6" class="edge">
<title>Node6&#45;&gt;Node7</title>
<path fill="none" stroke="midnightblue" d="M369.48,-82.15C307.83,-75.78 202.26,-62.87 113.5,-42 106.45,-40.34 99.04,-38.24 91.92,-36.02"/>
<polygon fill="midnightblue" stroke="midnightblue" points="369.42,-85.67 379.73,-83.2 370.13,-78.7 369.42,-85.67"/>
</g>
<!-- Node8 -->
<g id="node8" class="node">
<title>Node8</title>
<g id="a_node8"><a xlink:href="samples_2kernel_2condition__variables_2condvar_2src_2main_8cpp.html" target="_top" xlink:title=" ">
<polygon fill="none" stroke="black" points="123,-0.5 123,-41.5 248,-41.5 248,-0.5 123,-0.5"/>
<text text-anchor="start" x="131" y="-29.5" font-family="Helvetica,sans-Serif" font-size="10.00">samples/kernel/condition</text>
<text text-anchor="start" x="131" y="-18.5" font-family="Helvetica,sans-Serif" font-size="10.00">_variables/condvar/src</text>
<text text-anchor="middle" x="185.5" y="-7.5" font-family="Helvetica,sans-Serif" font-size="10.00">/main.cpp</text>
</a>
</g>
</g>
<!-- Node6&#45;&gt;Node8 -->
<g id="edge7" class="edge">
<title>Node6&#45;&gt;Node8</title>
<path fill="none" stroke="midnightblue" d="M379.98,-75.78C346.6,-66.73 298.51,-53.64 256.5,-42 253.79,-41.25 251.01,-40.48 248.21,-39.7"/>
<polygon fill="midnightblue" stroke="midnightblue" points="379.28,-79.22 389.85,-78.45 381.11,-72.46 379.28,-79.22"/>
</g>
<!-- Node9 -->
<g id="node9" class="node">
<title>Node9</title>
<g id="a_node9"><a xlink:href="samples_2kernel_2condition__variables_2simple_2src_2main_8cpp.html" target="_top" xlink:title=" ">
<polygon fill="none" stroke="black" points="266,-6 266,-36 417,-36 417,-6 266,-6"/>
<text text-anchor="start" x="274" y="-24" font-family="Helvetica,sans-Serif" font-size="10.00">samples/kernel/condition</text>
<text text-anchor="middle" x="341.5" y="-13" font-family="Helvetica,sans-Serif" font-size="10.00">_variables/simple/src/main.cpp</text>
</a>
</g>
</g>
<!-- Node6&#45;&gt;Node9 -->
<g id="edge8" class="edge">
<title>Node6&#45;&gt;Node9</title>
<path fill="none" stroke="midnightblue" d="M402.71,-71.74C389.44,-60.95 371.78,-46.6 358.84,-36.09"/>
<polygon fill="midnightblue" stroke="midnightblue" points="400.74,-74.64 410.71,-78.23 405.16,-69.21 400.74,-74.64"/>
</g>
<!-- Node10 -->
<g id="node10" class="node">
<title>Node10</title>
<g id="a_node10"><a xlink:href="tests_2compile_2src_2main_8cpp.html" target="_top" xlink:title=" ">
<polygon fill="none" stroke="black" points="435.5,-11.5 435.5,-30.5 569.5,-30.5 569.5,-11.5 435.5,-11.5"/>
<text text-anchor="middle" x="502.5" y="-18.5" font-family="Helvetica,sans-Serif" font-size="10.00">tests/compile/src/main.cpp</text>
</a>
</g>
</g>
<!-- Node6&#45;&gt;Node10 -->
<g id="edge9" class="edge">
<title>Node6&#45;&gt;Node10</title>
<path fill="none" stroke="midnightblue" d="M440.55,-71.71C456.51,-58.91 478.71,-41.09 491.75,-30.63"/>
<polygon fill="midnightblue" stroke="midnightblue" points="438.03,-69.25 432.42,-78.23 442.41,-74.7 438.03,-69.25"/>
</g>
<!-- Node11 -->
<g id="node11" class="node">
<title>Node11</title>
<g id="a_node11"><a xlink:href="tests_2condition__variable_2src_2main_8cpp.html" target="_top" xlink:title=" ">
<polygon fill="none" stroke="black" points="588,-6 588,-36 707,-36 707,-6 588,-6"/>
<text text-anchor="start" x="596" y="-24" font-family="Helvetica,sans-Serif" font-size="10.00">tests/condition_variable</text>
<text text-anchor="middle" x="647.5" y="-13" font-family="Helvetica,sans-Serif" font-size="10.00">/src/main.cpp</text>
</a>
</g>
</g>
<!-- Node6&#45;&gt;Node11 -->
<g id="edge10" class="edge">
<title>Node6&#45;&gt;Node11</title>
<path fill="none" stroke="midnightblue" d="M461.11,-75.68C492.86,-66.6 538.55,-53.52 578.5,-42 585.21,-40.07 592.29,-38.02 599.25,-36.01"/>
<polygon fill="midnightblue" stroke="midnightblue" points="459.97,-72.37 451.31,-78.48 461.89,-79.1 459.97,-72.37"/>
</g>
<!-- Node12 -->
<g id="node12" class="node">
<title>Node12</title>
<g id="a_node12"><a xlink:href="tests_2result_2src_2main_8cpp.html" target="_top" xlink:title=" ">
<polygon fill="none" stroke="black" points="725.5,-11.5 725.5,-30.5 849.5,-30.5 849.5,-11.5 725.5,-11.5"/>
<text text-anchor="middle" x="787.5" y="-18.5" font-family="Helvetica,sans-Serif" font-size="10.00">tests/result/src/main.cpp</text>
</a>
</g>
</g>
<!-- Node6&#45;&gt;Node12 -->
<g id="edge11" class="edge">
<title>Node6&#45;&gt;Node12</title>
<path fill="none" stroke="midnightblue" d="M473.38,-79.82C544.99,-69.78 670.39,-51.68 715.5,-42 730.21,-38.84 746.38,-34.44 759.65,-30.57"/>
<polygon fill="midnightblue" stroke="midnightblue" points="472.64,-76.39 463.22,-81.24 473.61,-83.32 472.64,-76.39"/>
</g>
<!-- Node14&#45;&gt;Node5 -->
<g id="edge14" class="edge">
<title>Node14&#45;&gt;Node5</title>
<path fill="none" stroke="midnightblue" d="M521.38,-181.8C527.83,-171.96 534.99,-161.03 539.83,-153.66"/>
<polygon fill="midnightblue" stroke="midnightblue" points="518.3,-180.12 515.74,-190.4 524.15,-183.95 518.3,-180.12"/>
</g>
</g>
</svg>
