<?xml version="1.0" encoding="UTF-8" standalone="no"?>
<!DOCTYPE svg PUBLIC "-//W3C//DTD SVG 1.1//EN"
 "http://www.w3.org/Graphics/SVG/1.1/DTD/svg11.dtd">
<!-- Generated by graphviz version 2.44.0 ()
 -->
<!-- Title: include/zpp/thread.hpp Pages: 1 -->
<svg width="1369pt" height="196pt"
 viewBox="0.00 0.00 1368.56 196.00" xmlns="http://www.w3.org/2000/svg" xmlns:xlink="http://www.w3.org/1999/xlink">
<g id="graph0" class="graph" transform="scale(1 1) rotate(0) translate(4 192)">
<title>include/zpp/thread.hpp</title>
<!-- Node1 -->
<g id="node1" class="node">
<title>Node1</title>
<g id="a_node1"><a xlink:title=" ">
<polygon fill="#bfbfbf" stroke="black" points="712.56,-168.5 712.56,-187.5 825.56,-187.5 825.56,-168.5 712.56,-168.5"/>
<text text-anchor="middle" x="769.06" y="-175.5" font-family="Helvetica,sans-Serif" font-size="10.00">include/zpp/thread.hpp</text>
</a>
</g>
</g>
<!-- Node2 -->
<g id="node2" class="node">
<title>Node2</title>
<g id="a_node2"><a xlink:href="thread__prio_8hpp.html" target="_top" xlink:title=" ">
<polygon fill="none" stroke="black" points="373.56,-56.5 373.56,-75.5 474.56,-75.5 474.56,-56.5 373.56,-56.5"/>
<text text-anchor="middle" x="424.06" y="-63.5" font-family="Helvetica,sans-Serif" font-size="10.00">zpp/thread_prio.hpp</text>
</a>
</g>
</g>
<!-- Node1&#45;&gt;Node2 -->
<g id="edge1" class="edge">
<title>Node1&#45;&gt;Node2</title>
<path fill="none" stroke="midnightblue" d="M712.55,-173.48C638.23,-167.99 512.45,-155.5 473.06,-132 454.54,-120.95 440.69,-99.99 432.52,-84.85"/>
<polygon fill="midnightblue" stroke="midnightblue" points="435.63,-83.23 427.98,-75.9 429.39,-86.4 435.63,-83.23"/>
</g>
<!-- Node3 -->
<g id="node3" class="node">
<title>Node3</title>
<g id="a_node3"><a xlink:title=" ">
<polygon fill="none" stroke="#bfbfbf" points="384.56,-0.5 384.56,-19.5 465.56,-19.5 465.56,-0.5 384.56,-0.5"/>
<text text-anchor="middle" x="425.06" y="-7.5" font-family="Helvetica,sans-Serif" font-size="10.00">zephyr/kernel.h</text>
</a>
</g>
</g>
<!-- Node1&#45;&gt;Node3 -->
<g id="edge42" class="edge">
<title>Node1&#45;&gt;Node3</title>
<path fill="none" stroke="midnightblue" d="M712.43,-176.66C571.89,-175.27 210.28,-168.18 96.06,-132 50.43,-117.54 27.51,-117.73 4.06,-76 -0.3,-68.25 -1.88,-62.61 4.06,-56 28.4,-28.92 267.29,-16.8 374.01,-12.71"/>
<polygon fill="midnightblue" stroke="midnightblue" points="374.36,-16.2 384.22,-12.32 374.1,-9.2 374.36,-16.2"/>
</g>
<!-- Node4 -->
<g id="node4" class="node">
<title>Node4</title>
<g id="a_node4"><a xlink:title=" ">
<polygon fill="none" stroke="#bfbfbf" points="643.06,-0.5 643.06,-19.5 753.06,-19.5 753.06,-0.5 643.06,-0.5"/>
<text text-anchor="middle" x="698.06" y="-7.5" font-family="Helvetica,sans-Serif" font-size="10.00">zephyr/sys/__assert.h</text>
</a>
</g>
</g>
<!-- Node1&#45;&gt;Node4 -->
<g id="edge43" class="edge">
<title>Node1&#45;&gt;Node4</title>
<path fill="none" stroke="midnightblue" d="M819.73,-168.46C856.3,-161.29 906.37,-149.41 948.06,-132 963.89,-125.39 966.31,-120.75 981.06,-112 1012.99,-93.05 1067.56,-83.9 1043.06,-56 1024.91,-35.33 857.99,-21.3 763.15,-14.92"/>
<polygon fill="midnightblue" stroke="midnightblue" points="763.29,-11.42 753.08,-14.25 762.83,-18.4 763.29,-11.42"/>
</g>
<!-- Node5 -->
<g id="node5" class="node">
<title>Node5</title>
<g id="a_node5"><a xlink:href="thread__id_8hpp.html" target="_top" xlink:title=" ">
<polygon fill="none" stroke="black" points="263.06,-56.5 263.06,-75.5 355.06,-75.5 355.06,-56.5 263.06,-56.5"/>
<text text-anchor="middle" x="309.06" y="-63.5" font-family="Helvetica,sans-Serif" font-size="10.00">zpp/thread_id.hpp</text>
</a>
</g>
</g>
<!-- Node1&#45;&gt;Node5 -->
<g id="edge4" class="edge">
<title>Node1&#45;&gt;Node5</title>
<path fill="none" stroke="midnightblue" d="M712.31,-174.16C647.31,-169.73 538.16,-158.72 448.06,-132 405.52,-119.38 359.5,-95.67 332.53,-80.64"/>
<polygon fill="midnightblue" stroke="midnightblue" points="333.93,-77.41 323.5,-75.53 330.48,-83.5 333.93,-77.41"/>
</g>
<!-- Node6 -->
<g id="node6" class="node">
<title>Node6</title>
<g id="a_node6"><a xlink:href="thread__attr_8hpp.html" target="_top" xlink:title=" ">
<polygon fill="none" stroke="black" points="482.56,-112.5 482.56,-131.5 581.56,-131.5 581.56,-112.5 482.56,-112.5"/>
<text text-anchor="middle" x="532.06" y="-119.5" font-family="Helvetica,sans-Serif" font-size="10.00">zpp/thread_attr.hpp</text>
</a>
</g>
</g>
<!-- Node1&#45;&gt;Node6 -->
<g id="edge7" class="edge">
<title>Node1&#45;&gt;Node6</title>
<path fill="none" stroke="midnightblue" d="M731.51,-168.44C690.25,-159.04 623.92,-143.93 579.19,-133.74"/>
<polygon fill="midnightblue" stroke="midnightblue" points="579.97,-130.33 569.44,-131.52 578.41,-137.15 579.97,-130.33"/>
</g>
<!-- Node7 -->
<g id="node7" class="node">
<title>Node7</title>
<g id="a_node7"><a xlink:title=" ">
<polygon fill="none" stroke="#bfbfbf" points="569.06,-56.5 569.06,-75.5 615.06,-75.5 615.06,-56.5 569.06,-56.5"/>
<text text-anchor="middle" x="592.06" y="-63.5" font-family="Helvetica,sans-Serif" font-size="10.00">chrono</text>
</a>
</g>
</g>
<!-- Node1&#45;&gt;Node7 -->
<g id="edge46" class="edge">
<title>Node1&#45;&gt;Node7</title>
<path fill="none" stroke="midnightblue" d="M755.17,-168.37C724.67,-149.41 651.6,-104 614.49,-80.94"/>
<polygon fill="midnightblue" stroke="midnightblue" points="616.23,-77.9 605.88,-75.59 612.53,-83.84 616.23,-77.9"/>
</g>
<!-- Node8 -->
<g id="node8" class="node">
<title>Node8</title>
<g id="a_node8"><a xlink:title=" ">
<polygon fill="none" stroke="#bfbfbf" points="205.56,-56.5 205.56,-75.5 244.56,-75.5 244.56,-56.5 205.56,-56.5"/>
<text text-anchor="middle" x="225.06" y="-63.5" font-family="Helvetica,sans-Serif" font-size="10.00">utility</text>
</a>
</g>
</g>
<!-- Node1&#45;&gt;Node8 -->
<g id="edge48" class="edge">
<title>Node1&#45;&gt;Node8</title>
<path fill="none" stroke="midnightblue" d="M712.53,-174.64C638.26,-170.53 504.22,-159.69 393.06,-132 341.63,-119.19 284.67,-94.85 252.04,-79.87"/>
<polygon fill="midnightblue" stroke="midnightblue" points="253.27,-76.58 242.73,-75.54 250.32,-82.93 253.27,-76.58"/>
</g>
<!-- Node9 -->
<g id="node9" class="node">
<title>Node9</title>
<g id="a_node9"><a xlink:href="thread__data_8hpp.html" target="_top" xlink:title=" ">
<polygon fill="none" stroke="black" points="1117.06,-56.5 1117.06,-75.5 1221.06,-75.5 1221.06,-56.5 1117.06,-56.5"/>
<text text-anchor="middle" x="1169.06" y="-63.5" font-family="Helvetica,sans-Serif" font-size="10.00">zpp/thread_data.hpp</text>
</a>
</g>
</g>
<!-- Node1&#45;&gt;Node9 -->
<g id="edge13" class="edge">
<title>Node1&#45;&gt;Node9</title>
<path fill="none" stroke="midnightblue" d="M822.47,-168.5C865.77,-160.93 928.07,-148.51 981.06,-132 1003.13,-125.13 1007.37,-119.99 1029.06,-112 1062.88,-99.54 1101.97,-87.14 1130.24,-78.52"/>
<polygon fill="midnightblue" stroke="midnightblue" points="1131.57,-81.77 1140.13,-75.52 1129.54,-75.07 1131.57,-81.77"/>
</g>
<!-- Node11 -->
<g id="node11" class="node">
<title>Node11</title>
<g id="a_node11"><a xlink:href="thread__stack_8hpp.html" target="_top" xlink:title=" ">
<polygon fill="none" stroke="black" points="1239.56,-56.5 1239.56,-75.5 1348.56,-75.5 1348.56,-56.5 1239.56,-56.5"/>
<text text-anchor="middle" x="1294.06" y="-63.5" font-family="Helvetica,sans-Serif" font-size="10.00">zpp/thread_stack.hpp</text>
</a>
</g>
</g>
<!-- Node1&#45;&gt;Node11 -->
<g id="edge17" class="edge">
<title>Node1&#45;&gt;Node11</title>
<path fill="none" stroke="midnightblue" d="M825.66,-171.03C877,-164.63 954.31,-152.51 1019.06,-132 1039.15,-125.64 1042.01,-118.5 1062.06,-112 1092.99,-101.97 1174.54,-87.12 1232.18,-77.25"/>
<polygon fill="midnightblue" stroke="midnightblue" points="1233.02,-80.66 1242.29,-75.53 1231.84,-73.76 1233.02,-80.66"/>
</g>
<!-- Node12 -->
<g id="node12" class="node">
<title>Node12</title>
<g id="a_node12"><a xlink:href="clock_8hpp.html" target="_top" xlink:title=" ">
<polygon fill="none" stroke="black" points="731.06,-112.5 731.06,-131.5 807.06,-131.5 807.06,-112.5 731.06,-112.5"/>
<text text-anchor="middle" x="769.06" y="-119.5" font-family="Helvetica,sans-Serif" font-size="10.00">zpp/clock.hpp</text>
</a>
</g>
</g>
<!-- Node1&#45;&gt;Node12 -->
<g id="edge21" class="edge">
<title>Node1&#45;&gt;Node12</title>
<path fill="none" stroke="midnightblue" d="M769.06,-168.08C769.06,-161.01 769.06,-150.86 769.06,-141.99"/>
<polygon fill="midnightblue" stroke="midnightblue" points="772.56,-141.75 769.06,-131.75 765.56,-141.75 772.56,-141.75"/>
</g>
<!-- Node15 -->
<g id="node15" class="node">
<title>Node15</title>
<g id="a_node15"><a xlink:href="result_8hpp.html" target="_top" xlink:title=" ">
<polygon fill="none" stroke="black" points="138.56,-112.5 138.56,-131.5 215.56,-131.5 215.56,-112.5 138.56,-112.5"/>
<text text-anchor="middle" x="177.06" y="-119.5" font-family="Helvetica,sans-Serif" font-size="10.00">zpp/result.hpp</text>
</a>
</g>
</g>
<!-- Node1&#45;&gt;Node15 -->
<g id="edge27" class="edge">
<title>Node1&#45;&gt;Node15</title>
<path fill="none" stroke="midnightblue" d="M712.47,-173.3C615.43,-166.72 411.07,-151.77 239.06,-132 234.81,-131.51 230.39,-130.96 225.97,-130.38"/>
<polygon fill="midnightblue" stroke="midnightblue" points="226.09,-126.86 215.71,-128.97 225.14,-133.8 226.09,-126.86"/>
</g>
<!-- Node16 -->
<g id="node16" class="node">
<title>Node16</title>
<g id="a_node16"><a xlink:href="error__code_8hpp.html" target="_top" xlink:title=" ">
<polygon fill="none" stroke="black" points="13.06,-56.5 13.06,-75.5 111.06,-75.5 111.06,-56.5 13.06,-56.5"/>
<text text-anchor="middle" x="62.06" y="-63.5" font-family="Helvetica,sans-Serif" font-size="10.00">zpp/error_code.hpp</text>
</a>
</g>
</g>
<!-- Node1&#45;&gt;Node16 -->
<g id="edge35" class="edge">
<title>Node1&#45;&gt;Node16</title>
<path fill="none" stroke="midnightblue" d="M712.42,-175.23C565.79,-170.35 181.56,-155.46 129.06,-132 105.81,-121.61 85.85,-99.48 73.91,-83.94"/>
<polygon fill="midnightblue" stroke="midnightblue" points="76.59,-81.67 67.84,-75.69 70.95,-85.82 76.59,-81.67"/>
</g>
<!-- Node18 -->
<g id="node18" class="node">
<title>Node18</title>
<g id="a_node18"><a xlink:href="heap_8hpp.html" target="_top" xlink:title=" ">
<polygon fill="none" stroke="black" points="865.06,-112.5 865.06,-131.5 939.06,-131.5 939.06,-112.5 865.06,-112.5"/>
<text text-anchor="middle" x="902.06" y="-119.5" font-family="Helvetica,sans-Serif" font-size="10.00">zpp/heap.hpp</text>
</a>
</g>
</g>
<!-- Node1&#45;&gt;Node18 -->
<g id="edge36" class="edge">
<title>Node1&#45;&gt;Node18</title>
<path fill="none" stroke="midnightblue" d="M790.13,-168.44C812.12,-159.52 846.79,-145.44 871.72,-135.32"/>
<polygon fill="midnightblue" stroke="midnightblue" points="873.14,-138.52 881.08,-131.52 870.5,-132.04 873.14,-138.52"/>
</g>
<!-- Node21 -->
<g id="node21" class="node">
<title>Node21</title>
<g id="a_node21"><a xlink:title=" ">
<polygon fill="none" stroke="#bfbfbf" points="1071.06,-112.5 1071.06,-131.5 1157.06,-131.5 1157.06,-112.5 1071.06,-112.5"/>
<text text-anchor="middle" x="1114.06" y="-119.5" font-family="Helvetica,sans-Serif" font-size="10.00">zephyr/sys/util.h</text>
</a>
</g>
</g>
<!-- Node1&#45;&gt;Node21 -->
<g id="edge44" class="edge">
<title>Node1&#45;&gt;Node21</title>
<path fill="none" stroke="midnightblue" d="M823.74,-168.48C881.67,-159.45 975.82,-144.76 1057.06,-132 1058.31,-131.8 1059.58,-131.6 1060.86,-131.4"/>
<polygon fill="midnightblue" stroke="midnightblue" points="1061.47,-134.85 1070.8,-129.84 1060.38,-127.94 1061.47,-134.85"/>
</g>
<!-- Node22 -->
<g id="node22" class="node">
<title>Node22</title>
<g id="a_node22"><a xlink:title=" ">
<polygon fill="none" stroke="#bfbfbf" points="1175.56,-112.5 1175.56,-131.5 1234.56,-131.5 1234.56,-112.5 1175.56,-112.5"/>
<text text-anchor="middle" x="1205.06" y="-119.5" font-family="Helvetica,sans-Serif" font-size="10.00">functional</text>
</a>
</g>
</g>
<!-- Node1&#45;&gt;Node22 -->
<g id="edge45" class="edge">
<title>Node1&#45;&gt;Node22</title>
<path fill="none" stroke="midnightblue" d="M825.89,-172.61C901.25,-166.33 1038.54,-153.32 1165.43,-131.92"/>
<polygon fill="midnightblue" stroke="midnightblue" points="1166.05,-135.36 1175.32,-130.23 1164.87,-128.46 1166.05,-135.36"/>
</g>
<!-- Node23 -->
<g id="node23" class="node">
<title>Node23</title>
<g id="a_node23"><a xlink:title=" ">
<polygon fill="none" stroke="#bfbfbf" points="1253.06,-112.5 1253.06,-131.5 1291.06,-131.5 1291.06,-112.5 1253.06,-112.5"/>
<text text-anchor="middle" x="1272.06" y="-119.5" font-family="Helvetica,sans-Serif" font-size="10.00">tuple</text>
</a>
</g>
</g>
<!-- Node1&#45;&gt;Node23 -->
<g id="edge47" class="edge">
<title>Node1&#45;&gt;Node23</title>
<path fill="none" stroke="midnightblue" d="M825.58,-175.59C913.26,-172.55 1087.28,-163.07 1242.72,-131.84"/>
<polygon fill="midnightblue" stroke="midnightblue" points="1243.83,-135.19 1252.93,-129.75 1242.43,-128.33 1243.83,-135.19"/>
</g>
<!-- Node24 -->
<g id="node24" class="node">
<title>Node24</title>
<g id="a_node24"><a xlink:title=" ">
<polygon fill="none" stroke="#bfbfbf" points="1309.56,-112.5 1309.56,-131.5 1360.56,-131.5 1360.56,-112.5 1309.56,-112.5"/>
<text text-anchor="middle" x="1335.06" y="-119.5" font-family="Helvetica,sans-Serif" font-size="10.00">memory</text>
</a>
</g>
</g>
<!-- Node1&#45;&gt;Node24 -->
<g id="edge49" class="edge">
<title>Node1&#45;&gt;Node24</title>
<path fill="none" stroke="midnightblue" d="M825.64,-175.31C921.33,-171.77 1121.21,-161.46 1299.47,-131.79"/>
<polygon fill="midnightblue" stroke="midnightblue" points="1300.27,-135.2 1309.55,-130.08 1299.11,-128.3 1300.27,-135.2"/>
</g>
<!-- Node2&#45;&gt;Node3 -->
<g id="edge2" class="edge">
<title>Node2&#45;&gt;Node3</title>
<path fill="none" stroke="midnightblue" d="M424.22,-56.08C424.36,-49.01 424.54,-38.86 424.71,-29.99"/>
<polygon fill="midnightblue" stroke="midnightblue" points="428.21,-29.81 424.9,-19.75 421.21,-29.68 428.21,-29.81"/>
</g>
<!-- Node2&#45;&gt;Node4 -->
<g id="edge3" class="edge">
<title>Node2&#45;&gt;Node4</title>
<path fill="none" stroke="midnightblue" d="M467.48,-56.44C515.58,-46.96 593.15,-31.67 644.87,-21.48"/>
<polygon fill="midnightblue" stroke="midnightblue" points="645.71,-24.88 654.85,-19.52 644.36,-18.02 645.71,-24.88"/>
</g>
<!-- Node5&#45;&gt;Node3 -->
<g id="edge5" class="edge">
<title>Node5&#45;&gt;Node3</title>
<path fill="none" stroke="midnightblue" d="M327.44,-56.44C346.28,-47.68 375.79,-33.94 397.44,-23.86"/>
<polygon fill="midnightblue" stroke="midnightblue" points="399.18,-26.91 406.77,-19.52 396.22,-20.56 399.18,-26.91"/>
</g>
<!-- Node5&#45;&gt;Node4 -->
<g id="edge6" class="edge">
<title>Node5&#45;&gt;Node4</title>
<path fill="none" stroke="midnightblue" d="M355.26,-57.34C358.24,-56.88 361.19,-56.43 364.06,-56 457.36,-42.08 565.61,-27.85 632.98,-19.21"/>
<polygon fill="midnightblue" stroke="midnightblue" points="633.55,-22.67 643.03,-17.93 632.66,-15.73 633.55,-22.67"/>
</g>
<!-- Node6&#45;&gt;Node2 -->
<g id="edge8" class="edge">
<title>Node6&#45;&gt;Node2</title>
<path fill="none" stroke="midnightblue" d="M514.71,-112.32C497.39,-103.66 470.54,-90.24 450.56,-80.25"/>
<polygon fill="midnightblue" stroke="midnightblue" points="451.88,-77 441.37,-75.65 448.75,-83.26 451.88,-77"/>
</g>
<!-- Node6&#45;&gt;Node3 -->
<g id="edge9" class="edge">
<title>Node6&#45;&gt;Node3</title>
<path fill="none" stroke="midnightblue" d="M526.67,-112.44C518.27,-99.44 501.12,-74.31 483.06,-56 471.93,-44.72 457.94,-33.78 446.48,-25.52"/>
<polygon fill="midnightblue" stroke="midnightblue" points="448.5,-22.65 438.31,-19.75 444.46,-28.38 448.5,-22.65"/>
</g>
<!-- Node6&#45;&gt;Node4 -->
<g id="edge10" class="edge">
<title>Node6&#45;&gt;Node4</title>
<path fill="none" stroke="midnightblue" d="M533.5,-112.08C536.2,-98.15 543.36,-71.24 560.06,-56 580.11,-37.71 607.71,-26.84 632.97,-20.39"/>
<polygon fill="midnightblue" stroke="midnightblue" points="633.95,-23.75 642.88,-18.05 632.34,-16.94 633.95,-23.75"/>
</g>
<!-- Node6&#45;&gt;Node7 -->
<g id="edge11" class="edge">
<title>Node6&#45;&gt;Node7</title>
<path fill="none" stroke="midnightblue" d="M541.7,-112.32C550.57,-104.34 563.93,-92.31 574.67,-82.65"/>
<polygon fill="midnightblue" stroke="midnightblue" points="577.15,-85.13 582.24,-75.83 572.47,-79.92 577.15,-85.13"/>
</g>
<!-- Node6&#45;&gt;Node8 -->
<g id="edge12" class="edge">
<title>Node6&#45;&gt;Node8</title>
<path fill="none" stroke="midnightblue" d="M482.44,-115.11C428.58,-108.23 339.95,-95.54 254.48,-75.79"/>
<polygon fill="midnightblue" stroke="midnightblue" points="255.15,-72.35 244.61,-73.48 253.55,-79.17 255.15,-72.35"/>
</g>
<!-- Node9&#45;&gt;Node3 -->
<g id="edge14" class="edge">
<title>Node9&#45;&gt;Node3</title>
<path fill="none" stroke="midnightblue" d="M1117.04,-61.22C980.13,-51.29 611.04,-24.5 475.7,-14.68"/>
<polygon fill="midnightblue" stroke="midnightblue" points="475.84,-11.18 465.61,-13.94 475.33,-18.16 475.84,-11.18"/>
</g>
<!-- Node9&#45;&gt;Node4 -->
<g id="edge16" class="edge">
<title>Node9&#45;&gt;Node4</title>
<path fill="none" stroke="midnightblue" d="M1116.84,-57.76C1112.18,-57.15 1107.54,-56.55 1103.06,-56 983.46,-41.2 843.69,-26.17 763.56,-17.77"/>
<polygon fill="midnightblue" stroke="midnightblue" points="763.45,-14.24 753.14,-16.68 762.72,-21.2 763.45,-14.24"/>
</g>
<!-- Node10 -->
<g id="node10" class="node">
<title>Node10</title>
<g id="a_node10"><a xlink:title=" ">
<polygon fill="none" stroke="#bfbfbf" points="1164.06,-0.5 1164.06,-19.5 1298.06,-19.5 1298.06,-0.5 1164.06,-0.5"/>
<text text-anchor="middle" x="1231.06" y="-7.5" font-family="Helvetica,sans-Serif" font-size="10.00">zephyr/sys/arch_interface.h</text>
</a>
</g>
</g>
<!-- Node9&#45;&gt;Node10 -->
<g id="edge15" class="edge">
<title>Node9&#45;&gt;Node10</title>
<path fill="none" stroke="midnightblue" d="M1179.02,-56.32C1188.19,-48.34 1202,-36.31 1213.09,-26.65"/>
<polygon fill="midnightblue" stroke="midnightblue" points="1215.68,-29.04 1220.92,-19.83 1211.08,-23.76 1215.68,-29.04"/>
</g>
<!-- Node11&#45;&gt;Node3 -->
<g id="edge18" class="edge">
<title>Node11&#45;&gt;Node3</title>
<path fill="none" stroke="midnightblue" d="M1239.28,-56.99C1236.17,-56.63 1233.07,-56.3 1230.06,-56 1082.65,-41.54 628.8,-20.23 475.92,-13.28"/>
<polygon fill="midnightblue" stroke="midnightblue" points="476.02,-9.78 465.87,-12.83 475.7,-16.78 476.02,-9.78"/>
</g>
<!-- Node11&#45;&gt;Node4 -->
<g id="edge20" class="edge">
<title>Node11&#45;&gt;Node4</title>
<path fill="none" stroke="midnightblue" d="M1239.27,-57.09C1236.16,-56.71 1233.07,-56.34 1230.06,-56 1062.2,-37.11 863.73,-22.31 763.3,-15.35"/>
<polygon fill="midnightblue" stroke="midnightblue" points="763.52,-11.86 753.3,-14.66 763.04,-18.84 763.52,-11.86"/>
</g>
<!-- Node11&#45;&gt;Node10 -->
<g id="edge19" class="edge">
<title>Node11&#45;&gt;Node10</title>
<path fill="none" stroke="midnightblue" d="M1283.94,-56.32C1274.53,-48.26 1260.32,-36.08 1248.99,-26.37"/>
<polygon fill="midnightblue" stroke="midnightblue" points="1251.24,-23.68 1241.37,-19.83 1246.68,-29 1251.24,-23.68"/>
</g>
<!-- Node12&#45;&gt;Node3 -->
<g id="edge22" class="edge">
<title>Node12&#45;&gt;Node3</title>
<path fill="none" stroke="midnightblue" d="M778.67,-112.06C792.03,-98.58 812.98,-72.83 798.06,-56 777.03,-32.28 572.81,-18.63 475.78,-13.44"/>
<polygon fill="midnightblue" stroke="midnightblue" points="475.78,-9.94 465.61,-12.91 475.42,-16.93 475.78,-9.94"/>
</g>
<!-- Node12&#45;&gt;Node4 -->
<g id="edge24" class="edge">
<title>Node12&#45;&gt;Node4</title>
<path fill="none" stroke="midnightblue" d="M788.13,-112.46C811.75,-100.66 847.06,-78.3 831.06,-56 815.44,-34.23 788.72,-22.86 763.31,-16.97"/>
<polygon fill="midnightblue" stroke="midnightblue" points="763.78,-13.49 753.28,-14.9 762.37,-20.35 763.78,-13.49"/>
</g>
<!-- Node12&#45;&gt;Node7 -->
<g id="edge25" class="edge">
<title>Node12&#45;&gt;Node7</title>
<path fill="none" stroke="midnightblue" d="M741.01,-112.44C709.48,-102.82 658.32,-87.21 624.93,-77.03"/>
<polygon fill="midnightblue" stroke="midnightblue" points="625.77,-73.62 615.18,-74.05 623.72,-80.32 625.77,-73.62"/>
</g>
<!-- Node13 -->
<g id="node13" class="node">
<title>Node13</title>
<g id="a_node13"><a xlink:title=" ">
<polygon fill="none" stroke="#bfbfbf" points="633.06,-56.5 633.06,-75.5 731.06,-75.5 731.06,-56.5 633.06,-56.5"/>
<text text-anchor="middle" x="682.06" y="-63.5" font-family="Helvetica,sans-Serif" font-size="10.00">zephyr/sys_clock.h</text>
</a>
</g>
</g>
<!-- Node12&#45;&gt;Node13 -->
<g id="edge23" class="edge">
<title>Node12&#45;&gt;Node13</title>
<path fill="none" stroke="midnightblue" d="M755.08,-112.32C741.51,-103.9 720.68,-90.97 704.73,-81.07"/>
<polygon fill="midnightblue" stroke="midnightblue" points="706.35,-77.95 696,-75.65 702.65,-83.9 706.35,-77.95"/>
</g>
<!-- Node14 -->
<g id="node14" class="node">
<title>Node14</title>
<g id="a_node14"><a xlink:title=" ">
<polygon fill="none" stroke="#bfbfbf" points="749.06,-56.5 749.06,-75.5 789.06,-75.5 789.06,-56.5 749.06,-56.5"/>
<text text-anchor="middle" x="769.06" y="-63.5" font-family="Helvetica,sans-Serif" font-size="10.00">limits</text>
</a>
</g>
</g>
<!-- Node12&#45;&gt;Node14 -->
<g id="edge26" class="edge">
<title>Node12&#45;&gt;Node14</title>
<path fill="none" stroke="midnightblue" d="M769.06,-112.08C769.06,-105.01 769.06,-94.86 769.06,-85.99"/>
<polygon fill="midnightblue" stroke="midnightblue" points="772.56,-85.75 769.06,-75.75 765.56,-85.75 772.56,-85.75"/>
</g>
<!-- Node15&#45;&gt;Node3 -->
<g id="edge28" class="edge">
<title>Node15&#45;&gt;Node3</title>
<path fill="none" stroke="midnightblue" d="M171.11,-112.32C162.59,-98.71 149.37,-72.24 163.06,-56 189.55,-24.57 306,-15.09 374.41,-12.23"/>
<polygon fill="midnightblue" stroke="midnightblue" points="374.69,-15.73 384.55,-11.84 374.42,-8.73 374.69,-15.73"/>
</g>
<!-- Node15&#45;&gt;Node4 -->
<g id="edge29" class="edge">
<title>Node15&#45;&gt;Node4</title>
<path fill="none" stroke="midnightblue" d="M176.76,-112.19C176.79,-97.91 179.17,-69.88 196.06,-56 212.7,-42.33 500.63,-23.07 632.75,-14.9"/>
<polygon fill="midnightblue" stroke="midnightblue" points="632.99,-18.4 642.75,-14.29 632.56,-11.41 632.99,-18.4"/>
</g>
<!-- Node15&#45;&gt;Node8 -->
<g id="edge34" class="edge">
<title>Node15&#45;&gt;Node8</title>
<path fill="none" stroke="midnightblue" d="M184.99,-112.08C191.91,-104.3 202.13,-92.8 210.51,-83.37"/>
<polygon fill="midnightblue" stroke="midnightblue" points="213.25,-85.55 217.28,-75.75 208.02,-80.9 213.25,-85.55"/>
</g>
<!-- Node15&#45;&gt;Node16 -->
<g id="edge30" class="edge">
<title>Node15&#45;&gt;Node16</title>
<path fill="none" stroke="midnightblue" d="M158.84,-112.44C140.16,-103.68 110.9,-89.94 89.44,-79.86"/>
<polygon fill="midnightblue" stroke="midnightblue" points="90.74,-76.6 80.2,-75.52 87.76,-82.93 90.74,-76.6"/>
</g>
<!-- Node16&#45;&gt;Node3 -->
<g id="edge31" class="edge">
<title>Node16&#45;&gt;Node3</title>
<path fill="none" stroke="midnightblue" d="M111.39,-57.66C180.26,-47.42 304.58,-28.92 374.23,-18.56"/>
<polygon fill="midnightblue" stroke="midnightblue" points="375.14,-21.96 384.51,-17.03 374.11,-15.04 375.14,-21.96"/>
</g>
<!-- Node16&#45;&gt;Node4 -->
<g id="edge32" class="edge">
<title>Node16&#45;&gt;Node4</title>
<path fill="none" stroke="midnightblue" d="M111.12,-60.58C127.62,-59.11 146.14,-57.47 163.06,-56 332.52,-41.32 532.23,-24.71 632.96,-16.37"/>
<polygon fill="midnightblue" stroke="midnightblue" points="633.31,-19.85 642.98,-15.54 632.73,-12.88 633.31,-19.85"/>
</g>
<!-- Node17 -->
<g id="node17" class="node">
<title>Node17</title>
<g id="a_node17"><a xlink:title=" ">
<polygon fill="none" stroke="#bfbfbf" points="39.06,-0.5 39.06,-19.5 85.06,-19.5 85.06,-0.5 39.06,-0.5"/>
<text text-anchor="middle" x="62.06" y="-7.5" font-family="Helvetica,sans-Serif" font-size="10.00">errno.h</text>
</a>
</g>
</g>
<!-- Node16&#45;&gt;Node17 -->
<g id="edge33" class="edge">
<title>Node16&#45;&gt;Node17</title>
<path fill="none" stroke="midnightblue" d="M62.06,-56.08C62.06,-49.01 62.06,-38.86 62.06,-29.99"/>
<polygon fill="midnightblue" stroke="midnightblue" points="65.56,-29.75 62.06,-19.75 58.56,-29.75 65.56,-29.75"/>
</g>
<!-- Node18&#45;&gt;Node3 -->
<g id="edge37" class="edge">
<title>Node18&#45;&gt;Node3</title>
<path fill="none" stroke="midnightblue" d="M932.95,-112.48C967.8,-101.43 1016.82,-80.63 994.06,-56 976.59,-37.09 612.45,-19.23 476.05,-13.17"/>
<polygon fill="midnightblue" stroke="midnightblue" points="476.01,-9.67 465.86,-12.72 475.7,-16.66 476.01,-9.67"/>
</g>
<!-- Node18&#45;&gt;Node4 -->
<g id="edge38" class="edge">
<title>Node18&#45;&gt;Node4</title>
<path fill="none" stroke="midnightblue" d="M939.33,-112.58C972.28,-104.3 1016.68,-90.77 1027.06,-76 1032.17,-68.73 1032.9,-62.7 1027.06,-56 993.55,-17.6 849.39,-10.78 763.41,-10.23"/>
<polygon fill="midnightblue" stroke="midnightblue" points="763.23,-6.73 753.22,-10.19 763.21,-13.73 763.23,-6.73"/>
</g>
<!-- Node18&#45;&gt;Node7 -->
<g id="edge39" class="edge">
<title>Node18&#45;&gt;Node7</title>
<path fill="none" stroke="midnightblue" d="M864.93,-116.36C813.27,-109.6 716.62,-95.88 625.35,-76.08"/>
<polygon fill="midnightblue" stroke="midnightblue" points="625.92,-72.62 615.4,-73.9 624.42,-79.46 625.92,-72.62"/>
</g>
<!-- Node19 -->
<g id="node19" class="node">
<title>Node19</title>
<g id="a_node19"><a xlink:title=" ">
<polygon fill="none" stroke="#bfbfbf" points="883.06,-56.5 883.06,-75.5 921.06,-75.5 921.06,-56.5 883.06,-56.5"/>
<text text-anchor="middle" x="902.06" y="-63.5" font-family="Helvetica,sans-Serif" font-size="10.00">array</text>
</a>
</g>
</g>
<!-- Node18&#45;&gt;Node19 -->
<g id="edge40" class="edge">
<title>Node18&#45;&gt;Node19</title>
<path fill="none" stroke="midnightblue" d="M902.06,-112.08C902.06,-105.01 902.06,-94.86 902.06,-85.99"/>
<polygon fill="midnightblue" stroke="midnightblue" points="905.56,-85.75 902.06,-75.75 898.56,-85.75 905.56,-85.75"/>
</g>
<!-- Node20 -->
<g id="node20" class="node">
<title>Node20</title>
<g id="a_node20"><a xlink:title=" ">
<polygon fill="none" stroke="#bfbfbf" points="939.06,-56.5 939.06,-75.5 985.06,-75.5 985.06,-56.5 939.06,-56.5"/>
<text text-anchor="middle" x="962.06" y="-63.5" font-family="Helvetica,sans-Serif" font-size="10.00">cstdint</text>
</a>
</g>
</g>
<!-- Node18&#45;&gt;Node20 -->
<g id="edge41" class="edge">
<title>Node18&#45;&gt;Node20</title>
<path fill="none" stroke="midnightblue" d="M911.7,-112.32C920.57,-104.34 933.93,-92.31 944.67,-82.65"/>
<polygon fill="midnightblue" stroke="midnightblue" points="947.15,-85.13 952.24,-75.83 942.47,-79.92 947.15,-85.13"/>
</g>
</g>
</svg>
