<?xml version="1.0" encoding="UTF-8" standalone="no"?>
<!DOCTYPE svg PUBLIC "-//W3C//DTD SVG 1.1//EN"
 "http://www.w3.org/Graphics/SVG/1.1/DTD/svg11.dtd">
<!-- Generated by graphviz version 2.44.0 ()
 -->
<!-- Title: include/zpp/thread_attr.hpp Pages: 1 -->
<svg width="316pt" height="151pt"
 viewBox="0.00 0.00 316.00 151.00" xmlns="http://www.w3.org/2000/svg" xmlns:xlink="http://www.w3.org/1999/xlink">
<g id="graph0" class="graph" transform="scale(1 1) rotate(0) translate(4 147)">
<title>include/zpp/thread_attr.hpp</title>
<!-- Node1 -->
<g id="node1" class="node">
<title>Node1</title>
<g id="a_node1"><a xlink:title=" ">
<polygon fill="#bfbfbf" stroke="black" points="129,-112.5 129,-142.5 224,-142.5 224,-112.5 129,-112.5"/>
<text text-anchor="start" x="137" y="-130.5" font-family="Helvetica,sans-Serif" font-size="10.00">include/zpp/thread</text>
<text text-anchor="middle" x="176.5" y="-119.5" font-family="Helvetica,sans-Serif" font-size="10.00">_attr.hpp</text>
</a>
</g>
</g>
<!-- Node2 -->
<g id="node2" class="node">
<title>Node2</title>
<g id="a_node2"><a xlink:href="thread__prio_8hpp.html" target="_top" xlink:title=" ">
<polygon fill="none" stroke="black" points="47,-56.5 47,-75.5 148,-75.5 148,-56.5 47,-56.5"/>
<text text-anchor="middle" x="97.5" y="-63.5" font-family="Helvetica,sans-Serif" font-size="10.00">zpp/thread_prio.hpp</text>
</a>
</g>
</g>
<!-- Node1&#45;&gt;Node2 -->
<g id="edge1" class="edge">
<title>Node1&#45;&gt;Node2</title>
<path fill="none" stroke="midnightblue" d="M157.78,-112.4C145.59,-103.22 129.71,-91.26 117.31,-81.92"/>
<polygon fill="midnightblue" stroke="midnightblue" points="119.09,-78.88 109,-75.66 114.88,-84.47 119.09,-78.88"/>
</g>
<!-- Node3 -->
<g id="node3" class="node">
<title>Node3</title>
<g id="a_node3"><a xlink:title=" ">
<polygon fill="none" stroke="#bfbfbf" points="0,-0.5 0,-19.5 81,-19.5 81,-0.5 0,-0.5"/>
<text text-anchor="middle" x="40.5" y="-7.5" font-family="Helvetica,sans-Serif" font-size="10.00">zephyr/kernel.h</text>
</a>
</g>
</g>
<!-- Node1&#45;&gt;Node3 -->
<g id="edge4" class="edge">
<title>Node1&#45;&gt;Node3</title>
<path fill="none" stroke="midnightblue" d="M128.77,-122.81C97.2,-117.6 57.98,-105.23 37.5,-76 28.19,-62.71 30.27,-43.88 33.89,-29.9"/>
<polygon fill="midnightblue" stroke="midnightblue" points="37.36,-30.52 36.94,-19.93 30.67,-28.47 37.36,-30.52"/>
</g>
<!-- Node4 -->
<g id="node4" class="node">
<title>Node4</title>
<g id="a_node4"><a xlink:title=" ">
<polygon fill="none" stroke="#bfbfbf" points="110.5,-0.5 110.5,-19.5 220.5,-19.5 220.5,-0.5 110.5,-0.5"/>
<text text-anchor="middle" x="165.5" y="-7.5" font-family="Helvetica,sans-Serif" font-size="10.00">zephyr/sys/__assert.h</text>
</a>
</g>
</g>
<!-- Node1&#45;&gt;Node4 -->
<g id="edge5" class="edge">
<title>Node1&#45;&gt;Node4</title>
<path fill="none" stroke="midnightblue" d="M175.15,-112.34C173.18,-91.62 169.5,-53.02 167.3,-29.9"/>
<polygon fill="midnightblue" stroke="midnightblue" points="170.76,-29.29 166.33,-19.67 163.79,-29.96 170.76,-29.29"/>
</g>
<!-- Node5 -->
<g id="node5" class="node">
<title>Node5</title>
<g id="a_node5"><a xlink:title=" ">
<polygon fill="none" stroke="#bfbfbf" points="204.5,-56.5 204.5,-75.5 250.5,-75.5 250.5,-56.5 204.5,-56.5"/>
<text text-anchor="middle" x="227.5" y="-63.5" font-family="Helvetica,sans-Serif" font-size="10.00">chrono</text>
</a>
</g>
</g>
<!-- Node1&#45;&gt;Node5 -->
<g id="edge6" class="edge">
<title>Node1&#45;&gt;Node5</title>
<path fill="none" stroke="midnightblue" d="M188.59,-112.4C196.07,-103.66 205.72,-92.41 213.53,-83.3"/>
<polygon fill="midnightblue" stroke="midnightblue" points="216.23,-85.53 220.08,-75.66 210.91,-80.97 216.23,-85.53"/>
</g>
<!-- Node6 -->
<g id="node6" class="node">
<title>Node6</title>
<g id="a_node6"><a xlink:title=" ">
<polygon fill="none" stroke="#bfbfbf" points="269,-56.5 269,-75.5 308,-75.5 308,-56.5 269,-56.5"/>
<text text-anchor="middle" x="288.5" y="-63.5" font-family="Helvetica,sans-Serif" font-size="10.00">utility</text>
</a>
</g>
</g>
<!-- Node1&#45;&gt;Node6 -->
<g id="edge7" class="edge">
<title>Node1&#45;&gt;Node6</title>
<path fill="none" stroke="midnightblue" d="M203.04,-112.4C221.16,-102.77 245.04,-90.09 262.94,-80.58"/>
<polygon fill="midnightblue" stroke="midnightblue" points="265.01,-83.44 272.2,-75.66 261.73,-77.26 265.01,-83.44"/>
</g>
<!-- Node2&#45;&gt;Node3 -->
<g id="edge2" class="edge">
<title>Node2&#45;&gt;Node3</title>
<path fill="none" stroke="midnightblue" d="M88.34,-56.32C80,-48.42 67.47,-36.55 57.32,-26.94"/>
<polygon fill="midnightblue" stroke="midnightblue" points="59.49,-24.17 49.82,-19.83 54.68,-29.25 59.49,-24.17"/>
</g>
<!-- Node2&#45;&gt;Node4 -->
<g id="edge3" class="edge">
<title>Node2&#45;&gt;Node4</title>
<path fill="none" stroke="midnightblue" d="M108.43,-56.32C118.67,-48.18 134.22,-35.84 146.5,-26.09"/>
<polygon fill="midnightblue" stroke="midnightblue" points="148.72,-28.79 154.38,-19.83 144.37,-23.31 148.72,-28.79"/>
</g>
</g>
</svg>
