<?xml version="1.0" encoding="UTF-8" standalone="no"?>
<!DOCTYPE svg PUBLIC "-//W3C//DTD SVG 1.1//EN"
 "http://www.w3.org/Graphics/SVG/1.1/DTD/svg11.dtd">
<!-- Generated by graphviz version 2.44.0 ()
 -->
<!-- Title: include/zpp/timer.hpp Pages: 1 -->
<svg width="483pt" height="140pt"
 viewBox="0.00 0.00 482.50 140.00" xmlns="http://www.w3.org/2000/svg" xmlns:xlink="http://www.w3.org/1999/xlink">
<g id="graph0" class="graph" transform="scale(1 1) rotate(0) translate(4 136)">
<title>include/zpp/timer.hpp</title>
<!-- Node1 -->
<g id="node1" class="node">
<title>Node1</title>
<g id="a_node1"><a xlink:title=" ">
<polygon fill="#bfbfbf" stroke="black" points="219.5,-112.5 219.5,-131.5 327.5,-131.5 327.5,-112.5 219.5,-112.5"/>
<text text-anchor="middle" x="273.5" y="-119.5" font-family="Helvetica,sans-Serif" font-size="10.00">include/zpp/timer.hpp</text>
</a>
</g>
</g>
<!-- Node2 -->
<g id="node2" class="node">
<title>Node2</title>
<g id="a_node2"><a xlink:title=" ">
<polygon fill="none" stroke="#bfbfbf" points="0,-0.5 0,-19.5 81,-19.5 81,-0.5 0,-0.5"/>
<text text-anchor="middle" x="40.5" y="-7.5" font-family="Helvetica,sans-Serif" font-size="10.00">zephyr/kernel.h</text>
</a>
</g>
</g>
<!-- Node1&#45;&gt;Node2 -->
<g id="edge1" class="edge">
<title>Node1&#45;&gt;Node2</title>
<path fill="none" stroke="midnightblue" d="M253.87,-112.39C233.65,-103.46 201.25,-89.02 173.5,-76 136.2,-58.5 93.46,-37.43 66.72,-24.12"/>
<polygon fill="midnightblue" stroke="midnightblue" points="68.14,-20.92 57.63,-19.59 65.02,-27.18 68.14,-20.92"/>
</g>
<!-- Node3 -->
<g id="node3" class="node">
<title>Node3</title>
<g id="a_node3"><a xlink:title=" ">
<polygon fill="none" stroke="#bfbfbf" points="99.5,-0.5 99.5,-19.5 209.5,-19.5 209.5,-0.5 99.5,-0.5"/>
<text text-anchor="middle" x="154.5" y="-7.5" font-family="Helvetica,sans-Serif" font-size="10.00">zephyr/sys/__assert.h</text>
</a>
</g>
</g>
<!-- Node1&#45;&gt;Node3 -->
<g id="edge2" class="edge">
<title>Node1&#45;&gt;Node3</title>
<path fill="none" stroke="midnightblue" d="M251.47,-112.35C234.18,-104.74 210.29,-92.33 193.5,-76 179.53,-62.42 168.67,-42.8 162,-28.68"/>
<polygon fill="midnightblue" stroke="midnightblue" points="165.18,-27.22 157.9,-19.53 158.8,-30.08 165.18,-27.22"/>
</g>
<!-- Node4 -->
<g id="node4" class="node">
<title>Node4</title>
<g id="a_node4"><a xlink:title=" ">
<polygon fill="none" stroke="#bfbfbf" points="401.5,-0.5 401.5,-19.5 447.5,-19.5 447.5,-0.5 401.5,-0.5"/>
<text text-anchor="middle" x="424.5" y="-7.5" font-family="Helvetica,sans-Serif" font-size="10.00">chrono</text>
</a>
</g>
</g>
<!-- Node1&#45;&gt;Node4 -->
<g id="edge3" class="edge">
<title>Node1&#45;&gt;Node4</title>
<path fill="none" stroke="midnightblue" d="M278.69,-112.36C287.2,-98.8 305.31,-72.4 326.5,-56 346.13,-40.81 371.72,-29.28 391.82,-21.7"/>
<polygon fill="midnightblue" stroke="midnightblue" points="393.28,-24.89 401.49,-18.19 390.9,-18.31 393.28,-24.89"/>
</g>
<!-- Node5 -->
<g id="node5" class="node">
<title>Node5</title>
<g id="a_node5"><a xlink:title=" ">
<polygon fill="none" stroke="#bfbfbf" points="335,-56.5 335,-75.5 394,-75.5 394,-56.5 335,-56.5"/>
<text text-anchor="middle" x="364.5" y="-63.5" font-family="Helvetica,sans-Serif" font-size="10.00">functional</text>
</a>
</g>
</g>
<!-- Node1&#45;&gt;Node5 -->
<g id="edge4" class="edge">
<title>Node1&#45;&gt;Node5</title>
<path fill="none" stroke="midnightblue" d="M288.12,-112.32C302.45,-103.82 324.51,-90.73 341.25,-80.8"/>
<polygon fill="midnightblue" stroke="midnightblue" points="343.1,-83.77 349.92,-75.65 339.53,-77.75 343.1,-83.77"/>
</g>
<!-- Node6 -->
<g id="node6" class="node">
<title>Node6</title>
<g id="a_node6"><a xlink:title=" ">
<polygon fill="none" stroke="#bfbfbf" points="412.5,-56.5 412.5,-75.5 474.5,-75.5 474.5,-56.5 412.5,-56.5"/>
<text text-anchor="middle" x="443.5" y="-63.5" font-family="Helvetica,sans-Serif" font-size="10.00">type_traits</text>
</a>
</g>
</g>
<!-- Node1&#45;&gt;Node6 -->
<g id="edge5" class="edge">
<title>Node1&#45;&gt;Node6</title>
<path fill="none" stroke="midnightblue" d="M300.44,-112.44C329.16,-103.32 374.83,-88.81 406.82,-78.65"/>
<polygon fill="midnightblue" stroke="midnightblue" points="408.22,-81.88 416.69,-75.52 406.1,-75.21 408.22,-81.88"/>
</g>
<!-- Node7 -->
<g id="node7" class="node">
<title>Node7</title>
<g id="a_node7"><a xlink:href="clock_8hpp.html" target="_top" xlink:title=" ">
<polygon fill="none" stroke="black" points="202.5,-56.5 202.5,-75.5 278.5,-75.5 278.5,-56.5 202.5,-56.5"/>
<text text-anchor="middle" x="240.5" y="-63.5" font-family="Helvetica,sans-Serif" font-size="10.00">zpp/clock.hpp</text>
</a>
</g>
</g>
<!-- Node1&#45;&gt;Node7 -->
<g id="edge6" class="edge">
<title>Node1&#45;&gt;Node7</title>
<path fill="none" stroke="midnightblue" d="M268.05,-112.08C263.49,-104.61 256.83,-93.72 251.21,-84.52"/>
<polygon fill="midnightblue" stroke="midnightblue" points="254.05,-82.46 245.85,-75.75 248.08,-86.11 254.05,-82.46"/>
</g>
<!-- Node7&#45;&gt;Node2 -->
<g id="edge7" class="edge">
<title>Node7&#45;&gt;Node2</title>
<path fill="none" stroke="midnightblue" d="M208.81,-56.44C174.43,-47.16 119.42,-32.31 81.71,-22.13"/>
<polygon fill="midnightblue" stroke="midnightblue" points="82.61,-18.74 72.04,-19.52 80.78,-25.5 82.61,-18.74"/>
</g>
<!-- Node7&#45;&gt;Node3 -->
<g id="edge9" class="edge">
<title>Node7&#45;&gt;Node3</title>
<path fill="none" stroke="midnightblue" d="M226.68,-56.32C213.27,-47.9 192.68,-34.97 176.91,-25.07"/>
<polygon fill="midnightblue" stroke="midnightblue" points="178.61,-22.01 168.28,-19.65 174.89,-27.94 178.61,-22.01"/>
</g>
<!-- Node7&#45;&gt;Node4 -->
<g id="edge10" class="edge">
<title>Node7&#45;&gt;Node4</title>
<path fill="none" stroke="midnightblue" d="M269.66,-56.44C302.86,-46.7 356.98,-30.82 391.65,-20.64"/>
<polygon fill="midnightblue" stroke="midnightblue" points="392.7,-23.98 401.31,-17.81 390.73,-17.26 392.7,-23.98"/>
</g>
<!-- Node8 -->
<g id="node8" class="node">
<title>Node8</title>
<g id="a_node8"><a xlink:title=" ">
<polygon fill="none" stroke="#bfbfbf" points="285.5,-0.5 285.5,-19.5 383.5,-19.5 383.5,-0.5 285.5,-0.5"/>
<text text-anchor="middle" x="334.5" y="-7.5" font-family="Helvetica,sans-Serif" font-size="10.00">zephyr/sys_clock.h</text>
</a>
</g>
</g>
<!-- Node7&#45;&gt;Node8 -->
<g id="edge8" class="edge">
<title>Node7&#45;&gt;Node8</title>
<path fill="none" stroke="midnightblue" d="M255.6,-56.32C270.4,-47.82 293.19,-34.73 310.48,-24.8"/>
<polygon fill="midnightblue" stroke="midnightblue" points="312.51,-27.67 319.43,-19.65 309.02,-21.6 312.51,-27.67"/>
</g>
<!-- Node9 -->
<g id="node9" class="node">
<title>Node9</title>
<g id="a_node9"><a xlink:title=" ">
<polygon fill="none" stroke="#bfbfbf" points="227.5,-0.5 227.5,-19.5 267.5,-19.5 267.5,-0.5 227.5,-0.5"/>
<text text-anchor="middle" x="247.5" y="-7.5" font-family="Helvetica,sans-Serif" font-size="10.00">limits</text>
</a>
</g>
</g>
<!-- Node7&#45;&gt;Node9 -->
<g id="edge11" class="edge">
<title>Node7&#45;&gt;Node9</title>
<path fill="none" stroke="midnightblue" d="M241.66,-56.08C242.58,-48.93 243.92,-38.64 245.08,-29.69"/>
<polygon fill="midnightblue" stroke="midnightblue" points="248.55,-30.12 246.37,-19.75 241.61,-29.22 248.55,-30.12"/>
</g>
</g>
</svg>
