<?xml version="1.0" encoding="UTF-8" standalone="no"?>
<!DOCTYPE svg PUBLIC "-//W3C//DTD SVG 1.1//EN"
 "http://www.w3.org/Graphics/SVG/1.1/DTD/svg11.dtd">
<!-- Generated by graphviz version 2.44.0 ()
 -->
<!-- Title: include/zpp/unique_lock.hpp Pages: 1 -->
<svg width="378pt" height="207pt"
 viewBox="0.00 0.00 377.50 207.00" xmlns="http://www.w3.org/2000/svg" xmlns:xlink="http://www.w3.org/1999/xlink">
<g id="graph0" class="graph" transform="scale(1 1) rotate(0) translate(4 203)">
<title>include/zpp/unique_lock.hpp</title>
<!-- Node1 -->
<g id="node1" class="node">
<title>Node1</title>
<g id="a_node1"><a xlink:title=" ">
<polygon fill="#bfbfbf" stroke="black" points="148,-168.5 148,-198.5 245,-198.5 245,-168.5 148,-168.5"/>
<text text-anchor="start" x="156" y="-186.5" font-family="Helvetica,sans-Serif" font-size="10.00">include/zpp/unique</text>
<text text-anchor="middle" x="196.5" y="-175.5" font-family="Helvetica,sans-Serif" font-size="10.00">_lock.hpp</text>
</a>
</g>
</g>
<!-- Node2 -->
<g id="node2" class="node">
<title>Node2</title>
<g id="a_node2"><a xlink:title=" ">
<polygon fill="none" stroke="#bfbfbf" points="0,-0.5 0,-19.5 81,-19.5 81,-0.5 0,-0.5"/>
<text text-anchor="middle" x="40.5" y="-7.5" font-family="Helvetica,sans-Serif" font-size="10.00">zephyr/kernel.h</text>
</a>
</g>
</g>
<!-- Node1&#45;&gt;Node2 -->
<g id="edge1" class="edge">
<title>Node1&#45;&gt;Node2</title>
<path fill="none" stroke="midnightblue" d="M163.15,-168.43C128.26,-151.81 74.96,-120.67 48.5,-76 40.26,-62.09 38.71,-43.58 38.95,-29.87"/>
<polygon fill="midnightblue" stroke="midnightblue" points="42.46,-29.86 39.48,-19.69 35.47,-29.5 42.46,-29.86"/>
</g>
<!-- Node3 -->
<g id="node3" class="node">
<title>Node3</title>
<g id="a_node3"><a xlink:title=" ">
<polygon fill="none" stroke="#bfbfbf" points="163.5,-0.5 163.5,-19.5 273.5,-19.5 273.5,-0.5 163.5,-0.5"/>
<text text-anchor="middle" x="218.5" y="-7.5" font-family="Helvetica,sans-Serif" font-size="10.00">zephyr/sys/__assert.h</text>
</a>
</g>
</g>
<!-- Node1&#45;&gt;Node3 -->
<g id="edge2" class="edge">
<title>Node1&#45;&gt;Node3</title>
<path fill="none" stroke="midnightblue" d="M213.04,-168.37C233.31,-149.71 266.23,-114.67 276.5,-76 278.78,-67.41 280.41,-63.98 276.5,-56 269.98,-42.68 257.4,-32.18 245.63,-24.68"/>
<polygon fill="midnightblue" stroke="midnightblue" points="247.28,-21.59 236.89,-19.53 243.73,-27.62 247.28,-21.59"/>
</g>
<!-- Node4 -->
<g id="node4" class="node">
<title>Node4</title>
<g id="a_node4"><a xlink:title=" ">
<polygon fill="none" stroke="#bfbfbf" points="323.5,-112.5 323.5,-131.5 369.5,-131.5 369.5,-112.5 323.5,-112.5"/>
<text text-anchor="middle" x="346.5" y="-119.5" font-family="Helvetica,sans-Serif" font-size="10.00">chrono</text>
</a>
</g>
</g>
<!-- Node1&#45;&gt;Node4 -->
<g id="edge3" class="edge">
<title>Node1&#45;&gt;Node4</title>
<path fill="none" stroke="midnightblue" d="M232.05,-168.4C257.33,-158.37 290.97,-145.03 315.23,-135.4"/>
<polygon fill="midnightblue" stroke="midnightblue" points="316.67,-138.6 324.67,-131.66 314.09,-132.09 316.67,-138.6"/>
</g>
<!-- Node5 -->
<g id="node5" class="node">
<title>Node5</title>
<g id="a_node5"><a xlink:href="result_8hpp.html" target="_top" xlink:title=" ">
<polygon fill="none" stroke="black" points="158,-112.5 158,-131.5 235,-131.5 235,-112.5 158,-112.5"/>
<text text-anchor="middle" x="196.5" y="-119.5" font-family="Helvetica,sans-Serif" font-size="10.00">zpp/result.hpp</text>
</a>
</g>
</g>
<!-- Node1&#45;&gt;Node5 -->
<g id="edge4" class="edge">
<title>Node1&#45;&gt;Node5</title>
<path fill="none" stroke="midnightblue" d="M196.5,-168.4C196.5,-160.47 196.5,-150.46 196.5,-141.86"/>
<polygon fill="midnightblue" stroke="midnightblue" points="200,-141.66 196.5,-131.66 193,-141.66 200,-141.66"/>
</g>
<!-- Node6 -->
<g id="node6" class="node">
<title>Node6</title>
<g id="a_node6"><a xlink:href="error__code_8hpp.html" target="_top" xlink:title=" ">
<polygon fill="none" stroke="black" points="73.5,-56.5 73.5,-75.5 171.5,-75.5 171.5,-56.5 73.5,-56.5"/>
<text text-anchor="middle" x="122.5" y="-63.5" font-family="Helvetica,sans-Serif" font-size="10.00">zpp/error_code.hpp</text>
</a>
</g>
</g>
<!-- Node1&#45;&gt;Node6 -->
<g id="edge12" class="edge">
<title>Node1&#45;&gt;Node6</title>
<path fill="none" stroke="midnightblue" d="M180.15,-168.32C169.99,-158.84 157.25,-145.64 148.5,-132 139.18,-117.47 132.2,-99.05 127.83,-85.54"/>
<polygon fill="midnightblue" stroke="midnightblue" points="131.16,-84.46 124.89,-75.92 124.46,-86.5 131.16,-84.46"/>
</g>
<!-- Node5&#45;&gt;Node2 -->
<g id="edge5" class="edge">
<title>Node5&#45;&gt;Node2</title>
<path fill="none" stroke="midnightblue" d="M157.75,-116.78C128.64,-111.69 89.63,-100.51 64.5,-76 52,-63.81 45.96,-44.54 43.07,-30.14"/>
<polygon fill="midnightblue" stroke="midnightblue" points="46.45,-29.16 41.37,-19.87 39.55,-30.3 46.45,-29.16"/>
</g>
<!-- Node5&#45;&gt;Node3 -->
<g id="edge6" class="edge">
<title>Node5&#45;&gt;Node3</title>
<path fill="none" stroke="midnightblue" d="M198.23,-112.37C201.78,-94.62 209.97,-53.67 214.78,-29.6"/>
<polygon fill="midnightblue" stroke="midnightblue" points="218.25,-30.08 216.78,-19.59 211.39,-28.71 218.25,-30.08"/>
</g>
<!-- Node5&#45;&gt;Node6 -->
<g id="edge7" class="edge">
<title>Node5&#45;&gt;Node6</title>
<path fill="none" stroke="midnightblue" d="M184.61,-112.32C173.35,-104.11 156.21,-91.6 142.79,-81.81"/>
<polygon fill="midnightblue" stroke="midnightblue" points="144.75,-78.9 134.61,-75.83 140.62,-84.56 144.75,-78.9"/>
</g>
<!-- Node8 -->
<g id="node8" class="node">
<title>Node8</title>
<g id="a_node8"><a xlink:title=" ">
<polygon fill="none" stroke="#bfbfbf" points="228,-56.5 228,-75.5 267,-75.5 267,-56.5 228,-56.5"/>
<text text-anchor="middle" x="247.5" y="-63.5" font-family="Helvetica,sans-Serif" font-size="10.00">utility</text>
</a>
</g>
</g>
<!-- Node5&#45;&gt;Node8 -->
<g id="edge11" class="edge">
<title>Node5&#45;&gt;Node8</title>
<path fill="none" stroke="midnightblue" d="M204.92,-112.08C212.35,-104.22 223.35,-92.57 232.31,-83.08"/>
<polygon fill="midnightblue" stroke="midnightblue" points="234.91,-85.42 239.24,-75.75 229.82,-80.62 234.91,-85.42"/>
</g>
<!-- Node6&#45;&gt;Node2 -->
<g id="edge8" class="edge">
<title>Node6&#45;&gt;Node2</title>
<path fill="none" stroke="midnightblue" d="M109.33,-56.32C96.65,-47.98 77.27,-35.21 62.29,-25.35"/>
<polygon fill="midnightblue" stroke="midnightblue" points="63.92,-22.23 53.64,-19.65 60.07,-28.08 63.92,-22.23"/>
</g>
<!-- Node6&#45;&gt;Node3 -->
<g id="edge9" class="edge">
<title>Node6&#45;&gt;Node3</title>
<path fill="none" stroke="midnightblue" d="M137.92,-56.32C153.04,-47.82 176.32,-34.73 193.97,-24.8"/>
<polygon fill="midnightblue" stroke="midnightblue" points="196.11,-27.61 203.11,-19.65 192.68,-21.51 196.11,-27.61"/>
</g>
<!-- Node7 -->
<g id="node7" class="node">
<title>Node7</title>
<g id="a_node7"><a xlink:title=" ">
<polygon fill="none" stroke="#bfbfbf" points="99.5,-0.5 99.5,-19.5 145.5,-19.5 145.5,-0.5 99.5,-0.5"/>
<text text-anchor="middle" x="122.5" y="-7.5" font-family="Helvetica,sans-Serif" font-size="10.00">errno.h</text>
</a>
</g>
</g>
<!-- Node6&#45;&gt;Node7 -->
<g id="edge10" class="edge">
<title>Node6&#45;&gt;Node7</title>
<path fill="none" stroke="midnightblue" d="M122.5,-56.08C122.5,-49.01 122.5,-38.86 122.5,-29.99"/>
<polygon fill="midnightblue" stroke="midnightblue" points="126,-29.75 122.5,-19.75 119,-29.75 126,-29.75"/>
</g>
</g>
</svg>
