<?xml version="1.0" encoding="UTF-8" standalone="no"?>
<!DOCTYPE svg PUBLIC "-//W3C//DTD SVG 1.1//EN"
 "http://www.w3.org/Graphics/SVG/1.1/DTD/svg11.dtd">
<!-- Generated by graphviz version 2.44.0 ()
 -->
<!-- Title: include/zpp/utils.hpp Pages: 1 -->
<svg width="880pt" height="240pt"
 viewBox="0.00 0.00 880.00 240.00" xmlns="http://www.w3.org/2000/svg" xmlns:xlink="http://www.w3.org/1999/xlink">
<g id="graph0" class="graph" transform="scale(1 1) rotate(0) translate(4 236)">
<title>include/zpp/utils.hpp</title>
<!-- Node1 -->
<g id="node1" class="node">
<title>Node1</title>
<g id="a_node1"><a xlink:title=" ">
<polygon fill="#bfbfbf" stroke="black" points="472.5,-212.5 472.5,-231.5 576.5,-231.5 576.5,-212.5 472.5,-212.5"/>
<text text-anchor="middle" x="524.5" y="-219.5" font-family="Helvetica,sans-Serif" font-size="10.00">include/zpp/utils.hpp</text>
</a>
</g>
</g>
<!-- Node2 -->
<g id="node2" class="node">
<title>Node2</title>
<g id="a_node2"><a xlink:href="condition__variable_8hpp.html" target="_top" xlink:title=" ">
<polygon fill="none" stroke="black" points="295,-145.5 295,-175.5 402,-175.5 402,-145.5 295,-145.5"/>
<text text-anchor="start" x="303" y="-163.5" font-family="Helvetica,sans-Serif" font-size="10.00">include/zpp/condition</text>
<text text-anchor="middle" x="348.5" y="-152.5" font-family="Helvetica,sans-Serif" font-size="10.00">_variable.hpp</text>
</a>
</g>
</g>
<!-- Node1&#45;&gt;Node2 -->
<g id="edge1" class="edge">
<title>Node1&#45;&gt;Node2</title>
<path fill="none" stroke="midnightblue" d="M489.69,-209.23C461.03,-199.54 420.32,-185.78 389.98,-175.52"/>
<polygon fill="midnightblue" stroke="midnightblue" points="488.69,-212.59 499.28,-212.48 490.93,-205.96 488.69,-212.59"/>
</g>
<!-- Node3 -->
<g id="node3" class="node">
<title>Node3</title>
<g id="a_node3"><a xlink:href="zpp_8hpp.html" target="_top" xlink:title=" ">
<polygon fill="none" stroke="black" points="380,-84 380,-103 463,-103 463,-84 380,-84"/>
<text text-anchor="middle" x="421.5" y="-91" font-family="Helvetica,sans-Serif" font-size="10.00">include/zpp.hpp</text>
</a>
</g>
</g>
<!-- Node1&#45;&gt;Node3 -->
<g id="edge12" class="edge">
<title>Node1&#45;&gt;Node3</title>
<path fill="none" stroke="midnightblue" d="M493.29,-208.04C478.56,-200.57 461.79,-189.87 450.5,-176 432.3,-153.64 425.09,-118.97 422.62,-103.04"/>
<polygon fill="midnightblue" stroke="midnightblue" points="492.06,-211.34 502.59,-212.49 495.08,-205.02 492.06,-211.34"/>
</g>
<!-- Node10 -->
<g id="node10" class="node">
<title>Node10</title>
<g id="a_node10"><a xlink:href="mem__slab_8hpp.html" target="_top" xlink:title=" ">
<polygon fill="none" stroke="black" points="459,-151 459,-170 590,-170 590,-151 459,-151"/>
<text text-anchor="middle" x="524.5" y="-158" font-family="Helvetica,sans-Serif" font-size="10.00">include/zpp/mem_slab.hpp</text>
</a>
</g>
</g>
<!-- Node1&#45;&gt;Node10 -->
<g id="edge9" class="edge">
<title>Node1&#45;&gt;Node10</title>
<path fill="none" stroke="midnightblue" d="M524.5,-202.32C524.5,-191.5 524.5,-178.4 524.5,-170.01"/>
<polygon fill="midnightblue" stroke="midnightblue" points="521,-202.48 524.5,-212.48 528,-202.48 521,-202.48"/>
</g>
<!-- Node12 -->
<g id="node12" class="node">
<title>Node12</title>
<g id="a_node12"><a xlink:href="tests_2mutex_2src_2main_8cpp.html" target="_top" xlink:title=" ">
<polygon fill="none" stroke="black" points="608.5,-151 608.5,-170 734.5,-170 734.5,-151 608.5,-151"/>
<text text-anchor="middle" x="671.5" y="-158" font-family="Helvetica,sans-Serif" font-size="10.00">tests/mutex/src/main.cpp</text>
</a>
</g>
</g>
<!-- Node1&#45;&gt;Node12 -->
<g id="edge13" class="edge">
<title>Node1&#45;&gt;Node12</title>
<path fill="none" stroke="midnightblue" d="M555.06,-208.63C583.62,-197.07 625.5,-180.12 650.48,-170.01"/>
<polygon fill="midnightblue" stroke="midnightblue" points="553.52,-205.48 545.56,-212.48 556.14,-211.97 553.52,-205.48"/>
</g>
<!-- Node13 -->
<g id="node13" class="node">
<title>Node13</title>
<g id="a_node13"><a xlink:href="tests_2sem_2src_2main_8cpp.html" target="_top" xlink:title=" ">
<polygon fill="none" stroke="black" points="753,-151 753,-170 872,-170 872,-151 753,-151"/>
<text text-anchor="middle" x="812.5" y="-158" font-family="Helvetica,sans-Serif" font-size="10.00">tests/sem/src/main.cpp</text>
</a>
</g>
</g>
<!-- Node1&#45;&gt;Node13 -->
<g id="edge14" class="edge">
<title>Node1&#45;&gt;Node13</title>
<path fill="none" stroke="midnightblue" d="M576.47,-210.39C620.85,-201.31 686.38,-187.87 743.5,-176 752.73,-174.08 762.65,-172.01 772.01,-170.04"/>
<polygon fill="midnightblue" stroke="midnightblue" points="575.59,-207 566.5,-212.43 576.99,-213.85 575.59,-207"/>
</g>
<!-- Node2&#45;&gt;Node3 -->
<g id="edge2" class="edge">
<title>Node2&#45;&gt;Node3</title>
<path fill="none" stroke="midnightblue" d="M371.89,-138.67C385.37,-126.67 401.6,-112.22 411.74,-103.19"/>
<polygon fill="midnightblue" stroke="midnightblue" points="369.48,-136.13 364.34,-145.4 374.14,-141.36 369.48,-136.13"/>
</g>
<!-- Node4 -->
<g id="node4" class="node">
<title>Node4</title>
<g id="a_node4"><a xlink:href="samples_2hello__world_2src_2main_8cpp.html" target="_top" xlink:title=" ">
<polygon fill="none" stroke="black" points="0,-6 0,-36 105,-36 105,-6 0,-6"/>
<text text-anchor="start" x="8" y="-24" font-family="Helvetica,sans-Serif" font-size="10.00">samples/hello_world</text>
<text text-anchor="middle" x="52.5" y="-13" font-family="Helvetica,sans-Serif" font-size="10.00">/src/main.cpp</text>
</a>
</g>
</g>
<!-- Node3&#45;&gt;Node4 -->
<g id="edge3" class="edge">
<title>Node3&#45;&gt;Node4</title>
<path fill="none" stroke="midnightblue" d="M369.5,-86.46C307.86,-78.74 202.32,-63.7 113.5,-42 106.57,-40.31 99.29,-38.21 92.28,-36.02"/>
<polygon fill="midnightblue" stroke="midnightblue" points="369.39,-89.98 379.74,-87.73 370.25,-83.03 369.39,-89.98"/>
</g>
<!-- Node5 -->
<g id="node5" class="node">
<title>Node5</title>
<g id="a_node5"><a xlink:href="samples_2kernel_2condition__variables_2condvar_2src_2main_8cpp.html" target="_top" xlink:title=" ">
<polygon fill="none" stroke="black" points="123,-0.5 123,-41.5 248,-41.5 248,-0.5 123,-0.5"/>
<text text-anchor="start" x="131" y="-29.5" font-family="Helvetica,sans-Serif" font-size="10.00">samples/kernel/condition</text>
<text text-anchor="start" x="131" y="-18.5" font-family="Helvetica,sans-Serif" font-size="10.00">_variables/condvar/src</text>
<text text-anchor="middle" x="185.5" y="-7.5" font-family="Helvetica,sans-Serif" font-size="10.00">/main.cpp</text>
</a>
</g>
</g>
<!-- Node3&#45;&gt;Node5 -->
<g id="edge4" class="edge">
<title>Node3&#45;&gt;Node5</title>
<path fill="none" stroke="midnightblue" d="M383.27,-81.08C346.79,-70.18 291.15,-53.56 248.18,-40.72"/>
<polygon fill="midnightblue" stroke="midnightblue" points="382.45,-84.49 393.03,-84 384.45,-77.78 382.45,-84.49"/>
</g>
<!-- Node6 -->
<g id="node6" class="node">
<title>Node6</title>
<g id="a_node6"><a xlink:href="samples_2kernel_2condition__variables_2simple_2src_2main_8cpp.html" target="_top" xlink:title=" ">
<polygon fill="none" stroke="black" points="266,-6 266,-36 417,-36 417,-6 266,-6"/>
<text text-anchor="start" x="274" y="-24" font-family="Helvetica,sans-Serif" font-size="10.00">samples/kernel/condition</text>
<text text-anchor="middle" x="341.5" y="-13" font-family="Helvetica,sans-Serif" font-size="10.00">_variables/simple/src/main.cpp</text>
</a>
</g>
</g>
<!-- Node3&#45;&gt;Node6 -->
<g id="edge5" class="edge">
<title>Node3&#45;&gt;Node6</title>
<path fill="none" stroke="midnightblue" d="M403.84,-76.94C389.99,-64.73 370.87,-47.89 357.47,-36.08"/>
<polygon fill="midnightblue" stroke="midnightblue" points="401.87,-79.87 411.69,-83.86 406.5,-74.62 401.87,-79.87"/>
</g>
<!-- Node7 -->
<g id="node7" class="node">
<title>Node7</title>
<g id="a_node7"><a xlink:href="tests_2compile_2src_2main_8cpp.html" target="_top" xlink:title=" ">
<polygon fill="none" stroke="black" points="435.5,-11.5 435.5,-30.5 569.5,-30.5 569.5,-11.5 435.5,-11.5"/>
<text text-anchor="middle" x="502.5" y="-18.5" font-family="Helvetica,sans-Serif" font-size="10.00">tests/compile/src/main.cpp</text>
</a>
</g>
</g>
<!-- Node3&#45;&gt;Node7 -->
<g id="edge6" class="edge">
<title>Node3&#45;&gt;Node7</title>
<path fill="none" stroke="midnightblue" d="M439.21,-77.08C455.54,-62.87 479.21,-42.27 492.49,-30.72"/>
<polygon fill="midnightblue" stroke="midnightblue" points="436.68,-74.65 431.43,-83.86 441.27,-79.93 436.68,-74.65"/>
</g>
<!-- Node8 -->
<g id="node8" class="node">
<title>Node8</title>
<g id="a_node8"><a xlink:href="tests_2condition__variable_2src_2main_8cpp.html" target="_top" xlink:title=" ">
<polygon fill="none" stroke="black" points="588,-6 588,-36 707,-36 707,-6 588,-6"/>
<text text-anchor="start" x="596" y="-24" font-family="Helvetica,sans-Serif" font-size="10.00">tests/condition_variable</text>
<text text-anchor="middle" x="647.5" y="-13" font-family="Helvetica,sans-Serif" font-size="10.00">/src/main.cpp</text>
</a>
</g>
</g>
<!-- Node3&#45;&gt;Node8 -->
<g id="edge7" class="edge">
<title>Node3&#45;&gt;Node8</title>
<path fill="none" stroke="midnightblue" d="M458.51,-80.96C497.94,-68.65 560.38,-49.18 602.6,-36.01"/>
<polygon fill="midnightblue" stroke="midnightblue" points="457.26,-77.68 448.76,-84 459.35,-84.36 457.26,-77.68"/>
</g>
<!-- Node9 -->
<g id="node9" class="node">
<title>Node9</title>
<g id="a_node9"><a xlink:href="tests_2result_2src_2main_8cpp.html" target="_top" xlink:title=" ">
<polygon fill="none" stroke="black" points="725.5,-11.5 725.5,-30.5 849.5,-30.5 849.5,-11.5 725.5,-11.5"/>
<text text-anchor="middle" x="787.5" y="-18.5" font-family="Helvetica,sans-Serif" font-size="10.00">tests/result/src/main.cpp</text>
</a>
</g>
</g>
<!-- Node3&#45;&gt;Node9 -->
<g id="edge8" class="edge">
<title>Node3&#45;&gt;Node9</title>
<path fill="none" stroke="midnightblue" d="M458.92,-81.26C463.47,-80.07 468.08,-78.95 472.5,-78 579.67,-54.96 609.3,-64.91 716.5,-42 731.15,-38.87 747.24,-34.42 760.39,-30.52"/>
<polygon fill="midnightblue" stroke="midnightblue" points="457.85,-77.92 449.13,-83.94 459.7,-84.68 457.85,-77.92"/>
</g>
<!-- Node10&#45;&gt;Node3 -->
<g id="edge10" class="edge">
<title>Node10&#45;&gt;Node3</title>
<path fill="none" stroke="midnightblue" d="M501.95,-145.27C481.56,-132.4 452.21,-113.88 435.17,-103.13"/>
<polygon fill="midnightblue" stroke="midnightblue" points="500.28,-148.36 510.61,-150.73 504.02,-142.44 500.28,-148.36"/>
</g>
<!-- Node11 -->
<g id="node11" class="node">
<title>Node11</title>
<g id="a_node11"><a xlink:href="tests_2mem__slab_2src_2main_8cpp.html" target="_top" xlink:title=" ">
<polygon fill="none" stroke="black" points="481,-78.5 481,-108.5 584,-108.5 584,-78.5 481,-78.5"/>
<text text-anchor="start" x="489" y="-96.5" font-family="Helvetica,sans-Serif" font-size="10.00">tests/mem_slab/src</text>
<text text-anchor="middle" x="532.5" y="-85.5" font-family="Helvetica,sans-Serif" font-size="10.00">/main.cpp</text>
</a>
</g>
</g>
<!-- Node10&#45;&gt;Node11 -->
<g id="edge11" class="edge">
<title>Node10&#45;&gt;Node11</title>
<path fill="none" stroke="midnightblue" d="M526.81,-140.74C528.07,-130.49 529.61,-118 530.77,-108.59"/>
<polygon fill="midnightblue" stroke="midnightblue" points="523.33,-140.38 525.58,-150.73 530.27,-141.24 523.33,-140.38"/>
</g>
</g>
</svg>
